<?xml version="1.0"?>
<svg xmlns="http://www.w3.org/2000/svg" viewBox="627.6 633.85 211.6 341.41" width="211.6" height="341.41"><path fill="#92939A" d="M774.369 668.739C783.487 661.674 814.284 641.85 825.115 655.151C831.052 662.441 830.607 680.764 829.238 689.817C827.596 700.203 824.251 710.247 819.336 719.543C827.247 740.488 831.195 757.228 813.138 773.647C798.712 786.764 786.829 791.473 768.832 797.322C782.772 816.878 790.167 831.281 794.93 855.242C796.149 861.374 796.828 867.335 797.892 873.333C811.511 874.945 819.448 889.203 817.211 902.048C814.465 917.813 806.121 931.175 795.751 943.052C798.777 945.984 802.352 947.768 802.436 952.751C802.522 957.934 797.891 960.366 793.251 960.568C786.842 960.846 781.137 964.384 774.748 965.35C769.575 966.133 766.897 964.093 762.247 964.376C760.248 964.546 759.331 964.458 757.437 963.997C749.664 962.51 747.352 957.631 740.963 956.55C740.032 956.563 739.101 956.56 738.17 956.541L735.987 956.554C732.053 959.544 728.177 962.812 723.317 963.912C719.104 964.861 715.872 964.223 711.768 965.151C702.962 967.264 693.917 961.251 685.748 960.602C674.971 959.746 674.837 949.619 682.948 944.812C683.116 944.614 683.283 944.417 683.451 944.219C670.884 931.04 653.664 902.099 667.132 883.879C671.379 878.134 675.944 875.885 682.822 874.865C686.816 847.116 689.422 832.357 702.926 807.485C704.167 804.671 704.791 799.83 705.472 796.568C703.935 796.148 702.409 795.69 700.894 795.196C685.092 789.941 662.713 777.008 654.757 761.49C649.322 750.891 653.78 733.762 657.471 723.15C657.19 720.294 648.912 706.002 647.565 699.829C635.597 644.991 661.782 643.193 701.543 669.282L706.417 667.249C723.641 658.496 743.686 657.136 761.934 663.483C766.289 664.97 770.241 666.74 774.369 668.739Z"></path><path fill="#1E242D" d="M705.509 795.941C708.669 779.535 712.524 764.663 719.197 749.225C723.544 739.168 729.56 725.924 743.208 728.565C765.848 734.693 743.511 775.472 740.183 789.424C731.791 817.599 729.398 848.158 744.429 874.627C747.322 879.721 757.139 891.097 754.88 895.405C741.674 920.586 716.709 875.793 713.395 868.085C705.516 849.759 704.672 840.97 703.531 822.426C703.413 819.432 704.177 810.201 703.504 808.247L702.926 807.485C704.167 804.671 704.791 799.83 705.472 796.568L705.509 795.941Z"></path><path fill="#1E242D" d="M657.471 723.15C657.19 720.294 648.912 706.002 647.565 699.829C635.597 644.991 661.782 643.193 701.543 669.282L706.417 667.249L705.521 668.709C684.759 676.594 664.388 703.943 657.808 724.465L657.471 723.15Z"></path><path fill="#1E242D" d="M774.369 668.739C783.487 661.674 814.284 641.85 825.115 655.151C831.052 662.441 830.607 680.764 829.238 689.817C827.596 700.203 824.251 710.247 819.336 719.543L818.587 719.964C808.743 697.773 794.758 681.627 773.684 669.465L774.369 668.739Z"></path><path fill="#1E242D" d="M794.994 942.396L795.751 943.052C798.777 945.984 802.352 947.768 802.436 952.751C802.522 957.934 797.891 960.366 793.251 960.568C786.842 960.846 781.137 964.384 774.748 965.35C769.575 966.133 766.897 964.093 762.247 964.376C760.248 964.546 759.331 964.458 757.437 963.997L757.644 963.509L757.704 963.084C759.454 963.115 762.349 963.02 763.942 963.305C776.766 959.273 785.808 952.019 794.994 942.396Z"></path><path fill="#74767A" d="M757.704 963.084C759.454 963.115 762.349 963.02 763.942 963.305C762.051 963.95 759.639 963.645 757.644 963.509L757.704 963.084Z"></path><path fill="#1E242D" d="M683.945 943.507C691.258 950.926 706.058 963.245 717 963.656C717.836 963.688 719.509 963.594 720.425 963.554C721.228 963.185 721.311 963.24 722.313 963.077L722.433 963.414L723.317 963.912C719.104 964.861 715.872 964.223 711.768 965.151C702.962 967.264 693.917 961.251 685.748 960.602C674.971 959.746 674.837 949.619 682.948 944.812C683.116 944.614 683.283 944.417 683.451 944.219L683.945 943.507Z"></path><path fill="#323234" d="M818.587 719.964L819.336 719.543C827.247 740.488 831.195 757.228 813.138 773.647C798.712 786.764 786.829 791.473 768.832 797.322C782.772 816.878 790.167 831.281 794.93 855.242C796.149 861.374 796.828 867.335 797.892 873.333C811.511 874.945 819.448 889.203 817.211 902.048C814.465 917.813 806.121 931.175 795.751 943.052L794.994 942.396C804.909 931.487 814.327 916.463 816.19 901.568C816.353 901.105 816.353 901.182 816.351 900.703C817.031 890.088 814.847 885.211 807.059 878.19C806.466 877.751 806.322 877.641 805.66 877.308C805.391 876.964 805.405 876.902 805.035 876.721C799.642 874.135 795.44 874.938 793.878 873.741L793.07 874.138C794.045 873.436 794.925 873.377 796.159 873.065L796.578 871.779C796.36 871.123 796.218 870.849 796.167 870.169L795.837 867.008C795.675 866.561 795.689 866.614 795.651 866.137L795.543 863.64C795.42 863.32 795.297 863 795.174 862.679C794.489 850.596 786.413 827.532 780.543 817.093C779.935 816.624 779.982 816.497 779.622 815.69L779.26 814.952C778.723 814.218 778.564 813.942 778.092 813.134L777.854 812.661C776.125 810.813 775.787 809.651 774.579 807.65C773.319 804.994 769.662 800.11 767.706 797.808C765.35 798.192 763.736 798.547 761.328 798.481L761.082 798.033C761.739 797.574 768.776 796.397 770.859 795.783C788.921 790.462 804.281 782.273 816.986 768.055C818.047 767.224 818.606 766.318 819.374 765.221C830.499 751.38 822.952 734.292 818.587 719.964Z"></path><path fill="#64656B" d="M774.579 807.65C775.688 808.72 777.239 811.216 777.854 812.661C776.125 810.813 775.787 809.651 774.579 807.65Z"></path><path fill="#323234" d="M702.926 807.485L703.504 808.247C694.801 824.942 690.217 836.022 687.04 854.961C685.907 861.711 684.647 866.211 684.166 873.469L684.649 874.273C687.306 874.827 688.517 874.057 689.32 875.279C686.895 876.26 683.614 875.42 681.279 876.013C658.125 881.901 661.816 905.04 668.37 920.015C670.708 925.387 673.701 930.45 677.28 935.089C677.445 935.434 677.395 935.346 677.659 935.66C679.442 938.423 681.797 940.998 683.945 943.507L683.451 944.219C670.884 931.04 653.664 902.099 667.132 883.879C671.379 878.134 675.944 875.885 682.822 874.865C686.816 847.116 689.422 832.357 702.926 807.485Z"></path><path fill="#323234" d="M657.471 723.15L657.808 724.465C653.865 737.537 649.219 755.108 659.261 766.57C659.569 767.183 659.506 767.125 660.018 767.544C673.38 782.544 686.813 789.28 705.509 795.941L705.472 796.568C703.935 796.148 702.409 795.69 700.894 795.196C685.092 789.941 662.713 777.008 654.757 761.49C649.322 750.891 653.78 733.762 657.471 723.15Z"></path><path fill="#323234" d="M706.417 667.249C723.641 658.496 743.686 657.136 761.934 663.483C766.289 664.97 770.241 666.74 774.369 668.739L773.684 669.465C749.338 657.706 730.285 657.311 705.521 668.709L706.417 667.249Z"></path><path fill="#1E242D" d="M736.616 954.704C737.782 953.398 738.682 952.377 739.976 951.171C741.585 952.906 742.834 954.406 744.361 956.169C743.196 956.273 742.121 956.402 740.963 956.55C740.032 956.563 739.101 956.56 738.17 956.541L735.987 956.554L735.305 956.121C735.821 955.512 736.043 955.262 736.616 954.704Z"></path><path fill="#1B1F26" d="M736.616 954.704L738.17 956.541L735.987 956.554L735.305 956.121C735.821 955.512 736.043 955.262 736.616 954.704Z"></path><path fill="#323234" d="M744.361 956.169C749.797 958.982 750.305 961.457 757.704 963.084L757.644 963.509L757.437 963.997C749.664 962.51 747.352 957.631 740.963 956.55C742.121 956.402 743.196 956.273 744.361 956.169Z"></path><path fill="#323234" d="M735.305 956.121L735.987 956.554C732.053 959.544 728.177 962.812 723.317 963.912L722.433 963.414L722.313 963.077C726.02 962.449 731.069 959.838 733.41 957.106L733.382 957.073L733.324 957.053L733.36 956.97C733.878 956.575 734.705 956.336 735.305 956.121Z"></path><path fill="#74767A" d="M819.374 765.221C818.606 766.318 818.047 767.224 816.986 768.055C817.424 766.672 818.218 766.267 819.374 765.221Z"></path></svg>
