<?xml version="1.0"?>
<svg xmlns="http://www.w3.org/2000/svg" viewBox="535.57 83.37 350.62 225.66" width="350.62" height="225.66"><path fill="#92939A" d="M669.262 114.691C677.019 108.079 686.976 102.757 696.655 99.4894C707.366 95.8737 718.115 94.3017 721.669 108.075C726.447 126.591 721.999 143.659 713.035 160.131C740.517 152.099 763.32 129.542 791.268 127.059C810.012 125.393 827.68 133.83 841.591 145.947C848.469 152.645 854.274 161.348 856.398 170.813C857.632 172.964 863.724 178.12 866.005 180.734C876.84 193.149 878.197 210.704 874.663 226.225C865.172 267.904 822.115 297.437 780.853 300.3C770.257 301.036 757.767 295.987 760.98 283.154C763.544 273.02 776.466 270.897 785.07 269.181C796.569 266.833 807.882 263.821 817.713 257.302C812.914 256.161 806.446 257.07 801.507 257.202C793.101 257.428 758.528 258.696 752.72 255.21C749.208 253.102 748.051 249.17 747.187 245.424C742.787 245.643 738.433 246.052 734.003 246.281C729.169 246.836 720.712 245.843 716.194 247.429C708.102 250.27 704.134 252.972 695.191 253.574C678.238 255.072 660.538 254.27 643.68 255.998C631.636 257.233 616.931 268.303 611.244 249.231C612.162 244.806 612.804 243.909 615.17 240.21C610.668 238.844 607.646 238.595 602.503 236.77C596.724 250.33 585.209 254.095 575.216 242.078C564.671 240.541 555.419 235.258 562.79 223.3C564.149 221.095 566.066 219.43 567.37 217.223L566.844 215.789C562.997 214.081 557.265 207.582 555.367 203.622C549.276 190.905 553.282 175.394 557.385 162.83C554.121 157.968 551.54 152.682 549.714 147.118C546.021 136.035 543.573 116.534 549.012 106.069C556.648 91.3743 590.133 109.966 599.128 114.956C626.571 103.144 641.586 102.115 669.262 114.691Z"></path><path fill="#323234" d="M669.262 114.691C677.019 108.079 686.976 102.757 696.655 99.4894C707.366 95.8737 718.115 94.3017 721.669 108.075C726.447 126.591 721.999 143.659 713.035 160.131C740.517 152.099 763.32 129.542 791.268 127.059C810.012 125.393 827.68 133.83 841.591 145.947C848.469 152.645 854.274 161.348 856.398 170.813L855.478 171.013C854.25 167.413 853.276 164.474 851.692 161.025C851.467 160.147 851.495 160.06 850.899 159.458C850.367 158.379 849.793 157.548 849.14 156.548C847.638 155.159 847.418 154.487 846.228 152.749C844.487 150.878 842.777 148.977 841.1 147.047C839.788 146.385 837.729 144.261 836.57 143.166C836.172 142.639 836.177 142.696 835.584 142.31L832.413 140.062C831.826 139.683 831.787 139.663 831.143 139.392C830.839 139.145 830.688 139.105 830.536 138.761C785.112 110.037 755.331 145.761 713.765 161.031C723.588 183.21 721.73 198.242 702.772 213.691C700.237 215.757 697.81 218.033 695.056 219.866C682.531 220.899 671.631 224.045 659.47 226.814C649.593 229.063 637.577 229.314 628.177 232.751C619.095 236.072 608.983 244.065 614.533 254.627C615.648 250.98 615.91 250.117 618.995 247.924L619.587 248.161C619.248 250.826 615.887 251.419 616.074 255.939C619.368 263.759 636.492 255.895 641.048 255.351C658.793 253.233 679.056 254.569 696.69 252.312C697.043 252.149 697.16 252.186 697.592 252.163C708.245 251.403 712.223 246.452 718.429 245.799C726.153 244.986 738.049 245.227 747.062 244.377C753.031 229.118 762.32 232.186 775.427 229.325L776.065 229.18C774.774 227.088 773.83 225.617 772.783 223.369L773.73 223.416C775.086 225.56 776.203 227.748 777.511 229.842C767.173 232.432 743.3 231.522 749.4 250.03C750.752 247.072 751.38 245.037 754.275 243.361L755.151 243.457C754.086 246.357 749.788 248.663 751.008 252.395C751.488 253.862 753.001 254.649 754.358 255.127C761.256 257.555 808.023 256.172 818.896 256.181L817.713 257.302C812.914 256.161 806.446 257.07 801.507 257.202C793.101 257.428 758.528 258.696 752.72 255.21C749.208 253.102 748.051 249.17 747.187 245.424C742.787 245.643 738.433 246.052 734.003 246.281C729.169 246.836 720.712 245.843 716.194 247.429C708.102 250.27 704.134 252.972 695.191 253.574C678.238 255.072 660.538 254.27 643.68 255.998C631.636 257.233 616.931 268.303 611.244 249.231C612.162 244.806 612.804 243.909 615.17 240.21C610.668 238.844 607.646 238.595 602.503 236.77C596.724 250.33 585.209 254.095 575.216 242.078C564.671 240.541 555.419 235.258 562.79 223.3C564.149 221.095 566.066 219.43 567.37 217.223L566.844 215.789C562.997 214.081 557.265 207.582 555.367 203.622C549.276 190.905 553.282 175.394 557.385 162.83C554.121 157.968 551.54 152.682 549.714 147.118C546.021 136.035 543.573 116.534 549.012 106.069C556.648 91.3743 590.133 109.966 599.128 114.956C626.571 103.144 641.586 102.115 669.262 114.691Z"></path><path fill="#92939A" d="M591.587 121.166C598.561 115.99 608.112 111.52 616.474 109.269C639.726 103.011 656.357 108.584 676.36 120.018C689.815 129.558 700.157 138.677 708.936 153.101C723.561 181.313 723.193 199.047 695.455 217.983C693.605 219.246 684.691 219.785 682.082 220.206C664.211 224.915 647.065 227.887 628.956 231.255C623.776 232.218 618.735 238.306 615.224 239.264C613.615 238.637 608.922 237.687 606.672 236.983C599.951 234.88 595.143 232.763 588.931 229.696C580.997 225.373 574.027 221.074 567.043 215.288L566.155 214.389C564.31 212.955 563.685 212.412 562.124 210.669L560.643 209.142C560.193 208.75 560.246 208.852 559.981 208.37C556.207 204.358 554.864 200.753 553.835 195.533C553.685 195.129 553.691 195.129 553.658 194.704C553.43 190.397 553.482 187.255 553.64 182.927C553.808 182.354 553.784 182.337 553.838 181.698C554.545 172.549 558.508 162.483 562.543 154.341C569.751 141.479 579.735 129.923 591.587 121.166Z"></path><path fill="#C9C8C8" d="M606.973 196.838C613.155 193.496 623.246 190.515 629.949 188.419C638.726 185.676 657.951 188.703 665.647 193.331C666.47 194.865 666.309 194.026 665.794 195.983C665.71 197.016 665.82 197.136 666.069 198.182L666.426 197.764C667.998 199.443 669.179 200.431 670.029 202.563L669.787 203.306L669.343 203.242C669.264 205.037 669.274 205.261 669.533 207.038L669.898 207.181L669.825 206.747L671.391 206.364L669.92 206.536L670.413 206.857L671.318 206.156L671.481 206.532C670.12 207.62 669.764 209.541 670.643 211.045C671.522 212.549 673.371 213.181 674.987 212.529C677.834 213.154 677.684 212.974 679.766 215.757C680.372 216.567 681.945 219.323 682.082 220.206C664.211 224.915 647.065 227.887 628.956 231.255C623.776 232.218 618.735 238.306 615.224 239.264C613.615 238.637 608.922 237.687 606.672 236.983C599.951 234.88 595.143 232.763 588.931 229.696C592.054 224.016 593.694 222.44 599.188 219.025C601.408 217.645 601.303 217.011 601.72 214.867C601.568 213.633 601.494 212.847 601.437 211.613C604.11 206.083 602.183 203.567 605.419 200.944L605.839 201.522C605.509 200.432 606.056 199.269 607.107 198.828C607.536 198.648 608.011 198.607 608.464 198.711C607.949 197.978 607.546 197.751 606.973 196.838Z"></path><path fill="#1B1F26" d="M666.069 198.182C660.856 203.686 658.757 191.835 665.794 195.983C665.71 197.016 665.82 197.136 666.069 198.182Z"></path><path fill="#1B1F26" d="M608.464 198.711C609.517 198.952 610.245 199.915 610.188 200.995C610.132 202.074 609.308 202.956 608.235 203.086C607.163 203.216 606.152 202.557 605.839 201.522C605.509 200.432 606.056 199.269 607.107 198.828C607.536 198.648 608.011 198.607 608.464 198.711Z"></path><path fill="#1E242D" d="M633.367 190.122C646.616 189.568 647.843 198.615 637.515 204.782C627.925 205.416 618.731 193.215 633.367 190.122Z"></path><path fill="#1B1F26" d="M664.752 202.853C665.743 202.095 667.155 202.251 667.957 203.207C668.759 204.164 668.666 205.581 667.746 206.425C667.114 207.005 666.214 207.192 665.403 206.91C664.593 206.628 664.002 205.924 663.866 205.076C663.73 204.229 664.07 203.375 664.752 202.853Z"></path><path fill="#1B1F26" d="M604.958 206.308C606.019 205.649 607.413 205.978 608.067 207.043C608.72 208.107 608.384 209.5 607.316 210.148C606.256 210.791 604.876 210.457 604.227 209.401C603.578 208.344 603.905 206.962 604.958 206.308Z"></path><path fill="#1E242D" d="M671.481 206.532C672.556 205.672 674.035 205.52 675.262 206.143C676.49 206.766 677.24 208.049 677.181 209.424C677.122 210.8 676.264 212.014 674.987 212.529C673.371 213.181 671.522 212.549 670.643 211.045C669.764 209.541 670.12 207.62 671.481 206.532Z"></path><path fill="#1E242D" d="M601.72 214.867C593.345 221.011 591.399 206.413 601.437 211.613C601.494 212.847 601.568 213.633 601.72 214.867Z"></path><path fill="#BBBBBF" d="M607.107 198.828C606.114 197.836 605.377 197.632 606.973 196.838C607.546 197.751 607.949 197.978 608.464 198.711C608.011 198.607 607.536 198.648 607.107 198.828Z"></path><path fill="#84868A" d="M562.124 210.669C564.006 211.906 564.279 211.983 565.638 213.732L566.155 214.389C564.31 212.955 563.685 212.412 562.124 210.669Z"></path><path fill="#1E242D" d="M606.999 170.83C612.597 169.576 618.15 173.101 619.398 178.7C620.646 184.299 617.115 189.848 611.514 191.09C605.923 192.33 600.384 188.805 599.138 183.215C597.892 177.624 601.41 172.082 606.999 170.83Z"></path><path fill="#1E242D" d="M661.408 166.575C673.317 168.229 676.807 185.973 661.536 187.717C653.694 186.212 648.088 178.878 652.774 171.612C654.373 169.163 656.894 167.466 659.764 166.905L661.408 166.575Z"></path><path fill="#1B1F26" d="M681.685 198.845C682.815 198.236 684.188 198.294 685.262 198.997C686.336 199.7 686.938 200.935 686.832 202.214C686.726 203.493 685.929 204.612 684.754 205.128C683.034 205.884 681.025 205.148 680.201 203.46C679.377 201.773 680.032 199.736 681.685 198.845Z"></path><path fill="#1B1F26" d="M679.013 188.333C680.843 188.183 682.458 189.519 682.654 191.345C682.85 193.17 681.554 194.818 679.735 195.06C678.516 195.221 677.306 194.71 676.573 193.723C675.841 192.736 675.7 191.43 676.207 190.31C676.714 189.191 677.788 188.434 679.013 188.333Z"></path><path fill="#1E242D" d="M586.54 203.639C587.743 203.58 588.885 204.174 589.526 205.194C590.167 206.214 590.207 207.501 589.632 208.559C589.057 209.618 587.955 210.283 586.751 210.3C584.933 210.326 583.429 208.89 583.372 207.073C583.315 205.256 584.724 203.728 586.54 203.639Z"></path><path fill="#1E242D" d="M590.319 193.32C592.08 192.811 593.92 193.825 594.43 195.586C594.94 197.347 593.926 199.187 592.165 199.698C590.404 200.208 588.562 199.194 588.052 197.432C587.542 195.671 588.557 193.829 590.319 193.32Z"></path><path fill="#1E242D" d="M670.001 189.813C671.631 189.31 673.37 190.173 673.956 191.776C674.542 193.378 673.77 195.159 672.2 195.827C671.109 196.29 669.852 196.115 668.93 195.371C668.009 194.626 667.573 193.434 667.797 192.27C668.021 191.107 668.868 190.162 670.001 189.813Z"></path><path fill="#1E242D" d="M598.368 194.31C599.434 193.86 600.659 194.024 601.57 194.737C602.48 195.45 602.932 196.602 602.75 197.744C602.569 198.886 601.781 199.84 600.694 200.235C599.072 200.825 597.274 200.014 596.643 198.407C596.012 196.799 596.777 194.982 598.368 194.31Z"></path><path fill="#1E242D" d="M594.365 202.765C595.283 202.135 596.47 202.049 597.47 202.541C598.469 203.032 599.126 204.025 599.187 205.138C599.248 206.25 598.704 207.308 597.764 207.907C596.346 208.809 594.466 208.409 593.538 207.006C592.611 205.604 592.979 203.717 594.365 202.765Z"></path><path fill="#1B1F26" d="M673.174 198.253C674.149 197.802 675.295 197.929 676.148 198.585C677 199.24 677.418 200.314 677.233 201.373C677.047 202.433 676.289 203.301 675.265 203.628C673.811 204.091 672.248 203.344 671.695 201.923C671.142 200.501 671.789 198.894 673.174 198.253Z"></path><path fill="#1E242D" d="M676.909 119.813L677.686 119.492C679.35 118.791 682.453 116.263 684.219 115.228C691.294 111.079 710.058 103.833 714.353 114.802C716.577 120.481 717.112 127.576 715.958 133.498C715.698 139.311 708.836 150.212 709.271 152.685L708.936 153.101C700.157 138.677 689.815 129.558 676.36 120.018L676.909 119.813Z"></path><path fill="#1E242D" d="M561.178 154.659C557.376 148.004 554.442 142.806 553.382 135.003C552.368 129.808 552.062 116.377 557.612 113.156C566.8 107.824 583.108 115.386 590.503 120.494L591.587 121.166C579.735 129.923 569.751 141.479 562.543 154.341L561.178 154.659Z"></path><path fill="#1E242D" d="M566.844 215.789L567.043 215.288C574.027 221.074 580.997 225.373 588.931 229.696C595.143 232.763 599.951 234.88 606.672 236.983C608.922 237.687 613.615 238.637 615.224 239.264L615.17 240.21C610.668 238.844 607.646 238.595 602.503 236.77C596.724 250.33 585.209 254.095 575.216 242.078C564.671 240.541 555.419 235.258 562.79 223.3C564.149 221.095 566.066 219.43 567.37 217.223L566.844 215.789Z"></path><path fill="#92939A" d="M670.024 115.158C679.495 106.861 694.322 99.9571 706.869 98.0223C719.027 96.1475 721.6 107.895 722.112 117.694C721.993 118.578 721.985 128.607 722.103 129.305L721.823 132.687C721.795 133.158 721.814 133.084 721.641 133.522L721.295 135.663C721.281 136.096 721.286 136.106 721.159 136.524C719.433 144.529 717.073 151.309 712.693 158.325C711.594 156.062 711.027 154.497 709.271 152.685C708.836 150.212 715.698 139.311 715.958 133.498C717.112 127.576 716.577 120.481 714.353 114.802C710.058 103.833 691.294 111.079 684.219 115.228C682.453 116.263 679.35 118.791 677.686 119.492L676.909 119.813C675.214 117.746 672.406 116.472 670.024 115.158Z"></path><path fill="#92939A" d="M556.83 101.606L560.003 101.491C561.384 101.708 561.97 101.843 563.355 101.809C573.888 102.606 589.238 110.527 598.413 115.503C596.098 116.953 592.647 118.967 590.503 120.494C583.108 115.386 566.8 107.824 557.612 113.156C552.062 116.377 552.368 129.808 553.382 135.003C554.442 142.806 557.376 148.004 561.178 154.659C560.251 156.389 558.698 160.111 557.833 162.021C552.192 152.837 547.856 141.65 547.385 130.807C547.635 129.245 547.454 129.06 547.019 127.471C546.821 119.382 546.538 109.189 552.851 103.127C553.181 102.89 553.249 102.843 553.62 102.675L554.481 101.869C555.274 101.81 556.062 101.794 556.83 101.606Z"></path><path fill="#84868A" d="M722.112 117.694C722.743 118.753 722.735 128.293 722.103 129.305C721.985 128.607 721.993 118.578 722.112 117.694Z"></path><path fill="#74767A" d="M547.019 127.471C547.454 129.06 547.635 129.245 547.385 130.807C546.782 129.774 546.999 128.665 547.019 127.471Z"></path><path fill="#84868A" d="M560.003 101.491L560.966 101.481C561.892 101.433 562.532 101.323 563.355 101.809C561.97 101.843 561.384 101.708 560.003 101.491Z"></path><path fill="#74767A" d="M846.228 152.749C847.724 154.187 847.673 154.145 848.742 155.903L849.14 156.548C847.638 155.159 847.418 154.487 846.228 152.749Z"></path><path fill="#1E242D" d="M856.398 170.813C857.632 172.964 863.724 178.12 866.005 180.734C876.84 193.149 878.197 210.704 874.663 226.225C865.172 267.904 822.115 297.437 780.853 300.3C770.257 301.036 757.767 295.987 760.98 283.154C763.544 273.02 776.466 270.897 785.07 269.181C796.569 266.833 807.882 263.821 817.713 257.302L818.896 256.181C829.499 252.177 841.621 236.426 847.201 226.781C856.099 211.403 860.321 188.277 855.478 171.013L856.398 170.813Z"></path><path fill="#323234" d="M772.783 223.369C763.289 201.42 779.54 181.559 799.159 173.028C803.401 171.183 816.459 167.292 820.249 169.981L819.945 170.479C813.763 170.786 809.972 170.433 803.865 172.395C782.305 179.324 764.109 200.254 773.73 223.416L772.783 223.369Z"></path></svg>
