<?xml version="1.0"?>
<svg xmlns="http://www.w3.org/2000/svg" viewBox="491.91 349.65 474.64 217.33" width="474.64" height="217.33"><path fill="#323234" d="M617.629 393.605C622.594 384.879 641.888 357.652 654.255 362.18C669.16 367.637 679.204 403.977 674.541 417.88C680.679 423.981 686.974 431.316 690.768 439.156C696.72 451.455 693.272 460.127 689.038 471.904C710.15 474.822 730.662 474.859 751.784 470.329C759.121 468.369 765.704 464.542 773.287 463.348C804.721 458.396 826.392 478.17 831.966 508.034L831.051 508.4C831.406 517.223 831.134 522.593 828.991 531.142L829.681 531.993L829.407 532.712C826.583 540.277 828.364 552.287 818.708 555.975C813.712 557.883 800.325 557.218 794.649 556.944C776.543 556.071 759.222 557.482 741.223 558.61C735.335 558.979 731.76 557.877 727.254 553.899C725.88 550.367 725.796 549.994 725.206 546.174C719.642 546.774 716.53 546.966 710.907 547.013C699.122 557.406 696.157 556.061 680.789 555.907C669.483 556.743 653.111 556.244 641.638 555.859C627.021 556.726 611.761 555.604 596.964 557.689C592.985 558.25 586.406 554.758 585.192 550.572C583.818 545.832 584.991 543.12 587.021 538.888C586.774 537.119 586.314 535.785 586.052 534.069C549.104 528.981 536.823 521.719 534.91 483.007C527.104 477.527 520.486 470.527 515.452 462.427C510.663 454.61 499.908 430.817 512.462 425.073C522.289 420.578 543.185 418.995 553.637 422.396C570.819 399.915 590.225 392.983 617.629 393.605Z"></path><path fill="#92939A" d="M688.61 472.855C711.886 476.078 739.967 476.277 762.088 467.634C784.242 458.979 803.586 463.105 819.359 480.933C819.622 481.128 819.63 481.217 819.809 481.53C826.794 489.606 829.31 497.986 831.051 508.4C831.406 517.223 831.134 522.593 828.991 531.142L829.681 531.993L829.407 532.712C826.583 540.277 828.364 552.287 818.708 555.975C813.712 557.883 800.325 557.218 794.649 556.944C776.543 556.071 759.222 557.482 741.223 558.61C735.335 558.979 731.76 557.877 727.254 553.899C725.88 550.367 725.796 549.994 725.206 546.174C719.642 546.774 716.53 546.966 710.907 547.013C699.122 557.406 696.157 556.061 680.789 555.907C669.483 556.743 653.111 556.244 641.638 555.859C627.021 556.726 611.761 555.604 596.964 557.689C592.985 558.25 586.406 554.758 585.192 550.572C583.818 545.832 584.991 543.12 587.021 538.888C588.636 537.277 589.222 536.872 591.299 535.87L591.698 535.857L592.235 536.136C597.117 533.801 607.894 533.651 614.206 532.52C627.512 530.137 641.372 528.152 654.141 523.425C656.599 522.515 666.443 518.127 667.349 516.098C665.435 516.144 661.039 519.229 658.854 520.272C654.723 522.241 651.553 523.309 647.194 524.627L654.438 519.162C655.38 518.797 655.333 518.714 656.081 517.879C671.703 505.318 680.282 490.626 688.61 472.855Z"></path><path fill="#323234" d="M754.066 532.617C739.426 517.322 744.502 499.261 758.441 485.647C762.359 481.82 770.578 475.574 776.103 475.32L776.816 475.633C774.284 477.029 771.624 477.715 768.988 479.07C749.911 488.868 735.584 517.657 757.014 533.553C751.352 533.655 745.796 533.838 740.14 534.054C733.497 534.309 724.064 541.135 726.303 548.459L726.799 548.62L727.082 547.833C728.201 544.783 728.495 543.275 731.686 542.064L732.127 542.437C729.419 546.25 724.302 551.837 731.169 555.478L731.877 555.045C732.598 551.835 732.745 548.357 736.109 547.103L736.495 547.548C734.058 550.561 730.94 553.619 734.821 557.307C738.855 557.098 745.575 556.875 749.518 557.027C771.522 555.277 793.587 556.787 815.553 555.747C818.67 555.599 822.187 552.783 823.854 550.164C828.738 542.49 826.479 534.853 824.705 526.69L825.114 526.43C826.038 527.729 826.442 531.044 827.514 533.331L828.073 533.237L828.991 531.142L829.681 531.993L829.407 532.712C826.583 540.277 828.364 552.287 818.708 555.975C813.712 557.883 800.325 557.218 794.649 556.944C776.543 556.071 759.222 557.482 741.223 558.61C735.335 558.979 731.76 557.877 727.254 553.899C725.88 550.367 725.796 549.994 725.206 546.174C719.642 546.774 716.53 546.966 710.907 547.013C699.122 557.406 696.157 556.061 680.789 555.907C677.767 555.031 672.097 555.262 668.771 555.282C680.703 554.372 694.655 557.675 704.019 551.297C704.416 551.064 704.352 551.115 704.675 550.821L705.843 549.864C706.621 549.469 706.566 549.574 707.036 548.952C717.707 539.842 714.304 523.48 705.539 514.545C704.38 513.364 701.934 511.236 701.449 509.798C702.888 509.884 705.861 513.326 706.969 514.549C715.231 523.664 717.545 535.291 710.938 546.13C716.658 546.045 719.131 546.023 724.762 545.112C730.638 531.15 741.19 532.504 754.066 532.617Z"></path><path fill="#64656B" d="M734.821 557.307C738.855 557.098 745.575 556.875 749.518 557.027C746.082 557.634 738.3 557.639 734.821 557.307Z"></path><path fill="#323234" d="M591.299 535.87L590.782 537.373C590.03 537.714 589.68 537.955 588.977 538.399C585.427 542.674 584.448 546.163 586.967 551.233C588.094 552.737 587.805 552.872 589.293 553.403C590.306 552.234 590.148 550.463 590.261 548.794C591.936 546.278 592.505 545.18 594.979 543.317C594.527 547.208 585.701 553.042 593.903 556.768C595.066 556.74 596.229 556.706 597.391 556.665C603.184 556.071 648.961 553.667 652.454 555.102C650.428 555.134 643.04 554.951 641.638 555.859C627.021 556.726 611.761 555.604 596.964 557.689C592.985 558.25 586.406 554.758 585.192 550.572C583.818 545.832 584.991 543.12 587.021 538.888C588.636 537.277 589.222 536.872 591.299 535.87Z"></path><path fill="#74767A" d="M593.903 556.768C595.066 556.74 596.229 556.706 597.391 556.665C596.198 557.276 595.244 556.973 593.903 556.768Z"></path><path fill="#C9C8C8" d="M586.052 534.069C588.342 534.023 596.739 532.804 591.698 535.857L591.299 535.87C589.222 536.872 588.636 537.277 587.021 538.888C586.774 537.119 586.314 535.785 586.052 534.069Z"></path><path fill="#64656B" d="M654.438 519.162C655.09 518.298 655.135 518.288 656.081 517.879C655.333 518.714 655.38 518.797 654.438 519.162Z"></path><path fill="#92939A" d="M649.259 362.603C650.983 362.486 651.88 362.469 653.606 362.643L656.266 364.088C658.505 365.595 659.844 366.944 661.392 369.153C668.706 377.891 673.377 391.441 674.125 402.704C674.716 403.541 674.568 403.74 674.388 404.823C674.431 407.574 674.541 410.45 674.381 413.185C674.527 414.521 674.427 414.574 674.086 415.938L674.018 416.219L673.811 416.63C672.421 416.524 668.593 413.28 667.148 412.197L665.905 412.637C669.608 415.478 675.028 419.439 677.887 422.939C678.164 423.122 678.158 423.171 678.361 423.472C679.258 424.495 680.576 425.915 681.385 426.947C681.712 427.175 681.652 427.152 681.899 427.472C683.096 429.041 684.465 430.745 685.562 432.362C685.831 432.636 685.764 432.572 685.959 432.939C699.422 452.584 690.526 468.936 679.888 487.87C671.5 501.909 654.901 522.936 638.506 526.734C622.175 530.517 604.152 533.995 587.458 533.023C574.457 532.444 554.191 527.631 545.179 517.674C544.921 517.418 544.903 517.416 544.728 517.097C538.75 509.995 536.551 495.938 536.302 487C536.033 486.364 536.073 486.386 536.168 485.695C535.705 481.725 535.97 477.975 536.132 473.993L535.19 473.89L534.867 481.696C530.596 478.846 528.493 476.794 525.049 473.076C523.889 472.26 522.881 470.793 522.041 469.654C515.35 464.045 510.232 449.943 508.215 441.462C504.102 424.174 517.927 423.124 532.615 421.828C533.664 421.231 534.788 421.464 535.999 421.493L539.15 421.666C539.659 421.607 539.616 421.608 540.09 421.797C544.935 421.792 548.481 421.954 553.264 422.927C551.816 425.126 549.018 429.165 548.095 431.515L548.856 431.772C552.927 425.961 553.695 423.243 558.881 417.637C559.213 417.216 559.166 417.233 559.597 416.928C560.607 415.641 562.203 414.191 563.417 413.016C564.427 411.63 566.447 410.031 567.827 409.012C574.867 401.601 592.869 395.495 603.126 394.86C604.275 394.123 606.489 394.522 608.01 394.585L611.987 394.531L612.956 394.522C614.181 394.5 614.842 394.298 615.876 394.864C619.418 395.057 622.457 395.285 625.981 395.678L626.03 394.671C623.53 394.457 621.704 394.413 619.283 393.691L619.302 392.673C619.541 392.152 619.658 391.779 619.984 391.359C625.513 380.972 638.048 367.155 649.259 362.603Z"></path><path fill="#C9C8C8" d="M597.061 496.449L596.276 496.434C596.498 494.858 598.57 492.351 599.229 490.911C608.231 471.242 624.996 466.174 645.253 470.188C647.069 470.548 651.094 469.533 653.393 470.28C656.624 471.331 653.607 472.621 655.716 475.697C657.697 476.61 657.558 476.188 660.186 475.771L660.484 476.554C661.639 476.071 662.965 476.248 663.953 477.017C664.941 477.786 665.438 479.027 665.253 480.266C665.068 481.504 664.229 482.546 663.06 482.993C667.241 483.881 675.104 486.6 679.888 487.87C671.5 501.909 654.901 522.936 638.506 526.734C622.175 530.517 604.152 533.995 587.458 533.023C591.173 527.981 594.012 522.351 595.857 516.366C597.413 515.308 597.837 513.2 596.812 511.622C596.29 510.819 595.458 510.268 594.515 510.101C594.575 509.542 594.664 509.115 594.637 508.561L595.109 500.393C594.322 499.717 594.093 498.593 594.553 497.663C595.013 496.733 596.046 496.233 597.061 496.449Z"></path><path fill="#1E242D" d="M660.484 476.554C661.639 476.071 662.965 476.248 663.953 477.017C664.941 477.786 665.438 479.027 665.253 480.266C665.068 481.504 664.229 482.546 663.06 482.993C661.29 483.668 659.307 482.799 658.603 481.041C657.9 479.283 658.737 477.286 660.484 476.554Z"></path><path fill="#1E242D" d="M595.845 505.406C596.13 504.163 597.274 503.311 598.547 503.393C599.819 503.476 600.844 504.469 600.966 505.738C601.088 507.008 600.272 508.178 599.038 508.502C598.158 508.733 597.222 508.487 596.569 507.854C595.916 507.221 595.641 506.293 595.845 505.406Z"></path><path fill="#1E242D" d="M597.061 496.449C597.988 496.646 598.695 497.399 598.834 498.336C598.973 499.274 598.515 500.199 597.686 500.657C596.856 501.115 595.829 501.01 595.109 500.393C594.322 499.717 594.093 498.593 594.553 497.663C595.013 496.733 596.046 496.233 597.061 496.449Z"></path><path fill="#BBBBBF" d="M594.637 508.561C595.583 507.126 595.688 507.155 595.845 505.406C595.641 506.293 595.916 507.221 596.569 507.854C597.222 508.487 598.158 508.733 599.038 508.502C597.344 508.953 597.34 510.069 596.812 511.622C596.29 510.819 595.458 510.268 594.515 510.101C594.575 509.542 594.664 509.115 594.637 508.561Z"></path><path fill="#1E242D" d="M623.39 474.572C627.709 474.429 630.131 476.28 629.784 480.748C629.167 488.69 626.067 490.854 619.158 490.431C605.308 485.012 612.698 477.101 623.39 474.572Z"></path><path fill="#1B1F26" d="M646.503 471.112C647.802 470.59 649.279 471.21 649.815 472.504C650.352 473.797 649.747 475.281 648.459 475.831C647.614 476.192 646.64 476.071 645.909 475.514C645.177 474.957 644.802 474.051 644.925 473.14C645.048 472.229 645.65 471.455 646.503 471.112Z"></path><path fill="#1B1F26" d="M650.748 476.747L651.249 476.795C654.713 477.099 656.185 478.056 654.581 481.433C650.54 481.498 649.589 480.578 650.748 476.747Z"></path><path fill="#1E242D" d="M649.259 362.603C650.983 362.486 651.88 362.469 653.606 362.643L656.266 364.088C658.505 365.595 659.844 366.944 661.392 369.153C668.706 377.891 673.377 391.441 674.125 402.704C674.716 403.541 674.568 403.74 674.388 404.823C674.431 407.574 674.541 410.45 674.381 413.185C674.527 414.521 674.427 414.574 674.086 415.938L674.018 416.219L673.811 416.63C672.421 416.524 668.593 413.28 667.148 412.197L665.905 412.637C652.513 403.512 641.76 399.101 625.981 395.678L626.03 394.671C623.53 394.457 621.704 394.413 619.283 393.691L619.302 392.673C619.541 392.152 619.658 391.779 619.984 391.359C625.513 380.972 638.048 367.155 649.259 362.603Z"></path><path fill="#92939A" d="M649.259 362.603C650.983 362.486 651.88 362.469 653.606 362.643L656.266 364.088C658.505 365.595 659.844 366.944 661.392 369.153C668.706 377.891 673.377 391.441 674.125 402.704C674.716 403.541 674.568 403.74 674.388 404.823C674.431 407.574 674.541 410.45 674.381 413.185C674.527 414.521 674.427 414.574 674.086 415.938L674.018 416.219L673.811 416.63C672.421 416.524 668.593 413.28 667.148 412.197C667.46 403.099 667.795 393.895 664.282 385.194C654.345 360.577 632.675 378.407 626.03 394.671C623.53 394.457 621.704 394.413 619.283 393.691L619.302 392.673C619.541 392.152 619.658 391.779 619.984 391.359C625.513 380.972 638.048 367.155 649.259 362.603Z"></path><path fill="#84868A" d="M656.266 364.088C658.505 365.595 659.844 366.944 661.392 369.153C659.595 367.748 657.751 365.83 656.266 364.088Z"></path><path fill="#84868A" d="M649.259 362.603C650.983 362.486 651.88 362.469 653.606 362.643C651.688 362.764 651.184 362.755 649.259 362.603Z"></path><path fill="#74767A" d="M674.125 402.704C674.716 403.541 674.568 403.74 674.388 404.823C674.051 403.901 674.093 403.707 674.125 402.704Z"></path><path fill="#74767A" d="M674.381 413.185C674.527 414.521 674.427 414.574 674.086 415.938L674.018 416.219C674.05 415.188 673.931 414.137 674.381 413.185Z"></path><path fill="#1E242D" d="M532.615 421.828C533.664 421.231 534.788 421.464 535.999 421.493L539.15 421.666C539.659 421.607 539.616 421.608 540.09 421.797C544.935 421.792 548.481 421.954 553.264 422.927C551.816 425.126 549.018 429.165 548.095 431.515L548.856 431.772C543.924 440.777 539.882 452.182 537.872 462.244L537.391 464.744C536.8 467.903 536.686 471.011 536.132 473.993L535.19 473.89L534.867 481.696C530.596 478.846 528.493 476.794 525.049 473.076C523.889 472.26 522.881 470.793 522.041 469.654C515.35 464.045 510.232 449.943 508.215 441.462C504.102 424.174 517.927 423.124 532.615 421.828Z"></path><path fill="#92939A" d="M532.615 421.828C533.664 421.231 534.788 421.464 535.999 421.493L539.15 421.666C539.659 421.607 539.616 421.608 540.09 421.797C544.935 421.792 548.481 421.954 553.264 422.927C551.816 425.126 549.018 429.165 548.095 431.515C538.286 429.684 529.967 430.024 520.953 434.882C518.146 436.395 517.368 438.473 516.164 441.184C516.869 453.607 524.729 467.139 535.19 473.89L534.867 481.696C530.596 478.846 528.493 476.794 525.049 473.076C523.889 472.26 522.881 470.793 522.041 469.654C515.35 464.045 510.232 449.943 508.215 441.462C504.102 424.174 517.927 423.124 532.615 421.828Z"></path><path fill="#84868A" d="M522.041 469.654C523.226 470.535 524.818 471.62 525.049 473.076C523.889 472.26 522.881 470.793 522.041 469.654Z"></path><path fill="#84868A" d="M532.615 421.828C533.664 421.231 534.788 421.464 535.999 421.493C534.753 421.703 533.866 421.942 532.615 421.828Z"></path><path fill="#1E242D" d="M594.515 510.101C595.458 510.268 596.29 510.819 596.812 511.622C597.837 513.2 597.413 515.308 595.857 516.366C594.567 517.244 592.849 517.149 591.664 516.135C590.478 515.121 590.118 513.439 590.784 512.029C591.451 510.618 592.979 509.828 594.515 510.101Z"></path><path fill="#84868A" d="M563.417 413.016C564.427 411.63 566.447 410.031 567.827 409.012C566.927 410.21 564.846 412.703 563.417 413.016Z"></path><path fill="#84868A" d="M603.126 394.86C604.275 394.123 606.489 394.522 608.01 394.585C606.404 394.773 604.708 395.07 603.126 394.86Z"></path><path fill="#74767A" d="M611.987 394.531L612.956 394.522C614.181 394.5 614.842 394.298 615.876 394.864C614.174 395.065 613.729 394.864 611.987 394.531Z"></path><path fill="#74767A" d="M536.168 485.695C536.488 486.229 536.39 486.261 536.302 487C536.033 486.364 536.073 486.386 536.168 485.695Z"></path><path fill="#1E242D" d="M587.376 468.82C592.809 467.283 598.465 470.406 600.06 475.821C601.655 481.237 598.594 486.927 593.196 488.579C589.652 489.665 585.799 488.762 583.105 486.217C580.412 483.671 579.294 479.874 580.177 476.275C581.061 472.676 583.81 469.829 587.376 468.82Z"></path><path fill="#1E242D" d="M632.56 444.549C646.55 443.631 650.045 458.403 638.109 464.905C626.333 466.886 618.93 451.359 632.56 444.549Z"></path><path fill="#1E242D" d="M578.327 498.715C580.023 497.764 582.17 498.377 583.107 500.082C584.043 501.786 583.411 503.927 581.699 504.849C580.008 505.76 577.898 505.137 576.973 503.453C576.047 501.77 576.652 499.655 578.327 498.715Z"></path><path fill="#1E242D" d="M577.923 508.838C582.366 509.177 584.475 511.905 582.151 515.971C577.037 515.418 574.68 513.809 577.923 508.838Z"></path><path fill="#1E242D" d="M657.367 458.747C658.462 458.178 659.78 458.256 660.801 458.949C661.821 459.641 662.38 460.838 662.256 462.065C662.131 463.293 661.344 464.353 660.206 464.827C658.544 465.519 656.633 464.778 655.872 463.147C655.11 461.517 655.77 459.576 657.367 458.747Z"></path><path fill="#1E242D" d="M665.742 466.298C667.316 465.385 669.331 465.893 670.284 467.443C671.237 468.993 670.781 471.02 669.256 472.012C668.234 472.677 666.932 472.735 665.855 472.165C664.778 471.594 664.095 470.483 664.072 469.265C664.048 468.046 664.688 466.91 665.742 466.298Z"></path><path fill="#1E242D" d="M586.679 504.128C588.355 503.666 590.101 504.595 590.653 506.244C591.205 507.893 590.37 509.686 588.753 510.325C587.627 510.771 586.347 510.558 585.426 509.772C584.505 508.986 584.093 507.756 584.355 506.573C584.618 505.391 585.512 504.451 586.679 504.128Z"></path><path fill="#1E242D" d="M587.554 495.722C588.634 495.458 589.773 495.801 590.527 496.617C591.282 497.434 591.534 498.595 591.186 499.651C590.837 500.707 589.944 501.491 588.852 501.699C587.222 502.009 585.643 500.963 585.291 499.342C584.939 497.721 585.943 496.115 587.554 495.722Z"></path><path fill="#1E242D" d="M657.51 469.16C658.486 468.716 659.627 468.838 660.487 469.479C661.347 470.121 661.79 471.179 661.643 472.242C661.496 473.304 660.782 474.202 659.78 474.586C658.295 475.154 656.628 474.44 656.015 472.973C655.401 471.507 656.063 469.819 657.51 469.16Z"></path><path fill="#1E242D" d="M651.065 463.402C652.541 462.93 654.129 463.688 654.69 465.133C655.251 466.577 654.592 468.209 653.184 468.857C652.194 469.313 651.033 469.182 650.169 468.517C649.306 467.852 648.882 466.762 649.07 465.689C649.258 464.615 650.027 463.734 651.065 463.402Z"></path><path fill="#1E242D" d="M831.966 508.034C849.252 519.129 865.459 525.946 886.448 521.453C895.366 519.544 903.612 515.965 910.431 509.813C913.654 506.879 916.561 503.617 919.107 500.08C925.003 491.93 933.661 474.124 946.915 482.529C958.55 489.907 949.051 508.428 942.907 516.499C917.857 548.559 875.567 557.345 839.957 537.73C838.032 536.67 831.165 532.184 829.681 531.993L828.991 531.142C831.134 522.593 831.406 517.223 831.051 508.4L831.966 508.034Z"></path></svg>
