<?xml version="1.0"?>
<svg xmlns="http://www.w3.org/2000/svg" viewBox="113.21 323.25 314.2 343.86" width="314.2" height="343.86"><path fill="#323234" d="M287.571 361.956C295.324 350.3 306.422 338.351 320.357 334.449C322.901 333.736 327.043 334.449 328.958 336.255C343.135 349.624 346.2 373.36 343.668 391.307C351.741 400.54 356.123 409.661 358.942 421.515C364.719 415.456 369.007 409.276 373.703 402.39C379.465 393.94 383.191 384.269 391.789 378.197C397.86 373.91 406.66 370.682 412.805 376.713C415.535 379.443 417 383.189 416.847 387.047C416.45 398.306 405.208 396.916 401.374 402.643C396.376 410.111 393.705 422.159 389.377 430.329C376.42 456.798 355.539 493.429 334.324 513.361C335.116 541.781 320.09 559.327 296.173 572.946C294.818 585.414 293.529 597.888 292.304 610.369C291.51 618.297 290.817 627.572 289.205 635.217C293.688 636.038 299.614 637.314 301.903 641.388C311.244 658.012 276.89 658.419 271.311 649.231C266.514 641.331 261.234 596.574 257.522 592.474C255.979 592.889 255.802 592.913 254.397 593.637C252.399 600.979 245.347 607.92 240.293 613.352C240.577 615.746 240.933 618.131 241.358 620.504C241.703 622.904 242.14 624.316 242.837 626.59C243.5 626.79 245.93 627.626 246.495 627.644C252.56 627.958 260.224 638.224 253.363 642.214C249.169 644.652 236.237 643.68 231.255 642.453C222.154 640.21 220.617 623.16 217.892 615.504C217.186 613.521 217.811 613.166 216.425 611.026C215.225 612.664 208.835 618.719 206.485 621.54C207.164 626.621 207.851 631.329 208.085 636.468C213.392 637.688 220.617 640.18 220.271 647.269C219.601 659.111 193.07 656.154 188.902 649.488C186.059 644.942 182.83 629.943 180.953 623.977C179.362 618.92 177.064 610.478 177.506 605.311C177.881 600.931 183.888 594.614 183.859 589.718C183.602 579.32 181.647 569.985 183.686 559.546L184.299 560.461C185.344 553.196 186.743 549.428 189.15 542.53L188.45 541.15C192.875 532.877 197.232 526.82 205.009 521.307C214.534 514.556 225.672 513.336 235.977 508.345C243.946 504.485 251.045 498.731 257.86 493.12C243.793 490.563 227.477 486.141 216.52 476.201C207.653 468.155 206.203 452.863 206.642 441.462C195.264 432.654 167.618 385.131 196.613 381.823C207.484 380.583 217.564 381.602 227.809 385.432C240.987 370.522 252.222 363.296 272.735 361.577C276.836 361.233 283.531 361.316 287.571 361.956Z"></path><path fill="#92939A" d="M222.673 394.093C242.394 364.657 264.93 358.324 298.562 364.964C299.269 365.18 299.79 365.305 300.501 365.504C312.6 368.904 323.023 374.575 332.737 382.534C333.325 383.016 333.34 383.024 333.966 383.352C337.955 386.963 342.099 390.627 345.351 394.931C345.641 395.177 345.679 395.266 345.905 395.566L346.797 396.882C347.597 398.445 348.737 400.467 350.059 401.627C360.485 419.823 360.972 428.776 349.946 447.135C345.304 455.052 341.23 460.299 334.666 466.876C333.091 468.454 329.048 472.049 327.88 473.458L327.111 473.955C323.772 476.133 320.319 479.251 316.931 481.293C298.231 492.397 276.046 496.085 254.759 491.628C254.026 491.477 253.296 491.315 252.568 491.141C245.951 490.239 238.169 487.229 232.061 484.674C230.312 484.206 228.016 482.935 226.502 481.926C215.187 475.933 209.682 468.445 208.342 455.421C208.073 454.852 208.123 454.855 208.189 454.197C207.102 445.291 208.074 437.114 209.29 428.345C209.352 428.132 209.415 427.919 209.477 427.707C211.514 416.517 215.97 405.879 221.655 396.068C222.017 395.443 222.415 394.799 222.673 394.093Z"></path><path fill="#C9C8C8" d="M263.699 453.894L263.585 453.483C264.781 450.509 266.095 449.403 267.735 446.924C278.285 430.973 295.61 426.967 314.017 432.613C314.8 432.458 315.605 432.736 316.126 433.34C316.647 433.945 316.803 434.782 316.535 435.533L317.633 435.176L317.575 433.903C316.525 433.067 315.62 432.382 314.531 431.597C314.531 431.574 314.53 431.55 314.53 431.527L314.526 431.432C317.29 430.284 316.941 432.813 320.82 430.785L321.706 430.853C320.059 434.019 321.503 435.308 321.752 438.531C322.711 450.967 340.795 444.525 349.946 447.135C345.304 455.052 341.23 460.299 334.666 466.876C333.091 468.454 329.048 472.049 327.88 473.458L327.111 473.955C323.772 476.133 320.319 479.251 316.931 481.293C298.231 492.397 276.046 496.085 254.759 491.628C254.026 491.477 253.296 491.315 252.568 491.141C255.039 487.078 256.644 477.48 261.019 475.412C262.495 475.196 263.623 473.985 263.735 472.498C263.847 471.01 262.913 469.644 261.486 469.209C261.014 466.26 260.061 461.405 261.438 458.998C261.756 456.862 261.775 456.324 263.149 454.599L263.699 453.894Z"></path><path fill="#1E242D" d="M263.699 453.894C265.392 455.144 267.907 457.208 265.727 459.435C265.346 459.831 264.818 460.049 264.269 460.038C263.255 460.023 262.326 459.407 261.438 458.998C261.756 456.862 261.775 456.324 263.149 454.599L263.699 453.894Z"></path><path fill="#1E242D" d="M314.017 432.613C314.8 432.458 315.605 432.736 316.126 433.34C316.647 433.945 316.803 434.782 316.535 435.533C316.175 436.543 315.144 437.15 314.086 436.976C313.028 436.801 312.247 435.895 312.23 434.823C312.213 433.751 312.966 432.821 314.017 432.613Z"></path><path fill="#1E242D" d="M288.871 436.02C293.126 435.814 296.198 436.593 296.002 441.497C295.732 448.283 292.398 451.683 286.008 451.304C272.847 446.339 277.578 439.331 288.871 436.02Z"></path><path fill="#1B1F26" d="M265.052 462.393C266.387 462.12 267.694 462.969 267.987 464.3C268.279 465.631 267.45 466.951 266.123 467.263C265.247 467.47 264.328 467.188 263.718 466.527C263.108 465.866 262.902 464.927 263.178 464.07C263.454 463.214 264.17 462.573 265.052 462.393Z"></path><path fill="#1B1F26" d="M316.972 438.867C317.635 438.295 318.562 438.141 319.375 438.468C320.187 438.796 320.748 439.55 320.828 440.422C320.908 441.294 320.494 442.138 319.755 442.608C318.721 443.265 317.356 443.013 316.625 442.031C315.894 441.048 316.046 439.668 316.972 438.867Z"></path><path fill="#1B1F26" d="M261.486 469.209C262.913 469.644 263.847 471.01 263.735 472.498C263.623 473.985 262.495 475.196 261.019 475.412C259.724 475.602 258.445 474.982 257.793 473.848C257.14 472.713 257.247 471.296 258.062 470.272C258.877 469.248 260.235 468.827 261.486 469.209Z"></path><path fill="#1E242D" d="M317.598 426.135C318.427 425.502 319.537 425.376 320.487 425.807C321.436 426.237 322.073 427.155 322.142 428.196C322.212 429.237 321.704 430.232 320.82 430.785C319.538 431.588 317.851 431.242 316.989 429.998C316.128 428.755 316.396 427.054 317.598 426.135Z"></path><path fill="#74767A" d="M226.502 481.926L226.937 482.11C228.227 482.648 231.293 483.648 232.061 484.674C230.312 484.206 228.016 482.935 226.502 481.926Z"></path><path fill="#1E242D" d="M257.129 426.871C262.515 426.245 267.434 429.983 268.273 435.34C269.112 440.697 265.571 445.76 260.252 446.81C256.618 447.528 252.884 446.199 250.52 443.348C248.157 440.496 247.543 436.58 248.922 433.143C250.301 429.705 253.45 427.298 257.129 426.871Z"></path><path fill="#1E242D" d="M300.927 406.83C304.443 405.822 308.229 406.802 310.815 409.389C313.401 411.977 314.379 415.763 313.369 419.279C312.36 422.795 309.521 425.485 305.957 426.306C300.643 427.53 295.321 424.298 293.957 419.017C292.594 413.737 295.685 408.332 300.927 406.83Z"></path><path fill="#1B1F26" d="M324.729 420.844C326.34 419.848 328.453 420.349 329.445 421.962C330.438 423.575 329.933 425.687 328.318 426.676C326.708 427.663 324.603 427.159 323.613 425.551C322.624 423.943 323.123 421.837 324.729 420.844Z"></path><path fill="#1E242D" d="M246.188 456.265C247.957 455.907 249.697 456.992 250.154 458.737C250.611 460.483 249.624 462.281 247.907 462.835C246.707 463.221 245.392 462.913 244.49 462.033C243.588 461.153 243.246 459.846 243.602 458.638C243.958 457.429 244.953 456.516 246.188 456.265Z"></path><path fill="#1E242D" d="M332.038 428.865C333.045 428.142 334.367 428.027 335.483 428.567C336.599 429.107 337.33 430.214 337.388 431.453C337.446 432.691 336.822 433.862 335.761 434.504C334.208 435.444 332.189 434.989 331.189 433.474C330.189 431.959 330.563 429.925 332.038 428.865Z"></path><path fill="#1E242D" d="M245.735 467.755C247.391 467.213 249.183 468.046 249.836 469.66C250.49 471.275 249.782 473.12 248.216 473.882C247.103 474.424 245.781 474.3 244.788 473.561C243.795 472.823 243.297 471.592 243.496 470.37C243.695 469.149 244.559 468.14 245.735 467.755Z"></path><path fill="#1E242D" d="M257.786 464.534C258.264 466.057 257.536 467.697 256.086 468.363C254.636 469.029 252.917 468.512 252.074 467.157C251.231 465.802 251.528 464.032 252.766 463.026C254.005 462.019 255.798 462.091 256.952 463.194C257.339 463.563 257.626 464.024 257.786 464.534Z"></path><path fill="#1E242D" d="M255.247 453.945C256.943 453.789 258.445 455.039 258.6 456.736C258.754 458.432 257.502 459.933 255.805 460.085C254.111 460.237 252.614 458.988 252.46 457.294C252.306 455.6 253.553 454.102 255.247 453.945Z"></path><path fill="#1B1F26" d="M326.594 439.285C327.526 438.644 328.737 438.57 329.74 439.095C330.742 439.62 331.372 440.657 331.375 441.789C331.379 442.92 330.755 443.961 329.756 444.492C328.328 445.251 326.556 444.764 325.717 443.382C324.877 442 325.262 440.203 326.594 439.285Z"></path><path fill="#1B1F26" d="M324.242 431.214C325.257 430.838 326.398 431.067 327.19 431.805C327.981 432.544 328.289 433.666 327.984 434.705C327.679 435.744 326.814 436.523 325.749 436.716C324.288 436.982 322.867 436.088 322.474 434.656C322.082 433.224 322.849 431.73 324.242 431.214Z"></path><path fill="#84868A" d="M256.952 463.194C260.085 458.917 260.253 465.529 259.86 466.154C258.746 466.572 259.299 464.208 257.786 464.534C257.626 464.024 257.339 463.563 256.952 463.194Z"></path><path fill="#92939A" d="M203.354 523.781C212.577 515.675 222.819 515.326 233.694 510.438C243.102 506.209 250.741 500.134 258.534 493.552L266.708 494.162C267.194 494.148 267.147 494.147 267.603 494.357C271.772 494.517 274.763 494.614 278.902 494.349C280.514 499.028 284.741 503.731 287.125 508.174C290.963 515.331 293.295 522.7 295.285 530.495C295.235 533.578 295.464 536.043 295.724 539.109C295.914 539.494 295.873 539.548 295.906 539.997C296.082 547.237 296.231 554.885 295.85 562.127C295.532 562.712 295.614 562.72 295.657 563.485C295.397 569.714 294.941 573.997 294.308 580.192C294.137 580.567 294.186 580.673 294.171 581.1L293.821 584.694C293.64 585.066 293.686 585.172 293.66 585.601L293.322 590.189C293.139 590.539 293.177 590.598 293.129 591.044L292.817 594.194C292.625 594.558 292.671 594.652 292.637 595.079L292.329 599.186C292.066 599.72 292.122 599.759 292.112 600.407L291.812 603.687C291.625 604.032 291.664 604.086 291.613 604.528L291.335 609.185C290.975 609.963 291.075 609.897 291.132 610.822L290.842 614.189C290.565 614.714 290.628 614.733 290.612 615.408L290.466 618.407C290.1 619.861 290.018 619.928 290.138 621.358C289.853 626.706 289.073 631.014 288.139 636.282C292.494 636.785 294.671 636.864 298.459 639.283C299.111 640.36 299.64 640.56 300.732 641.273C302.431 644.877 302.473 649.522 299.532 652.479L297.963 653.042C296.741 650.117 299.132 644.127 293.209 642.425L292.422 642.795C294.088 645.094 295.312 644.056 296.348 647.586C299.65 658.838 277.691 653.677 273.414 650.304C272.991 650.089 273.008 650.101 272.752 649.705C269.636 646.131 266.95 629.214 265.779 623.583C262.363 607.161 258.814 590.767 255.132 574.402C253.36 566.611 250.938 554.624 248.309 547.542L248.098 547.692C249.583 557.885 252.799 567.875 254.925 577.969C255.711 581.699 257.352 587.199 257.346 590.881C256.503 592.017 255.505 592.151 254.109 592.643L253.469 592.864L254.397 593.637C252.399 600.979 245.347 607.92 240.293 613.352C240.577 615.746 240.933 618.131 241.358 620.504C241.703 622.904 242.14 624.316 242.837 626.59C243.5 626.79 245.93 627.626 246.495 627.644C252.56 627.958 260.224 638.224 253.363 642.214C249.169 644.652 236.237 643.68 231.255 642.453C222.154 640.21 220.617 623.16 217.892 615.504C217.186 613.521 217.811 613.166 216.425 611.026C215.225 612.664 208.835 618.719 206.485 621.54C207.164 626.621 207.851 631.329 208.085 636.468C213.392 637.688 220.617 640.18 220.271 647.269C219.601 659.111 193.07 656.154 188.902 649.488C186.059 644.942 182.83 629.943 180.953 623.977C179.362 618.92 177.064 610.478 177.506 605.311C177.881 600.931 183.888 594.614 183.859 589.718C183.602 579.32 181.647 569.985 183.686 559.546L184.299 560.461C185.344 553.196 186.743 549.428 189.15 542.53C191.715 537.228 193.092 534.604 196.926 530.175C197.229 529.659 197.127 529.739 197.575 529.42C199.273 527.266 200.402 526.337 202.421 524.555C202.793 524.017 202.741 524.091 203.354 523.781Z"></path><path fill="#1E242D" d="M253.469 592.864L254.397 593.637C252.399 600.979 245.347 607.92 240.293 613.352C240.577 615.746 240.933 618.131 241.358 620.504C241.703 622.904 242.14 624.316 242.837 626.59C243.5 626.79 245.93 627.626 246.495 627.644C252.56 627.958 260.224 638.224 253.363 642.214C249.169 644.652 236.237 643.68 231.255 642.453C222.154 640.21 220.617 623.16 217.892 615.504C217.186 613.521 217.811 613.166 216.425 611.026C217.62 609.21 225.406 604.2 227.713 602.446C230.202 600.546 232.614 598.548 234.944 596.456L235.709 597.158C239.776 597.197 249.618 594.403 253.469 592.864Z"></path><path fill="#323234" d="M183.686 559.546L184.299 560.461C183.624 570.467 184.3 579.852 184.614 589.836C184.766 594.837 178.315 601.922 178.419 606.514C178.609 614.96 182.094 624.693 184.356 632.94C188.479 647.971 188.485 654.119 205.991 653.972C208.369 653.559 208.662 653.474 211.019 653.485C211.663 653.479 211.906 653.357 212.544 653.195C214.589 648.576 211.958 646.22 208.828 643.366L208.854 642.811L210.151 643.058C214.482 646.587 213.049 648.401 215.34 652.362L216.219 652.453C219.447 650.112 219.225 647.969 218.674 644.298C217.642 643.131 215.921 640.938 214.991 639.751C210.645 637.507 207.381 639.428 206.802 634.455C206.558 633.267 206.545 633.319 206.651 632.134C206.394 627.759 204.721 624.569 206.736 620.222C208.476 616.468 213.023 613.13 216.425 611.026C215.225 612.664 208.835 618.719 206.485 621.54C207.164 626.621 207.851 631.329 208.085 636.468C213.392 637.688 220.617 640.18 220.271 647.269C219.601 659.111 193.07 656.154 188.902 649.488C186.059 644.942 182.83 629.943 180.953 623.977C179.362 618.92 177.064 610.478 177.506 605.311C177.881 600.931 183.888 594.614 183.859 589.718C183.602 579.32 181.647 569.985 183.686 559.546Z"></path><path fill="#74767A" d="M214.991 639.751C217.226 641.374 217.626 641.871 218.674 644.298C217.642 643.131 215.921 640.938 214.991 639.751Z"></path><path fill="#74767A" d="M205.991 653.972C208.369 653.559 208.662 653.474 211.019 653.485C208.665 654.022 208.457 653.969 205.991 653.972Z"></path><path fill="#74767A" d="M206.651 632.134C207.073 633.003 206.884 633.498 206.802 634.455C206.558 633.267 206.545 633.319 206.651 632.134Z"></path><path fill="#1B1F26" d="M234.944 596.456C235.747 595.743 239.843 591.079 240.542 591.717L240.583 591.705L240.216 591.941L240.287 592.327C239.236 593.761 237.013 595.855 235.709 597.158L234.944 596.456Z"></path><path fill="#84868A" d="M272.752 649.705C273.27 649.782 273.27 649.817 273.414 650.304C272.991 650.089 273.008 650.101 272.752 649.705Z"></path><path fill="#92939A" d="M359.099 422.872C364.82 416.835 369.683 410.083 374.847 402.173C381.526 391.945 390.795 372.667 406.27 374.542C407.12 374.645 409.954 375.738 410.369 376.438C407.083 375.865 402.997 377.097 401.627 380.334L402.173 380.713C402.884 382.39 402.933 383.16 403.442 384.811C403.1 385.154 403.045 385.566 402.873 386.069C406.047 386.468 409.932 382.185 414.855 384.618C419.418 393.134 406.594 397.439 402.042 400.355C401.753 400.808 401.811 400.711 401.323 401.048C396.5 407.618 392.673 421.599 388.654 429.818C374.024 459.736 357.557 488.044 334.385 512.11C333.07 506.269 332.05 500.424 329.181 495.144L328.301 494.603C325.988 488.868 323.211 485.276 319.108 480.797C322.489 478.66 323.21 478.281 326.486 475.733C327.512 475.145 327.865 474.656 328.705 473.789C334.731 468.653 340.194 462.891 345.004 456.602C350.506 449.314 360.35 432.138 359.099 422.872Z"></path><path fill="#74767A" d="M401.627 380.334L402.173 380.713C402.884 382.39 402.933 383.16 403.442 384.811C403.1 385.154 403.045 385.566 402.873 386.069C402.319 384.184 402.173 382.217 401.627 380.334Z"></path><path fill="#C9C8C8" d="M278.902 494.349C295.892 492.125 304.293 489.843 319.108 480.797C323.211 485.276 325.988 488.868 328.301 494.603C330.336 500.377 331.995 505.257 333.138 511.352C332.996 514.064 332.849 516.181 333.236 518.906C332.043 537.475 326.566 547.762 312.501 560.452C307.54 564.928 302.484 568.522 296.44 571.461C296.838 562.792 298.317 537.362 295.285 530.495C293.295 522.7 290.963 515.331 287.125 508.174C284.741 503.731 280.514 499.028 278.902 494.349Z"></path><path fill="#92939A" d="M303.132 345.444C307.605 341.193 322.177 331.25 327.867 336.511C329.762 337.936 329.872 338.129 331.308 339.998C333.58 343.065 334.693 344.504 336.374 347.891C336.766 348.279 336.696 348.289 336.878 348.857C344.789 364.418 343.109 374.407 343.245 390.412C340.903 388.191 338.578 385.951 336.27 383.694C335.657 383.334 335.333 383.228 334.628 383.304L333.966 383.352C333.34 383.024 333.325 383.016 332.737 382.534C323.023 374.575 312.6 368.904 300.501 365.504C299.79 365.305 299.269 365.18 298.562 364.964L298.747 364.342C294.635 363.216 292.612 362.852 288.373 362.233C292.803 355.759 296.518 351.217 302.386 346.107C302.755 345.638 302.635 345.727 303.132 345.444Z"></path><path fill="#1E242D" d="M298.747 364.342C301.99 357.796 311.983 349.752 318.993 347.417C330.126 343.708 334.974 359.774 336.028 367.999C336.645 372.814 336.998 378.591 336.27 383.694C335.657 383.334 335.333 383.228 334.628 383.304L333.966 383.352C333.34 383.024 333.325 383.016 332.737 382.534C323.023 374.575 312.6 368.904 300.501 365.504C299.79 365.305 299.269 365.18 298.562 364.964L298.747 364.342Z"></path><path fill="#84868A" d="M327.867 336.511C329.762 337.936 329.872 338.129 331.308 339.998C329.487 338.59 329.197 338.344 327.867 336.511Z"></path><path fill="#1E242D" d="M207.758 429.183C205.949 427.745 204.285 426.132 202.791 424.369C183.288 401.061 192.797 385.4 222.55 392.315C222.583 392.908 222.624 393.501 222.673 394.093C222.415 394.799 222.017 395.443 221.655 396.068C215.97 405.879 211.514 416.517 209.477 427.707C209.415 427.919 209.352 428.132 209.29 428.345C208.938 427.826 209.059 427.753 208.687 427.703C208.59 427.789 208.042 428.829 207.758 429.183Z"></path><path fill="#92939A" d="M206.781 440.489C206.097 439.801 205.422 439.105 204.755 438.4C194.037 427.038 184.796 409.489 184.713 393.595C184.643 380.204 203.406 382.191 212.206 382.644C212.697 382.583 212.651 382.586 213.103 382.798C218.509 383.216 222.174 384.331 227.289 386.083C225.345 388.401 224.26 389.775 222.55 392.315C192.797 385.4 183.288 401.061 202.791 424.369C204.285 426.132 205.949 427.745 207.758 429.183C207.948 430.395 206.928 438.156 206.781 440.489Z"></path><path fill="#92939A" d="M402.173 380.713C405.052 378.56 406.602 377.628 410.029 377.243C412.189 378.509 412.159 378.383 414.249 379.999C414.298 380.237 414.347 380.474 414.397 380.712C414.494 381.04 414.592 381.369 414.69 381.697C415.243 383.675 414.509 383.333 412.746 383.051C409.658 382.555 406.341 383.613 403.442 384.811C402.933 383.16 402.884 382.39 402.173 380.713Z"></path><path fill="#74767A" d="M333.138 511.352C333.613 513.707 333.837 516.566 333.236 518.906C332.849 516.181 332.996 514.064 333.138 511.352Z"></path><path fill="#74767A" d="M346.797 396.882C347.877 397.762 349.613 400.332 350.059 401.627C348.737 400.467 347.597 398.445 346.797 396.882Z"></path><path fill="#64656B" d="M410.029 377.243L410.555 377.206C412.195 377.034 413.389 378.918 414.249 379.999C412.159 378.383 412.189 378.509 410.029 377.243Z"></path><path fill="#64656B" d="M327.88 473.458L328.705 473.789C327.865 474.656 327.512 475.145 326.486 475.733C326.84 475.145 327.33 474.645 327.612 474.012L327.88 473.458Z"></path><path fill="#74767A" d="M290.466 618.407C290.551 619.587 290.816 620.361 290.138 621.358C290.018 619.928 290.1 619.861 290.466 618.407Z"></path><path fill="#74767A" d="M298.459 639.283C299.691 639.808 299.842 640.205 300.732 641.273C299.64 640.56 299.111 640.36 298.459 639.283Z"></path><path fill="#74767A" d="M291.335 609.185C291.488 610.13 291.609 610.087 291.132 610.822C291.075 609.897 290.975 609.963 291.335 609.185Z"></path><path fill="#64656B" d="M295.657 563.485C295.614 562.72 295.532 562.712 295.85 562.127C295.933 562.874 295.979 562.842 295.657 563.485Z"></path><path fill="#1E242D" d="M183.686 559.546C158.284 555.828 140.994 541.957 130.849 518.294C121.535 496.624 121.214 472.141 129.956 450.234C133.658 441.186 142.463 426.574 153.999 431.93C163.712 436.439 154.833 458.564 152.869 465.505C151.639 469.826 150.771 474.242 150.274 478.707C149.294 488.244 150.587 497.877 154.049 506.818C160.648 524.103 171.982 533.819 188.45 541.15L189.15 542.53C186.743 549.428 185.344 553.196 184.299 560.461L183.686 559.546Z"></path></svg>
