<?xml version="1.0"?>
<svg xmlns="http://www.w3.org/2000/svg" viewBox="149.11 686.9 325.72 296.8" width="325.72" height="296.8"><path fill="#92939A" d="M391.668 792.998C400.959 786.235 430.964 766.442 439.683 780.283C448.192 793.793 442.113 823.8 433.426 836.256C438.366 845.914 442.805 861.168 439.251 871.698C434.546 885.643 412.503 901.098 400.164 907.37C398.008 908.452 395.802 909.434 393.556 910.313C403.193 924.012 422.085 937.433 438.94 939.439C449.67 940.716 462.784 935.773 466.586 950.767C466.791 952.942 466.827 953.332 466.648 955.523C461.117 966.177 454.006 958.904 447.558 962.445C447.583 964.262 447.693 966.12 447 967.837C445.846 970.694 443.409 973.227 440.439 974.2C435.845 975.706 374.141 972.28 368.635 970.523C357.267 966.896 346.756 959.461 336.392 953.681C295.46 959.902 270.163 940.464 238.668 918.714C234.945 925.322 232.513 927.65 225.698 931.263C227.793 934.27 231.607 941.368 234.004 943.993C237.838 948.191 254.737 953.278 243.711 962.363C241.489 964.195 236.891 962.631 234.938 964.323C234.022 966.637 232.155 968.365 229.659 968.598C225.992 968.94 210.252 969.333 208.083 966.631C199.684 956.165 188.261 938.745 185.463 925.234C185.873 918.542 192.096 906.877 190.774 897.259C189.371 887.05 185.219 882.974 183.897 872.587C182.21 859.323 184.317 846.607 192.342 835.841L193.085 836.133C197.586 830.423 201.721 827.246 207.786 823.448L207.929 822.435C221.505 816.93 236.71 817.034 250.21 822.724C266.487 829.536 266.789 838.771 278.761 850.067C279.975 846.561 281.338 842.242 282.679 838.853C280.335 834.767 277.43 829.704 275.65 825.751C270.81 815.004 266.858 787.382 278.689 779.939C288.588 773.712 314.48 787.227 321.989 793.635C338.832 784.179 354.614 780.067 373.628 785.377C379.94 787.142 386.002 789.703 391.668 792.998Z"></path><path fill="#92939A" d="M207.786 823.448C222.317 816.637 245.241 818.396 258.096 828.215C258.419 828.392 258.416 828.408 258.672 828.671C266.019 833.806 270.352 843.759 278.63 851.258C276.159 859.834 275.128 871.443 280.063 879.175C293.113 899.619 328.496 916.419 351.702 917.155C352.384 917.12 352.372 917.084 352.973 917.361C357.249 917.444 357.265 917.134 359.905 920.435C360.688 920.989 365.639 926.059 366.058 926.802L367.806 927.947L368.4 927.208L368.929 927.006C374.163 925.047 382.306 917.896 385.471 913.239L385.281 912.1L392.95 909.245L393.556 910.313C403.193 924.012 422.085 937.433 438.94 939.439C449.67 940.716 462.784 935.773 466.586 950.767C466.791 952.942 466.827 953.332 466.648 955.523C461.117 966.177 454.006 958.904 447.558 962.445C447.583 964.262 447.693 966.12 447 967.837C445.846 970.694 443.409 973.227 440.439 974.2C435.845 975.706 374.141 972.28 368.635 970.523C357.267 966.896 346.756 959.461 336.392 953.681C295.46 959.902 270.163 940.464 238.668 918.714C234.945 925.322 232.513 927.65 225.698 931.263C227.793 934.27 231.607 941.368 234.004 943.993C237.838 948.191 254.737 953.278 243.711 962.363C241.489 964.195 236.891 962.631 234.938 964.323C234.022 966.637 232.155 968.365 229.659 968.598C225.992 968.94 210.252 969.333 208.083 966.631C199.684 956.165 188.261 938.745 185.463 925.234C185.873 918.542 192.096 906.877 190.774 897.259C189.371 887.05 185.219 882.974 183.897 872.587C182.21 859.323 184.317 846.607 192.342 835.841L193.085 836.133C197.586 830.423 201.721 827.246 207.786 823.448Z"></path><path fill="#1E242D" d="M392.95 909.245L393.556 910.313C403.193 924.012 422.085 937.433 438.94 939.439C449.67 940.716 462.784 935.773 466.586 950.767C466.791 952.942 466.827 953.332 466.648 955.523C461.117 966.177 454.006 958.904 447.558 962.445L446.397 961.336C441.579 946.935 433.24 952.039 423.123 952.128C401.883 952.316 383.195 942.043 367.806 927.947L368.4 927.208L368.929 927.006C374.163 925.047 382.306 917.896 385.471 913.239L385.281 912.1L392.95 909.245Z"></path><path fill="#1B1F26" d="M466.648 955.523C465.487 954.863 460.057 951.173 462.344 949.826C463.127 949.882 465.276 950.601 466.586 950.767C466.791 952.942 466.827 953.332 466.648 955.523Z"></path><path fill="#1B1F26" d="M229.855 911.333C230.17 911.523 230.484 911.714 230.799 911.904C232.021 912.768 238.433 917.216 239.106 917.955L238.668 918.714C234.945 925.322 232.513 927.65 225.698 931.263C227.793 934.27 231.607 941.368 234.004 943.993C237.838 948.191 254.737 953.278 243.711 962.363C241.489 964.195 236.891 962.631 234.938 964.323L234.537 964.071C234.09 954.773 231.282 952.737 222.588 951.038L221.829 949.65C216.481 939.77 215.887 939.642 222.199 929.608C225.623 924.164 228.012 917.465 229.855 911.333Z"></path><path fill="#1E242D" d="M242.036 954.318C243.682 955.63 243.029 957.454 242.756 959.439C241.469 958.584 242.012 955.765 242.036 954.318Z"></path><path fill="#C9C8C8" d="M271.385 938.878C274.362 938.472 281.778 938.951 285.424 938.862C294.435 938.641 301.516 937.606 310.318 935.761C316.839 940.38 329.62 948.549 334.945 952.797C330.988 953.494 327.92 953.886 323.887 954.157C322.273 954.053 319.772 954.045 318.133 954.143C301.944 953.221 285.162 947.322 271.385 938.878Z"></path><path fill="#323234" d="M239.106 917.955C246.325 922.651 263.608 935.979 271.385 938.878C285.162 947.322 301.944 953.221 318.133 954.143C319.772 954.045 322.273 954.053 323.887 954.157C327.92 953.886 330.988 953.494 334.945 952.797C329.62 948.549 316.839 940.38 310.318 935.761C307.655 933.256 303.372 930.532 300.272 927.762L301.296 927.311C320.643 942.023 339.119 955.624 361.153 966.392C374.612 972.97 382.83 970.594 397.129 971.658C397.813 971.629 397.82 971.58 398.403 971.866L404.146 972.135C405.275 972.002 405.781 971.904 406.816 972.396L413.178 972.633C414.037 972.576 414.099 972.495 414.814 972.849C419.391 973.074 436.12 974.336 439.39 973.139C440.725 971.45 440.611 972.058 440.912 970.154C439.505 966.25 436.322 966.86 434.133 964.671C439.498 962.179 440.036 969.416 442.29 971.807L443.313 971.54C446.322 967.988 447.363 965.386 444.478 961.069C441.629 956.803 440.871 959.075 438.766 958.687C439.812 957.097 439.123 957.51 440.717 957.13C442.968 957.88 444.587 959.693 446.397 961.336L447.558 962.445C447.583 964.262 447.693 966.12 447 967.837C445.846 970.694 443.409 973.227 440.439 974.2C435.845 975.706 374.141 972.28 368.635 970.523C357.267 966.896 346.756 959.461 336.392 953.681C295.46 959.902 270.163 940.464 238.668 918.714L239.106 917.955Z"></path><path fill="#74767A" d="M318.133 954.143C319.772 954.045 322.273 954.053 323.887 954.157C322.8 954.781 319.223 954.865 318.133 954.143Z"></path><path fill="#74767A" d="M404.146 972.135C405.275 972.002 405.781 971.904 406.816 972.396C405.609 972.563 405.207 972.655 404.146 972.135Z"></path><path fill="#84868A" d="M413.178 972.633C414.037 972.576 414.099 972.495 414.814 972.849C413.934 972.933 413.911 973.037 413.178 972.633Z"></path><path fill="#323234" d="M192.342 835.841L193.085 836.133C185.176 849.056 181.867 861.712 185.762 876.598C188.405 885.412 191.14 890.97 191.796 900.28C192.407 908.959 184.751 922.046 186.899 928.398C190.236 938.262 199.923 955.027 206.011 963.361C207.668 964.571 207.875 964.805 209.252 966.412L211.085 967.194C213.628 966.998 214.463 967.003 217.034 967.38L224.114 967.684C225.506 967.606 225.794 967.649 227.164 967.825L228.323 967.134C230.377 963.223 227.348 961.134 224.157 959.497L223.679 959.258C224.731 958.532 224.222 958.843 225.864 958.835C228.967 960.313 229.217 963.856 231.05 967.038L232.118 967.102C233.598 965.778 233.561 965.704 234.537 964.071L234.938 964.323C234.022 966.637 232.155 968.365 229.659 968.598C225.992 968.94 210.252 969.333 208.083 966.631C199.684 956.165 188.261 938.745 185.463 925.234C185.873 918.542 192.096 906.877 190.774 897.259C189.371 887.05 185.219 882.974 183.897 872.587C182.21 859.323 184.317 846.607 192.342 835.841Z"></path><path fill="#74767A" d="M211.085 967.194C213.628 966.998 214.463 967.003 217.034 967.38C214.488 967.486 213.554 967.648 211.085 967.194Z"></path><path fill="#84868A" d="M206.011 963.361C207.668 964.571 207.875 964.805 209.252 966.412C207.433 965.173 207.352 965.103 206.011 963.361Z"></path><path fill="#74767A" d="M224.114 967.684C225.506 967.606 225.794 967.649 227.164 967.825C225.906 967.987 225.217 968.337 224.114 967.684Z"></path><path fill="#323234" d="M229.855 911.333C230.47 905.246 230.916 900.65 230.29 894.381C230.271 894.187 230.255 893.884 230.284 893.68C230.441 893.545 230.597 893.411 230.754 893.276C232.668 895.173 231.167 908.768 230.799 911.904C230.484 911.714 230.17 911.523 229.855 911.333Z"></path><path fill="#1B1F26" d="M300.272 927.762C299.571 927.125 297.891 925.804 297.66 924.877C297.955 923.762 300.891 926.966 301.296 927.311L300.272 927.762Z"></path><path fill="#74767A" d="M359.905 920.435C360.688 920.989 365.639 926.059 366.058 926.802C364.839 926.027 360.453 921.787 359.905 920.435Z"></path><path fill="#323234" d="M391.668 792.998C400.959 786.235 430.964 766.442 439.683 780.283C448.192 793.793 442.113 823.8 433.426 836.256C438.366 845.914 442.805 861.168 439.251 871.698C434.546 885.643 412.503 901.098 400.164 907.37C398.008 908.452 395.802 909.434 393.556 910.313L392.95 909.245C398.956 907.465 404.578 903.915 409.805 900.546C419.076 893.854 435.966 881.916 438.711 870.413C442.214 855.732 435.265 841.302 428.425 829.124C421.515 818.505 409.518 804.239 398.305 798.01C397.881 797.765 397.588 797.612 397.192 797.315C379.214 786.482 363.862 780.937 342.409 785.934C329.727 788.888 324.318 793.437 314.172 800.262C301.399 811.104 294.818 818.071 286.391 832.97C280.902 845.935 274.197 862.156 279.777 876.148C284.128 887.06 301.182 898.806 311.282 903.873C336.032 917.076 358.182 919.73 385.281 912.1L385.471 913.239C382.306 917.896 374.163 925.047 368.929 927.006L368.4 927.208L367.806 927.947L366.058 926.802C365.639 926.059 360.688 920.989 359.905 920.435C357.265 917.134 357.249 917.444 352.973 917.361C352.372 917.084 352.384 917.12 351.702 917.155C328.496 916.419 293.113 899.619 280.063 879.175C275.128 871.443 276.159 859.834 278.63 851.258C270.352 843.759 266.019 833.806 258.672 828.671C258.416 828.408 258.419 828.392 258.096 828.215C245.241 818.396 222.317 816.637 207.786 823.448L207.929 822.435C221.505 816.93 236.71 817.034 250.21 822.724C266.487 829.536 266.789 838.771 278.761 850.067C279.975 846.561 281.338 842.242 282.679 838.853C280.335 834.767 277.43 829.704 275.65 825.751C270.81 815.004 266.858 787.382 278.689 779.939C288.588 773.712 314.48 787.227 321.989 793.635C338.832 784.179 354.614 780.067 373.628 785.377C379.94 787.142 386.002 789.703 391.668 792.998Z"></path><path fill="#1E242D" d="M398.633 797.353C400.464 797.545 401.106 796.159 402.642 795.165C430.314 777.245 444.224 792.751 432.923 821.826C431.983 824.246 430.305 826.976 429.287 829.222L428.425 829.124C421.515 818.505 409.518 804.239 398.305 798.01L398.633 797.353Z"></path><path fill="#1E242D" d="M285.848 832.032C281.751 824.618 279.471 821.161 278.597 811.998C278.177 806.917 278.12 798.441 281.719 794.366C288.601 786.574 307.525 793.994 313.786 799.174L314.172 800.262C301.399 811.104 294.818 818.071 286.391 832.97L285.848 832.032Z"></path><path fill="#92939A" d="M283.296 837.704C278.807 830.313 274.991 823.16 273.206 814.42C271.448 806.368 270.754 791.315 275.666 784.24C284.551 771.442 312.813 787.53 321.039 794.044L313.786 799.174C307.525 793.994 288.601 786.574 281.719 794.366C278.12 798.441 278.177 806.917 278.597 811.998C279.471 821.161 281.751 824.618 285.848 832.032C284.972 833.686 284.065 835.947 283.296 837.704Z"></path><path fill="#92939A" d="M397.858 789.724C406.375 783.068 425.613 773.486 436.404 778.005C437.348 779.428 438.539 780.647 439.539 782.032C441.063 786.264 441.796 789.235 442.12 793.699C442.044 794.712 441.979 794.905 442.369 795.819L442.481 802.992C442.221 804.641 441.892 805.699 442.098 807.305C441.606 816.325 438.21 827.759 433.146 835.263C432.294 833.84 430.294 830.283 429.287 829.222C430.305 826.976 431.983 824.246 432.923 821.826C444.224 792.751 430.314 777.245 402.642 795.165C401.106 796.159 400.464 797.545 398.633 797.353L398.305 798.01C397.881 797.765 397.588 797.612 397.192 797.315L397.517 796.296L392.705 793.418C394.101 792.259 395.784 791.136 397.281 790.084C397.685 789.796 397.489 789.91 397.858 789.724Z"></path><path fill="#64656B" d="M397.517 796.296C398.046 796.537 398.198 796.847 398.633 797.353L398.305 798.01C397.881 797.765 397.588 797.612 397.192 797.315L397.517 796.296Z"></path><path fill="#C9C8C8" d="M358.511 917.537C364.049 917.043 369.532 916.659 375.005 915.651L377.505 915.17C380.325 914.607 382.737 913.799 385.471 913.239C382.306 917.896 374.163 925.047 368.929 927.006L368.4 927.208C365.265 924.722 361.301 920.492 358.511 917.537Z"></path><path fill="#74767A" d="M442.481 802.992C442.532 804.452 442.842 806.085 442.098 807.305C441.892 805.699 442.221 804.641 442.481 802.992Z"></path><path fill="#74767A" d="M436.404 778.005C438.371 779.572 438.577 779.833 439.539 782.032C438.539 780.647 437.348 779.428 436.404 778.005Z"></path><path fill="#74767A" d="M442.12 793.699C442.663 794.533 442.51 794.726 442.369 795.819C441.979 794.905 442.044 794.712 442.12 793.699Z"></path><path fill="#C9C8C8" d="M325.871 887.172C324.476 886.25 323.138 886.023 321.476 886.061C317.526 888.896 322.026 895.197 317.693 896.814L317.397 896.359C320.173 887.66 313.064 886.03 316.58 881.002C317.806 882.765 315.579 883.181 319.302 885.606C322.491 885.698 323.674 884.395 324.219 881.354C323.276 877.778 321.003 878.091 317.811 878.339L317.827 877.882C319.572 876.172 319.877 875.929 320.628 873.625C320.624 875.706 322.392 878.433 324.56 878.792C327.625 877.302 327.89 872.112 329.663 869.36C331.833 865.992 333.118 869.284 337.078 867.845C334.822 869.558 330.707 872.336 329.534 874.644L330.068 875.068L331.01 874.647C331.292 874.098 332.381 872.074 332.776 871.792C348.642 860.466 372.563 857.056 387.885 870.944C387.722 871.303 387.559 871.661 387.397 872.02L387.047 872.784C387.18 872.789 387.313 872.803 387.445 872.828C388.349 873 389.091 873.646 389.386 874.518L389.936 874.748L390.077 875.341C391.155 879.668 392.553 879.579 392.668 883.498C393.785 883.307 394.299 883.158 395.394 883.483C393.19 887.568 393.089 890.207 398.639 890.57C403.42 894.079 405.823 896.136 409.805 900.546C404.578 903.915 398.956 907.465 392.95 909.245L385.281 912.1C358.182 919.73 336.032 917.076 311.282 903.873C313.885 901.255 320.962 893.326 324.039 892.711C325.261 892.533 326.279 891.68 326.666 890.508C327.054 889.335 326.746 888.044 325.871 887.172Z"></path><path fill="#1E242D" d="M387.047 872.784C387.18 872.789 387.313 872.803 387.445 872.828C388.349 873 389.091 873.646 389.386 874.518C389.745 875.576 389.375 876.745 388.472 877.403C387.569 878.061 386.343 878.057 385.445 877.391C384.547 876.726 384.186 875.555 384.553 874.499C384.92 873.444 385.93 872.749 387.047 872.784Z"></path><path fill="#1E242D" d="M358.048 867.112C371.898 866.596 370.932 876.759 361.872 881.214L361.031 881.639C351.827 881.413 344.102 869.62 356.005 867.462L358.048 867.112Z"></path><path fill="#1E242D" d="M388.188 880.139C389.443 879.565 390.928 880.08 391.557 881.309C392.186 882.538 391.736 884.044 390.536 884.726C389.711 885.194 388.697 885.172 387.893 884.669C387.09 884.166 386.627 883.262 386.689 882.316C386.75 881.37 387.326 880.534 388.188 880.139Z"></path><path fill="#1B1F26" d="M330.216 881.643C331.482 881.342 332.759 882.095 333.108 883.349C333.458 884.602 332.755 885.907 331.516 886.305C330.671 886.576 329.745 886.364 329.103 885.751C328.461 885.138 328.206 884.222 328.438 883.366C328.67 882.509 329.353 881.848 330.216 881.643Z"></path><path fill="#1B1F26" d="M331.35 875.299C332.153 874.929 333.095 875.033 333.797 875.571C334.499 876.108 334.846 876.99 334.698 877.862C334.55 878.733 333.932 879.451 333.092 879.727C331.892 880.122 330.593 879.511 330.13 878.336C329.668 877.16 330.203 875.828 331.35 875.299Z"></path><path fill="#1B1F26" d="M395.394 883.483C401.092 884.43 401.536 886.095 398.639 890.57C393.089 890.207 393.19 887.568 395.394 883.483Z"></path><path fill="#1E242D" d="M324.039 892.711C322.521 892.931 321.055 892.064 320.517 890.628C319.979 889.192 320.513 887.575 321.802 886.744C323.09 885.912 324.784 886.09 325.871 887.172C326.746 888.044 327.054 889.335 326.666 890.508C326.279 891.68 325.261 892.533 324.039 892.711Z"></path><path fill="#BBBBBF" d="M387.885 870.944C388.803 871.73 388.158 872.094 387.445 872.828C387.313 872.803 387.18 872.789 387.047 872.784L387.397 872.02C387.559 871.661 387.722 871.303 387.885 870.944Z"></path><path fill="#1E242D" d="M330.829 846.906C336.332 845.378 342.027 848.625 343.515 854.139C345.003 859.653 341.715 865.324 336.19 866.772C330.722 868.205 325.121 864.958 323.649 859.5C322.176 854.042 325.382 848.418 330.829 846.906Z"></path><path fill="#1E242D" d="M383.252 843.563C395.44 844.017 399.795 858.888 385.991 864.185C384.007 864.293 381.817 864.538 380.004 863.58C375.119 861.001 373.088 853.817 375.649 849.077C376.986 846.573 379.272 844.709 381.995 843.904C382.392 843.786 382.846 843.675 383.252 843.563Z"></path><path fill="#1E242D" d="M402.206 865.408C404.06 864.994 405.917 866.092 406.448 867.916C406.98 869.74 406.002 871.663 404.216 872.309C402.954 872.765 401.544 872.482 400.556 871.575C399.568 870.668 399.166 869.287 399.513 867.992C399.859 866.696 400.897 865.701 402.206 865.408Z"></path><path fill="#1E242D" d="M406.557 875.825C408.451 875.515 410.239 876.797 410.554 878.691C410.869 880.585 409.591 882.376 407.698 882.695C405.799 883.015 404 881.732 403.685 879.832C403.369 877.932 404.656 876.137 406.557 875.825Z"></path><path fill="#1E242D" d="M315.141 870.174C316.961 869.705 318.823 870.772 319.338 872.579C319.854 874.386 318.835 876.274 317.042 876.836C315.84 877.213 314.529 876.908 313.617 876.04C312.705 875.171 312.335 873.877 312.652 872.658C312.969 871.439 313.922 870.488 315.141 870.174Z"></path><path fill="#1E242D" d="M311.038 880.225C312.225 879.93 313.479 880.312 314.298 881.22C315.118 882.127 315.372 883.413 314.958 884.564C314.544 885.714 313.529 886.544 312.319 886.721C310.571 886.977 308.929 885.816 308.587 884.083C308.245 882.349 309.324 880.652 311.038 880.225Z"></path><path fill="#1E242D" d="M392.254 867.888C393.193 867.252 394.402 867.171 395.417 867.677C396.432 868.184 397.095 869.198 397.151 870.331C397.207 871.463 396.648 872.538 395.689 873.143C394.239 874.056 392.325 873.638 391.388 872.204C390.45 870.77 390.836 868.849 392.254 867.888Z"></path><path fill="#1B1F26" d="M396.593 875.734C398.057 875.057 399.794 875.661 400.521 877.101C401.248 878.541 400.704 880.298 399.29 881.074C398.331 881.601 397.161 881.562 396.239 880.973C395.317 880.385 394.79 879.34 394.863 878.249C394.937 877.157 395.6 876.193 396.593 875.734Z"></path><path fill="#1E242D" d="M323.165 871.381C324.64 870.701 326.387 871.344 327.069 872.818C327.751 874.292 327.11 876.041 325.636 876.724C324.16 877.409 322.409 876.766 321.726 875.29C321.043 873.813 321.687 872.062 323.165 871.381Z"></path><path fill="#1E242D" d="M318.959 879.323C319.823 878.771 320.92 878.739 321.813 879.241C322.707 879.743 323.25 880.697 323.227 881.722C323.204 882.746 322.618 883.674 321.703 884.135C320.384 884.8 318.776 884.315 318.045 883.032C317.314 881.75 317.716 880.119 318.959 879.323Z"></path><path fill="#1E242D" d="M192.342 835.841C190.521 833.782 187.988 831.699 186.121 829.621C157.106 797.322 165.673 742.194 197.549 714.75C208.412 705.397 221.499 695.323 236.16 695.04C243.18 694.904 248.959 700.881 247.555 707.679C245.573 719.621 229.886 725.01 220.339 731.813C191.157 752.606 185.354 792.886 207.548 821.945L207.929 822.435L207.786 823.448C201.721 827.246 197.586 830.423 193.085 836.133L192.342 835.841Z"></path></svg>
