<?xml version="1.0"?>
<svg xmlns="http://www.w3.org/2000/svg" viewBox="234.78 614.06 182.26 339.61" width="182.26" height="339.61"><path fill="#B6B7BA" d="M284.274 685.206C290.14 666.837 300.177 642.027 318.521 632.536C338.777 622.056 358.25 658.463 363.561 673.052C364.966 676.69 366.106 681.663 367.246 685.772C375.626 716.494 379.34 743.39 376.171 775.069C375.524 781.542 376.079 789.383 375.295 795.62L375.229 796.12C374.118 805.092 374.59 813.884 372.978 823.522C372.302 827.563 368.018 844.863 368.058 846.503C365.583 853.88 363.525 859.933 358.927 866.32C360.049 871.301 359.504 872.761 355.601 876.123C337.639 876.994 318.521 876.299 300.496 876.303C295.322 876.304 291.784 871.839 293.654 866.749C292.935 864.162 285.14 849.563 283.438 847.501C283.757 846.239 280.78 834.324 280.245 832.653C278.254 826.437 278.423 799.337 276.953 795.633C278.019 794.539 277.528 787.794 277.361 786.03C274.123 751.815 275.486 718.643 284.274 685.206Z"></path><path fill="#17252E" d="M284.274 685.206C290.14 666.837 300.177 642.027 318.521 632.536C338.777 622.056 358.25 658.463 363.561 673.052C364.966 676.69 366.106 681.663 367.246 685.772C358.272 690.166 351.385 693.541 341.458 695.538C321.112 699.631 301.666 696.758 284.274 685.206Z"></path><path fill="#17252E" d="M293.654 866.749C294.265 866.206 296.098 864.486 296.861 864.481C316.24 864.359 335.831 863.616 355.173 864.684C356.59 864.763 357.801 865.548 358.927 866.32C360.049 871.301 359.504 872.761 355.601 876.123C337.639 876.994 318.521 876.299 300.496 876.303C295.322 876.304 291.784 871.839 293.654 866.749Z"></path><path fill="#17252E" d="M322.808 715.8C336.797 714.187 349.45 724.205 351.089 738.19C352.728 752.176 342.734 764.848 328.752 766.513C314.732 768.183 302.019 758.156 300.376 744.134C298.732 730.111 308.782 717.417 322.808 715.8Z"></path><path fill="#17252E" d="M276.953 795.633C278.423 799.337 278.254 826.437 280.245 832.653C280.78 834.324 283.757 846.239 283.438 847.501C266.434 862.473 260.329 873.545 253.221 895.188L251.325 895.793C249.524 879.419 244.801 854.276 243.516 838.673C242.777 829.691 269.071 803.065 276.953 795.633Z"></path><path fill="#17252E" d="M375.295 795.62C384.934 805.124 409.036 828.789 407.989 841.867C406.697 858 403.209 881.815 400.356 898.04C393.939 879.451 385.673 857.542 368.058 846.503C368.018 844.863 372.302 827.563 372.978 823.522C374.59 813.884 374.118 805.092 375.229 796.12L375.295 795.62Z"></path><path fill="#17252E" d="M326.054 881.665C345.695 882.385 350.576 900.461 351.461 916.355L339.333 913.481C338.497 926.849 335.89 935.168 327.468 945.662C318.607 935.366 316.094 925.835 314.789 912.803C311.041 913.747 306.276 915.678 302.566 917.061C302.012 900.704 307.239 884.142 326.054 881.665Z"></path><path fill="#343840" d="M251.325 895.793L253.221 895.188C252.02 898.104 252.04 900.17 251.325 895.793Z"></path></svg>
