<?xml version="1.0"?>
<svg xmlns="http://www.w3.org/2000/svg" viewBox="595.38 105.26 270.07 252.68" width="270.07" height="252.68"><path fill="#B6B7BA" d="M778.153 126.413C791.898 119.591 805.802 114.473 821.356 113.586C827.071 113.26 836.135 113.473 841.655 115.447C857.45 121.097 853.418 147.408 849.301 159.746C846.856 167.071 841.232 179.58 836.027 186.233C822.888 204.587 811.314 221.767 795.294 237.947C788.088 245.226 780.815 251.815 772.744 258.144C770.539 259.983 763.968 264.482 763.292 266.867L762.669 266.06C760.925 266.649 748.46 276.22 745.291 278.275C739.522 281.991 733.492 285.283 727.247 288.126C725.279 289.023 720.478 290.815 719.005 291.597C715.613 292.605 701.826 296.609 699.068 296.235C696.283 301.44 691.627 301.747 687.795 297.403C676.499 284.602 663.946 272.149 653.529 258.72C651.478 256.078 653.789 251.641 656.985 250.299L658.488 249.677C660.521 244.64 661.953 238.144 664.334 233.389C666.35 231.114 671.175 220.393 674.003 216.096C679.325 208.01 691.332 198.327 695.74 191.072C694.813 190.233 693.714 190.31 692.24 190.036C692.784 190.039 696.503 190.009 696.718 189.777C721.429 163.246 745.922 143.278 778.153 126.413Z"></path><path fill="#17252E" d="M778.153 126.413C791.898 119.591 805.802 114.473 821.356 113.586C827.071 113.26 836.135 113.473 841.655 115.447C857.45 121.097 853.418 147.408 849.301 159.746C846.856 167.071 841.232 179.58 836.027 186.233C806.033 180.029 784.108 156.103 778.153 126.413Z"></path><path fill="#17252E" d="M658.488 249.677C664.221 251.276 692.767 285.237 698.271 291.93C699.099 292.937 699.036 295.016 699.068 296.235C696.283 301.44 691.627 301.747 687.795 297.403C676.499 284.602 663.946 272.149 653.529 258.72C651.478 256.078 653.789 251.641 656.985 250.299L658.488 249.677Z"></path><path fill="#17252E" d="M764.545 168.126C773.667 166.905 782.741 170.685 788.296 178.023C793.852 185.36 795.03 195.119 791.381 203.568C787.731 212.017 779.818 217.848 770.667 218.833C756.771 220.328 744.255 210.376 742.58 196.501C740.905 182.626 750.693 169.982 764.545 168.126Z"></path><path fill="#17252E" d="M606.065 237.935C617.855 223.799 632.168 207.511 644.96 194.477C651.624 187.687 682.762 188.978 692.24 190.036C693.714 190.31 694.813 190.233 695.74 191.072C691.332 198.327 679.325 208.01 674.003 216.096C671.175 220.393 666.35 231.114 664.334 233.389C651.784 227.53 633.775 231.1 621.215 235.145C619.047 235.843 610.711 238.595 608.973 238.9L608.235 239.215C606.62 239.918 605.032 240.511 603.38 241.122L606.065 237.935Z"></path><path fill="#343840" d="M606.065 237.935C606.812 238.476 607.179 238.756 608.119 238.821C608.404 238.844 608.689 238.87 608.973 238.9L608.235 239.215C606.62 239.918 605.032 240.511 603.38 241.122L606.065 237.935Z"></path><path fill="#17252E" d="M719.005 291.597C720.478 290.815 725.279 289.023 727.247 288.126C733.492 285.283 739.522 281.991 745.291 278.275C748.46 276.22 760.925 266.649 762.669 266.06L763.292 266.867C761.584 279.456 759.654 301.253 753.83 312.8C750.119 320.158 734.433 327.585 727.773 331.964C717.416 338.05 707.682 343.48 697.807 349.94C711.523 332.759 719.591 313.798 719.005 291.597Z"></path><path fill="#17252E" d="M647.919 275.669C671.303 273.331 680.968 302.744 664.453 317.379C661.694 319.824 659.795 321.2 656.653 323.224L652.252 312.766C648.595 315.56 645.566 317.342 641.534 319.483C633.634 322.958 629.419 323.815 620.798 324.509C623.152 311.132 626.6 303.279 637.268 294.217C634.53 291.774 628.977 288.061 625.816 285.811C633.471 280.149 638.467 277.061 647.919 275.669Z"></path></svg>
