<?xml version="1.0"?>
<svg xmlns="http://www.w3.org/2000/svg" viewBox="162.78 424.08 345.06 173.5" width="345.06" height="173.5"><path fill="#B6B7BA" d="M311.386 461.929C339.764 461.437 367.48 458.996 395.924 462.482C403.277 463.383 410.592 464.346 417.808 466.051C422.291 466.986 430.41 469.599 434.479 470.023C451.887 476.091 480.337 488.148 488.649 504.98C499.839 527.64 449.256 549.712 434.046 553.473C392.266 565.506 355.258 565.811 311.901 562.124C311.191 561.84 311.414 561.873 310.775 561.789C301.165 560.62 291.666 558.675 282.37 555.973C279.241 555.069 265.567 549.535 264.591 549.608C261.41 547.72 252.743 543.208 250.843 540.976C244.235 545.537 240.104 540.45 239.905 533.798C239.695 522.079 240.185 510.356 239.802 498.632C239.544 490.736 238.044 479.344 250.052 483.142C254.935 477.886 256.612 475.586 263.734 472.649C272.378 470.239 279.448 466.795 289.23 464.939C297.089 463.447 303.819 463.248 310.922 462.013L311.386 461.929Z"></path><path fill="#17252E" d="M434.046 553.473C425.593 534.712 420.268 521.323 423.388 499.77C424.334 493.235 429.163 473.939 434.479 470.023C451.887 476.091 480.337 488.148 488.649 504.98C499.839 527.64 449.256 549.712 434.046 553.473Z"></path><path fill="#17252E" d="M250.843 540.976C244.235 545.537 240.104 540.45 239.905 533.798C239.695 522.079 240.185 510.356 239.802 498.632C239.544 490.736 238.044 479.344 250.052 483.142C250.721 484.045 251.929 485.849 251.869 486.938C251.38 495.863 253.772 535.014 250.843 540.976Z"></path><path fill="#17252E" d="M377.835 486.473C387.007 485.84 395.811 490.187 400.884 497.854C405.958 505.521 406.519 515.323 402.352 523.518C398.185 531.714 389.934 537.036 380.75 537.453C366.779 538.087 354.898 527.365 354.1 513.403C353.301 499.441 363.883 487.435 377.835 486.473Z"></path><path fill="#17252E" d="M203.404 486.687C241.69 485.864 248.336 535.37 206.812 537.855C205.072 537.959 202.672 538.359 201.438 537.277L201.606 535.385L203.608 526.789C190.337 524.553 180.716 520.883 170.777 511.542C181.711 503.463 192.883 501.255 206.075 500.358C205.393 497.814 202.526 488.683 203.404 486.687Z"></path><path fill="#17252E" d="M218.722 434.651C219.632 434.535 220.543 434.432 221.456 434.342C231.162 433.389 241.249 433.707 250.999 433.572C257.874 433.476 266.056 432.082 272.767 433.706C280.228 435.512 304.261 456.017 311.386 461.929L310.922 462.013C303.819 463.248 297.089 463.447 289.23 464.939C279.448 466.795 272.378 470.239 263.734 472.649C255.17 456.375 233.961 444.414 218.722 434.651Z"></path><path fill="#17252E" d="M264.591 549.608C265.567 549.535 279.241 555.069 282.37 555.973C291.666 558.675 301.165 560.62 310.775 561.789C311.414 561.873 311.191 561.84 311.901 562.124C306.252 566.02 300.444 569.685 294.8 573.59C288.12 578.212 281.012 584.643 273.335 587.447C267.504 589.577 226.852 585.944 217.353 585.935C220.815 583.793 225.173 581.847 228.78 579.719C243.409 571.086 254.834 563.815 264.591 549.608Z"></path></svg>
