<?xml version="1.0"?>
<svg xmlns="http://www.w3.org/2000/svg" viewBox="576.69 673.34 255.49 267.6" width="255.49" height="267.6"><path fill="#B6B7BA" d="M744.733 704.189C760.762 693.768 785.05 681.337 804.376 685.456C824.183 689.677 819.992 723.967 815.387 737.562C812.87 744.992 810.428 752.003 807.128 758.927C793.014 783.764 776.862 806.598 757.01 826.95C754.621 829.399 749.043 835.267 747.549 837.888L747.227 838.186C738.979 845.954 732.622 856.239 722.821 863.686C719.382 866.298 705.99 873.916 705.32 875.63C698.325 877.456 695.649 878.537 688.302 878.392C687.968 878.898 687.96 878.939 687.622 879.363C686.307 881.013 684.575 882.388 682.388 882.522C678.726 882.747 647.039 853.542 642.621 849.642C640.175 847.484 635.573 844.095 635.592 840.548C635.607 837.812 636.963 836.017 638.733 834.067C641.156 829.914 642.432 824.544 643.935 819.869C644.175 819.448 645.971 814.197 646.42 813.068C648.46 807.98 650.843 803.037 653.552 798.271C658.163 790.272 665.373 782.548 670.554 773.933C692.967 744.016 713.163 724.62 744.733 704.189Z"></path><path fill="#17252E" d="M744.733 704.189C760.762 693.768 785.05 681.337 804.376 685.456C824.183 689.677 819.992 723.967 815.387 737.562C812.87 744.992 810.428 752.003 807.128 758.927C795.683 757.721 781.059 751.263 771.496 744.963C757.02 735.427 748.172 721.105 744.733 704.189Z"></path><path fill="#17252E" d="M638.733 834.067C639.357 834.045 642.691 833.897 642.982 834.145C656.383 845.541 669.949 857.255 683.165 868.862C685.775 871.154 688.309 873.341 688.381 876.014C688.402 876.807 688.375 877.602 688.302 878.392C687.968 878.898 687.96 878.939 687.622 879.363C686.307 881.013 684.575 882.388 682.388 882.522C678.726 882.747 647.039 853.542 642.621 849.642C640.175 847.484 635.573 844.095 635.592 840.548C635.607 837.812 636.963 836.017 638.733 834.067Z"></path><path fill="#17252E" d="M734.838 749.274C747.859 747.208 760.082 756.113 762.107 769.141C764.132 782.169 755.189 794.363 742.155 796.347C729.178 798.323 717.049 789.428 715.033 776.458C713.017 763.487 721.874 751.33 734.838 749.274Z"></path><path fill="#17252E" d="M698.192 796.883C711.098 796.918 721.547 807.382 721.563 820.289C721.578 833.195 711.154 843.685 698.248 843.75C685.271 843.815 674.712 833.322 674.696 820.345C674.68 807.368 685.214 796.849 698.192 796.883Z"></path><path fill="#17252E" d="M584.689 834.208C593.921 818.994 608.206 798.544 619.144 784.484C625.291 776.583 659.605 773.942 670.554 773.933C665.373 782.548 658.163 790.272 653.552 798.271C650.843 803.037 648.46 807.98 646.42 813.068C645.971 814.197 644.175 819.448 643.935 819.869C623.874 814.766 602.318 824.792 584.689 834.208Z"></path><path fill="#17252E" d="M747.549 837.888C746.431 847.972 745.339 885.345 739.756 891.436C726.433 905.972 705.354 921.178 689.192 932.932C697.96 919.505 708.698 891.737 705.32 875.63C705.99 873.916 719.382 866.298 722.821 863.686C732.622 856.239 738.979 845.954 747.227 838.186L747.549 837.888Z"></path><path fill="#17252E" d="M637.192 863.654C643.042 863.265 651.762 865.713 655.527 870.082C667.639 884.14 660.16 900.186 648.96 910.728C647.317 908.394 644.968 903.769 643.337 901.009C638.466 905.291 635.786 907.458 630.173 910.641C624.363 913.568 619.739 914.834 613.405 915.887C613.761 903.42 617.841 893.185 626.34 884.09C622.334 881.187 618.094 878.955 613.742 876.65C620.495 869.024 627.03 865.021 637.192 863.654Z"></path></svg>
