<?xml version="1.0"?>
<svg xmlns="http://www.w3.org/2000/svg" viewBox="238.47 70.94 195.06 335.38" width="195.06" height="335.38"><path fill="#B6B7BA" d="M289.402 140.578C296.13 121.397 306.286 98.5698 324.575 87.8855C339.887 78.9404 357.795 106.673 363.546 117.569C367.672 125.388 369.843 133.665 372.3 142.062L372.409 142.722C374.477 154.737 377.924 165.323 379.808 178.419C383.431 203.615 380.789 223.74 379.887 248.141C378.33 270.854 381.166 276.833 374.771 301.456C372.219 306.677 367.596 316.538 364.392 321.137C364.741 324.226 364.406 326.66 361.976 328.725C358.227 330.078 310.131 330.071 302.545 329.499C301.6 329.428 299.814 327.61 299.246 326.608C297.916 324.262 298.324 321.89 298.889 319.388C294.313 313.999 290.587 306.814 287.47 300.489C287.61 298.374 283.538 284.032 283.071 280C281.796 269.009 281.76 258.873 281.571 247.825C281.517 226.278 278.689 205.262 281.609 183.727C283.563 169.314 284.814 154.5 289.402 140.578Z"></path><path fill="#17252E" d="M289.402 140.578C296.13 121.397 306.286 98.5698 324.575 87.8855C339.887 78.9404 357.795 106.673 363.546 117.569C367.672 125.388 369.843 133.665 372.3 142.062C363.257 147.243 353.353 150.751 343.064 152.417C323.076 155.707 305.824 152.321 289.402 140.578Z"></path><path fill="#17252E" d="M298.889 319.388C299.815 318.773 300.846 318.082 302.011 318.055C321.525 317.607 341.173 317.67 360.687 318.086C362.293 318.12 363.427 320.021 364.392 321.137C364.741 324.226 364.406 326.66 361.976 328.725C358.227 330.078 310.131 330.071 302.545 329.499C301.6 329.428 299.814 327.61 299.246 326.608C297.916 324.262 298.324 321.89 298.889 319.388Z"></path><path fill="#17252E" d="M327.117 172.269C340.96 170.071 353.972 179.485 356.214 193.32C358.455 207.156 349.082 220.197 335.253 222.482C321.364 224.777 308.252 215.353 306 201.456C303.749 187.56 313.214 174.477 327.117 172.269Z"></path><path fill="#17252E" d="M281.571 247.825C281.76 258.873 281.796 269.009 283.071 280C283.538 284.032 287.61 298.374 287.47 300.489C272.029 311.506 261.387 332.766 255.525 350.345C253.791 339.951 252.331 328.571 250.644 318.203C249.791 312.954 246.468 295.005 247.043 291.204C248.727 280.064 273.387 254.274 281.571 247.825Z"></path><path fill="#17252E" d="M379.887 248.141C425.532 291.886 412.949 289.344 405.268 348.189L403.366 348.491C396.713 328.166 389.583 316.386 374.771 301.456C381.166 276.833 378.33 270.854 379.887 248.141Z"></path><path fill="#17252E" d="M328.064 335.09C328.393 335.072 328.721 335.054 329.05 335.036C335.283 334.784 341.346 337.107 345.814 341.46C353.782 349.238 354.941 359.231 355.134 369.687C351.263 368.43 348.615 367.953 344.577 367.199C342.38 381.298 340.654 386.796 332.171 398.285L331.167 398.322C323.507 390.693 319.845 376.606 319.344 365.99C315.258 367.177 311.001 368.725 306.958 370.115C306.849 354.918 310.743 338.605 328.064 335.09Z"></path><path fill="#343840" d="M403.366 348.491L405.268 348.189C404.59 351.39 404.78 351.967 403.366 348.491Z"></path></svg>
