<?xml version="1.0"?>
<svg xmlns="http://www.w3.org/2000/svg" viewBox="626.45 388.76 183.22 255.04" width="183.22" height="255.04"><path fill="#B6B7BA" d="M678.27 451.296C685.851 430.973 695.838 411.884 714.984 400.217C720.661 396.758 728.605 404.119 732.297 407.818C744.81 420.356 751.891 436.067 758.874 452.013C761.186 457.798 761.787 462.315 763.401 467.776C770.083 490.373 765.405 504.948 763.376 526.619C772.114 535.66 781.304 544.398 790.156 553.325C793.534 556.733 798.665 561.288 801.667 564.745C785.254 564.412 768.43 564.418 752.01 564.726C746.164 564.836 741.043 566.879 735.569 566.841C722.642 566.77 709.68 566.408 696.751 566.494C692.672 566.522 692.161 564.649 689.905 564.57C684.386 564.376 678.623 564.495 673.068 564.489L634.448 564.387C645.86 551.899 661.259 537.727 673.808 526.056C673.984 523.626 671.655 510.6 671.126 506.951C668.355 487.835 670.566 469.243 678.27 451.296Z"></path><path fill="#17252E" d="M678.27 451.296C685.851 430.973 695.838 411.884 714.984 400.217C720.661 396.758 728.605 404.119 732.297 407.818C744.81 420.356 751.891 436.067 758.874 452.013C757.075 453.286 754.381 454.507 752.392 455.493C729.794 466.697 699.475 465.538 678.27 451.296Z"></path><path fill="#17252E" d="M673.808 526.056C674.909 531.77 683.475 554.751 687.562 558.272C688.373 557.416 687.869 558.049 688.5 556.919C689.203 555.661 689.829 555.083 691.217 554.638C695.345 553.312 743.674 553.808 745.618 554.965C747.088 555.839 748.033 557.294 748.31 558.965C748.421 559.636 748.469 560.314 748.535 560.99L748.725 562.852C754.402 553.128 759.979 537.529 763.376 526.619C772.114 535.66 781.304 544.398 790.156 553.325C793.534 556.733 798.665 561.288 801.667 564.745C785.254 564.412 768.43 564.418 752.01 564.726C746.164 564.836 741.043 566.879 735.569 566.841C722.642 566.77 709.68 566.408 696.751 566.494C692.672 566.522 692.161 564.649 689.905 564.57C684.386 564.376 678.623 564.495 673.068 564.489L634.448 564.387C645.86 551.899 661.259 537.727 673.808 526.056Z"></path><path fill="#17252E" d="M714.753 478.904C728.044 476.986 740.398 486.14 742.433 499.414C744.468 512.688 735.424 525.122 722.168 527.274C708.746 529.452 696.122 520.27 694.062 506.829C692.001 493.389 701.295 480.846 714.753 478.904Z"></path><path fill="#17252E" d="M714.091 573.601C715.332 573.487 717.052 573.231 718.259 573.311C738.744 574.674 742.502 592.226 742.78 607.935L732.277 605.404C730.05 618.699 728.384 622.858 720.944 634.209L719.699 635.802C712.792 635.456 707.283 610.419 706.752 604.315C702.86 605.657 699.285 606.745 695.329 607.896C695.36 591.641 697.926 580.694 714.091 573.601Z"></path></svg>
