<?xml version="1.0"?>
<svg xmlns="http://www.w3.org/2000/svg" viewBox="75.6 57.1 426.36 273.82" width="426.36" height="273.82"><path fill="#12968a" d="M304.207 183.472C326.819 137.388 376.762 94.7272 425.133 77.2599C444.39 70.3059 479.846 65.0959 488.016 91.3059C493.96 110.377 482.857 138.473 474.414 155.494C462.396 178.398 443.044 197.845 418.043 205.535C407.703 208.633 396.992 210.324 386.201 210.563C381.613 211.411 375.945 210.301 373.48 211.735C427.916 228.616 457.143 276.341 396.046 308.217C386.743 313.07 373.503 314.809 363.307 311.475C349.994 306.609 334.045 291.616 324.25 281.32C318.971 275.77 313.557 267.963 308.407 262.508C313.466 236.214 312.024 209.082 304.207 183.472Z"></path><path fill="#c2691e" d="M367.136 210.277C370.847 210.144 382.352 210.394 386.201 210.563C381.613 211.411 375.945 210.301 373.48 211.735C371.364 211.372 369.245 210.763 367.136 210.277Z"></path><path fill="#2b3e34" d="M404.8 120.629C446.551 116.022 434.79 172.785 393.309 178.44C347.844 179.281 366.315 127.291 404.8 120.629Z"></path><path fill="#2b3e34" d="M354.394 229.665C369.115 229.227 386.952 239.826 389.939 255.003C390.976 260.276 391.124 265.702 388.816 270.691C387.225 274.104 384.308 276.719 380.741 277.927C380.178 278.122 379.614 278.317 379.05 278.513C372.462 279.564 368.063 278.578 362.417 274.774C353.984 268.855 344.271 259.366 342.61 248.746C341.013 238.536 343.84 231.626 354.394 229.665Z"></path><path fill="#12968a" d="M210.673 210.576C202.64 210.418 192.14 209.19 184.319 207.628C158.653 202.702 136.121 187.486 121.963 165.519C108.831 145.473 83.6015 83.5306 121.697 74.2088C150.076 67.2646 184.263 83.5853 207.561 99.2289C232.983 116.299 256.332 138.119 274.709 162.705C279.868 169.522 284.029 176.728 288.358 184.039C282.116 204.005 280.009 225.033 282.165 245.84C282.657 251.088 283.72 256.533 284.358 261.824C280.924 265.211 276.603 271.49 273.355 275.403C255.097 297.681 229.662 322.914 198.442 309.251C187.061 304.27 170.243 289.984 165.738 278.103C162.367 268.984 162.826 258.888 167.012 250.112C176.468 229.82 198.306 219.059 218.154 211.781C215.223 209.584 213.807 211.523 210.673 210.576Z"></path><path fill="#c2691e" d="M210.673 210.576C213.083 210.259 220.352 210.258 223.98 209.975C222.139 210.618 220.077 211.492 218.154 211.781C215.223 209.584 213.807 211.523 210.673 210.576Z"></path><path fill="#2b3e34" d="M179.81 120.665C199.809 119.589 220.64 134.418 225.092 154.237C227.033 162.88 223.799 170.804 216.034 175.138C212.572 177.07 210.413 177.622 206.621 178.359C195.53 179.335 186.86 176.421 177.633 169.73C166.003 161.296 154.329 141.927 164.409 128.268C167.999 123.404 173.953 121.429 179.81 120.665Z"></path><path fill="#2b3e34" d="M233.861 230.181C236.201 229.991 237.937 230.128 240.25 230.499C243.61 231.035 246.602 232.933 248.519 235.745C258.304 250.293 237.389 274.532 223.992 278.409C223.032 278.683 222.068 278.944 221.101 279.19C192.64 280.526 197.229 234.613 233.861 230.181Z"></path><path fill="#0a544d" d="M292.721 158.466C288.747 134.399 278.522 113.715 260.455 96.9349C257.51 94.1997 250.631 89.6789 249.462 86.7915C249.702 85.0977 249.375 85.8913 250.833 84.508C251.585 84.2535 252.123 84.0854 252.928 84.2963C262.439 86.787 284.891 125.35 288.621 135.392C290.57 140.638 292.973 154.971 294.791 157.897C296.442 158.531 295.541 158.37 297.699 157.722L298.331 156.353L298.474 156.952C298.529 157.306 298.523 157.995 298.87 158.22C298.968 158.212 299.066 158.204 299.164 158.196C307.324 163.544 309.023 171.541 301.203 178.232L304.207 183.472C312.024 209.082 313.466 236.214 308.407 262.508C307.608 267.005 303.263 292.505 293.234 285.612C287.944 281.975 285.648 268.375 284.358 261.824C283.72 256.533 282.657 251.088 282.165 245.84C280.009 225.033 282.116 204.005 288.358 184.039C289.061 182.101 290.181 180.173 291.155 178.338C284.015 170.995 284.316 164.32 292.721 158.466Z"></path><path fill="#0a544d" d="M317.725 108.56C319.594 104.459 334.737 84.5272 338.081 84.2466C346.604 83.5314 338.856 90.7036 334.985 93.4369C329.151 97.5559 323.028 105.325 318.59 110.512L317.725 108.56Z"></path><path fill="#2b3e34" d="M317.725 108.56L318.59 110.512C309.19 123.168 302.634 139.984 299.912 155.496C299.755 156.393 299.435 157.324 299.164 158.196C299.066 158.204 298.968 158.212 298.87 158.22C298.523 157.995 298.529 157.306 298.474 156.952L298.331 156.353C299.491 141.955 309.011 120.115 317.725 108.56Z"></path></svg>