<?xml version="1.0"?>
<svg xmlns="http://www.w3.org/2000/svg" viewBox="126.01 47.81 235.66 285" width="235.66" height="285"><path fill="#12968a" d="M147.016 124.865C137.468 114.552 134.013 80.9257 142.11 69.0537C151.146 55.8053 179.976 74.5898 188.699 80.6601C190.289 79.9597 191.887 79.2782 193.492 78.6157C211.323 71.3077 224.754 70.4831 243.261 76.9814C246.231 78.0243 250.819 80.8802 254.471 82.3969L256.785 81.0342C260.764 76.6408 269.796 71.8704 275.146 69.4414C294.871 60.4856 304.002 65.7907 304.545 87.6599C304.92 102.746 301.172 112.892 294.466 126.153C298.824 137.528 302.438 149.37 297.304 161.444C293.285 170.894 279.176 183.074 270.651 188.351C269.259 189.684 264.049 192.639 262.08 193.424L262.292 194.357C263.033 197.524 264.261 200.927 265.091 204.353C267.707 215.329 269.812 226.42 271.402 237.591C280.958 240.496 285.984 249.982 286.641 259.478L285.641 259.462C285.498 261.526 285.695 264.467 285.167 266.206C284.47 273.323 283.115 277.517 279.963 283.906L281.096 284.106C279.674 285.748 278.688 287.152 277.082 288.655C274.131 292.175 281.822 291.984 282.405 298.255C283.319 308.08 264.424 304.897 258.364 305.583C254.155 318.903 248.974 322.734 233.739 320.337C221.475 318.407 230.058 305.301 227.961 301.918C224.657 301.304 218.143 301.539 214.54 301.554C215.306 316.716 214.097 324.802 193.395 319.012C188.772 317.719 186.399 309.917 184.854 305.517C181.269 303.905 172.19 306.179 167.255 304.44C153.503 299.595 167.111 292.202 168.039 290.236C155.624 279.93 152.38 259.073 160.364 245.275C162.942 240.82 165.737 238.337 169.797 235.333C170.835 218.456 173.039 209.197 180.152 194.188C168.143 186.839 154.005 177.929 146.074 165.776C137.344 152.4 143.971 137.887 147.016 124.865Z"></path><path fill="#f0e2c2" d="M147.363 124.562C147.523 125.222 147.672 125.854 147.853 126.509C144.218 137.059 142.579 142.454 143.137 153.697C143.073 154.387 143.04 154.371 143.298 154.994C143.867 159.504 145.191 163.555 148.232 167.038C148.431 167.404 148.344 167.279 148.659 167.649C156.249 176.486 166.102 185.01 176.321 190.777C196.91 202.546 221.355 205.581 244.197 199.206C249.63 197.724 256.559 195.273 261.71 192.866L262.08 193.424L262.292 194.357C263.033 197.524 264.261 200.927 265.091 204.353C267.707 215.329 269.812 226.42 271.402 237.591C280.958 240.496 285.984 249.982 286.641 259.478L285.641 259.462C285.498 261.526 285.695 264.467 285.167 266.206C284.47 273.323 283.115 277.517 279.963 283.906L281.096 284.106C279.674 285.748 278.688 287.152 277.082 288.655C274.131 292.175 281.822 291.984 282.405 298.255C283.319 308.08 264.424 304.897 258.364 305.583C254.155 318.903 248.974 322.734 233.739 320.337C221.475 318.407 230.058 305.301 227.961 301.918C224.657 301.304 218.143 301.539 214.54 301.554C215.306 316.716 214.097 324.802 193.395 319.012C188.772 317.719 186.399 309.917 184.854 305.517C181.269 303.905 172.19 306.179 167.255 304.44C153.503 299.595 167.111 292.202 168.039 290.236C155.624 279.93 152.38 259.073 160.364 245.275C162.942 240.82 165.737 238.337 169.797 235.333C170.835 218.456 173.039 209.197 180.152 194.188C168.143 186.839 154.005 177.929 146.074 165.776C137.344 152.4 143.971 137.887 147.016 124.865L147.363 124.562Z"></path><path fill="#12968a" d="M147.363 124.562C147.523 125.222 147.672 125.854 147.853 126.509C144.218 137.059 142.579 142.454 143.137 153.697C143.073 154.387 143.04 154.371 143.298 154.994C143.867 159.504 145.191 163.555 148.232 167.038C148.431 167.404 148.344 167.279 148.659 167.649C156.249 176.486 166.102 185.01 176.321 190.777C196.91 202.546 221.355 205.581 244.197 199.206C249.63 197.724 256.559 195.273 261.71 192.866L262.08 193.424L262.292 194.357C263.033 197.524 264.261 200.927 265.091 204.353C267.707 215.329 269.812 226.42 271.402 237.591C280.958 240.496 285.984 249.982 286.641 259.478L285.641 259.462C285.498 261.526 285.695 264.467 285.167 266.206C284.47 273.323 283.115 277.517 279.963 283.906L281.096 284.106C279.674 285.748 278.688 287.152 277.082 288.655C274.131 292.175 281.822 291.984 282.405 298.255C283.319 308.08 264.424 304.897 258.364 305.583L257.904 304.952C258.663 302.355 259.535 299.143 260.712 296.743C261.818 292.726 263.898 287.324 265.188 283.102C270.787 264.775 272.746 250.019 269.343 231.016C269.178 230.575 269.193 230.635 269.158 230.163L268.859 227.987C268.676 227.499 268.695 227.572 268.661 227.049L268.371 225.015C268.195 224.568 268.215 224.649 268.196 224.167C267.619 217.598 263.27 200.79 261.317 194.163C257.317 195.844 254.193 196.991 250.069 198.353C228.413 205.359 213.431 204.759 191.87 198.905C187.491 206 184.421 218.943 187.349 226.915C186.184 234.468 189.591 244.983 193.343 251.495C193.486 251.841 193.486 251.831 193.725 252.12L197.36 257.494C197.659 257.748 197.6 257.71 197.814 258.046C202.841 263.989 207.024 268.091 213.444 272.57C213.097 283.283 213.145 294.005 213.588 304.714C213.511 307.454 213.513 310.194 213.595 312.933L213.383 313.821C212.948 314.728 212.946 314.673 212.943 315.661C211.87 316.981 210.203 318.726 208.433 318.844C206.595 316.676 208.302 313.336 205.481 309.681L205.121 310.175L205.374 311.142C206.35 314.958 206.481 314.51 205.799 318.561L205.643 319.467C202.895 319.548 200.547 320.041 198.435 318.43C197.548 315.119 200.407 315.003 198.673 311.379C197.082 310.331 197.647 310.288 196.164 310.244C197.479 312.723 198.893 314.632 197.564 317.369C195.781 318.673 196.761 318.277 194.474 318.492C192.504 317.748 192.151 317.196 190.58 315.687C190.224 315.329 190.236 315.358 189.972 314.927C187.887 311.98 186.952 308.813 185.691 305.417L184.854 305.517C181.269 303.905 172.19 306.179 167.255 304.44C153.503 299.595 167.111 292.202 168.039 290.236C155.624 279.93 152.38 259.073 160.364 245.275C162.942 240.82 165.737 238.337 169.797 235.333C170.835 218.456 173.039 209.197 180.152 194.188C168.143 186.839 154.005 177.929 146.074 165.776C137.344 152.4 143.971 137.887 147.016 124.865L147.363 124.562Z"></path><path fill="#0a544d" d="M147.363 124.562C147.523 125.222 147.672 125.854 147.853 126.509C144.218 137.059 142.579 142.454 143.137 153.697C143.073 154.387 143.04 154.371 143.298 154.994C143.867 159.504 145.191 163.555 148.232 167.038C148.431 167.404 148.344 167.279 148.659 167.649C156.249 176.486 166.102 185.01 176.321 190.777C196.91 202.546 221.355 205.581 244.197 199.206C249.63 197.724 256.559 195.273 261.71 192.866L262.08 193.424L262.292 194.357C263.033 197.524 264.261 200.927 265.091 204.353C267.707 215.329 269.812 226.42 271.402 237.591C280.958 240.496 285.984 249.982 286.641 259.478L285.641 259.462C285.498 261.526 285.695 264.467 285.167 266.206C284.47 273.323 283.115 277.517 279.963 283.906L281.096 284.106C279.674 285.748 278.688 287.152 277.082 288.655C274.131 292.175 281.822 291.984 282.405 298.255C283.319 308.08 264.424 304.897 258.364 305.583L257.904 304.952C258.663 302.355 259.535 299.143 260.712 296.743C261.818 292.726 263.898 287.324 265.188 283.102C270.787 264.775 272.746 250.019 269.343 231.016C269.178 230.575 269.193 230.635 269.158 230.163L268.859 227.987C268.676 227.499 268.695 227.572 268.661 227.049L268.371 225.015C268.195 224.568 268.215 224.649 268.196 224.167C267.619 217.598 263.27 200.79 261.317 194.163C257.317 195.844 254.193 196.991 250.069 198.353C228.413 205.359 213.431 204.759 191.87 198.905C188.419 197.856 184.344 196.136 181.091 194.532C172.32 209.577 170.337 229.51 170.559 246.641C170.774 263.187 176.415 279.478 181.93 294.902C182.271 296.317 185.031 303.68 185.691 305.417L184.854 305.517C181.269 303.905 172.19 306.179 167.255 304.44C153.503 299.595 167.111 292.202 168.039 290.236C155.624 279.93 152.38 259.073 160.364 245.275C162.942 240.82 165.737 238.337 169.797 235.333C170.835 218.456 173.039 209.197 180.152 194.188C168.143 186.839 154.005 177.929 146.074 165.776C137.344 152.4 143.971 137.887 147.016 124.865L147.363 124.562Z"></path><path fill="#12968a" d="M261.623 296.414C266.549 286.19 271.379 265.145 272.157 253.976C272.41 250.354 271.979 243.327 271.74 239.432L272.686 239.111C274.666 239.521 274.616 239.589 276.368 240.704C277.511 242.261 278.163 242.718 279.716 243.908L280.189 244.764C280.603 245.653 280.663 245.638 281.337 246.436C281.648 246.871 281.626 246.891 281.832 247.411C283.324 250.568 284.342 252.963 285.145 256.404C285.37 257.501 285.498 258.352 285.641 259.462C285.498 261.526 285.695 264.467 285.167 266.206C284.47 273.323 283.115 277.517 279.963 283.906L281.096 284.106C279.674 285.748 278.688 287.152 277.082 288.655C274.131 292.175 281.822 291.984 282.405 298.255C283.319 308.08 264.424 304.897 258.364 305.583L257.904 304.952C258.663 302.355 259.535 299.143 260.712 296.743C261.129 296.481 261.092 296.525 261.623 296.414Z"></path><path fill="#2b3e34" d="M276.457 288.404L277.082 288.655C274.131 292.175 281.822 291.984 282.405 298.255C283.319 308.08 264.424 304.897 258.364 305.583L257.904 304.952C258.663 302.355 259.535 299.143 260.712 296.743C261.129 296.481 261.092 296.525 261.623 296.414C266.271 296.628 272.884 292.002 275.874 288.705L276.457 288.404Z"></path><path fill="#0a544d" d="M279.963 283.906L281.096 284.106C279.674 285.748 278.688 287.152 277.082 288.655L276.457 288.404L276.396 287.92C277.828 286.605 278.688 285.348 279.963 283.906Z"></path><path fill="#0c6b62" d="M285.145 256.404C285.37 257.501 285.498 258.352 285.641 259.462C285.498 261.526 285.695 264.467 285.167 266.206C284.877 263.738 285.052 259.001 285.145 256.404Z"></path><path fill="#12968a" d="M157.359 260.111C157.722 250.282 161.417 242.436 169.486 236.524C169.069 262.406 172.571 271.213 180.892 295.277C179.586 297.961 170.378 291.225 169.071 290.047L168.603 289.884C167.434 288.623 166.418 287.821 165.614 286.326C160.549 281.691 157.827 272.658 157.342 265.89C157.566 264.308 157.563 261.684 157.359 260.111Z"></path><path fill="#d09a55" d="M165.614 286.326C166.938 287.07 168.294 288.735 169.071 290.047L168.603 289.884C167.434 288.623 166.418 287.821 165.614 286.326Z"></path><path fill="#2b3e34" d="M168.603 289.884L169.071 290.047C170.378 291.225 179.586 297.961 180.892 295.277L181.93 294.902C182.271 296.317 185.031 303.68 185.691 305.417L184.854 305.517C181.269 303.905 172.19 306.179 167.255 304.44C153.503 299.595 167.111 292.202 168.039 290.236L168.603 289.884Z"></path><path fill="#0c6b62" d="M157.342 265.89C156.774 264.754 156.741 261.217 157.359 260.111C157.563 261.684 157.566 264.308 157.342 265.89Z"></path><path fill="#d09a55" d="M276.368 240.704C278.243 241.883 278.384 242.105 279.716 243.908C278.163 242.718 277.511 242.261 276.368 240.704Z"></path><path fill="#12968a" d="M250.069 198.353C254.193 196.991 257.317 195.844 261.317 194.163C263.27 200.79 267.619 217.598 268.196 224.167C268.215 224.649 268.195 224.568 268.371 225.015L268.661 227.049C268.695 227.572 268.676 227.499 268.859 227.987L269.158 230.163C269.193 230.635 269.178 230.575 269.343 231.016C272.746 250.019 270.787 264.775 265.188 283.102C263.898 287.324 261.818 292.726 260.712 296.743C259.535 299.143 258.663 302.355 257.904 304.952C256.443 308.971 252.086 319.842 246.77 319.527C242.261 316.863 245.791 313.666 245.992 310.29L245.424 309.92C243.119 311.612 243.334 316.164 243.701 318.672C242.387 319.845 237.398 320.012 236.081 318.971C233.212 313.942 237.496 312.05 236.577 308.224C233.131 309.585 235.091 317.405 234.019 319.107C232.388 319.094 231.952 318.703 230.534 317.925C229.431 317.12 229.453 317.087 228.616 316.013C226.999 312.545 229.409 305.384 229.448 301.076C229.537 291.421 229.431 281.776 229.521 272.123C237.461 266.115 241.932 261.106 246.957 252.317C250.283 246.499 254.763 233.673 252.879 227.135L253.974 226.983C257.588 222.239 255.356 210.279 253.262 205.065C252.479 203.117 251.21 201.164 250.396 199.171L250.069 198.353Z"></path><path fill="#0a544d" d="M252.879 227.135C254.763 233.673 250.283 246.499 246.957 252.317C241.932 261.106 237.461 266.115 229.521 272.123C229.431 281.776 229.537 291.421 229.448 301.076C229.409 305.384 226.999 312.545 228.616 316.013C229.453 317.087 229.431 317.12 230.534 317.925C231.952 318.703 232.388 319.094 234.019 319.107C235.091 317.405 233.131 309.585 236.577 308.224C237.496 312.05 233.212 313.942 236.081 318.971C237.398 320.012 242.387 319.845 243.701 318.672C243.334 316.164 243.119 311.612 245.424 309.92L245.992 310.29C245.791 313.666 242.261 316.863 246.77 319.527C252.086 319.842 256.443 308.971 257.904 304.952L258.364 305.583C254.155 318.903 248.974 322.734 233.739 320.337C221.475 318.407 230.058 305.301 227.961 301.918C224.657 301.304 218.143 301.539 214.54 301.554C215.306 316.716 214.097 324.802 193.395 319.012C188.772 317.719 186.399 309.917 184.854 305.517L185.691 305.417C186.952 308.813 187.887 311.98 189.972 314.927C190.236 315.358 190.224 315.329 190.58 315.687C192.151 317.196 192.504 317.748 194.474 318.492C196.761 318.277 195.781 318.673 197.564 317.369C198.893 314.632 197.479 312.723 196.164 310.244C197.647 310.288 197.082 310.331 198.673 311.379C200.407 315.003 197.548 315.119 198.435 318.43C200.547 320.041 202.895 319.548 205.643 319.467L205.799 318.561C206.481 314.51 206.35 314.958 205.374 311.142L205.121 310.175L205.481 309.681C208.302 313.336 206.595 316.676 208.433 318.844C210.203 318.726 211.87 316.981 212.943 315.661C212.946 314.673 212.948 314.728 213.383 313.821L213.595 312.933C213.513 310.194 213.511 307.454 213.588 304.714C213.145 294.005 213.097 283.283 213.444 272.57C207.024 268.091 202.841 263.989 197.814 258.046C197.6 257.71 197.659 257.748 197.36 257.494L193.725 252.12C193.486 251.831 193.486 251.841 193.343 251.495C189.591 244.983 186.184 234.468 187.349 226.915L187.445 227.336C188.274 231.114 188.57 234.63 189.515 238.613C193.194 254.127 202.188 262.669 214.495 272.081L214.557 300.604L228.433 300.58C228.362 292.53 227.667 278.451 228.676 271.141C239.718 264.158 247.752 252.226 251.009 239.524C251.893 236.075 251.815 230.16 252.879 227.135Z"></path><path fill="#0c6b62" d="M213.588 304.714C214.331 307.76 214.402 309.888 213.595 312.933C213.513 310.194 213.511 307.454 213.588 304.714Z"></path><path fill="#f0e2c2" d="M191.343 159.878C192.795 157.007 194.072 158.153 196.737 156.681C205.042 152.097 212.702 148.596 222.449 148.959C231.002 149.277 240.898 151.717 247.563 157.427C248.181 157.975 248.249 158.246 249.211 159.011L249.922 159.57C250.477 160.736 251.695 161.439 252.983 161.337C254.271 161.234 255.361 160.347 255.725 159.107C255.995 158.473 256.147 157.936 256.358 157.28L256.978 157.867C257.769 159.83 258.057 160.195 259.494 161.765C257.928 162.716 257.206 162.024 255.532 162.666C254.643 163.082 254.035 163.932 253.929 164.909C253.823 165.885 254.234 166.846 255.014 167.444C256.246 168.135 257.227 168.325 258.224 169.117L258.203 169.392C255.687 169.967 256.834 168.882 254.455 170.487C255.71 169.967 257.156 170.297 258.062 171.309C258.968 172.321 259.136 173.795 258.481 174.985C261.742 177.823 266.676 184.041 269.745 187.534C270.583 186.828 270.9 186.723 271.926 186.19C271.506 186.913 271.081 187.633 270.651 188.351C269.259 189.684 264.049 192.639 262.08 193.424L261.71 192.866C256.559 195.273 249.63 197.724 244.197 199.206C221.355 205.581 196.91 202.546 176.321 190.777C177.42 186.661 183.39 177.137 187.471 176.043C188.767 175.697 189.704 174.57 189.808 173.232C189.911 171.894 189.159 170.637 187.931 170.095C187.616 167.376 189.933 162.348 191.343 159.878Z"></path><path fill="#2b3e34" d="M254.455 170.487C255.71 169.967 257.156 170.297 258.062 171.309C258.968 172.321 259.136 173.795 258.481 174.985C257.803 176.215 256.403 176.86 255.028 176.574C253.654 176.289 252.626 175.14 252.494 173.742C252.362 172.344 253.157 171.024 254.455 170.487Z"></path><path fill="#c2691e" d="M269.745 187.534C270.583 186.828 270.9 186.723 271.926 186.19C271.506 186.913 271.081 187.633 270.651 188.351C269.259 189.684 264.049 192.639 262.08 193.424L261.71 192.866C264.545 191.168 267.414 190.072 269.745 187.534Z"></path><path fill="#2b3e34" d="M214.933 154.616C220.204 154.176 231.754 153.181 227.776 162.317C226.608 164.998 225.302 165.985 223.015 167.629C217.454 169.41 215.347 167.41 211.763 162.719C209.297 159.492 211.1 156.713 214.104 155.08L214.933 154.616Z"></path><path fill="#2b3e34" d="M247.143 166.9C247.874 166.388 248.827 166.321 249.623 166.723C250.419 167.126 250.929 167.933 250.951 168.825C250.973 169.716 250.503 170.548 249.727 170.989C248.603 171.628 247.175 171.271 246.484 170.177C245.793 169.084 246.083 167.641 247.143 166.9Z"></path><path fill="#2b3e34" d="M245.522 159.773C246.328 159.4 247.274 159.504 247.978 160.045C248.682 160.586 249.027 161.474 248.874 162.348C248.721 163.223 248.094 163.94 247.248 164.209C246.048 164.59 244.76 163.973 244.303 162.801C243.847 161.628 244.381 160.303 245.522 159.773Z"></path><path fill="#2b3e34" d="M192.629 166.228C193.695 166.015 194.76 166.598 195.155 167.611C195.55 168.624 195.161 169.775 194.231 170.34C193.467 170.804 192.5 170.77 191.771 170.252C191.041 169.734 190.69 168.832 190.876 167.958C191.063 167.083 191.752 166.403 192.629 166.228Z"></path><path fill="#2b3e34" d="M194.296 159.69C194.957 159.415 195.716 159.516 196.282 159.956C196.848 160.396 197.133 161.107 197.029 161.816C196.924 162.525 196.447 163.123 195.778 163.382C194.763 163.775 193.62 163.278 193.215 162.268C192.809 161.258 193.291 160.109 194.296 159.69Z"></path><path fill="#2b3e34" d="M147.016 124.865C137.468 114.552 134.013 80.9257 142.11 69.0537C151.146 55.8053 179.976 74.5898 188.699 80.6601C190.289 79.9597 191.887 79.2782 193.492 78.6157C211.323 71.3077 224.754 70.4831 243.261 76.9814C246.231 78.0243 250.819 80.8802 254.471 82.3969L256.785 81.0342L255.914 82.7155C256.944 84.6153 259.734 85.7563 261.77 86.8827C261.544 87.3328 261.532 87.433 261.293 87.7432C250.382 82.0026 247.181 78.4898 234.017 75.3369C233.596 75.1697 233.664 75.1801 233.217 75.1474C229.518 74.4185 227.62 74.0848 223.882 73.8536C222.552 73.992 221.216 73.7319 219.891 73.5979L219.563 73.587C218.376 73.7315 217.341 73.9973 216.145 73.8638C203.737 74.7677 191.04 79.6731 180.804 86.6751C162.663 100.922 158.594 106.32 147.853 126.509C147.672 125.854 147.523 125.222 147.363 124.562L147.016 124.865Z"></path><path fill="#12968a" d="M147.016 124.865C137.468 114.552 134.013 80.9257 142.11 69.0537C151.146 55.8053 179.976 74.5898 188.699 80.6601C190.289 79.9597 191.887 79.2782 193.492 78.6157C211.323 71.3077 224.754 70.4831 243.261 76.9814C246.231 78.0243 250.819 80.8802 254.471 82.3969L256.785 81.0342L255.914 82.7155C256.944 84.6153 259.734 85.7563 261.77 86.8827C261.544 87.3328 261.532 87.433 261.293 87.7432C250.382 82.0026 247.181 78.4898 234.017 75.3369C233.596 75.1697 233.664 75.1801 233.217 75.1474C229.518 74.4185 227.62 74.0848 223.882 73.8536C222.552 73.992 221.216 73.7319 219.891 73.5979L219.563 73.587C218.376 73.7315 217.341 73.9973 216.145 73.8638C203.737 74.7677 191.04 79.6731 180.804 86.6751L180.244 85.7394C173.021 79.5061 153.66 70.8274 146.599 80.0687C138.573 90.5734 145.105 108.296 150.863 117.998C149.885 119.911 148.725 122.489 147.595 124.218L147.363 124.562L147.016 124.865Z"></path><path fill="#0a544d" d="M147.016 124.865C137.468 114.552 134.013 80.9257 142.11 69.0537C151.146 55.8053 179.976 74.5898 188.699 80.6601C190.289 79.9597 191.887 79.2782 193.492 78.6157C211.323 71.3077 224.754 70.4831 243.261 76.9814C246.231 78.0243 250.819 80.8802 254.471 82.3969L256.785 81.0342L255.914 82.7155C256.944 84.6153 259.734 85.7563 261.77 86.8827C261.544 87.3328 261.532 87.433 261.293 87.7432C250.382 82.0026 247.181 78.4898 234.017 75.3369C233.596 75.1697 233.664 75.1801 233.217 75.1474C229.518 74.4185 227.62 74.0848 223.882 73.8536C222.552 73.992 221.216 73.7319 219.891 73.5979L219.563 73.587C218.376 73.7315 217.341 73.9973 216.145 73.8638C203.737 74.7677 191.04 79.6731 180.804 86.6751L180.244 85.7394C182.382 84.4782 185.28 82.957 187.022 81.2998L186.493 80.4057C186.062 80.0489 185.998 79.9402 185.54 79.7304C176.876 73.0716 161.03 64.8747 149.565 65.4254C141.177 65.8284 138.897 79.2576 138.798 86.1037C138.437 86.9081 138.527 86.893 138.624 87.8139L138.538 92.9937C138.759 94.4627 139.02 95.4227 138.84 96.8721C139.467 104.856 142.638 117.819 147.595 124.218L147.363 124.562L147.016 124.865Z"></path><path fill="#d09a55" d="M219.891 73.5979C221.28 73.5262 222.694 73.2456 223.882 73.8536C222.552 73.992 221.216 73.7319 219.891 73.5979Z"></path><path fill="#c2691e" d="M138.538 92.9937C138.759 94.4627 139.02 95.4227 138.84 96.8721C138.308 95.8418 138.489 95.1359 138.519 93.9602L138.538 92.9937Z"></path><path fill="#d09a55" d="M216.145 73.8638C217.223 73.284 218.378 73.5332 219.563 73.587C218.376 73.7315 217.341 73.9973 216.145 73.8638Z"></path><path fill="#d09a55" d="M138.624 87.8139C138.527 86.893 138.437 86.9081 138.798 86.1037C138.905 87.011 139.011 87.0732 138.624 87.8139Z"></path><path fill="#2b3e34" d="M256.785 81.0342C260.764 76.6408 269.796 71.8704 275.146 69.4414C294.871 60.4856 304.002 65.7907 304.545 87.6599C304.92 102.746 301.172 112.892 294.466 126.153C298.824 137.528 302.438 149.37 297.304 161.444C293.285 170.894 279.176 183.074 270.651 188.351C271.081 187.633 271.506 186.913 271.926 186.19C272.527 185.98 273.457 185.219 274.025 184.809C274.348 184.616 274.382 184.611 274.643 184.337L275.949 183.352C276.318 183.134 276.244 183.209 276.516 182.923C277.893 181.945 279.475 180.532 280.789 179.424C282.534 177.314 288.868 170.973 290.936 169.297C304.414 156.37 298.205 132.235 289.492 118.469C280.539 104.364 274.325 97.9075 261.293 87.7432C261.532 87.433 261.544 87.3328 261.77 86.8827C259.734 85.7563 256.944 84.6153 255.914 82.7155L256.785 81.0342Z"></path><path fill="#12968a" d="M256.785 81.0342C260.764 76.6408 269.796 71.8704 275.146 69.4414C294.871 60.4856 304.002 65.7907 304.545 87.6599C304.92 102.746 301.172 112.892 294.466 126.153C298.824 137.528 302.438 149.37 297.304 161.444C293.285 170.894 279.176 183.074 270.651 188.351C271.081 187.633 271.506 186.913 271.926 186.19C272.527 185.98 273.457 185.219 274.025 184.809C274.348 184.616 274.382 184.611 274.643 184.337L275.949 183.352C276.318 183.134 276.244 183.209 276.516 182.923C277.893 181.945 279.475 180.532 280.789 179.424C282.534 177.314 288.868 170.973 290.936 169.297C304.414 156.37 298.205 132.235 289.492 118.469L290.85 118.432C309.231 87.9279 297.151 59.3815 261.77 86.8827C259.734 85.7563 256.944 84.6153 255.914 82.7155L256.785 81.0342Z"></path><path fill="#0a544d" d="M256.785 81.0342C260.764 76.6408 269.796 71.8704 275.146 69.4414C294.871 60.4856 304.002 65.7907 304.545 87.6599C304.92 102.746 301.172 112.892 294.466 126.153C298.824 137.528 302.438 149.37 297.304 161.444C293.285 170.894 279.176 183.074 270.651 188.351C271.081 187.633 271.506 186.913 271.926 186.19C272.527 185.98 273.457 185.219 274.025 184.809C274.348 184.616 274.382 184.611 274.643 184.337L275.949 183.352C276.318 183.134 276.244 183.209 276.516 182.923C277.893 181.945 279.475 180.532 280.789 179.424C282.534 177.314 288.868 170.973 290.936 169.297C304.414 156.37 298.205 132.235 289.492 118.469L290.85 118.432L293.992 124.579C299.066 115.611 301.882 107.512 303.184 97.3152C303.129 96.3902 303.028 96.4601 303.396 95.6852C303.74 86.013 303.877 80.9958 300.201 72.0329C299.919 70.9528 299.921 70.9857 299.146 70.1543L298.743 69.463C297.871 68.0972 297.651 68.0104 296.34 66.997C287.803 63.4487 272.437 71.1401 265.345 75.8029C263.452 77.0476 258.571 80.4389 256.785 81.0342Z"></path><path fill="#d09a55" d="M290.936 169.297C288.986 171.892 283.384 177.492 280.789 179.424C282.534 177.314 288.868 170.973 290.936 169.297Z"></path><path fill="#c2691e" d="M303.396 95.6852C303.527 96.5971 303.626 96.596 303.184 97.3152C303.129 96.3902 303.028 96.4601 303.396 95.6852Z"></path><path fill="#c2691e" d="M296.34 66.997C297.651 68.0104 297.871 68.0972 298.743 69.463C297.405 68.5643 297.323 68.3355 296.34 66.997Z"></path><path fill="#2b3e34" d="M256.978 157.867C259.311 153.181 260.396 151.642 264.643 155.859C263.976 162.121 260.665 160.338 256.978 157.867Z"></path><path fill="#2b3e34" d="M187.471 176.043C186.129 176.401 184.711 175.842 183.975 174.665C183.238 173.488 183.356 171.969 184.265 170.919C185.173 169.869 186.661 169.535 187.931 170.095C189.159 170.637 189.911 171.894 189.808 173.232C189.704 174.57 188.767 175.697 187.471 176.043Z"></path><path fill="#2b3e34" d="M249.922 159.57C249.326 158.316 249.631 156.819 250.671 155.899C251.71 154.979 253.233 154.858 254.405 155.602C255.577 156.346 256.115 157.775 255.725 159.107C255.361 160.347 254.271 161.234 252.983 161.337C251.695 161.439 250.477 160.736 249.922 159.57Z"></path><path fill="#2b3e34" d="M186.61 156.066C187.657 154.743 189.583 154.528 190.897 155.586C192.212 156.645 192.412 158.572 191.343 159.878C190.286 161.169 188.386 161.366 187.086 160.32C185.786 159.273 185.574 157.375 186.61 156.066Z"></path><path fill="#0a544d" d="M255.532 162.666C256.782 162.08 258.272 162.489 259.049 163.63C259.825 164.772 259.659 166.308 258.655 167.256C257.652 168.204 256.109 168.284 255.014 167.444C254.234 166.846 253.823 165.885 253.929 164.909C254.035 163.932 254.643 163.082 255.532 162.666Z"></path><path fill="#2b3e34" d="M193.16 132.734C198.457 131.179 204.011 134.211 205.57 139.506C207.128 144.802 204.101 150.359 198.806 151.921C193.506 153.484 187.943 150.453 186.383 145.152C184.823 139.851 187.858 134.29 193.16 132.734Z"></path><path fill="#2b3e34" d="M243.119 130.936C248.542 130.067 253.642 133.762 254.505 139.186C255.368 144.61 251.667 149.706 246.242 150.563C240.826 151.419 235.74 147.725 234.878 142.309C234.017 136.894 237.705 131.804 243.119 130.936Z"></path><path fill="#2b3e34" d="M175.596 163.33C177.308 162.754 179.174 163.608 179.857 165.281C180.54 166.954 179.805 168.87 178.178 169.657C177.031 170.212 175.67 170.084 174.646 169.324C173.622 168.564 173.106 167.298 173.305 166.039C173.505 164.78 174.387 163.736 175.596 163.33Z"></path><path fill="#2b3e34" d="M263.611 163.86C264.64 163.193 265.948 163.133 267.034 163.701C268.119 164.27 268.815 165.379 268.853 166.604C268.891 167.829 268.266 168.98 267.218 169.615C265.631 170.577 263.566 170.087 262.58 168.514C261.594 166.941 262.054 164.869 263.611 163.86Z"></path><path fill="#2b3e34" d="M179.796 154.214C181.524 153.805 183.256 154.879 183.656 156.609C184.057 158.34 182.973 160.066 181.241 160.457C179.521 160.845 177.811 159.772 177.413 158.054C177.016 156.337 178.08 154.621 179.796 154.214Z"></path><path fill="#2b3e34" d="M183.612 162.787C184.867 161.846 186.646 162.092 187.598 163.339C188.551 164.586 188.321 166.367 187.082 167.331C185.829 168.307 184.019 168.073 183.055 166.81C182.09 165.547 182.34 163.74 183.612 162.787Z"></path><path fill="#2b3e34" d="M317.391 183.779L317.567 183.048C318.482 179.365 319.931 175.679 323.329 173.759C332.464 168.599 341.129 175.785 345.018 183.495C352.463 198.252 353.675 218.634 348.978 234.184C343.725 251.627 331.697 266.235 315.586 274.738C304.647 280.532 293.308 283.042 281.096 284.106L279.963 283.906C283.115 277.517 284.47 273.323 285.167 266.206C285.695 264.467 285.498 261.526 285.641 259.462L286.641 259.478C312.14 255.104 331.672 231.505 326.854 205.265C325.353 197.091 319.235 191.811 317.391 183.779Z"></path></svg>