<?xml version="1.0"?>
<svg xmlns="http://www.w3.org/2000/svg" viewBox="694.35 176.8 288.47 300.35" width="288.47" height="300.35"><path fill="#e8b64c" d="M839.517 198.031C839.455 196.583 839.885 185.321 840.467 184.802C840.906 184.949 840.784 186.186 840.786 186.494C840.809 191.198 841.136 196.084 840.932 200.774C841.219 208.829 842.431 216.387 843.889 224.265C849.191 252.909 858.995 275.282 880.591 295.266C899.932 313.161 922.275 321.453 948.28 324.759C952.933 325.35 959.168 326.084 963.779 326.071C962.319 326.371 960.9 326.637 959.445 326.972C941.025 327.892 921.79 332.253 905.14 340.102C866.03 358.537 845.977 400.106 842.008 441.487C841.457 447.229 840.776 453.638 841.021 459.402L839.99 460.705C840.288 454.201 839.296 446.14 838.554 439.624C835.22 410.33 824.38 381.25 803.534 359.831C781.905 337.607 746.77 327.201 716.207 326.953C717.474 326.616 718.746 326.296 720.022 325.994C725.219 326.24 733.552 324.399 738.772 323.501C763.33 319.275 784.231 311.015 802.232 293.311C822.233 273.641 832.364 249.206 836.572 221.757C837.893 213.639 839.361 206.454 839.517 198.031Z"></path><path fill="#c2691e" d="M839.517 198.031C839.455 196.583 839.885 185.321 840.467 184.802C840.906 184.949 840.784 186.186 840.786 186.494C840.809 191.198 841.136 196.084 840.932 200.774C840.321 197.875 840.63 197.209 840.315 194.83L840.205 194.942C840.231 194.853 840.257 194.764 840.283 194.675C840.156 194.824 839.635 197.55 839.517 198.031Z"></path><path fill="#c2691e" d="M716.207 326.953C711.945 327.59 706.769 326.414 702.691 326.818L702.481 326.689L702.347 326.777C704.151 325.787 717.201 325.887 720.022 325.994C718.746 326.296 717.474 326.616 716.207 326.953Z"></path><path fill="#c2691e" d="M963.779 326.071C965.293 325.843 973.582 325.974 974.812 326.661C973.708 327.122 961.301 327.063 959.445 326.972C960.9 326.637 962.319 326.371 963.779 326.071Z"></path><path fill="#c2691e" d="M841.021 459.402C841.077 460.859 841.154 467.87 840.559 468.896L840.62 469.083C840.516 469.155 840.579 469.137 840.424 469.12L840.389 469.094L840.405 469.035C839.964 467.773 839.926 462.206 839.99 460.705L841.021 459.402Z"></path></svg>