<?xml version="1.0"?>
<svg xmlns="http://www.w3.org/2000/svg" viewBox="375.24 571.15 277.86 286.88" width="277.86" height="286.88"><path fill="#c2691e" d="M536.975 579.562C540.714 579.147 545.021 579.275 547.893 582.101C556.876 590.94 562.047 604.388 570.872 613.347C584.167 626.843 601.511 614.692 615.254 609.216C621.106 606.477 630.383 602.675 635.681 608.652C643.082 617.004 634.088 626.505 629.182 632.913C623.106 640.849 615.003 649.773 613.543 659.775C612.057 671.941 622.468 681.357 629.159 690.397C634.446 697.54 645.099 707.597 635.637 716.351C633.667 718.174 629.604 719.188 627.025 718.74C613.55 716.4 601.002 707.485 587.172 706.577L586.44 706.534C577.558 707.711 575.337 709.926 568.989 716.754C561.348 724.974 555.622 744.981 544.882 748.762C538.986 750.837 531.932 745.797 531.263 739.604C529.897 726.965 533.431 712.759 531.014 700.087C526.581 677.139 497.512 682.735 481.689 674.505C478.222 672.701 477.19 669.195 476.358 665.428C479.025 654.094 487.097 653.9 496.675 650.621C503.582 648.257 510.843 646.521 517.432 643.311C535.226 634.642 530.07 615.023 529.513 599.242C529.191 590.612 527.97 584.073 536.975 579.562Z"></path><path fill="#e8b64c" d="M476.517 685.62C485.211 684.723 496.103 686.235 503.313 691.39C546.708 722.419 497.588 783.437 459.815 791.941C439.007 795.316 420.215 783.595 416.163 762.604C413.263 747.584 419.378 733.431 427.785 721.294C438.972 705.142 456.748 689.396 476.517 685.62Z"></path><path fill="#e8b64c" d="M411.917 787.579C428.756 785.63 443.963 797.763 445.8 814.615C447.638 831.466 435.404 846.592 418.541 848.318C401.835 850.027 386.881 837.933 385.06 821.238C383.24 804.544 395.235 789.51 411.917 787.579Z"></path></svg>