<?xml version="1.0"?>
<svg xmlns="http://www.w3.org/2000/svg" viewBox="550.55 398.7 307.79 318.24" width="307.79" height="318.24"><path fill="#D1D0D0" d="M701.964 478.339C703.785 458.186 715.026 441.284 730.001 428.322C741.927 417.999 763.042 406.7 775.498 422.837C795.615 448.901 784.285 491.663 761.399 512.358C760.427 513.237 759.412 513.56 759.097 514.76C758.446 514.865 770.119 509.499 771.151 509.011C794.136 498.152 838.944 512.92 844.88 538.459C850.341 561.959 806.401 585.937 787.032 586.787C770.12 587.53 762.924 585.673 749.036 578.241C747.17 585.324 745.4 591.549 743.013 598.505C758.018 636.991 782.482 659.3 822.174 670.397L814.886 690.041C775.265 680.323 739.931 643.781 726.844 605.629C723.283 605.42 720.277 605.222 716.743 604.765C717.88 625.574 721.339 632.496 710.623 651.557C686.614 694.268 637.775 708.944 635.386 645.079C634.652 625.478 641.647 611.918 651.541 595.58C633.601 606.081 614.401 609.823 594.197 603.713C580.964 599.71 558.546 587.591 560.728 570.962C562.273 559.19 572.676 548.817 581.592 541.832C598.958 528.227 621.625 522.904 642.993 529.059C645.492 529.778 647.649 531.007 650.234 531.316L649.99 530.719C631.388 523.77 617.215 506.863 612.301 487.891C608.572 473.976 609.105 457.007 616.254 444.245C627.27 424.581 655.348 433.447 670.173 443.149C685.433 453.136 697.117 468.544 700.957 486.515C701.728 483.145 701.148 481.762 701.964 478.339Z"></path><path fill="#515050" d="M698.585 601.635C704.685 577.572 727.765 564.268 751.802 566.904L749.036 578.241C747.17 585.324 745.4 591.549 743.013 598.505C758.018 636.991 782.482 659.3 822.174 670.397L814.886 690.041C775.265 680.323 739.931 643.781 726.844 605.629C723.283 605.42 720.277 605.222 716.743 604.765C710.666 603.87 704.611 602.826 698.585 601.635Z"></path><path fill="#E3E3E5" d="M700.957 486.515C701.728 483.145 701.148 481.762 701.964 478.339C701.996 479.78 702.073 481.56 701.902 483C701.704 484.669 702.372 486.686 701.757 488.186C701.636 488.482 701.034 487.915 701.081 487.78C700.993 488.031 700.935 486.025 700.957 486.515Z"></path></svg>
