<?xml version="1.0"?>
<svg xmlns="http://www.w3.org/2000/svg" viewBox="561.6 30.24 321.95 340.48" width="321.95" height="340.48"><path fill="#969596" d="M760.353 173.597L761.009 173.138C772.785 164.826 784.593 152.874 796.347 144.039C811.068 132.973 823.107 120.202 840.396 112.732C860.896 103.876 875.543 111.897 870.223 135.545C865.857 154.955 851.063 173.133 834.838 184.291C813.319 197.344 777.812 201.251 753.022 205.344C758.76 194.97 762.238 185.508 760.353 173.597Z"></path><path fill="#969596" d="M736.714 163.577C738.512 154.741 744.283 143.259 747.665 134.509C759.436 104.051 769.678 73.9858 798.386 54.8454C807.013 49.0934 830.103 38.2434 837.758 51.6915C845.722 65.6842 832.309 87.8858 824.16 98.7382C815.203 110.998 804.274 121.217 794.123 132.407C782.7 144.209 770.249 158.076 758.349 169.096C751.634 161.792 745.99 161.25 736.714 163.577Z"></path><path fill="#969596" d="M699.915 188.577C689.88 172.106 670.185 149.939 673.809 129.307C677.15 110.28 692.079 92.1342 707.5 81.0942C716.464 74.6764 737.403 62.8371 746.051 75.8794C752.987 86.8907 745.717 106.943 742.878 118.582C739.015 134.421 734.178 149.977 730.608 165.8C718.621 170.594 708.222 178.756 699.915 188.577Z"></path><path fill="#969596" d="M693.365 246.447C705.311 247.64 712.184 244.34 722.449 238.465C722.475 248.826 722.577 259.187 722.754 269.546C722.909 277.749 723.242 286.669 722.543 294.774C720.9 312.524 711.545 330.083 698.982 342.59C689.417 352.112 674.644 362.087 660.64 362.435C648.974 362.724 645.191 353.577 645.874 343.344C646.286 337.178 648.063 331.478 650.411 325.739C656.786 310.704 665.331 296.45 673.242 282.197C679.881 270.236 686.213 258.081 693.365 246.447Z"></path><path fill="#969596" d="M690.042 245.086L661.402 284.501C653.508 295.485 641.798 312.296 632.843 321.779C627.985 326.836 622.561 331.318 616.678 335.136C594.539 349.633 569.597 345.252 578.312 313.648C587.063 281.911 617.384 264.579 643.996 249.523C656.486 242.457 669.026 234.477 681.722 227.334C681.636 236.273 682.407 239.954 690.042 245.086Z"></path><path fill="#969596" d="M751.121 208.551C751.352 208.628 751.583 208.704 751.814 208.78C762.821 210.197 774.245 209.295 785.312 210.227C792.928 210.869 801.462 210.416 808.593 213.299C820.145 217.97 820.518 231.663 817.271 241.894C810.942 261.837 794.747 279.771 776.998 290.456C770.999 293.953 761.566 296.578 754.887 294.497C749.349 292.771 745.832 288.312 743.411 283.204C738.389 272.612 735.768 260.564 732.613 249.343C731.656 245.94 729.512 237.153 727.9 234.552C736.414 227.288 745.011 217.846 751.121 208.551Z"></path><path fill="#969596" d="M682.233 222.9C679.982 222.234 627.99 244.261 619.85 246.561C611.339 250.514 593.782 251.135 591.155 239.036C584.723 209.403 628.138 159.922 658.482 166.083C666.882 167.789 687.99 186.117 697.117 191.317L697.608 191.592C689.524 202.029 684.706 209.647 682.233 222.9Z"></path><path fill="#1A1D1F" d="M736.714 163.577C745.99 161.25 751.634 161.792 758.349 169.096C759.046 170.595 759.752 172.056 760.353 173.597C762.238 185.508 758.76 194.97 753.022 205.344C752.391 206.377 751.67 207.485 751.121 208.551C745.011 217.846 736.414 227.288 727.9 234.552L722.449 238.465C712.184 244.34 705.311 247.64 693.365 246.447L690.042 245.086C682.407 239.954 681.636 236.273 681.722 227.334L682.233 222.9C684.706 209.647 689.524 202.029 697.608 191.592L699.915 188.577C708.222 178.756 718.621 170.594 730.608 165.8C732.669 164.856 734.569 164.283 736.714 163.577Z"></path></svg>
