<?xml version="1.0"?>
<svg xmlns="http://www.w3.org/2000/svg" viewBox="100.27 24.21 340.99 353.76" width="340.99" height="353.76"><path fill="#D1D0D0" d="M232.19 224.663C229.622 225.038 220.271 228.258 217.462 229.195C206.022 233.038 194.605 236.95 183.213 240.933C174.341 244.034 162.866 248.698 153.766 249.741C147.774 250.458 141.697 249.784 136.007 247.771C126.173 244.252 117.542 236.477 113.148 226.985C108.608 217.006 108.267 205.621 112.203 195.387C115.936 185.683 123.364 177.855 132.859 173.618C143.306 169.052 156.981 169.266 167.464 173.353C188.594 181.592 210.875 188.383 231.905 196.657C228.742 207.325 228.76 214.202 232.19 224.663Z"></path><path fill="#D1D0D0" d="M256.663 171.165C248.95 151.288 243.026 130.127 235.899 109.992C234.103 104.319 232.587 98.4656 231.972 92.5639C227.18 46.5903 291.914 32.2132 308.151 74.8596C314.391 91.2476 305.888 111.204 300.872 126.918C296.135 141.759 291.157 156.127 287.077 171.171C276.895 167.117 266.859 167.902 256.663 171.165Z"></path><path fill="#D1D0D0" d="M310.926 196.235C316.758 193.245 333.816 187.731 341.047 185.266C352.832 181.249 374.946 172.159 386.466 170.469C392.688 169.532 399.043 170.033 405.042 171.934C414.912 175.193 423.061 182.277 427.663 191.597C432.552 201.776 433.261 213.466 429.638 224.162C426.326 233.839 419.072 241.993 409.959 246.403C394.579 253.847 379.213 248.368 364.255 242.872C355.005 239.473 345.335 235.892 335.926 232.693C327.694 229.895 319.208 226.582 310.773 224.348C314.04 213.796 314.109 206.772 310.926 196.235Z"></path><path fill="#D1D0D0" d="M233.378 227.82C238.828 237.372 243.017 242.35 252.678 247.546C248.051 257.95 242.019 269.621 237.032 280.142C230.428 293.038 225.091 307.048 216.477 318.759C206.073 332.905 188.217 338.688 171.716 332.88C161.276 329.265 152.765 321.544 148.152 311.505C144.058 302.487 143.7 292.214 147.157 282.933C155.141 261.541 179.848 253.04 198.797 244.112L233.378 227.82Z"></path><path fill="#D1D0D0" d="M256.404 249.187C266.853 252.717 275.842 252.697 286.397 249.009C291.178 264.917 297.882 280.793 302.775 296.768C305.598 305.987 308.785 313.501 310.133 323.269C312.512 340.513 304.506 357.624 288.443 364.995C278.268 369.605 266.676 369.977 256.226 366.029C226.771 355.088 228.407 325.95 237.969 301.542C244.618 284.572 249.869 266.351 256.404 249.187Z"></path><path fill="#D1D0D0" d="M309.435 227.891C314.264 231.285 320.42 233.361 325.753 235.915C334.667 240.159 343.396 244.463 352.295 248.779C369.942 257.337 391.865 266.211 396.415 287.64C396.887 289.863 397.055 292.096 397.132 294.358C397.413 302.686 395.553 309.883 390.886 316.837C384.73 326.069 375.107 332.422 364.2 334.457C347.199 337.611 331.43 329.027 321.984 315.077C317.802 308.901 314.696 301.704 311.584 294.928L299.455 268.249C296.196 260.981 293.667 254.644 289.772 247.662C299.496 242.806 304.302 237.196 309.435 227.891Z"></path><path fill="#D1D0D0" d="M233.498 193.109C222.129 185.523 205.318 179.556 192.995 173.101C173.812 163.053 149.077 154.448 145.393 129.972C139.932 93.6909 186.624 69.6523 212.308 96.4045C224.709 109.321 229.317 124.675 236.95 140.443C242.021 151.203 247.12 162.35 251.626 173.248C243.297 178.471 237.477 183.935 233.498 193.109Z"></path><path fill="#D1D0D0" d="M290.986 172.851C294.083 168.478 296.235 161.085 298.718 156.099C308.37 136.72 315.624 114.571 329.043 97.4234C333.34 92.0529 343.74 87.0183 350.289 85.6849C360.228 83.6527 370.566 85.6714 379.009 91.2931C387.515 96.9776 394.737 107.047 396.661 117.167C398.564 127.052 396.383 137.285 390.615 145.534C385.727 152.554 376.981 159.857 369.385 163.811C349.981 173.913 328.648 182.432 309.638 193.204C306.192 184.221 298.668 178.062 290.986 172.851Z"></path><path fill="#1A1D1F" d="M256.663 171.165C266.859 167.902 276.895 167.117 287.077 171.171L290.986 172.851C298.668 178.062 306.192 184.221 309.638 193.204L310.926 196.235C314.109 206.772 314.04 213.796 310.773 224.348L309.435 227.891C304.302 237.196 299.496 242.806 289.772 247.662L286.397 249.009C275.842 252.697 266.853 252.717 256.404 249.187L252.678 247.546C243.017 242.35 238.828 237.372 233.378 227.82L232.19 224.663C228.76 214.202 228.742 207.325 231.905 196.657L233.498 193.109C237.477 183.935 243.297 178.471 251.626 173.248L256.663 171.165Z"></path></svg>
