<?xml version="1.0"?>
<svg xmlns="http://www.w3.org/2000/svg" viewBox="177.48 725.42 206.31 271.49" width="206.31" height="271.49"><path fill="#515050" d="M294.505 886.551C295.997 863.319 301.6 842.359 319.625 826.321C333.788 813.72 355.245 807.566 373.957 807.527C375.796 829.692 371.883 850.997 357.008 868.099C338.369 889.527 320.726 891.156 294.925 893.7L293.821 893.196C293.717 891.581 293.731 892.166 294.343 890.505C293.517 889.087 293.599 889.12 293.311 887.446L294.505 886.551Z"></path><path fill="#E3E3E5" d="M294.505 886.551C294.506 887.991 294.447 889.059 294.343 890.505C293.517 889.087 293.599 889.12 293.311 887.446L294.505 886.551Z"></path><path fill="#515050" d="M185.484 889.014C188.16 886.523 190.966 884.175 193.89 881.979C207.427 871.959 226.101 866.619 242.763 869.384C264.852 873.05 278.791 883.017 291.8 900.5C293.251 904.196 294.838 906.977 293.559 910.77C292.883 911.317 292.204 911.859 291.521 912.395C277.957 923.031 257.665 927.779 240.73 925.459C214.714 921.895 200.836 908.618 185.484 889.014Z"></path><path fill="#515050" d="M304.589 759.454C315.531 784.05 304.659 809.806 279.911 819.667C277.79 820.512 275.783 821.296 273.619 822.047L272.9 822.556C269.6 824.937 270.096 822.202 272.204 819.986C267.404 809.47 267.567 797.365 271.587 786.627C275.548 775.911 283.673 767.253 294.116 762.621C297.462 761.12 300.992 760.141 304.589 759.454Z"></path><path fill="#969596" d="M272.204 819.986C272.72 821.056 272.809 821.082 273.619 822.047L272.9 822.556C269.6 824.937 270.096 822.202 272.204 819.986Z"></path><path fill="#515050" d="M201.633 814.481C202.315 813.795 203.023 813.134 203.754 812.5C211.119 806.145 220.728 803.016 230.423 803.816C244.044 804.918 254.809 812.377 263.456 822.452L264.763 822.239C265.66 823.924 265.743 824.152 265.915 825.963L266.635 827.35C263.127 830.204 259.987 832.75 255.878 834.673C235.422 844.247 211.214 834.124 201.633 814.481Z"></path><path fill="#E3E3E5" d="M264.763 822.239C265.66 823.924 265.743 824.152 265.915 825.963C265.239 824.921 264.731 824.226 264.014 823.236L263.456 822.452L264.763 822.239Z"></path><path fill="#515050" d="M248.05 791.981C225.995 785.292 213.743 752.888 227.435 733.424C229.144 734.054 231 734.73 232.655 735.477C243.045 740.273 251.088 749.022 254.997 759.778C258.981 770.774 257.472 780.167 252.714 790.454C250.329 791.526 249.63 791.366 248.05 791.981Z"></path><path fill="#969596" d="M248.05 791.981C249.63 791.366 250.329 791.526 252.714 790.454C254.383 795.338 263.901 810.675 266.689 816.634C276.931 838.52 288 863.939 293.311 887.446C293.599 889.12 293.517 889.087 294.343 890.505C293.731 892.166 293.717 891.581 293.821 893.196L294.925 893.7C294.858 893.989 299.541 923.275 299.828 927.402C301.155 948.072 299.271 968.822 294.245 988.915C292.981 987.883 291.708 986.817 290.413 985.83C295.69 965.159 297.307 943.724 295.19 922.496C294.959 920.065 294.242 912.924 293.559 910.77C294.838 906.977 293.251 904.196 291.8 900.5C292.162 889.868 273.089 837.469 266.635 827.35L265.915 825.963C265.743 824.152 265.66 823.924 264.763 822.239C262.486 817.376 251.095 794.694 248.05 791.981Z"></path></svg>
