<?xml version="1.0"?>
<svg xmlns="http://www.w3.org/2000/svg" viewBox="171.31 410.43 204.29 294.12" width="204.29" height="294.12"><path fill="#969596" d="M270.681 418.431C288.024 427.861 294.487 435.854 306.981 450.32C321.305 438.261 335.518 429.748 354.347 426.511C352.84 436.866 351.522 449.789 352.763 460.2C357.256 497.902 367.606 535.998 343.449 570.023C338.824 576.538 326.632 591.541 319.765 595.099C302.14 610.998 287.449 616.687 282.387 644.204C278.718 664.152 283.682 680.287 294.958 696.554L260.203 696.537C262.311 687.061 263.14 677.344 262.667 667.648C261.483 644.896 252.297 618.839 233.456 604.686C229.339 601.594 224.989 597.698 221.166 594.231C221.061 594.162 220.956 594.093 220.851 594.025C184.868 567.077 179.314 530.668 185.482 488.879C189.013 464.954 192.174 450.975 187.704 426.216C205.672 430.36 222.352 438.139 235.842 450.963C243.277 436.659 257.441 426.766 270.681 418.431Z"></path><path fill="#D1D0D0" d="M270.681 418.431C288.024 427.861 294.487 435.854 306.981 450.32C290.775 466.712 280.841 481.298 274.823 504.285C273.552 509.14 272.017 516.074 271.936 521.047C271.702 521.363 271.471 521.68 271.206 521.961C270.93 521.987 270.911 521.878 270.601 521.65C269.062 501.166 259.751 478.71 246.977 462.697C244.391 459.454 238.884 454.111 235.842 450.963C243.277 436.659 257.441 426.766 270.681 418.431Z"></path><path fill="#515050" d="M221.166 594.231C221.352 594.258 221.538 594.285 221.724 594.312C247.434 610.899 280.969 612.514 308.788 600.311C311.846 598.97 316.392 595.727 319.765 595.099C302.14 610.998 287.449 616.687 282.387 644.204C278.718 664.152 283.682 680.287 294.958 696.554L260.203 696.537C262.311 687.061 263.14 677.344 262.667 667.648C261.483 644.896 252.297 618.839 233.456 604.686C229.339 601.594 224.989 597.698 221.166 594.231Z"></path><path fill="#AAA9AD" d="M271.936 521.047C272.213 523.728 271.763 527.224 271.508 529.962C271.291 528.432 270.479 522.953 270.601 521.65C270.911 521.878 270.93 521.987 271.206 521.961C271.471 521.68 271.702 521.363 271.936 521.047Z"></path></svg>
