<?xml version="1.0"?>
<svg xmlns="http://www.w3.org/2000/svg" viewBox="520.7 383.31 436.94 265.56" width="436.94" height="265.56"><path fill="#878786" d="M546.011 565.885C545.959 545.013 542.166 528.988 557.513 511.704C574.453 492.625 595.11 508.454 611.466 495.312C620.667 487.919 615.665 459.751 616.9 449.091C617.178 430.88 617.85 417.284 633.047 404.805C641.914 397.334 652.482 394.573 663.844 394.532C679.89 394.475 696.055 394.462 712.143 394.461L813.473 394.418L866.37 394.159C886.672 394.068 908.378 391.307 923.875 407.22C933.83 417.441 937.491 427.609 937.631 441.697L937.701 522.946C937.699 536.588 937.397 552.309 938.017 565.726C945.258 567.92 949.638 571.981 949.044 580C947.905 595.374 924.904 591.101 914.69 590.207C911.069 590.786 908.17 590.844 904.51 590.98C904.801 617.105 884.207 638.697 858.097 639.642C831.988 640.588 809.886 620.542 808.287 594.464C808.06 592.755 808.161 591.54 807.266 590.269C802.364 589.785 795.802 590.085 790.737 590.139C782.217 590.241 773.697 590.297 765.177 590.306L676.074 590.495C676 592.317 676.004 594.943 675.565 596.643C675.253 604.577 670.849 614.737 665.999 621.017C658.225 631.151 646.706 637.738 634.028 639.297C620.715 640.866 607.724 637.402 597.242 628.967C587.095 620.835 580.647 608.961 579.352 596.021C578.931 594.373 578.937 592.532 578.833 590.8C575.238 590.866 572.005 590.9 568.415 590.766C564.131 591.466 544.96 592.173 541.508 590.5C528.695 584.29 531.395 568.379 546.011 565.885Z"></path><path fill="#111112" d="M579.352 596.021C579.519 580.651 581.773 568.881 593.352 557.449C602.575 548.231 615.174 543.198 628.21 543.521C641.235 543.652 653.654 549.039 662.649 558.46C671.866 568.185 676.429 580.829 675.58 594.067C675.524 594.943 675.514 595.768 675.565 596.643C675.253 604.577 670.849 614.737 665.999 621.017C658.225 631.151 646.706 637.738 634.028 639.297C620.715 640.866 607.724 637.402 597.242 628.967C587.095 620.835 580.647 608.961 579.352 596.021Z"></path><path fill="#878786" d="M626.764 581.804C630.433 581.18 634.151 582.592 636.48 585.495C638.808 588.397 639.381 592.334 637.977 595.779C636.572 599.225 633.41 601.639 629.716 602.087C624.191 602.756 619.141 598.894 618.34 593.386C617.538 587.879 621.277 582.738 626.764 581.804Z"></path><path fill="#111112" d="M808.287 594.464C807.216 577.003 815.697 560.335 830.442 550.923C845.187 541.51 863.877 540.833 879.264 549.155C894.651 557.476 904.316 573.488 904.51 590.98C904.801 617.105 884.207 638.697 858.097 639.642C831.988 640.588 809.886 620.542 808.287 594.464Z"></path><path fill="#878786" d="M853.546 581.748C859.005 580.581 864.39 584.01 865.643 589.45C866.896 594.889 863.553 600.328 858.134 601.667C854.551 602.553 850.77 601.438 848.24 598.751C845.71 596.064 844.825 592.222 845.925 588.699C847.024 585.176 849.937 582.519 853.546 581.748Z"></path><path fill="#111112" d="M546.011 565.885C554.425 566.532 567.608 564.246 572.82 570.312C575.156 573.071 576.289 576.65 575.968 580.251C575.591 584.696 572.736 588.371 568.928 590.477L568.415 590.766C564.131 591.466 544.96 592.173 541.508 590.5C528.695 584.29 531.395 568.379 546.011 565.885Z"></path><path fill="#111112" d="M914.69 590.207L914.047 589.797C903.946 583.482 905.47 569.864 916.749 566.5C921.17 565.182 932.816 566.028 938.017 565.726C945.258 567.92 949.638 571.981 949.044 580C947.905 595.374 924.904 591.101 914.69 590.207Z"></path><path fill="#FCFCFC" d="M810.254 429.547C825.931 429.382 841.812 429.548 857.512 429.522C857.621 444.656 857.751 460.949 857.488 476.043L810.335 476.116C809.795 462.304 810.09 443.517 810.254 429.547Z"></path><path fill="#FCFCFC" d="M697.384 429.485C712.599 429.139 729.152 429.324 744.426 429.491C744.89 443.52 745.013 461.964 744.601 475.993L697.57 475.971C697.421 460.476 697.359 444.98 697.384 429.485Z"></path><path fill="#FCFCFC" d="M865.532 429.574C881.17 429.301 896.811 429.233 912.45 429.37C912.669 444.913 912.498 460.549 912.638 476.106L865.531 476.058L865.532 429.574Z"></path><path fill="#FCFCFC" d="M754.376 429.61C769.735 429.396 785.752 429.455 801.133 429.511C801.422 445.093 801.514 460.677 801.407 476.261L754.509 476.143L754.376 429.61Z"></path><path fill="#FCFCFC" d="M641.472 429.609C655.987 429.426 673.031 429.589 687.643 429.86C687.897 444.805 688.053 461.221 687.822 476.167L641.46 476.028C641.274 461.169 641.168 444.433 641.472 429.609Z"></path></svg>
