<?xml version="1.0"?>
<svg xmlns="http://www.w3.org/2000/svg" viewBox="125.21 66.56 366.91 276" width="366.91" height="276"><path fill="#878786" d="M196.681 200.124C199.053 164.825 213.909 133.521 240.585 110.092C267.179 86.5622 302.033 74.5637 337.476 76.7369C408.327 81.7128 463.818 141.176 462.502 211.94C462.199 228.188 462.728 244.748 462.639 261.01C462.658 262 463.442 262.174 464.162 262.502C478.205 262.132 484.123 276.484 475.084 285.589C473.344 287.331 471.165 288.569 468.778 289.171C465.366 290.031 438.167 289.858 433.643 289.556C432.227 289.74 430.744 289.527 429.286 289.423C426.904 314.679 405.715 333.988 380.346 334.018C354.978 334.049 333.742 314.792 331.299 289.542C325.428 289.542 290.955 289.113 288.186 290.36L287.64 291.059C284.487 316.018 262.998 334.567 237.846 334.041C212.695 333.515 192 314.083 189.894 289.014C186.224 288.721 185.24 288.708 181.501 289.361C175.023 290.246 145.946 290.418 141.045 287.86C137.749 286.139 135.07 282.832 134.129 279.232C133.212 275.765 133.731 272.075 135.569 268.996C137.985 265.03 141.199 263.373 145.47 262.282C145.27 252.881 144.632 246.471 147.66 237.502C154.993 215.782 174.43 202.783 196.681 200.124Z"></path><path fill="#111112" d="M331.299 289.542C329.497 270.924 338.405 252.894 354.287 243.013C370.169 233.132 390.279 233.107 406.185 242.95C422.091 252.793 431.042 270.801 429.286 289.423C426.904 314.679 405.715 333.988 380.346 334.018C354.978 334.049 333.742 314.792 331.299 289.542Z"></path><path fill="#878786" d="M379.384 274.748C385.075 273.781 390.464 277.632 391.393 283.329C392.321 289.026 388.433 294.389 382.73 295.279C377.081 296.16 371.78 292.318 370.861 286.675C369.941 281.032 373.748 275.705 379.384 274.748Z"></path><path fill="#111112" d="M189.894 289.014C188.321 270.287 197.563 252.302 213.705 242.679C229.847 233.056 250.063 233.479 265.788 243.769C281.513 254.059 289.995 272.415 287.64 291.059C284.487 316.018 262.998 334.567 237.846 334.041C212.695 333.515 192 314.083 189.894 289.014Z"></path><path fill="#878786" d="M237.02 275.218C242.512 273.745 248.176 276.924 249.779 282.38C251.382 287.835 248.338 293.574 242.922 295.306C240.759 295.997 238.43 295.967 236.286 295.22C231.946 293.707 229.1 289.541 229.268 284.948C229.437 280.355 232.581 276.409 237.02 275.218Z"></path><path fill="#111112" d="M145.47 262.282C147.862 262.593 154.136 262.458 156.778 262.47C165.042 262.443 173.306 262.464 181.57 262.533L181.501 289.361C175.023 290.246 145.946 290.418 141.045 287.86C137.749 286.139 135.07 282.832 134.129 279.232C133.212 275.765 133.731 272.075 135.569 268.996C137.985 265.03 141.199 263.373 145.47 262.282Z"></path><path fill="#111112" d="M464.162 262.502C478.205 262.132 484.123 276.484 475.084 285.589C473.344 287.331 471.165 288.569 468.778 289.171C465.366 290.031 438.167 289.858 433.643 289.556C434.195 280.864 433.884 271.263 433.903 262.501C443.901 262.39 454.223 262.746 464.162 262.502Z"></path><path fill="#FCFCFC" d="M353.992 111.614C364.077 111.03 371.312 113.18 380.016 118.598C401.054 132.088 419.163 154.116 425.6 178.494C429.445 193.055 424.013 203.047 408.953 205.957C403.073 206.401 394.271 206.859 388.41 206.697C377.834 206.405 358.707 209.177 349.655 204.466C344.326 201.67 340.375 196.812 338.724 191.025C336.536 183.327 336.465 139.02 336.879 128.155C336.942 126.498 338.044 123.795 338.967 122.31C342.869 116.031 347.108 113.374 353.992 111.614Z"></path><path fill="#FCFCFC" d="M295.615 111.213C310.21 111.643 316.455 121.066 316.345 134.719C316.193 153.643 318.486 173.156 317.034 191.965C316.579 197.852 307.438 207.302 301.292 207.958C285.922 210.004 269.47 209.574 253.84 209.974C200.271 210.482 252.008 114.139 295.615 111.213Z"></path></svg>
