<?xml version="1.0"?>
<svg xmlns="http://www.w3.org/2000/svg" viewBox="602.32 56.18 344.78 295.67" width="344.78" height="295.67"><path fill="#878786" d="M649.845 222.066C643.268 192.797 646.003 166.572 659.847 139.63C675.38 108.973 702.49 85.7701 735.177 75.1561C768.893 64.1819 805.63 67.469 836.862 84.2545C861.801 97.6553 881.704 118.803 893.571 144.507C897.835 153.949 901.392 165.968 904.688 175.987C908.964 188.655 913.098 201.371 917.09 214.131C921.214 212.309 925.674 211.961 929.87 213.77C933.231 215.237 935.832 218.034 937.052 221.492C939.1 227.23 936.749 235.01 931.057 237.634C920.864 242.334 908.238 243.943 898.005 248.362C896.535 248.875 895.796 248.731 895.31 250.378C895.989 262.685 891.298 276.28 883.046 285.521C874.528 295.094 862.547 300.877 849.753 301.589C836.408 302.134 823.406 297.278 813.685 288.119C808.468 283.288 805.382 278.569 802.228 272.238C793.463 274.194 783.645 277.8 774.856 280.282C771.446 281.245 761.591 283.74 758.938 285.044C762.136 309.316 746.577 332.113 722.809 337.981C699.041 343.849 674.66 330.912 666.195 307.94L661.235 309.429C654.707 311.868 628.764 321.057 623.534 320.282C619.223 319.644 615.425 317.658 612.907 314.017C610.772 310.929 610.322 307.391 611.064 303.753C611.807 300.108 614.291 297.235 617.246 295.162C616.143 290.403 614.355 285.527 613.237 280.728C610.874 270.585 612.932 259.391 617.527 250.165C624.136 236.874 635.765 226.763 649.845 222.066Z"></path><path fill="#111112" d="M802.228 272.238C801.476 269.82 800.776 267.387 800.127 264.939C797.09 253.058 798.805 239.292 805.194 228.97C819.7 205.533 849.028 197.862 872.528 212.967C886.938 222.23 892.748 233.102 895.163 249.872C895.212 250.041 895.261 250.21 895.31 250.378C895.989 262.685 891.298 276.28 883.046 285.521C874.528 295.094 862.547 300.877 849.753 301.589C836.408 302.134 823.406 297.278 813.685 288.119C808.468 283.288 805.382 278.569 802.228 272.238Z"></path><path fill="#878786" d="M846.453 243.189C852.027 242.522 857.106 246.447 857.868 252.009C858.631 257.571 854.794 262.717 849.246 263.575C845.571 264.143 841.876 262.684 839.58 259.759C837.284 256.834 836.744 252.898 838.169 249.464C839.594 246.029 842.761 243.63 846.453 243.189Z"></path><path fill="#111112" d="M666.195 307.94C659.817 290.631 663.909 271.198 676.726 257.931C689.544 244.663 708.824 239.904 726.343 245.681C743.862 251.459 756.528 266.755 758.938 285.044C762.136 309.316 746.577 332.113 722.809 337.981C699.041 343.849 674.66 330.912 666.195 307.94Z"></path><path fill="#878786" d="M709.725 281.437C715.263 280.15 720.82 283.506 722.259 289.007C723.697 294.509 720.493 300.155 715.033 301.743C711.366 302.809 707.409 301.8 704.701 299.108C701.992 296.416 700.96 292.465 702.004 288.792C703.048 285.118 706.005 282.302 709.725 281.437Z"></path><path fill="#111112" d="M617.246 295.162L617.962 294.887C628.218 290.831 643.026 287.157 654.223 283.237C655.415 290.886 658.733 301.918 661.235 309.429C654.707 311.868 628.764 321.057 623.534 320.282C619.223 319.644 615.425 317.658 612.907 314.017C610.772 310.929 610.322 307.391 611.064 303.753C611.807 300.108 614.291 297.235 617.246 295.162Z"></path><path fill="#111112" d="M917.09 214.131C921.214 212.309 925.674 211.961 929.87 213.77C933.231 215.237 935.832 218.034 937.052 221.492C939.1 227.23 936.749 235.01 931.057 237.634C920.864 242.334 908.238 243.943 898.005 248.362C896.286 244.852 890.826 226.613 889.72 222.32L890.417 222.098C898.718 219.361 908.056 217.503 916.135 214.471L917.09 214.131Z"></path><path fill="#FCFCFC" d="M721.499 113.576C736.497 112.492 743.076 118.957 746.705 132.603C750.454 145.114 752.662 159.217 756.578 171.53C766.928 204.074 732.003 207.583 708.553 213.277C699.945 215.656 692.306 218.694 683.963 213.758C679.48 211.299 675.867 206.082 674.838 201.045C669.043 172.685 692.786 121.314 721.499 113.576Z"></path><path fill="#FCFCFC" d="M782.416 98.1298C810.928 94.313 851.074 125.276 860.78 151.085C862.394 155.377 861.8 160.799 859.549 164.728C854.457 173.615 843.557 175.467 834.494 177.914C826.33 180.568 817.789 182.717 809.539 185.145C801.602 187.482 793.19 188.357 785.801 183.792C779.052 179.683 774.794 172.421 773.917 164.504C771.596 143.569 748.727 104.871 782.416 98.1298Z"></path></svg>
