<?xml version="1.0"?>
<svg xmlns="http://www.w3.org/2000/svg" viewBox="112.13 384.62 380.06 269.85" width="380.06" height="269.85"><path fill="#878786" d="M191.523 490.289C191.519 478.651 190.203 430.743 192.822 422.965C194.739 417.272 199.578 411.731 203.737 407.541C208.214 403.031 214.728 396.74 220.819 394.518C226.037 392.615 298.68 393.5 310.286 393.518C323.707 393.539 329.27 397.833 338.508 407.062C341.861 410.411 345.809 414.567 347.365 419.134C349.762 426.17 348.594 436.02 348.586 443.419C348.571 458.544 347.824 474.046 348.849 489.125C361.863 489.516 375.445 489.312 388.503 489.356C415.797 489.509 443.09 489.451 470.383 489.181L470.484 568.133C475.437 569.77 480.098 575.11 481.457 580.244C484.192 590.568 476.002 601.681 465.252 601.835C456.733 601.958 447.59 601.904 439.036 601.838C438.599 601.833 438.456 600.186 438.421 599.999C436.231 599.762 436.116 599.764 433.945 600.232L433.082 600.979C431.091 626.716 409.42 646.462 383.61 646.058C357.799 645.654 336.757 625.24 335.572 599.454C321.484 599.388 307.397 599.433 293.31 599.587C288.993 599.632 278.474 599.481 274.582 599.924C273.213 625.857 251.795 646.186 225.827 646.203C199.858 646.219 178.415 625.917 177.013 599.986C175.27 599.937 173.69 599.7 172.124 600.367L171.323 601.466C161.087 602.288 147.282 601.277 136.748 601.499C131.453 601.61 124.295 595.216 122.716 589.841C120.131 581.049 124.216 570.566 133.607 567.857L134.511 567.575C134.478 557.163 133.172 524.842 135.563 516.871C136.853 512.57 139.876 509.029 142.976 505.884C153.848 494.851 158.897 490.35 175.062 490.33C180.549 490.354 186.036 490.34 191.523 490.289Z"></path><path fill="#111112" d="M177.013 599.986C176.037 581.936 185.107 564.822 200.593 555.496C216.079 546.171 235.448 546.159 250.946 555.465C266.443 564.77 275.536 581.873 274.582 599.924C273.213 625.857 251.795 646.186 225.827 646.203C199.858 646.219 178.415 625.917 177.013 599.986Z"></path><path fill="#878786" d="M223.333 587.168C226.958 586.416 230.707 587.673 233.147 590.458C235.586 593.243 236.339 597.124 235.117 600.619C233.895 604.114 230.887 606.68 227.243 607.337C221.711 608.335 216.404 604.701 215.334 599.183C214.264 593.664 217.829 588.31 223.333 587.168Z"></path><path fill="#111112" d="M335.572 599.454C334.737 581.3 344.047 564.184 359.741 555.021C375.434 545.858 394.916 546.163 410.315 555.813C425.714 565.462 434.484 582.861 433.082 600.979C431.091 626.716 409.42 646.462 383.61 646.058C357.799 645.654 336.757 625.24 335.572 599.454Z"></path><path fill="#878786" d="M380.213 587.823C385.462 585.75 391.397 588.335 393.455 593.59C395.513 598.845 392.912 604.773 387.651 606.816C382.411 608.851 376.512 606.262 374.463 601.028C372.413 595.794 374.985 589.888 380.213 587.823Z"></path><path fill="#111112" d="M134.511 567.575C144.234 566.791 161.499 567.485 171.939 567.41C171.926 573.709 172.271 595.583 171.435 600.731L171.323 601.466C161.087 602.288 147.282 601.277 136.748 601.499C131.453 601.61 124.295 595.216 122.716 589.841C120.131 581.049 124.216 570.566 133.607 567.857L134.511 567.575Z"></path><path fill="#111112" d="M438.54 567.414C445.963 567.456 464.625 566.746 470.484 568.133C475.437 569.77 480.098 575.11 481.457 580.244C484.192 590.568 476.002 601.681 465.252 601.835C456.733 601.958 447.59 601.904 439.036 601.838C438.599 601.833 438.456 600.186 438.421 599.999C438.035 591.12 438.45 576.609 438.54 567.414Z"></path><path fill="#FCFCFC" d="M228.918 419.651C238.418 419.16 261.877 417.234 263.189 430.787C264.708 446.471 264.031 463.652 263.585 479.495C263.353 487.751 258.886 491.87 251.125 493.464C241.584 494.095 216.192 496.914 215.401 482.512C214.482 465.768 214.322 447.652 215.423 430.91C215.861 424.255 223.086 420.586 228.918 419.651Z"></path><path fill="#FCFCFC" d="M293.006 419.686C300.548 419.315 314.903 418.422 321.17 422.215C323.469 423.606 327.121 427.873 327.337 430.536C328.536 446.401 328.166 462.831 327.719 478.754C327.466 487.749 322.741 491.632 314.509 493.462C307.185 493.539 290.785 494.677 284.891 490.992C282.544 489.525 279.57 484.606 279.441 481.575C278.777 465.089 278.659 448.108 279.548 431.634C279.961 423.981 286.26 420.649 293.006 419.686Z"></path></svg>
