<?xml version="1.0"?>
<svg xmlns="http://www.w3.org/2000/svg" viewBox="64.35 682.92 465.97 279.53" width="465.97" height="279.53"><path fill="#878786" d="M183.801 789.198C188.168 759.669 203.583 735.622 227.394 718.106C256.918 696.388 283.399 690.922 319.26 696.364C349.934 701.019 380.231 718.403 398.317 743.769C409.102 758.896 412.763 769.196 416.776 786.85C441.505 787.845 465.681 793.487 483.099 812.196C498.701 828.956 497.427 844.866 492.895 865.411C522.316 865.34 520.639 902.957 493.103 902.28C486.514 902.118 478.971 902.05 472.411 902.293C464.624 922.353 455.253 935.483 434.631 944.485C418.944 951.273 401.178 951.423 385.38 944.901C367.599 937.764 352.58 922.858 346.736 904.412C334.714 903.815 321.883 904.004 309.787 903.995L254.927 903.976C253.437 908.923 250.893 914.21 248.174 918.583C238.647 933.685 223.487 944.361 206.057 948.243C178.145 954.448 147.925 940.369 134.385 915.232C132.34 911.436 130.158 906.763 129.23 902.548C117.705 902.589 106.196 902.608 94.6714 902.541C83.865 902.478 74.3562 897.586 72.9597 885.867C72.3465 880.924 73.7737 875.946 76.9123 872.079C80.2911 867.926 84.8413 865.813 90.111 865.372C90.5951 861.822 91.124 858.154 92.1172 854.707C102.655 818.131 148.289 794.132 183.801 789.198Z"></path><path fill="#111112" d="M129.209 865.489C131.868 857.161 134.706 850.348 140.338 843.585C186.861 787.717 275.029 833.006 254.927 903.976C253.437 908.923 250.893 914.21 248.174 918.583C238.647 933.685 223.487 944.361 206.057 948.243C178.145 954.448 147.925 940.369 134.385 915.232C132.34 911.436 130.158 906.763 129.23 902.548C117.705 902.589 106.196 902.608 94.6714 902.541C83.865 902.478 74.3562 897.586 72.9597 885.867C72.3465 880.924 73.7737 875.946 76.9123 872.079C80.2911 867.926 84.8413 865.813 90.111 865.372C102.688 865.774 116.531 865.507 129.209 865.489Z"></path><path fill="#878786" d="M188.963 868.261C198.071 866.35 206.999 872.204 208.877 881.32C210.755 890.436 204.867 899.342 195.744 901.185C186.67 903.019 177.821 897.169 175.953 888.101C174.085 879.034 179.902 870.163 188.963 868.261Z"></path><path fill="#111112" d="M346.736 904.412C342.272 888.722 342.708 870.585 349.921 855.764C357.861 839.783 371.877 827.651 388.833 822.085C405.011 816.622 422.694 817.781 438.02 825.309C454.858 833.782 465.742 847.802 471.607 865.457C478.304 865.354 486.323 865.046 492.895 865.411C522.316 865.34 520.639 902.957 493.103 902.28C486.514 902.118 478.971 902.05 472.411 902.293C464.624 922.353 455.253 935.483 434.631 944.485C418.944 951.273 401.178 951.423 385.38 944.901C367.599 937.764 352.58 922.858 346.736 904.412Z"></path><path fill="#878786" d="M407.421 868.897C413.242 867.962 419.116 870.227 422.803 874.827C426.49 879.427 427.422 885.654 425.242 891.132C423.062 896.61 418.108 900.494 412.268 901.304C403.373 902.537 395.142 896.38 393.814 887.498C392.485 878.617 398.554 870.321 407.421 868.897Z"></path><path fill="#111112" d="M298.703 800.954C319.345 799.296 337.457 814.608 339.256 835.238C341.055 855.869 325.868 874.085 305.25 876.025C284.432 877.984 266 862.617 264.183 841.786C262.366 820.954 277.86 802.628 298.703 800.954Z"></path><path fill="#FCFCFC" d="M300.563 815.171C310.81 815.245 316.665 820.995 318.443 831.003C319.32 835.709 319.376 840.531 318.609 845.256C317.041 854.669 312.339 859.331 303.122 860.867C293.816 861.377 287.314 855.511 285.542 846.497C284.489 841.303 284.43 835.958 285.368 830.743C287.131 820.843 290.644 816.364 300.563 815.171Z"></path><path fill="#111112" d="M298.998 822.585C307.936 822.249 310.522 825.82 311.27 834.608C311.865 841.594 312.016 849.556 304.885 853.285L304.063 853.731C290.962 856.068 291.444 839.516 292.672 831.003C293.183 827.461 295.09 824.827 298.144 823.088L298.998 822.585Z"></path><path fill="#FCFCFC" d="M275.581 724.164C276.28 724.087 276.98 724.027 277.682 723.986C285.362 723.583 288.147 728.557 287.891 735.392C287.577 743.749 288.514 753.263 287.96 761.512C287.448 769.131 291.126 785.419 280.504 786.466C274.527 787.034 268.17 786.823 262.256 786.78C251.921 786.661 241.585 786.643 231.25 786.726C207.396 787.516 220.66 762.918 228.093 752.472C238.653 737.633 257.755 726.971 275.581 724.164Z"></path><path fill="#FCFCFC" d="M319.492 724.118C340.435 723.062 367.242 742.56 376.491 760.596C381.187 769.756 386.593 780.359 374.923 786.424C366.662 787.02 323.356 787.565 317.286 785.403C315.591 784.8 314.632 784.282 313.903 782.58C313.126 780.767 312.766 778.559 312.616 776.598C312.145 770.477 311.63 733.019 313.21 729.021C314.243 726.408 317.094 725.149 319.492 724.118Z"></path></svg>
