<?xml version="1.0"?>
<svg xmlns="http://www.w3.org/2000/svg" viewBox="571.95 680.63 371.64 280.82" width="371.64" height="280.82"><path fill="#878786" d="M580.713 904.144C580.261 900.455 580.452 893.925 580.455 890.035L580.765 858.603C580.806 846.719 579.95 830.527 581.116 819.278C581.797 812.706 594.237 791.714 597.852 784.965C604.987 771.374 612.224 757.839 619.565 744.359C626.081 732.433 633.42 718.125 640.871 707.135C645.981 699.597 661.54 690.407 670.341 689.769C683.23 688.835 699.343 689.374 712.687 689.368C739.849 689.123 767.011 689.053 794.174 689.157L863.451 689.175C872.392 689.166 892.719 688.628 900.978 689.66C908.002 690.588 914.648 693.386 920.22 697.761C930.383 705.665 935.189 717.019 935.065 729.63C934.963 740.062 935.005 750.566 934.99 760.999L934.946 839.514C934.971 855.667 935.439 871.695 935.468 887.823C935.473 890.595 935.59 902.058 935.213 904.315C925.056 904.41 914.468 903.858 904.356 904.211C904.072 904.398 903.788 904.585 903.504 904.772C902.416 909.724 901.307 914.704 899.419 919.232C897.45 923.984 894.82 928.434 891.607 932.45C883.093 943.129 870.676 949.977 857.102 951.477C842.936 952.981 829.806 948.991 818.752 940.005C807.831 931.215 800.842 918.453 799.317 904.517C780.688 904.228 761.443 904.413 742.774 904.411C741.98 912.485 738.606 921.324 734.099 928.042C726.293 939.854 714.104 948.071 700.227 950.876C686.953 953.446 673.203 950.574 662.068 942.905C647.91 933.274 641.392 920.884 638.329 904.518C622.641 904.1 606.773 904.708 591.069 904.483C587.662 904.434 584.082 904.619 580.713 904.144Z"></path><path fill="#3D3D3D" d="M806.93 872.514C814.531 860.491 826.125 851.616 840.11 848.463C853.271 845.532 867.057 847.958 878.426 855.207C885.443 859.718 891.139 865.648 895.86 872.49L920.583 872.535C924.054 872.535 931.707 872.351 934.981 872.815C934.961 879.141 934.489 898.768 935.213 904.315C925.056 904.41 914.468 903.858 904.356 904.211C904.072 904.398 903.788 904.585 903.504 904.772C902.416 909.724 901.307 914.704 899.419 919.232C897.45 923.984 894.82 928.434 891.607 932.45C883.093 943.129 870.676 949.977 857.102 951.477C842.936 952.981 829.806 948.991 818.752 940.005C807.831 931.215 800.842 918.453 799.317 904.517C780.688 904.228 761.443 904.413 742.774 904.411C741.98 912.485 738.606 921.324 734.099 928.042C726.293 939.854 714.104 948.071 700.227 950.876C686.953 953.446 673.203 950.574 662.068 942.905C647.91 933.274 641.392 920.884 638.329 904.518C622.641 904.1 606.773 904.708 591.069 904.483C587.662 904.434 584.082 904.619 580.713 904.144C583.518 903.657 596.378 903.816 599.952 903.843C612.665 903.938 625.796 903.657 638.473 904.029C638.362 896.182 638.838 891.713 640.732 884.06C641.626 880.449 645.056 874.814 644.9 873.272L643.604 872.812C644.163 872.695 644.851 872.55 645.667 872.379C649.629 868.627 652.183 864.172 656.267 860.425C672.697 845.353 699.174 843.125 717.98 854.934C725.215 859.477 730.154 865.603 735.464 872.141C735.897 872.673 737.247 872.751 737.88 872.804C755.716 872.943 773.553 872.984 791.39 872.927C796.356 872.43 801.897 872.538 806.93 872.514Z"></path><path fill="#111112" d="M737.88 872.804C755.716 872.943 773.553 872.984 791.39 872.927C795.327 873.293 802.252 873.054 806.41 873.036C800.274 885.041 799.387 890.989 799.491 904.081C782.838 903.196 760.106 903.858 743.029 903.851C742.759 893.162 742.347 884.197 736.62 874.856C736.102 874.01 736.25 874.464 736.255 873.369L737.88 872.804Z"></path><path fill="#111112" d="M934.981 872.815C934.961 879.141 934.489 898.768 935.213 904.315C925.056 904.41 914.468 903.858 904.356 904.211C902.817 903.275 903.349 901.08 903.322 899.342C903.163 889.203 901.133 881.689 895.888 872.988L920.569 873.067C924.777 873.067 930.996 873.271 934.981 872.815Z"></path><path fill="#878786" d="M687.222 889.598C693.294 888.164 699.374 891.947 700.769 898.029C702.165 904.11 698.342 910.166 692.251 911.522C690.287 911.959 688.241 911.861 686.327 911.238C681.532 909.678 678.362 905.117 678.57 900.079C678.779 895.041 682.314 890.758 687.222 889.598Z"></path><path fill="#878786" d="M848.396 889.462C854.416 888.001 860.475 891.718 861.9 897.747C863.324 903.775 859.571 909.812 853.534 911.2C847.548 912.576 841.574 908.861 840.161 902.884C838.749 896.907 842.428 890.911 848.396 889.462Z"></path><path fill="#111112" d="M581.022 872.685C601.881 873.082 622.744 873.124 643.604 872.812L644.9 873.272C645.056 874.814 641.626 880.449 640.732 884.06C638.838 891.713 638.362 896.182 638.473 904.029C625.796 903.657 612.665 903.938 599.952 903.843C596.378 903.816 583.518 903.657 580.713 904.144C581.382 900.082 580.987 878.188 581.022 872.685Z"></path><path fill="#FCFCFC" d="M835.213 724.262C838.787 724.172 842.783 724.052 846.338 724.16C857.308 724.578 870.14 723.007 880.849 725.186C894.435 727.95 901.527 742.028 901.169 754.874C900.783 768.792 904.146 785 893.276 795.954C883.975 805.326 872.274 804.534 860.199 804.496C850.308 804.461 840.37 804.488 830.461 804.502L808.881 804.522C796.604 804.525 784.15 805.9 774.685 796.607C768.328 790.364 765.907 781.754 766.199 773.022C766.739 758.674 763.209 743.316 774.684 732.121C784.298 722.742 795.498 724.245 807.738 724.245L835.213 724.262Z"></path><path fill="#FCFCFC" d="M672.345 724.104C673.479 724.044 674.614 724.006 675.749 723.988C681.29 723.92 688.165 724.232 693.642 723.923C718.803 722.503 740.967 724.114 741.743 755.227C742.583 788.911 741.406 804.886 702.75 804.528C690.619 804.468 678.487 804.491 666.356 804.597C658.561 804.644 646.506 805.736 639.263 802.568C634.694 800.476 631.463 790.718 633.342 786.436C641.389 768.103 651.512 750.289 661.139 732.71C663.849 727.76 666.991 725.424 672.345 724.104Z"></path></svg>
