<?xml version="1.0"?>
<svg xmlns="http://www.w3.org/2000/svg" viewBox="153.72 756.5 376.31 214.7" width="376.31" height="214.7"><path fill="#CAC9C9" d="M372.646 788.24C376.671 773.337 386.608 765.732 401.869 764.505C391.984 778.358 392.273 788.909 410.68 792.46L411.369 792.091C411.55 789.767 411.156 789.613 412.352 788.178C415.175 787.497 421.141 789.281 423.923 790.404C443.272 798.208 445.258 813.734 448.091 831.617C450.358 830.829 454.005 829.284 456.188 829.892C460.489 833.874 456.617 841.029 458.846 843.228C470.478 844.42 477.272 847.536 480.073 859.907C485.427 855.953 496.723 851.644 503.208 848.251C505.028 849.895 506.606 855.177 507.528 857.638L507.348 858.04C505.387 860.908 496.462 868.582 493.324 871.995C489.911 875.849 484.882 879.644 482.007 883.606C477.564 888.86 473.525 892.781 469.456 898.434C474.318 903.699 477.739 907.69 484.228 911.011C478.053 915.004 470.526 916.326 463.36 914.678C460.035 913.945 457.481 912.854 454.488 911.202C451.112 917.983 447.571 923.859 447.086 931.496C449.13 935.304 448.79 941.638 447.817 945.7C444.921 957.786 431.197 963.209 420.003 959.45C407.362 955.206 404.405 943.959 402.947 932.39C400.827 919.924 409.14 899.029 395.33 891.072L394.519 891.934C394.286 905.533 394.63 914.657 395.352 928.118C395.733 930.28 395.866 931.06 396.062 933.249C396.598 938.662 396.895 944.096 396.952 949.536C389.629 949.607 382.181 949.402 374.885 949.676C373.833 950.796 374.518 955.989 374.573 957.702L337.532 956.367C337.441 951.308 337.381 942.119 337.784 937.168C338.411 925.713 338.265 913.419 338.646 901.886C338.944 892.874 339.37 883.681 339.514 874.697C329.318 875.051 311.395 874.228 302.2 870.655C299.219 891.039 297.163 907.806 299.443 928.604C300.075 934.919 301.35 942.212 302.637 948.42C294.151 948.54 285.878 948.913 277.41 949.064C277.505 952.923 277.799 954.025 278.214 957.732C265.861 957.885 251.044 956.871 238.518 956.519C239.062 950.171 239.406 944.456 239.542 938.085C239.497 930.779 240.405 922.767 240.912 915.438C241.685 904.266 243.051 893.172 244.374 882.076C245.168 875.417 247.668 865.324 248.048 859.123C248.753 847.614 243.99 834.152 245.484 821.875C245.861 816.831 247.321 811.993 248.942 807.224C249.751 804.842 250.947 802.707 251.362 800.192C254.09 798.089 255.197 797.513 256.522 794.429C256.592 794.452 256.657 794.501 256.73 794.499C257.524 794.472 268.084 786.238 270.41 784.98C301.149 768.356 341.138 778.866 372.646 788.24Z"></path><path fill="#424141" d="M372.646 788.24C376.671 773.337 386.608 765.732 401.869 764.505C391.984 778.358 392.273 788.909 410.68 792.46L411.369 792.091C411.55 789.767 411.156 789.613 412.352 788.178C415.175 787.497 421.141 789.281 423.923 790.404C443.272 798.208 445.258 813.734 448.091 831.617C447.394 832.178 443.445 834.437 442.456 835.071C433.976 840.507 432.983 843.829 429.867 852.744C421.402 843.554 417.448 838.147 404.455 835.782C384.057 832.07 368.636 808.427 372.646 788.24Z"></path><path fill="#424141" d="M458.846 843.228C470.478 844.42 477.272 847.536 480.073 859.907C485.427 855.953 496.723 851.644 503.208 848.251C505.028 849.895 506.606 855.177 507.528 857.638L507.348 858.04C505.387 860.908 496.462 868.582 493.324 871.995C489.911 875.849 484.882 879.644 482.007 883.606C477.564 888.86 473.525 892.781 469.456 898.434C474.318 903.699 477.739 907.69 484.228 911.011C478.053 915.004 470.526 916.326 463.36 914.678C460.035 913.945 457.481 912.854 454.488 911.202C446.859 903.226 444.674 893.227 443.964 882.48C443.472 875.03 445.054 867.802 448.443 861.157C451.422 855.314 455.229 849.972 457.709 843.848C458.088 843.641 458.467 843.435 458.846 843.228Z"></path><path fill="#999899" d="M503.208 848.251C505.028 849.895 506.606 855.177 507.528 857.638L507.348 858.04C505.387 860.908 496.462 868.582 493.324 871.995C489.911 875.849 484.882 879.644 482.007 883.606C479.939 881.832 474.618 867.422 473.692 864.315L473.839 864.03C473.831 863.968 473.656 863.17 473.762 862.799C474.167 861.388 478.421 861.136 479.603 860.203C479.759 860.104 479.916 860.005 480.073 859.907C485.427 855.953 496.723 851.644 503.208 848.251Z"></path><path fill="#2F2E2F" d="M473.839 864.03C475.468 865.993 481.953 880.866 482.007 883.606C479.939 881.832 474.618 867.422 473.692 864.315L473.839 864.03Z"></path><path fill="#2F2E2F" d="M486.942 856.494C488.932 858.764 492.899 869.055 493.324 871.995C491.377 870.182 487.481 859.355 486.942 856.494Z"></path><path fill="#2F2E2F" d="M503.208 848.251C505.028 849.895 506.606 855.177 507.528 857.638L507.348 858.04C505.499 856.487 503.31 850.719 503.208 848.251Z"></path><path fill="#999899" d="M467.829 865.429C470.132 863.856 471.958 861.609 473.692 864.315C474.618 867.422 479.939 881.832 482.007 883.606C477.564 888.86 473.525 892.781 469.456 898.434L469.092 897.927C462.913 889.14 463.276 874.839 467.829 865.429Z"></path><path fill="#424141" d="M284.537 861.672C290.843 865.831 295.617 867.442 302.2 870.655C299.219 891.039 297.163 907.806 299.443 928.604C300.075 934.919 301.35 942.212 302.637 948.42C294.151 948.54 285.878 948.913 277.41 949.064C276.066 945.841 276.333 939.85 274.302 935.136C273.556 931.392 273.531 931.05 273.515 927.154C273.686 904.075 275.597 883.291 284.537 861.672Z"></path><path fill="#020101" d="M273.515 927.154C274.8 926.854 275.944 926.58 277.246 926.378C286.487 924.948 291.198 924.336 299.443 928.604C300.075 934.919 301.35 942.212 302.637 948.42C294.151 948.54 285.878 948.913 277.41 949.064C276.066 945.841 276.333 939.85 274.302 935.136C273.556 931.392 273.531 931.05 273.515 927.154Z"></path><path fill="#424141" d="M371.948 926.149C371.998 917.127 372.457 871.33 375.719 866.14C377.547 865.626 377.542 865.735 379.324 866.15C380.323 868.426 382.865 874.537 384.138 876.448C386.778 880.412 391.96 885.279 394.441 889.54C394.472 890.504 394.498 891.302 394.519 891.934C394.286 905.533 394.63 914.657 395.352 928.118C395.733 930.28 395.866 931.06 396.062 933.249C396.598 938.662 396.895 944.096 396.952 949.536C389.629 949.607 382.181 949.402 374.885 949.676C372.958 948.29 373.756 940.313 372.208 937.139C371.889 933.433 371.891 929.865 371.948 926.149Z"></path><path fill="#020101" d="M371.948 926.149C378.448 925.302 390.004 923.487 395.352 928.118C395.733 930.28 395.866 931.06 396.062 933.249C396.598 938.662 396.895 944.096 396.952 949.536C389.629 949.607 382.181 949.402 374.885 949.676C372.958 948.29 373.756 940.313 372.208 937.139C371.889 933.433 371.891 929.865 371.948 926.149Z"></path><path fill="#999899" d="M402.947 932.39C410.647 921.295 429.364 917.634 440.682 925.212C443.624 927.181 444.602 928.553 446.754 931.106L447.086 931.496C449.13 935.304 448.79 941.638 447.817 945.7C444.921 957.786 431.197 963.209 420.003 959.45C407.362 955.206 404.405 943.959 402.947 932.39Z"></path><path fill="#2F2E2F" d="M428.99 940.424C434.994 940.091 436.621 943.48 431.739 947.245C425.657 946.801 423.583 944.743 428.99 940.424Z"></path><path fill="#424141" d="M239.542 938.085C248.017 935.414 256.355 933.664 265.243 934.134C267.577 934.258 272.702 935.709 274.302 935.136C276.333 939.85 276.066 945.841 277.41 949.064C277.505 952.923 277.799 954.025 278.214 957.732C265.861 957.885 251.044 956.871 238.518 956.519C239.062 950.171 239.406 944.456 239.542 938.085Z"></path><path fill="#424141" d="M337.784 937.168C346.19 934.391 354.486 933.581 363.224 935.168C366.129 935.696 369.369 936.929 372.208 937.139C373.756 940.313 372.958 948.29 374.885 949.676C373.833 950.796 374.518 955.989 374.573 957.702L337.532 956.367C337.441 951.308 337.381 942.119 337.784 937.168Z"></path><path fill="#999899" d="M444.964 839.481C450.283 839.012 452.661 840.347 451.869 846.499C451.365 850.413 446.306 853.895 443.165 855.887C436.065 860.388 437.864 854.392 438.552 848.505C438.992 844.744 441.706 841.484 444.964 839.481Z"></path><path fill="#020101" d="M426.379 883.669C428.865 885.346 427.248 887.912 427.908 888.275C432.245 890.657 436.394 893.238 433.418 899.215C432.204 901.653 430.736 902.16 427.679 903.018L426.193 902.718L425.24 902.538C417.976 901.121 418.161 891.074 425.019 889.483C426.394 889.164 425.313 886.28 426.111 884.35L426.379 883.669Z"></path><path fill="#424141" d="M161.724 862.526C186.759 862.785 185.728 847.76 185.458 828.52C185.062 800.242 213.272 774.178 241.52 783.344C247.407 785.254 252.392 790.007 256.522 794.429C255.197 797.513 254.09 798.089 251.362 800.192C240.612 807.086 234.294 819.011 234.571 831.522C234.925 847.455 233.167 862.169 219.372 872.474C210.882 878.816 197.401 882.759 186.603 881.065C174.751 879.206 168.406 871.919 161.724 862.526Z"></path><path fill="#999899" d="M503.208 848.251C504.777 847.464 522.038 838.443 518.695 845.801C518.392 846.47 508.66 856.74 507.528 857.638C506.606 855.177 505.028 849.895 503.208 848.251Z"></path></svg>
