<?xml version="1.0"?>
<svg xmlns="http://www.w3.org/2000/svg" viewBox="541.44 633.19 333.67 336.91" width="333.67" height="336.91"><path fill="#CAC9C9" d="M749.612 694.204C752.049 692.729 754.578 691.411 757.182 690.258C768.903 684.997 778.868 683.739 790.865 688.368C798.549 694.189 807.82 699.953 815.673 706.046C822.743 710.187 830.003 709.525 837.684 708.302C834.152 717.321 831.919 719.983 823.86 725.27C826.398 726.685 842.749 735.925 844.554 736.625C865.133 737.712 867.086 768.213 851.996 778.048C844.27 783.084 834.763 783.08 825.975 781.53C825.034 781.364 825.057 781.318 824.363 780.708C819.437 778.832 808.763 780.988 803.172 781.278C799.516 781.469 796.155 781.464 792.482 781.445C792.654 787.865 793.004 793.796 792.687 800.235C792.517 803.699 790.255 812.29 791.026 814.218C802.503 818.235 807.405 817.669 817.019 818.814C823.659 819.605 847.973 839.431 854.278 844.633C858.609 847.781 862.766 851.846 867.112 855.249C860.681 863.516 851.072 874.972 844.199 882.777C840.099 878.069 837.066 875.964 832.36 871.928L828.637 868.563C828.458 872.199 828.567 877.683 828.02 880.945C827.785 888.854 826.944 897.831 826.405 905.783C814.833 903.511 802.384 902.569 791.089 899.687C792.817 893.637 794.074 887.397 795.845 881.496C798.292 872.267 796.758 858.234 785.703 855.481C782.242 854.62 778.232 855.825 775.491 858.02C756.146 873.512 731.339 880.285 706.856 880.629C704.757 880.658 701.436 880.234 699.965 881.598C691.879 892.598 675.88 904.5 665.661 913.51C655.377 922.58 650.067 931.034 641.886 941.028C638.568 936.313 632.802 931.444 627.266 929.612C625.207 932.859 623.558 936.028 621.379 939.269C619.586 943.093 616.544 946.184 614.97 950.899C613.738 953.047 612.857 954.577 611.823 956.865C603.127 951.927 591.379 945.183 583.226 939.782C586.364 935.649 590.823 927.483 593.169 924.821C599.872 915.508 605.598 905.834 612.976 896.953C617.869 891.064 625.991 885.394 628.837 878.308C634.573 864.03 622.386 844.023 632.753 821.918C639.138 808.304 653.522 799.454 667.473 795.109C671.929 793.721 677.077 793.276 681.34 791.655C681.554 791.574 681.767 791.487 681.98 791.403C677.9 786.606 674.073 780.783 671.859 774.868C684.071 775.469 687.711 774.231 697.376 766.758C690.949 758.491 686.289 751.973 685.259 741.417L685.678 741.56C708.828 749.247 710.838 723.269 720.615 710.998C724.916 705.599 729.427 703.066 735.461 700.056C736.154 697.564 736.906 689.988 739.836 689.04C742.279 690.929 746.603 693.466 749.612 694.204Z"></path><path fill="#424141" d="M735.461 700.056C735.859 701.445 735.934 702.167 736.141 703.597C737.418 712.408 741.286 719.284 748.287 724.648C748.874 725.096 749.468 725.535 750.068 725.964C741.41 737.549 736.749 746.783 737.569 761.592C739.011 787.636 708.726 812.353 685.241 794.239C684.102 793.355 683.014 792.408 681.98 791.403C677.9 786.606 674.073 780.783 671.859 774.868C684.071 775.469 687.711 774.231 697.376 766.758C690.949 758.491 686.289 751.973 685.259 741.417L685.678 741.56C708.828 749.247 710.838 723.269 720.615 710.998C724.916 705.599 729.427 703.066 735.461 700.056Z"></path><path fill="#424141" d="M749.612 694.204C752.049 692.729 754.578 691.411 757.182 690.258C768.903 684.997 778.868 683.739 790.865 688.368C798.549 694.189 807.82 699.953 815.673 706.046C822.743 710.187 830.003 709.525 837.684 708.302C834.152 717.321 831.919 719.983 823.86 725.27L823.434 725.428C804.814 732.225 784.046 724.464 767.902 714.689C765.772 713.399 762.559 710.901 760.872 709.081C755.607 703.403 757.744 697.741 749.612 694.204Z"></path><path fill="#424141" d="M791.026 814.218C802.503 818.235 807.405 817.669 817.019 818.814C823.659 819.605 847.973 839.431 854.278 844.633C858.609 847.781 862.766 851.846 867.112 855.249C860.681 863.516 851.072 874.972 844.199 882.777C840.099 878.069 837.066 875.964 832.36 871.928L828.637 868.563C827.443 866.758 828.301 856.035 825.856 850.009C818.853 832.752 803.221 832.295 788.568 825.207L787.721 824.792C788.24 822.408 789.437 815.692 791.026 814.218Z"></path><path fill="#020101" d="M854.278 844.633C858.609 847.781 862.766 851.846 867.112 855.249C860.681 863.516 851.072 874.972 844.199 882.777C840.099 878.069 837.066 875.964 832.36 871.928C834.705 860.485 843.562 849.279 854.278 844.633Z"></path><path fill="#999899" d="M844.554 736.625C865.133 737.712 867.086 768.213 851.996 778.048C844.27 783.084 834.763 783.08 825.975 781.53C825.034 781.364 825.057 781.318 824.363 780.708L824.211 779.875C822.91 772.444 821.613 765.309 823.741 757.881C826.996 746.516 832.809 739.092 844.554 736.625Z"></path><path fill="#424141" d="M845.274 752.194C851.216 752.755 850.933 756.838 849.406 761.676C843.859 761.035 843.265 756.847 845.274 752.194Z"></path><path fill="#424141" d="M673.73 879.115C677.851 879.58 697.983 880.548 699.965 881.598C691.879 892.598 675.88 904.5 665.661 913.51C655.377 922.58 650.067 931.034 641.886 941.028C638.568 936.313 632.802 931.444 627.266 929.612C632.174 923.465 641.611 912.498 647.438 907.427C661.992 894.76 664.732 896.353 673.73 879.115Z"></path><path fill="#424141" d="M795.845 881.496C805.113 878.795 819.122 876.217 828.02 880.945C827.785 888.854 826.944 897.831 826.405 905.783C814.833 903.511 802.384 902.569 791.089 899.687C792.817 893.637 794.074 887.397 795.845 881.496Z"></path><path fill="#424141" d="M593.169 924.821C606.392 926.42 612.928 929.015 621.379 939.269C619.586 943.093 616.544 946.184 614.97 950.899C613.738 953.047 612.857 954.577 611.823 956.865C603.127 951.927 591.379 945.183 583.226 939.782C586.364 935.649 590.823 927.483 593.169 924.821Z"></path><path fill="#999899" d="M744.389 699.361C746.644 699.481 747.08 699.264 749.002 700.484C753.864 703.57 758.202 714.823 754.203 719.659L753.708 720.284C747.42 716.922 736.522 705.992 744.389 699.361Z"></path><path fill="#020101" d="M792.177 736.017C804.692 734.782 803.824 751.532 791.804 750.127C788.831 748.543 786.72 746.568 786.819 743C786.887 740.545 786.182 741.587 784.298 740.718C783.817 740.496 782.643 739.197 783.319 738.7C784.39 737.912 786.016 739.613 786.997 739.65C787.946 738.394 790.91 736.752 792.177 736.017Z"></path><path fill="#424141" d="M608.931 794.665C622.421 792.88 632.02 798.46 640.262 808.69C602.231 825.352 631.041 855.244 609.792 880.721C601.907 890.175 593.185 895.804 581.016 897.315C568.164 898.166 558.497 892.902 549.442 884.33C577.171 878.132 568.555 854.467 570.118 834.311C571.786 812.796 588.39 797.976 608.931 794.665Z"></path><path fill="#999899" d="M801.277 674.051C803.45 670.477 810.681 661.286 813.483 657.896C814.486 659.51 823.136 665.066 824.799 665.629C824.494 667.027 824.141 668.299 823.835 669.728L823.411 671.743L822.875 674.243L822.394 676.492L821.896 678.743C821.323 681.377 820.808 683.831 820.114 686.439L819.946 687.281C819.369 690.639 818.451 693.957 817.63 697.263L816.349 702.992C816.08 704.148 815.892 704.843 815.673 706.046C807.82 699.953 798.549 694.189 790.865 688.368C794.427 683.624 797.766 678.756 801.277 674.051Z"></path><path fill="#999899" d="M801.277 674.051C803.45 670.477 810.681 661.286 813.483 657.896C814.486 659.51 823.136 665.066 824.799 665.629C824.494 667.027 824.141 668.299 823.835 669.728L823.411 671.743L822.875 674.243L822.394 676.492L821.896 678.743C821.323 681.377 820.808 683.831 820.114 686.439C817.504 684.378 803.914 674.822 801.277 674.051Z"></path><path fill="#2F2E2F" d="M801.277 674.051C803.914 674.822 817.504 684.378 820.114 686.439L819.946 687.281C817.014 685.545 802.405 676.108 801.277 674.051Z"></path><path fill="#020101" d="M627.266 929.612C632.802 931.444 638.568 936.313 641.886 941.028C637.911 947.771 633.044 955.248 628.852 962.096C624.612 958.132 619.612 954.399 614.97 950.899C616.544 946.184 619.586 943.093 621.379 939.269C623.558 936.028 625.207 932.859 627.266 929.612Z"></path><path fill="#999899" d="M813.483 657.896C815.367 655.401 824.189 642.936 826.788 642.206C830.408 641.188 827.709 651.251 827.4 652.743L826.886 655.243C826.216 658.617 825.32 662.256 824.799 665.629C823.136 665.066 814.486 659.51 813.483 657.896Z"></path><path fill="#2F2E2F" d="M813.483 657.896C816.486 658.659 823.123 662.97 824.799 665.629C823.136 665.066 814.486 659.51 813.483 657.896Z"></path></svg>
