<?xml version="1.0"?>
<svg xmlns="http://www.w3.org/2000/svg" viewBox="148.78 481.94 379.18 165.07" width="379.18" height="165.07"><path fill="#CAC9C9" d="M255.831 514.725C272.077 518.935 288.872 524.876 293.748 501.683C293.925 500.83 294.083 499.973 294.223 499.112C303.365 508.757 304.026 519.579 301.706 532.053C316.152 531.76 319.925 525.108 325.405 512.904C330.553 520.396 332.556 526.076 333.637 535.104C338.476 534.065 343.379 532.609 348.02 531.489C374.384 525.126 403.901 523.753 428.298 537.433C428.507 537.551 430.027 538.334 430.182 538.371C443.414 548.695 451.182 560.486 454.091 577.456C456.006 588.625 451.972 594.383 451.874 602.563C450.501 603.437 447.923 610.491 447.374 612.176C439.129 637.49 428.739 633.637 406.182 633.568C397.305 633.541 386.314 633.88 376.737 633.459C373.31 633.499 353.873 634.345 352.492 633.145C350.318 632.014 344.567 631.783 342.105 632.448L341.03 633.828C337.14 634.809 309.065 633.678 302.538 633.747C290.926 633.776 278.142 633.866 266.601 633.623C254.607 633.371 254.084 630.351 251.771 619.595C251.688 619.483 251.605 619.371 251.522 619.258L250.437 618.051C249.984 616.237 250.632 614.932 251.192 613.097C236.641 611.677 233.699 613.522 220.164 619.103C216.799 620.49 210.904 622.301 207.233 623.658C200.103 630.096 194.903 634.108 184.499 633.795C177.638 633.577 171.172 630.536 166.629 625.39C156.785 614.351 160.613 600.778 171.238 592.12C175.293 585.565 179.819 581.664 184.713 572.955C174.797 571.285 169.727 566.036 165.383 557.46C173.08 557.788 177.942 558.491 184.448 553.931C183.796 551.147 183.64 550.339 182.812 547.467L182.691 547.037C185.999 547.058 187.341 546.856 190.482 546.622C190.555 546.269 190.656 545.656 190.805 545.32C193.408 544.714 205.963 532.772 209.842 529.627C218.479 522.082 229.83 515.635 241.406 514.447C244.379 513.751 245.271 514.06 248.03 513.963C249.972 513.895 249.899 512.056 252.703 512.273C253.831 513.23 254.595 513.865 255.831 514.725Z"></path><path fill="#424141" d="M255.831 514.725C272.077 518.935 288.872 524.876 293.748 501.683C293.925 500.83 294.083 499.973 294.223 499.112C303.365 508.757 304.026 519.579 301.706 532.053C316.152 531.76 319.925 525.108 325.405 512.904C330.553 520.396 332.556 526.076 333.637 535.104C333.501 537.335 333.309 539.734 332.933 541.942C331.682 549.353 327.506 555.95 321.342 560.25C312.107 566.64 296.16 568.489 285.256 566.669C272.075 564.469 262.731 556.154 255.216 545.594C262.444 528.907 258.871 530.832 255.992 515.617L255.831 514.725Z"></path><path fill="#CAC9C9" d="M251.192 613.097C253.413 606.542 256.778 600.888 263.311 597.957C281.136 589.961 293.717 597.872 310.847 601.252C319.834 603.026 332.769 603.106 342.012 602.928C341.952 608.673 341.418 627.67 342.105 632.448L341.03 633.828C337.14 634.809 309.065 633.678 302.538 633.747C290.926 633.776 278.142 633.866 266.601 633.623C254.607 633.371 254.084 630.351 251.771 619.595C251.688 619.483 251.605 619.371 251.522 619.258L250.437 618.051C249.984 616.237 250.632 614.932 251.192 613.097Z"></path><path fill="#424141" d="M251.192 613.097C253.413 606.542 256.778 600.888 263.311 597.957C281.136 589.961 293.717 597.872 310.847 601.252C319.834 603.026 332.769 603.106 342.012 602.928C341.952 608.673 341.418 627.67 342.105 632.448L341.03 633.828C337.351 633.264 321.834 633.651 317.244 633.703C317.09 624.06 317.128 614.199 317.074 604.539C312.566 603.969 307.701 603.329 303.365 602.159C293.279 599.438 285.35 595.88 274.685 597.423C265.5 598.567 256.417 603.742 253.921 613.188C253.34 615.384 253.092 617.543 251.522 619.258L250.437 618.051C249.984 616.237 250.632 614.932 251.192 613.097Z"></path><path fill="#424141" d="M241.406 514.447L248.522 514.547C237.477 527.404 236.3 529.205 235.759 546.162C229.321 556.965 211.387 569.244 199.114 572.491C194.402 573.737 189.527 573.492 184.713 572.955C174.797 571.285 169.727 566.036 165.383 557.46C173.08 557.788 177.942 558.491 184.448 553.931C183.796 551.147 183.64 550.339 182.812 547.467L182.691 547.037C185.999 547.058 187.341 546.856 190.482 546.622C190.555 546.269 190.656 545.656 190.805 545.32C193.408 544.714 205.963 532.772 209.842 529.627C218.479 522.082 229.83 515.635 241.406 514.447Z"></path><path fill="#999899" d="M190.482 546.622C189.736 548.583 186.028 552.247 184.448 553.931C183.796 551.147 183.64 550.339 182.812 547.467L182.691 547.037C185.999 547.058 187.341 546.856 190.482 546.622Z"></path><path fill="#999899" d="M171.238 592.12C181.266 591.352 185.625 592.754 194.031 598.911C200.963 603.988 206.145 615.338 207.233 623.658C200.103 630.096 194.903 634.108 184.499 633.795C177.638 633.577 171.172 630.536 166.629 625.39C156.785 614.351 160.613 600.778 171.238 592.12Z"></path><path fill="#424141" d="M174.095 611.395C175.198 611.401 177.196 611.301 178.189 611.721C179.212 612.141 180.022 612.958 180.432 613.985C181.349 616.252 181.124 617.359 180.249 619.422C174.985 619.105 172.255 616.661 174.095 611.395Z"></path><path fill="#020101" d="M353.455 596.19C358.014 596.833 361.263 597.611 365.743 598.63C367.481 599.012 369.198 599.483 370.886 600.043C371.219 600.148 371.552 600.252 371.885 600.357C368.789 613.218 368.621 622.231 376.737 633.459C373.31 633.499 353.873 634.345 352.492 633.145C352.33 620.819 352.651 608.491 353.455 596.19Z"></path><path fill="#999899" d="M248.618 524.327C249.9 524.356 251.161 524.376 251.855 525.612C256.134 533.234 251.006 540.528 245.852 545.293C243.444 546.847 242.899 547.083 242.518 543.501C241.605 534.901 241.794 529.923 248.618 524.327Z"></path><path fill="#020101" d="M225.93 577.294C227.578 578.284 227.197 579.616 225.893 580.684C222.672 583.323 227.877 584.424 225.464 588.746C223.084 593.009 219.447 594.415 215.366 592.344L214.542 591.957C213.087 590.318 212.501 589.803 211.787 587.648C209.862 581.834 216.719 576.259 221.831 579.705C222.125 579.903 223 580.533 223.444 580.63C224.22 580.328 225.378 578.123 225.93 577.294Z"></path><path fill="#2F2E2F" d="M395.539 550.832L396.622 551.447L396.911 552.511C395.592 554.694 389.216 556.478 385.564 563.417C379.901 573.542 381.721 586.915 387.947 596.382C389.148 598.207 392.316 601.665 392.408 603.581L390.771 603.474C388.404 602.162 385.911 599.301 384.743 596.899C376.245 579.43 377.722 561.038 395.539 550.832Z"></path><path fill="#424141" d="M430.182 538.371C449.67 524.378 474.182 528.472 488.003 548.108C493.224 555.679 496.269 564.538 496.807 573.719C497.207 579.746 496.178 586.258 496.235 592.38C496.375 607.276 506.017 616.821 519.967 620.311C515.087 625.2 510.052 629.317 503.436 631.551C481.344 639.011 457.231 624.754 451.874 602.563C451.972 594.383 456.006 588.625 454.091 577.456C451.182 560.486 443.414 548.695 430.182 538.371Z"></path><path fill="#999899" d="M182.391 546.456C180.118 541.979 164.846 496.942 164.63 491.584C165.479 490.207 164.931 490.738 166.347 489.938C171.117 490.305 182.446 503.368 186.755 507.594L187.709 508.404C190.789 511.547 201.692 522.664 205.088 524.88L205.771 525.632C207.681 527.072 208.232 527.797 209.842 529.627C205.963 532.772 193.408 544.714 190.805 545.32C190.656 545.656 190.555 546.269 190.482 546.622C187.341 546.856 185.999 547.058 182.691 547.037L182.391 546.456Z"></path><path fill="#2F2E2F" d="M205.771 525.632C201.461 526.629 194.753 526.258 190.25 526.547C188.429 526.664 176.675 528.358 176.201 527.314C176.937 525.98 202.159 524.762 205.088 524.88L205.771 525.632Z"></path><path fill="#2F2E2F" d="M186.755 507.594L187.709 508.404C182.728 509.281 175.582 508.886 170.456 508.936C170.255 508.938 170.018 508.611 170.186 508.528C172.763 507.258 184.923 507.544 186.755 507.594Z"></path><path fill="#2F2E2F" d="M182.391 546.456C183.831 545.015 187.936 545.559 190.805 545.32C190.656 545.656 190.555 546.269 190.482 546.622C187.341 546.856 185.999 547.058 182.691 547.037L182.391 546.456Z"></path></svg>
