<?xml version="1.0" encoding="UTF-8" standalone="no"?><!DOCTYPE svg PUBLIC "-//W3C//DTD SVG 1.1//EN" "http://www.w3.org/Graphics/SVG/1.1/DTD/svg11.dtd"><svg width="100%" height="100%" viewBox="0 0 938 1084" version="1.1" xmlns="http://www.w3.org/2000/svg" xmlns:xlink="http://www.w3.org/1999/xlink" xml:space="preserve" xmlns:serif="http://www.serif.com/" style="fill-rule:evenodd;clip-rule:evenodd;stroke-linejoin:round;stroke-miterlimit:2;"><path d="M596.984,96.839c3.266,-14.466 4.119,-31.238 7.344,-46.463l0.603,-2.941c13.91,-0.368 28.347,3.969 41.985,6.379l1.431,1.812c4.397,6.125 24.894,55.606 26.79,63.563l1.444,1.668c5.01,10.547 14.028,33.01 18.113,44.528c20.825,17.688 48.909,-2.306 63.45,0.947c8.056,8.528 -9.938,38.844 -18.306,44.907c-4.032,2.925 -7.669,5.821 -11.807,8.665c11.788,5.8 53.272,16.631 67.791,20.66c90.45,-22.872 125.603,144.937 -21.378,148.725c-32.26,-1.416 -56.663,2.896 -85.491,18.215c9.263,35.769 9.438,47.478 9.172,84.128c13.519,-2.372 28.084,-4.89 41.072,-8.568c33.75,-9.56 53.834,-23.825 86.572,0.103c22.356,16.337 44.59,32.259 65.49,50.703c13.341,9.15 34.529,26.625 46.735,37.584c-15.819,20.013 -51.919,63.331 -68.406,81.053c-12.654,-14.093 -20.929,-23.3 -35.566,-35.734c-2.834,3.162 -14.303,68.147 -14.275,74.734c1.078,12.672 -10.069,62.388 -13.097,76.853c-32.469,-7.406 -75.391,-20.168 -107.147,-30.693c4.816,-10.2 17.856,-40.532 22.328,-48.485c5.891,-15.087 16.085,-38.287 12.703,-54.347c-1.996,-9.471 -32.6,-6 -38.421,-1.446c-34.429,26.937 -58.341,61.75 -99.338,82.109c-18.078,8.978 -35.4,17.384 -54.884,23.231c-8.469,3.088 -45.307,11.91 -49.069,14.603c-37.722,75.416 -61.106,121.397 -66.397,210.66c-0.903,15.262 0.738,73.397 -0.816,81.775c-23.409,-0.553 -41.743,-2.216 -64.812,-3.728c0.066,6.2 -0.028,12.396 -0.281,18.59c-38.828,-2.197 -79.828,-3.734 -118.441,-7.237c0.447,-19.344 0.413,-37.785 1.144,-57.194c1.075,-40.325 4.14,-80.575 9.187,-120.597c6.278,-50.475 17.61,-76.897 -2.015,-126.003c-20.113,-50.334 -10.707,-92.509 3.281,-143.028l8.05,-8.678c28.319,-55.119 56.928,-54.688 99.184,-87.682c-22.409,-12.543 -32.628,-25.293 -45.853,-46.512c7.169,-0.513 14.281,-1.641 21.26,-3.372c24.346,-6.278 34.093,-17.472 46.059,-37.709c-32.188,-14.107 -44.744,-33.557 -55.388,-65.747c67.732,6.69 70.288,-36.238 78.147,-88.341c4.888,-32.406 28.432,-62.444 55.25,-80.85c4.747,-7.828 -5.128,-27.509 4.907,-38.05c12.24,-4.978 16.453,4.316 27.9,4.7c27.818,-19.931 59.884,-22.653 92.909,-20.853c6.669,-3.069 6.8,-25.644 10.366,-34.728l0.521,-1.909Z" style="fill:#cac9c9;fill-rule:nonzero;"/><path d="M460.381,187.679l1.344,2.663c2.847,5.765 4.928,13.087 7.822,19.425c11.078,24.278 25.456,35.793 46.106,51.956c-11.834,37.797 -8.294,72.337 -4.05,111.259c10.413,95.457 -44.503,186.475 -150.697,137.228c-22.409,-12.543 -32.628,-25.293 -45.853,-46.512c7.169,-0.513 14.281,-1.641 21.26,-3.372c24.346,-6.278 34.093,-17.472 46.059,-37.709c-32.188,-14.107 -44.744,-33.557 -55.388,-65.747c67.732,6.69 70.288,-36.238 78.147,-88.341c4.888,-32.406 28.432,-62.444 55.25,-80.85Z" style="fill:#424141;fill-rule:nonzero;"/><path d="M596.984,96.839c3.266,-14.466 4.119,-31.238 7.344,-46.463l0.603,-2.941c13.91,-0.368 28.347,3.969 41.985,6.379l1.431,1.812c4.397,6.125 24.894,55.606 26.79,63.563l1.444,1.668c5.01,10.547 14.028,33.01 18.113,44.528c20.825,17.688 48.909,-2.306 63.45,0.947c8.056,8.528 -9.938,38.844 -18.306,44.907c-4.032,2.925 -7.669,5.821 -11.807,8.665c-57.609,27.728 -123.697,22.456 -180.859,-4.234c-10.116,-21.869 -15.294,-39.753 -37.05,-52.178c-4.897,-2.797 -10.209,-4.828 -14.763,-7.744l-2.171,-1.419c27.818,-19.931 59.884,-22.653 92.909,-20.853c6.669,-3.069 6.8,-25.644 10.366,-34.728l0.521,-1.909Z" style="fill:#424141;fill-rule:nonzero;"/><path d="M596.984,96.839c3.266,-14.466 4.119,-31.238 7.344,-46.463l0.603,-2.941c13.91,-0.368 28.347,3.969 41.985,6.379l1.431,1.812c4.397,6.125 24.894,55.606 26.79,63.563l1.444,1.668c5.01,10.547 14.028,33.01 18.113,44.528c-6.206,-2.156 -13.506,-5.25 -20.25,-6.881c-27.21,-6.597 -54.45,-19.74 -81.847,-24.131c-3.056,-0.491 -2.731,0.837 -6.5,-0.897c6.669,-3.069 6.8,-25.644 10.366,-34.728l0.521,-1.909Z" style="fill:#999899;fill-rule:nonzero;"/><path d="M596.984,96.839c3.266,-14.466 4.119,-31.238 7.344,-46.463l0.603,-2.941c13.91,-0.368 28.347,3.969 41.985,6.379l1.431,1.812c4.397,6.125 24.894,55.606 26.79,63.563c-16.384,-3.591 -68.221,-21.713 -78.153,-22.35Z" style="fill:#999899;fill-rule:nonzero;"/><path d="M604.931,47.435c13.91,-0.368 28.347,3.969 41.985,6.379l1.431,1.812c-4.406,2.975 -38.297,-4.897 -43.416,-8.191Z" style="fill:#2f2e2f;fill-rule:nonzero;"/><path d="M596.984,96.839c9.932,0.637 61.769,18.759 78.153,22.35l1.444,1.668c-2.684,2.316 -2.2,2.478 -5.747,1.35c-24.675,-7.862 -49.837,-15.256 -74.371,-23.459l0.521,-1.909Z" style="fill:#2f2e2f;fill-rule:nonzero;"/><path d="M409.866,767.139c21.262,-3.622 63.259,-12.319 82.956,-13.807c-37.722,75.416 -61.106,121.397 -66.397,210.66c-0.903,15.262 0.737,73.397 -0.816,81.775c-23.409,-0.553 -41.743,-2.216 -64.812,-3.728c-1.228,-19.722 -0.034,-39.588 -2.844,-59.622c-0.203,-4.2 -0.325,-7.744 -0.278,-11.95c4.384,-34.703 2.688,-55.757 12.012,-92.332c7.835,-30.715 38.185,-85.887 40.179,-110.996Z" style="fill:#424141;fill-rule:nonzero;"/><path d="M357.675,970.467c8.069,-5.478 35.384,-5.394 45.119,-4.325c9.55,1.05 15.962,7.04 22.372,13.362c-0.672,17.088 -1.944,49.744 0.443,66.263c-23.409,-0.553 -41.743,-2.216 -64.812,-3.728c-1.228,-19.722 -0.034,-39.588 -2.844,-59.622c-0.203,-4.2 -0.325,-7.744 -0.278,-11.95Z" style="fill:#020101;fill-rule:nonzero;"/><path d="M698.125,491.632c13.519,-2.372 28.084,-4.89 41.072,-8.568c33.75,-9.56 53.834,-23.825 86.572,0.103c22.356,16.337 44.59,32.259 65.49,50.703c13.341,9.15 34.529,26.625 46.735,37.584c-15.819,20.013 -51.919,63.331 -68.406,81.053c-12.654,-14.093 -20.929,-23.3 -35.566,-35.734l-0.188,-0.675c-10.462,-13.381 1.372,-31.947 -18.921,-56.55c-28.982,-35.134 -79.591,-31.775 -122.729,-37.013c1.863,-10.321 3.844,-20.625 5.941,-30.903Z" style="fill:#424141;fill-rule:nonzero;"/><path d="M891.259,533.87c13.341,9.15 34.529,26.625 46.735,37.584c-15.819,20.013 -51.919,63.331 -68.406,81.053c-12.654,-14.093 -20.929,-23.3 -35.566,-35.734l-0.188,-0.675c2.563,-33.363 28.435,-66.784 57.425,-82.228Z" style="fill:#020101;fill-rule:nonzero;"/><path d="M795.822,240.564c90.45,-22.872 125.603,144.937 -21.378,148.725c-0.719,-1.05 -1.419,-2.113 -2.103,-3.188c-26.41,-42.353 -32.544,-109.953 16.803,-141.703c1.803,-1.159 3.518,-1.769 5.409,-2.997l1.269,-0.837Z" style="fill:#999899;fill-rule:nonzero;"/><path d="M818.994,288.285c18.384,1.732 21.465,12.175 10.731,26.122c-14.944,-1.025 -16.981,-14.462 -10.731,-26.122Z" style="fill:#424141;fill-rule:nonzero;"/><path d="M357.953,982.417c2.81,20.034 1.616,39.9 2.844,59.622c0.066,6.2 -0.028,12.396 -0.281,18.59c-38.829,-2.197 -79.828,-3.734 -118.441,-7.237c0.447,-19.344 0.412,-37.785 1.144,-57.194c9.247,-3.419 18.719,-6.197 28.343,-8.313c24.01,-5.143 46.26,-6.784 70.435,-1.093c2.966,0.697 12.781,4.322 14.544,3.897c0.971,-1.104 1.275,-6.972 1.412,-8.272Z" style="fill:#424141;fill-rule:nonzero;"/><path d="M721.831,689.182c32.972,-10.978 66.956,-18 97.916,2.325c1.078,12.672 -10.069,62.388 -13.097,76.853c-32.469,-7.406 -75.391,-20.168 -107.147,-30.693c4.816,-10.2 17.856,-40.532 22.328,-48.485Z" style="fill:#424141;fill-rule:nonzero;"/><path d="M487.466,179.664c39.275,0.45 48.397,56.196 39.943,60.25l-1.678,-0.66c-20.315,-7.781 -60.225,-35.387 -38.265,-59.59Z" style="fill:#999899;fill-rule:nonzero;"/><path d="M654.569,276.595c41.609,-2.4 40.14,45.659 1.431,43.181c-4.7,-2.609 -15.534,-8.947 -15.181,-14.325c0.965,-14.687 -19.069,-5.991 -14.31,-15.847c1.922,-3.981 12.747,6.55 14.694,-1.006c1.019,-3.959 8.303,-8.906 11.088,-10.572l2.278,-1.431Z" style="fill:#020101;fill-rule:nonzero;"/><path d="M0,851.573c85.966,-23.897 53.862,-98.366 54.856,-161.291c1.613,-101.806 131.553,-181.762 206.866,-92.39l-8.05,8.678c-53.338,34.519 -56.647,84.687 -44.813,140.79c6.022,28.547 -10.559,73.429 -29.687,95.466c-53.372,61.484 -119.353,59.375 -179.172,8.747Z" style="fill:#424141;fill-rule:nonzero;"/><path d="M612.422,0.214c5.037,-0.204 9.981,-0.41 14.994,0.134c-4.435,2.737 -0.619,5.553 2.137,10.672c7.531,13.981 12.919,27.572 17.363,42.794c-13.638,-2.41 -28.075,-6.747 -41.985,-6.379c2.478,-14.418 6.375,-32.875 7.491,-47.221Z" style="fill:#999899;fill-rule:nonzero;"/></svg>