<?xml version="1.0" encoding="UTF-8" standalone="no"?><!DOCTYPE svg PUBLIC "-//W3C//DTD SVG 1.1//EN" "http://www.w3.org/Graphics/SVG/1.1/DTD/svg11.dtd"><svg width="100%" height="100%" viewBox="0 0 851 830" version="1.1" xmlns="http://www.w3.org/2000/svg" xmlns:xlink="http://www.w3.org/1999/xlink" xml:space="preserve" xmlns:serif="http://www.serif.com/" style="fill-rule:evenodd;clip-rule:evenodd;stroke-linejoin:round;stroke-miterlimit:2;"><path d="M740.741,73.122c12.093,7.857 35.812,26.594 45.497,36.938l-0.544,1.926c-2.306,12.81 -10.741,36.882 -15.238,49.535c-3.593,9.869 -7.49,20.378 -11.397,30.135c22.972,16.559 38.722,16.303 66.05,15.453c-16.843,28.359 -31.306,37.922 -62.396,46.969c3.543,9.478 41.871,40.228 51.743,51.64c17.947,12.985 30.263,19.085 34.357,44.131c3.221,19.707 2.178,38.819 -9.357,55.788c-29.653,43.856 -79.14,37.381 -121.862,18.412c-34.469,-17.693 -57.281,-27.609 -95.697,-28.806c6.316,22.669 20.612,82.331 18.194,105.022c10.8,77.616 15.178,173.203 18.093,252.716c1.525,9.922 2.179,50.812 2.804,63.965c-18.504,-0.481 -32.66,-1.175 -51.047,-2.337c0.322,7.709 1.315,6.144 -1.703,12.272c-4.694,2.815 -9.247,2.125 -14.891,2.159c-5.013,-0.544 -9.956,-0.337 -14.994,-0.134c-22.797,0.087 -62.319,1.875 -83.6,0.293c-6.775,-4.3 -4.265,-10.068 -7.294,-10.046c-42.371,0.306 -132.925,4.871 -170.8,1.29c-32.84,-3.103 -52.693,-23.128 -63.971,-37.515c-59.616,36.615 -177.688,57.484 -230.185,-2.547c-16.275,-18.45 -24.287,-42.757 -22.169,-67.269c7.21,-77.222 93.069,-98.706 158.032,-90.55c-19.732,42.562 -25.21,78.178 30.593,98.434c14.491,5.257 30.269,5.978 45.622,5.603c-18.697,-88.706 14.807,-161.996 74.103,-227.54c17.66,-19.522 43.441,-39.981 58.538,-60.935c-35.681,-12.503 -58.369,-36.481 -67.644,-73.162c33.828,-0.006 49.075,-4.031 74.928,-26.597c-28.143,-26.1 -37.331,-39.987 -45.965,-77.859c61.465,34.981 78.99,-46.525 101.081,-81.835c21.312,-34.059 56.656,-49.713 95.178,-57.322c9.444,-2.428 9.1,-31.346 19.081,-36.087c14.213,-6.749 15.21,14.329 27.8,16.185c33.594,-5.879 89.372,-2.283 116.938,20.209c6.675,-4.806 12.39,-10.302 18.862,-14.732l2.028,-2.338c7.119,-7.333 21.1,-22.354 28.263,-28.357l2.969,-3.107Z" style="fill:#cac9c9;fill-rule:nonzero;"/><path d="M489.553,729.631l-0.628,-114.95c-0.078,-15.907 -0.222,-32.585 -0.3,-48.535c-0.022,-5.122 0.956,-5.218 3.684,-8.031l2.769,0.353c3.747,8.397 2.835,181.291 2.966,204.272c19.497,-4.806 34.987,-8.675 55.319,-10.775c10.543,-1.087 45.24,4.275 49.812,1.813l1.263,-7.594l3.831,0.122l1.934,-2.557c0.46,-5.468 1,-8.896 1.991,-14.306c0.072,4.903 -1.313,14.91 2.981,17.15c17.634,-1.259 26.994,-0.769 43.009,6.388c1.525,9.922 2.179,50.812 2.804,63.965c-18.504,-0.481 -32.66,-1.175 -51.047,-2.337c0.322,7.709 1.315,6.144 -1.703,12.272c-4.694,2.815 -9.247,2.125 -14.891,2.159c-5.013,-0.544 -9.956,-0.337 -14.994,-0.134c-22.797,0.087 -62.319,1.875 -83.6,0.293c-6.775,-4.3 -4.265,-10.068 -7.294,-10.046c-42.371,0.306 -132.925,4.871 -170.8,1.29c-32.84,-3.103 -52.693,-23.128 -63.971,-37.515c-59.616,36.615 -177.688,57.484 -230.185,-2.547c-16.275,-18.45 -24.287,-42.757 -22.169,-67.269c7.21,-77.222 93.069,-98.706 158.032,-90.55c-19.732,42.562 -25.21,78.178 30.593,98.434c14.491,5.257 30.269,5.978 45.622,5.603c0.282,0.579 0.578,1.144 0.841,1.732c15.728,35.29 18.134,61.09 59.369,77.54c36.181,14.432 153.534,6.522 194.768,4.694c0.285,-10.572 2.135,-64.487 -0.203,-72.084l-1.553,-1.16l1.797,-1.278c-8.284,-3.094 -37.437,0.978 -44.628,7.35l-1.228,-3.056l1.775,-3.303c8.512,-4.375 31.228,-3.678 43.25,-5.513l0.784,-1.89Z" style="fill:#424141;fill-rule:nonzero;"/><path d="M615.175,746.593c17.634,-1.259 26.994,-0.769 43.009,6.388c1.525,9.922 2.179,50.812 2.804,63.965c-18.504,-0.481 -32.66,-1.175 -51.047,-2.337c-0.794,-5.297 -1.716,-24.881 -0.85,-29.81c2.153,-12.278 -6.56,-34.315 6.084,-38.206Z" style="fill:#020101;fill-rule:nonzero;"/><path d="M524.8,121.349c1.103,5.68 -0.022,14.333 -0.237,20.521c-0.81,23.283 6.268,39.108 18.756,58.476c-42.369,42.797 -36.675,72.9 -43.319,129.022c-8.384,70.797 -59.984,118.822 -132.778,108.756c-35.681,-12.503 -58.369,-36.481 -67.644,-73.162c33.828,-0.006 49.075,-4.031 74.928,-26.597c-28.143,-26.1 -37.331,-39.987 -45.965,-77.859c61.465,34.981 78.99,-46.525 101.081,-81.835c21.312,-34.059 56.656,-49.713 95.178,-57.322Z" style="fill:#424141;fill-rule:nonzero;"/><path d="M740.741,73.122c12.093,7.857 35.812,26.594 45.497,36.938l-0.544,1.926c-2.306,12.81 -10.741,36.882 -15.238,49.535c-3.593,9.869 -7.49,20.378 -11.397,30.135c22.972,16.559 38.722,16.303 66.05,15.453c-16.843,28.359 -31.306,37.922 -62.396,46.969c-10.191,1.034 -20.46,0.943 -30.629,-0.272c-54.096,-6.397 -107.218,-45.622 -139.918,-87.597c1.356,-33.16 -1.835,-37.995 -21.003,-62.416l0.518,-2.346c33.594,-5.879 89.372,-2.283 116.938,20.209c6.675,-4.806 12.39,-10.302 18.862,-14.732l2.028,-2.338c7.119,-7.333 21.1,-22.354 28.263,-28.357l2.969,-3.107Z" style="fill:#424141;fill-rule:nonzero;"/><path d="M740.741,73.122c12.093,7.857 35.812,26.594 45.497,36.938l-0.544,1.926c-2.306,12.81 -10.741,36.882 -15.238,49.535c-5.268,-2.793 -27.562,-23.926 -33.887,-29.607c-1.478,-0.971 -1.222,-0.644 -2.11,-2.035c-9.146,-8.056 -17.653,-15.19 -26.978,-22.955l2.028,-2.338c7.119,-7.333 21.1,-22.354 28.263,-28.357l2.969,-3.107Z" style="fill:#999899;fill-rule:nonzero;"/><path d="M709.509,104.586c9.45,5.45 56.407,47.473 60.947,56.935c-5.268,-2.793 -27.562,-23.926 -33.887,-29.607c-1.478,-0.971 -1.222,-0.644 -2.11,-2.035c-9.146,-8.056 -17.653,-15.19 -26.978,-22.955l2.028,-2.338Z" style="fill:#020101;fill-rule:nonzero;"/><path d="M740.741,73.122c12.093,7.857 35.812,26.594 45.497,36.938l-0.544,1.926c-11.481,-5.135 -32.51,-25.989 -45.303,-34.054l-2.619,-1.703l2.969,-3.107Z" style="fill:#020101;fill-rule:nonzero;"/><path d="M688.619,121.656c6.675,-4.806 12.39,-10.302 18.862,-14.732c9.325,7.765 17.832,14.899 26.978,22.955c0.888,1.391 0.632,1.064 2.11,2.035c6.325,5.681 28.619,26.814 33.887,29.607c-3.593,9.869 -7.49,20.378 -11.397,30.135c-28.296,-27.835 -43.128,-33.441 -70.44,-70Z" style="fill:#999899;fill-rule:nonzero;"/><path d="M814.456,305.718c17.947,12.985 30.263,19.085 34.357,44.131c3.221,19.707 2.178,38.819 -9.357,55.788c-29.653,43.856 -79.14,37.381 -121.862,18.412c-7.803,-63.896 27.403,-122.068 96.862,-118.331Z" style="fill:#999899;fill-rule:nonzero;"/><path d="M803.319,356.09c13.578,5.388 14.515,17.434 4.45,27.197l-1.697,1.712c-14.984,-3.721 -14.416,-18.165 -4.863,-26.884l2.11,-2.025Z" style="fill:#2f2e2f;fill-rule:nonzero;"/><path d="M611.134,598.181c12.882,-16.616 21.072,-50.819 24.032,-71.06c1.337,-9.14 1.768,-18.262 4.925,-26.856c10.8,77.616 15.178,173.203 18.093,252.716c-16.015,-7.157 -25.375,-7.647 -43.009,-6.388c-4.294,-2.24 -2.909,-12.247 -2.981,-17.15c0.172,-29.615 2.062,-104.944 -1.06,-131.262Z" style="fill:#424141;fill-rule:nonzero;"/><path d="M487.803,737.321c-10.453,0.813 -24.094,1.31 -33.928,4.097c-4.744,1.344 -2.091,4.669 -9.653,5.76c-7.116,-11.172 13.697,-58.563 -18.163,-100.338c-39.984,-52.431 -94.29,-22.897 -100.834,-32.566l1.834,-2.871c64.316,-24.363 124.366,26.168 125.947,91.009c0.269,10.991 -0.534,20.369 -1.706,31.316c12.713,-2.507 25.238,-4.438 38.253,-4.097l-0.784,1.89c-12.022,1.835 -34.738,1.138 -43.25,5.513l-1.775,3.303l1.228,3.056c7.191,-6.372 36.344,-10.444 44.628,-7.35l-1.797,1.278Z" style="fill:#2f2e2f;fill-rule:nonzero;"/><path d="M604.438,746.184c-0.6,-47.203 -0.935,-94.406 -0.997,-141.61c-0.047,-12.09 -3.541,-60.075 3.656,-66.009l2.722,1.472c1.262,5.625 1.225,49.494 1.315,58.144c3.122,26.318 1.232,101.647 1.06,131.262c-0.991,5.41 -1.531,8.838 -1.991,14.306l-1.934,2.557l-3.831,-0.122Z" style="fill:#2f2e2f;fill-rule:nonzero;"/><path d="M554.297,118.481c25.937,11.139 27.641,53.428 10.237,73.775c-16.75,-14.469 -25.121,-31.344 -23.79,-54.112c0.572,-9.801 6.597,-14.048 13.553,-19.663Z" style="fill:#999899;fill-rule:nonzero;"/><path d="M644.747,276.849c-3.481,-1.256 -11.313,-4.728 -9.906,-9.531c3.981,-2.119 9.868,4.413 13.503,7.36l2.262,-2.054c9.582,-8.543 24.538,-7.771 32.622,2.65c3.86,4.975 5.391,11.369 4.21,17.554c-1.3,6.593 -5.913,12.381 -11.594,15.837c-5.131,3.109 -11.335,3.922 -17.094,2.234c-16.087,-4.778 -15.778,-21.084 -14.003,-34.05Z" style="fill:#020101;fill-rule:nonzero;"/><path d="M779.453,32.658l2.169,-1.942c4.434,-4.036 41.912,-50.71 39.666,-20.723c-0.775,10.333 -13.141,32.872 -15.225,44.479c-4.338,12.261 -14.688,45.906 -19.825,55.588c-9.685,-10.344 -33.404,-29.081 -45.497,-36.938c12.531,-13.839 25.44,-27.333 38.712,-40.464Z" style="fill:#999899;fill-rule:nonzero;"/><path d="M779.453,32.658c7.581,3.986 22.688,15.574 26.206,23.737c-8.412,-4.077 -22.178,-14.843 -26.206,-23.737Z" style="fill:#2f2e2f;fill-rule:nonzero;"/></svg>