<?xml version="1.0"?>
<svg xmlns="http://www.w3.org/2000/svg" viewBox="154.35 64.93 371.85 284.17" width="371.85" height="284.17"><path fill="#CAC9C9" d="M498.984 91.0466C501.277 91.8221 505.916 96.8957 507.101 98.8281L506.901 99.6329C506.451 101.518 501.864 113.744 500.95 115.632L500.912 116.034C500.558 117.404 495.661 130.631 494.98 132.159L494.911 132.561C493.711 137.545 491.145 141.887 490.111 147.181C494.689 151.6 499.824 152.676 505.99 153.034C499.518 160.621 493.324 163.844 483.248 163.997C488.603 172.522 492.973 179.67 497.789 188.548C498 188.748 498.212 188.948 498.423 189.149C508.849 196.226 510.311 211.851 501.712 220.887C489.624 233.588 470.817 228.906 460.11 217.206C458.098 211.859 448.829 206.688 443.763 204.395C439.702 202.576 435.593 200.864 431.442 199.259C427.088 213.138 422.264 223.203 411.987 233.452C410.198 235.236 407.743 237.399 407.424 239.893C407.314 264.447 408.007 289.349 408.002 314.077C407.995 320.9 408.059 327.723 408.193 334.545C405.044 334.548 401.41 334.601 398.279 334.412C394.039 334.519 389.803 334.385 385.509 334.475C385.883 336.737 386.183 338.856 386.631 341.109C374.22 340.496 362.212 339.752 349.711 339.416C349.906 335.061 350.205 330.014 350.074 325.676C349.618 321.055 350.126 309.363 350.204 304.019C350.431 290.502 350.528 276.983 350.496 263.464C338.303 263.603 328.106 263.982 316.018 261.367C311.406 260.369 306.407 258.43 302.34 257.572L301.642 257.43C300.136 276.261 298.33 293.656 298.569 312.697C290.681 309.447 280.595 309.732 272.429 311.673C272.424 313.658 272.444 315.643 272.49 317.628C259.27 314.054 251.2 314.905 238.575 318.941C238.409 314.325 239.034 306.554 239.311 301.712C240.064 287.849 241.303 274.016 243.023 260.239C243.632 255.691 246.493 245.264 246.253 242.143C244.95 225.193 239.791 209.184 248.276 192.849C249.219 191.033 251.256 187.239 251.524 185.075C254.202 183.742 255.027 182.205 256.735 179.842C257.46 179.207 258.192 178.581 258.931 177.962C273.387 165.891 294.877 160.55 313.459 162.771C318.846 163.415 324.619 165.733 329.89 166.051C327.467 158.482 326.502 152.315 328.963 144.562C336.265 153.168 344.992 156.301 355.952 153.675C354.235 150.883 352.686 147.99 351.315 145.013C347.236 135.935 347.716 129.086 351.214 120.079C365.932 144.808 377.18 123.856 391.739 114.196C397.575 110.324 405.488 109.519 412.409 109.508C414.393 109.489 416.017 109.914 417.219 108.449C419.878 105.211 420.373 103.454 423.404 100.261C424.897 101.236 425.537 101.661 426.85 102.85C428.351 104.209 431.219 109.448 432.546 110.024C443.195 108.224 455.477 107.567 464.756 114.101C466.417 115.267 467.967 116.584 469.386 118.034C471.906 116.112 473.633 113.825 476.374 111.751C476.76 111.372 477.127 111.014 477.499 110.622C480.654 107.812 484.606 103.552 488.107 101.128L489.077 100.178C492.168 96.9544 495.909 94.1291 498.984 91.0466Z"></path><path fill="#424141" d="M351.214 120.079C365.932 144.808 377.18 123.856 391.739 114.196C397.575 110.324 405.488 109.519 412.409 109.508L415.99 110.206C416.556 111.277 414.763 118.903 415.454 122.731C416.492 128.487 416.507 129.299 419.229 134.739C402.1 145.791 403.467 148.425 394.276 166.781C378.837 197.615 344.934 196.338 329.89 166.051C327.467 158.482 326.502 152.315 328.963 144.562C336.265 153.168 344.992 156.301 355.952 153.675C354.235 150.883 352.686 147.99 351.315 145.013C347.236 135.935 347.716 129.086 351.214 120.079Z"></path><path fill="#424141" d="M498.984 91.0466C501.277 91.8221 505.916 96.8957 507.101 98.8281L506.901 99.6329C506.451 101.518 501.864 113.744 500.95 115.632L500.912 116.034C500.558 117.404 495.661 130.631 494.98 132.159L494.911 132.561C493.711 137.545 491.145 141.887 490.111 147.181C494.689 151.6 499.824 152.676 505.99 153.034C499.518 160.621 493.324 163.844 483.248 163.997C481.679 163.593 480.207 163.467 478.827 163.09C457.389 157.246 447.575 145.328 436.321 128.253C437.688 119.374 436.134 117.566 432.546 110.024C443.195 108.224 455.477 107.567 464.756 114.101C466.417 115.267 467.967 116.584 469.386 118.034C471.906 116.112 473.633 113.825 476.374 111.751C476.76 111.372 477.127 111.014 477.499 110.622C480.654 107.812 484.606 103.552 488.107 101.128L489.077 100.178C492.168 96.9544 495.909 94.1291 498.984 91.0466Z"></path><path fill="#999899" d="M498.984 91.0466C501.277 91.8221 505.916 96.8957 507.101 98.8281L506.901 99.6329C506.451 101.518 501.864 113.744 500.95 115.632L500.912 116.034C500.558 117.404 495.661 130.631 494.98 132.159C489.051 126.492 482.651 116.986 477.499 110.622C480.654 107.812 484.606 103.552 488.107 101.128L489.077 100.178C492.168 96.9544 495.909 94.1291 498.984 91.0466Z"></path><path fill="#999899" d="M498.984 91.0466C501.277 91.8221 505.916 96.8957 507.101 98.8281L506.901 99.6329C506.451 101.518 501.864 113.744 500.95 115.632C497.06 110.345 493.559 105.108 489.077 100.178C492.168 96.9544 495.909 94.1291 498.984 91.0466Z"></path><path fill="#020101" d="M498.984 91.0466C501.277 91.8221 505.916 96.8957 507.101 98.8281L506.901 99.6329C505.39 98.5107 499.592 92.7095 498.984 91.0466Z"></path><path fill="#2F2E2F" d="M489.077 100.178C493.559 105.108 497.06 110.345 500.95 115.632L500.912 116.034C499.25 115.098 489.676 103.17 488.107 101.128L489.077 100.178Z"></path><path fill="#999899" d="M477.499 110.622C482.651 116.986 489.051 126.492 494.98 132.159L494.911 132.561C493.711 137.545 491.145 141.887 490.111 147.181C482.091 138.207 477.127 127.965 469.764 118.534L469.386 118.034C471.906 116.112 473.633 113.825 476.374 111.751C476.76 111.372 477.127 111.014 477.499 110.622Z"></path><path fill="#020101" d="M477.499 110.622C482.651 116.986 489.051 126.492 494.98 132.159L494.911 132.561C492.113 133.183 479.553 114.562 476.374 111.751C476.76 111.372 477.127 111.014 477.499 110.622Z"></path><path fill="#424141" d="M382.843 312.866C381.365 306.003 382.986 249.86 387.086 247.786C387.505 249.231 387.422 249.251 388.329 250.415C392.39 251.203 403.507 240.184 406.984 239.135L407.424 239.893C407.314 264.447 408.007 289.349 408.002 314.077C399.682 309.994 396.905 309.546 387.241 310.909C385.369 311.172 383.59 311.031 382.843 312.866Z"></path><path fill="#424141" d="M283.188 247.673C285.708 249.067 301.111 256.468 301.642 257.43C300.136 276.261 298.33 293.656 298.569 312.697C290.681 309.447 280.595 309.732 272.429 311.673C272.417 286.756 274.141 271.253 283.188 247.673Z"></path><path fill="#999899" d="M460.11 217.206C461.16 212.997 461.954 210.351 463.676 206.31C469.294 193.131 483.457 184.035 497.789 188.548C498 188.748 498.212 188.948 498.423 189.149C508.849 196.226 510.311 211.851 501.712 220.887C489.624 233.588 470.817 228.906 460.11 217.206Z"></path><path fill="#424141" d="M490.345 204.463C497.195 204.723 494.925 208.781 491.219 212.164C485.496 211.917 487.527 207.338 490.345 204.463Z"></path><path fill="#424141" d="M382.843 312.866C383.59 311.031 385.369 311.172 387.241 310.909C396.905 309.546 399.682 309.994 408.002 314.077C407.995 320.9 408.059 327.723 408.193 334.545C405.044 334.548 401.41 334.601 398.279 334.412C394.039 334.519 389.803 334.385 385.509 334.475C385.883 336.737 386.183 338.856 386.631 341.109C374.22 340.496 362.212 339.752 349.711 339.416C349.906 335.061 350.205 330.014 350.074 325.676C350.402 323.229 350.367 321.743 350.395 319.263C363.395 314.837 370.077 315.617 383.039 318.338L382.843 312.866Z"></path><path fill="#020101" d="M382.843 312.866C383.59 311.031 385.369 311.172 387.241 310.909C396.905 309.546 399.682 309.994 408.002 314.077C407.995 320.9 408.059 327.723 408.193 334.545C405.044 334.548 401.41 334.601 398.279 334.412C394.499 333.594 388.93 333.864 384.966 334.008C384.28 328.982 384.026 323.218 383.039 318.338L382.843 312.866Z"></path><path fill="#999899" d="M424.026 112.344C434.019 113.746 434.139 127.344 428.783 134.299C423.289 133.172 416.759 118.618 423.379 112.925L424.026 112.344Z"></path><path fill="#020101" d="M447.305 161.248C449.379 162.552 449.068 164.827 449.9 165.125C452.764 166.151 454.893 163.309 458.19 166.804C462.28 171.139 461.042 174.964 457.201 178.671C449.539 180.654 443.295 175.767 447.61 167.813C449.549 164.24 446.548 165.742 447.305 161.248Z"></path><path fill="#424141" d="M162.35 248.381C190.349 244.655 185.005 222.984 186.569 202.891C188.379 179.637 211.283 162.112 234.178 165.328C244.714 166.808 250.511 171.548 256.735 179.842C255.027 182.205 254.202 183.742 251.524 185.075C230.071 195.022 234.802 213.36 232.997 231.229C231.112 249.891 206.512 269.285 187.709 265.031C178.604 262.971 167.747 256.474 162.35 248.381Z"></path><path fill="#424141" d="M272.429 311.673C280.595 309.732 290.681 309.447 298.569 312.697C298.901 319.68 299.379 326.022 299.894 332.99C296.286 332.987 292.352 333.052 288.776 332.898C283.878 333.074 278.785 332.952 273.87 332.885C273.785 334.723 273.869 336.558 273.816 338.424C261.854 338.476 249.958 338.085 238.014 338.145C238.234 331.527 238.588 325.654 238.575 318.941C251.2 314.905 259.27 314.054 272.49 317.628C272.444 315.643 272.424 313.658 272.429 311.673Z"></path><path fill="#020101" d="M272.429 311.673C280.595 309.732 290.681 309.447 298.569 312.697C298.901 319.68 299.379 326.022 299.894 332.99C296.286 332.987 292.352 333.052 288.776 332.898C285.271 332.184 277.944 332.414 274.019 332.381C273.729 327.932 273.296 321.959 272.49 317.628C272.444 315.643 272.424 313.658 272.429 311.673Z"></path><path fill="#999899" d="M498.984 91.0466C504.211 85.4569 518.2 72.9344 510.263 90.7695C509.067 93.4569 508.363 96.1947 507.101 98.8281C505.916 96.8957 501.277 91.8221 498.984 91.0466Z"></path></svg>
