<?xml version="1.0"?>
<svg xmlns="http://www.w3.org/2000/svg" viewBox="365.27 580.31 259.62 336.16" width="259.62" height="336.16"><path fill="#7E7F81" d="M562.423 725.27L563.398 725.853C564.403 726.987 564.8 726.999 566.088 727.803C574.365 728.727 580.88 730.681 585.946 737.862C604.415 764.039 606.397 797.361 599.562 827.476C610.478 834.239 616.891 844.616 608.77 856.972C602.273 866.857 589.472 869.411 578.348 869.816C565.913 882.187 554.795 888.813 536.724 888.764C519.297 888.717 506.537 880.54 492.425 871.27C484.031 885.576 470.85 908.467 449.245 896.506C441.867 892.421 439.648 884.5 438.024 876.686L437.936 876.255C422.098 861.161 405.063 822.974 428.415 807.301C430.331 805.749 434.043 804.737 436.47 803.965C428.231 789.503 437.14 778.766 448.605 770.206C452.474 767.317 457.402 764.922 460.844 761.593L461.514 761.023C463.047 761.019 462.705 761.002 464.243 760.606L465.132 759.862C465.764 761.324 465.492 761.568 467.086 762.048C473.576 764.002 482.633 761.404 489.101 760.596C498.006 759.861 512.126 758.701 520.959 759.692C523.665 757.457 531.151 748.687 531.993 745.325L532.17 744.654L532.923 744.924C534.078 745.633 535.014 743.826 536.021 743.048C543.546 737.234 550.854 729.19 560.012 726.17C561.262 725.758 561.246 725.883 562.423 725.27Z"></path><path fill="#191B20" d="M566.088 727.803C574.365 728.727 580.88 730.681 585.946 737.862C604.415 764.039 606.397 797.361 599.562 827.476C610.478 834.239 616.891 844.616 608.77 856.972C602.273 866.857 589.472 869.411 578.348 869.816C565.913 882.187 554.795 888.813 536.724 888.764C519.297 888.717 506.537 880.54 492.425 871.27C484.031 885.576 470.85 908.467 449.245 896.506C441.867 892.421 439.648 884.5 438.024 876.686L437.936 876.255C422.098 861.161 405.063 822.974 428.415 807.301L428.418 807.864C433.778 808.255 442.717 810.625 446.183 814.868C448.045 813.704 448.7 813.328 450.791 812.474L450.769 811.942L451.569 811.454C461.093 801.678 469.414 795.151 483.979 794.928C497.85 794.717 515.928 804.001 528.18 810.538C541.675 800.487 554.613 789.284 567.957 779.038C572.443 775.594 581.829 766.7 586.516 765.246C579.271 772.662 565.66 782.741 557.178 789.436C549.125 795.793 537.844 805.354 529.461 811.176C533.11 813.135 554.101 823.973 555.195 826.129L554.842 826.578C552.596 825.848 538.533 817.605 535.529 816.027C515.468 805.486 488.76 788.884 466.058 800.91C453.728 807.441 446.365 820.367 442.487 833C440.593 839.227 439.367 845.637 438.83 852.122C438.623 852.51 438.675 852.612 438.663 853.073C438.057 869.368 436.172 893.771 456.619 898.342C457.002 898.495 457.054 898.445 457.487 898.431C476.534 899.442 483.884 883.614 492.231 869.442C513.283 886.654 543.222 896.144 566.956 878.33C567.305 878.172 567.37 878.206 567.567 877.907C569.03 877.066 570.072 876.062 571.345 874.963C572.612 874.009 574.771 872.244 575.569 870.861C587.131 859.544 594.026 841.682 598.668 826.532C598.855 826.11 598.838 826.169 598.899 825.711C607.222 800.586 601.213 758.952 584.769 737.96C582.754 736.401 581.388 734.965 579.678 733.046C575.692 729.604 571.055 728.865 566.003 729.059L566.088 727.803Z"></path><path fill="#727376" d="M428.418 807.864C433.778 808.255 442.717 810.625 446.183 814.868L447.992 817.002C446.772 818.74 446.887 819.597 444.948 817.549C439.002 811.266 432.49 810.838 424.591 811.397C425.978 810.038 426.914 809.073 428.418 807.864Z"></path><path fill="#5F6062" d="M446.183 814.868C448.045 813.704 448.7 813.328 450.791 812.474C449.921 814.189 449.131 815.443 447.992 817.002L446.183 814.868Z"></path><path fill="#5F6062" d="M579.678 733.046C582.088 734.64 582.918 735.686 584.769 737.96C582.754 736.401 581.388 734.965 579.678 733.046Z"></path><path fill="#C3C3C3" d="M418.239 825.164C420.849 806.852 435.939 809.365 446.153 820.111C437.725 840.126 436.191 853.092 437.663 874.902C428.317 864.08 418.397 848.694 418.353 833.866C417.431 832.722 417.965 830.913 418.067 829.268L418.105 827.967L418.003 827.444C417.794 826.354 417.651 826.031 418.239 825.164Z"></path><path fill="#5F6062" d="M418.067 829.268C418.347 831.222 418.551 831.964 418.353 833.866C417.431 832.722 417.965 830.913 418.067 829.268Z"></path><path fill="#727376" d="M418.239 825.164C418.498 826.405 418.518 826.731 418.105 827.967L418.003 827.444C417.794 826.354 417.651 826.031 418.239 825.164Z"></path><path fill="#7E7F81" d="M579.165 868.508C591.758 852.421 592.79 847.149 599.433 828.743C601.414 829.843 602.955 830.546 604.564 832.177L605.174 832.775C605.603 832.977 605.582 832.958 605.811 833.379C606.645 834.253 607.136 834.85 607.877 835.801C608.142 836.136 608.122 836.073 608.279 836.421C612.342 843.125 612.077 851.293 607.236 857.503C600.26 866.453 589.711 868.265 579.165 868.508Z"></path><path fill="#191B20" d="M465.132 759.862C465.764 761.324 465.492 761.568 467.086 762.048C473.576 764.002 482.633 761.404 489.101 760.596L489.48 761.667C475.82 763.823 467.665 765.472 455.96 773.626C443.388 782.385 440.658 800.172 451.569 811.454L450.769 811.942L450.791 812.474C448.7 813.328 448.045 813.704 446.183 814.868C442.717 810.625 433.778 808.255 428.418 807.864L428.415 807.301C430.331 805.749 434.043 804.737 436.47 803.965C428.231 789.503 437.14 778.766 448.605 770.206C452.474 767.317 457.402 764.922 460.844 761.593L461.514 761.023C463.047 761.019 462.705 761.002 464.243 760.606L465.132 759.862Z"></path><path fill="#191B20" d="M562.423 725.27L563.398 725.853C564.403 726.987 564.8 726.999 566.088 727.803L566.003 729.059C552.205 733.229 542.227 743.681 532.776 754.097C526.808 760.674 529.535 761.921 521.409 760.939C521.183 760.457 521.145 760.262 520.959 759.692C523.665 757.457 531.151 748.687 531.993 745.325L532.17 744.654L532.923 744.924C534.078 745.633 535.014 743.826 536.021 743.048C543.546 737.234 550.854 729.19 560.012 726.17C561.262 725.758 561.246 725.883 562.423 725.27Z"></path><path fill="#191B20" d="M489.101 760.596C498.006 759.861 512.126 758.701 520.959 759.692C521.145 760.262 521.183 760.457 521.409 760.939C515.923 760.782 512.569 760.378 506.734 760.568C504.811 760.94 504.503 761.083 502.608 760.847L495.342 761.158C494.399 761.024 494.408 760.932 493.624 761.352L489.48 761.667L489.101 760.596Z"></path><path fill="#5F6062" d="M502.608 760.847C503.798 760.225 505.325 760.526 506.734 760.568C504.811 760.94 504.503 761.083 502.608 760.847Z"></path><path fill="#727376" d="M571.345 874.963C572.181 873.865 574.265 871.117 575.569 870.861C574.771 872.244 572.612 874.009 571.345 874.963Z"></path><path fill="#5F6062" d="M493.624 761.352C494.408 760.932 494.399 761.024 495.342 761.158C494.58 761.594 494.556 761.472 493.624 761.352Z"></path><path fill="#7E7F81" d="M490.451 623.526C490.446 606.159 499.277 592.39 517.322 589.756C527.097 588.306 537.046 590.819 544.96 596.738C560.45 608.331 560.268 627.184 549.193 641.788C560.177 650.261 567.462 657.478 571.532 671.27C576.869 689.358 572.312 709.664 563.398 725.853L562.423 725.27C561.246 725.883 561.262 725.758 560.012 726.17C550.854 729.19 543.546 737.234 536.021 743.048C535.014 743.826 534.078 745.633 532.923 744.924L532.17 744.654L531.993 745.325C531.151 748.687 523.665 757.457 520.959 759.692C512.126 758.701 498.006 759.861 489.101 760.596C482.633 761.404 473.576 764.002 467.086 762.048C465.492 761.568 465.764 761.324 465.132 759.862L464.243 760.606C462.705 761.002 463.047 761.019 461.514 761.023L460.844 761.593C434.854 750.597 428.157 737.625 422.031 711C404.219 708.934 389.111 700.182 390.571 679.609C391.899 660.877 409.54 641.301 429.475 646.423C432.338 647.158 435.074 648.737 437.666 650.166C452.278 633.512 468.439 625.659 490.451 623.526Z"></path><path fill="#C3C3C3" d="M472.006 727.065C493.133 708.61 532.971 709.571 532.17 744.654L531.993 745.325C531.151 748.687 523.665 757.457 520.959 759.692C512.126 758.701 498.006 759.861 489.101 760.596C482.633 761.404 473.576 764.002 467.086 762.048C465.492 761.568 465.764 761.324 465.132 759.862C461.411 748.404 460.069 745.688 465.404 733.949C467.14 731.416 469.657 729.03 472.006 727.065Z"></path><path fill="#191B20" d="M492.554 723.077C505.024 722.658 502.037 732.525 497.337 739.762C495.539 742.531 494.981 744.634 492.562 747.224C487.127 748.042 486.316 748.101 480.692 747.991C476.674 747.186 472.12 746.805 471.15 741.993C469.021 731.421 484.511 724.847 492.554 723.077Z"></path><path fill="#191B20" d="M493.223 624.071C495.972 616.235 499.569 610.052 507.203 606.213C523.484 598.027 545.22 608.3 548.323 626.455C548.927 629.986 546.8 638.713 548.029 640.878L548.822 641.882L548.465 642.786C530.519 631.566 518.519 625.502 496.864 624.387C495.17 623.574 495.409 623.887 493.223 624.071Z"></path><path fill="#7E7F81" d="M493.223 624.071C487.653 619.942 495.065 605.497 498.661 601.16C503.846 594.913 511.363 591.063 519.462 590.507C537.147 589.145 554.502 599.682 555.677 618.601C555.45 619.909 555.621 622.722 555.773 624.089C555.153 629.697 552.587 637.35 548.029 640.878C546.8 638.713 548.927 629.986 548.323 626.455C545.22 608.3 523.484 598.027 507.203 606.213C499.569 610.052 495.972 616.235 493.223 624.071Z"></path><path fill="#191B20" d="M419.555 707.828C415.477 706.628 410.393 702.654 407.888 699.49C395.544 683.897 404.469 657.428 425.231 655.202C428.601 654.841 430.7 655.146 433.93 655.562L434.779 655.854C423.286 673.036 420.783 687.595 422.506 708.125L421.903 708.665C421.088 708.36 420.385 708.093 419.555 707.828Z"></path><path fill="#7E7F81" d="M419.039 709.89C413.061 708.564 408.161 707.179 402.966 703.813C373.275 684.576 406.844 630.357 436.805 651.184L433.93 655.562C430.7 655.146 428.601 654.841 425.231 655.202C404.469 657.428 395.544 683.897 407.888 699.49C410.393 702.654 415.477 706.628 419.555 707.828C419.355 708.444 419.191 709.24 419.039 709.89Z"></path><path fill="#222223" d="M490.451 623.526C490.446 606.159 499.277 592.39 517.322 589.756C527.097 588.306 537.046 590.819 544.96 596.738C560.45 608.331 560.268 627.184 549.193 641.788C560.177 650.261 567.462 657.478 571.532 671.27C576.869 689.358 572.312 709.664 563.398 725.853L562.423 725.27C566.363 718.267 570.622 706.989 571.662 699.021C571.813 698.57 571.81 698.651 571.8 698.184C574.284 687.804 572.059 674.13 567.815 664.302C567.675 663.477 567.592 663.468 567.083 662.742L566.759 661.931C566.558 661.488 566.565 661.469 566.336 661.123C565.861 660.307 565.188 659.355 564.656 658.552C563.776 657.123 562.312 654.825 560.986 653.768C558.844 652.02 556.082 649.126 554.139 647.08C553.265 646.13 552.699 645.809 551.624 645.09C551.172 644.586 551.22 644.598 550.617 644.29L548.465 642.786L548.822 641.882L548.029 640.878C552.587 637.35 555.153 629.697 555.773 624.089C555.621 622.722 555.45 619.909 555.677 618.601C554.502 599.682 537.147 589.145 519.462 590.507C511.363 591.063 503.846 594.913 498.661 601.16C495.065 605.497 487.653 619.942 493.223 624.071C495.409 623.887 495.17 623.574 496.864 624.387C493.181 624.51 489.41 624.525 485.799 625.204C485.293 625.175 485.385 625.173 484.892 625.326C477.303 626.093 469.872 628.607 462.985 631.816C462.622 631.916 462.665 631.919 462.343 632.151C449.991 638.515 443.075 644.509 434.779 655.854L433.93 655.562L436.805 651.184C406.844 630.357 373.275 684.576 402.966 703.813C408.161 707.179 413.061 708.564 419.039 709.89C419.191 709.24 419.355 708.444 419.555 707.828C420.385 708.093 421.088 708.36 421.903 708.665L422.506 708.125C424.475 718.001 429.258 736.386 436.541 743.717C438.566 745.47 440.518 747.232 442.106 749.419C448.651 755.919 455.159 756.912 461.514 761.023L460.844 761.593C434.854 750.597 428.157 737.625 422.031 711C404.219 708.934 389.111 700.182 390.571 679.609C391.899 660.877 409.54 641.301 429.475 646.423C432.338 647.158 435.074 648.737 437.666 650.166C452.278 633.512 468.439 625.659 490.451 623.526Z"></path><path fill="#727376" d="M419.555 707.828C420.385 708.093 421.088 708.36 421.903 708.665C420.724 709.667 420.577 709.653 419.039 709.89C419.191 709.24 419.355 708.444 419.555 707.828Z"></path><path fill="#727376" d="M436.541 743.717C438.566 745.47 440.518 747.232 442.106 749.419C439.864 747.809 438.14 745.959 436.541 743.717Z"></path><path fill="#5F6062" d="M554.139 647.08C556.637 648.824 559.119 651.377 560.986 653.768C558.844 652.02 556.082 649.126 554.139 647.08Z"></path><path fill="#727376" d="M555.677 618.601C556.156 619.814 556.084 622.827 555.773 624.089C555.621 622.722 555.45 619.909 555.677 618.601Z"></path><path fill="#191B20" d="M464.933 733.284C463.577 731.491 461.504 733.165 459.577 732.235C442.207 723.85 460.552 702.67 470.783 719.326C471.999 721.306 470.784 724.525 471.513 726.002L472.006 727.065C469.657 729.03 467.14 731.416 465.404 733.949L464.933 733.284Z"></path><path fill="#222223" d="M471.513 726.002C475.472 722.905 478.318 720.762 482.81 718.557C504.162 708.074 535.737 715.681 532.923 744.924L532.17 744.654C532.971 709.571 493.133 708.61 472.006 727.065L471.513 726.002Z"></path><path fill="#222223" d="M464.933 733.284L465.404 733.949C460.069 745.688 461.411 748.404 465.132 759.862L464.243 760.606C463.342 756.079 460.902 753.064 460.963 747.75C461.033 741.726 461.874 738.482 464.933 733.284Z"></path><path fill="#5F6062" d="M560.986 653.768C562.312 654.825 563.776 657.123 564.656 658.552C563.593 657.582 561.318 655.107 560.986 653.768Z"></path><path fill="#5F6062" d="M551.624 645.09C552.699 645.809 553.265 646.13 554.139 647.08C553.247 646.858 552.894 646.51 552.297 645.824L551.624 645.09Z"></path><path fill="#191B20" d="M504.029 689.733C509.719 688.644 515.246 692.27 516.513 697.923C517.78 703.576 514.331 709.214 508.721 710.659C504.931 711.635 500.91 710.47 498.229 707.619C495.548 704.768 494.632 700.683 495.84 696.96C497.047 693.238 500.185 690.468 504.029 689.733Z"></path></svg>
