<?xml version="1.0"?>
<svg xmlns="http://www.w3.org/2000/svg" viewBox="652.02 234.32 353.65 218.62" width="353.65" height="218.62"><path fill="#222223" d="M794.705 270.988C796.033 263.912 799.398 258.176 805.459 254.054C811.91 249.692 819.865 248.159 827.475 249.813C856.393 255.909 869.423 290.194 840.418 308.569C843.727 314.632 845.823 319.483 848.541 325.853C852.227 324.749 854.935 323.803 858.526 322.414C859.11 320.488 860.114 316.718 861.283 315.254C874.814 298.304 893.184 304.359 900.415 322.437C918.158 330.607 932.582 343.328 932.339 364.515C939.761 364.291 951.292 363.917 958.248 366.02C966.717 368.579 975.609 377.034 977.532 385.978C981.421 389.652 985.333 393.595 988.678 397.644C992.343 402.079 997.314 407.516 997.498 413.44C997.666 418.816 993.947 426.136 987.96 426.457C976.802 427.432 965.205 426.797 953.961 426.967C938.361 427.021 922.812 427.044 907.234 426.876C901.101 426.81 893.958 423.136 889.83 418.601C888.963 417.635 888.119 416.648 887.3 415.642C880.419 417.689 873.414 419.296 866.329 420.453C863.112 420.988 855.386 421.841 852.606 422.753C847.414 424.457 841.961 428.337 836.388 430.342C816.673 437.436 789.511 437.71 770.461 428.407C766.759 426.599 763.281 423.36 760.767 420.217C758.121 421.11 755.017 421.532 752.258 422.126L750.007 422.629C739.406 424.929 726.327 426.75 715.511 426.548C701.28 428.128 687.031 429.846 674.987 420.437C664.802 413.045 662.024 397.914 670.831 388.342C678.937 379.533 697.581 376.883 709.073 376.13C699.017 363.214 697.686 349.889 699.423 334.003C699.668 331.937 700.344 328.15 699.836 326.32C691.041 324.249 683.508 319.184 678.981 311.264C660.016 278.082 714.592 242.325 733.94 278.507L734.483 278.577C754.58 268.46 772.705 265.419 794.705 270.988Z"></path><path fill="#7E7F81" d="M699.836 326.32C691.041 324.249 683.508 319.184 678.981 311.264C660.016 278.082 714.592 242.325 733.94 278.507L734.483 278.577L734.5 279.825C754.258 268.885 774.128 266.437 795.859 272.245C808.185 276.408 820.682 285.052 829.091 294.934C832.652 299.118 834.71 302.764 837.834 306.825C839.825 309.934 840.73 311.6 842.323 314.937C842.441 315.507 842.414 315.492 842.806 315.913C849.347 329.566 852.375 341.836 847.342 356.742C842.384 371.426 833.729 377.22 823.818 387.392C818.62 387.47 813.223 387.628 808.042 387.563C812.347 378.371 812.212 372.448 806.086 364.053C805.226 363.523 804.454 362.455 803.799 361.665C793.922 353.981 782.934 350.163 770.329 351.461C766.757 351.829 761.26 353.345 758.558 355.69L758.239 355.975C747.492 362.27 738.841 369.674 737.093 382.796C744.416 387.394 747.809 391.021 750.312 399.592C750.378 400.232 750.351 403.425 750.91 403.728C752.808 404.755 756.723 404.775 758.801 404.494L759.744 405.089C758.298 411.132 759.619 414.279 761.999 419.995L760.767 420.217C758.121 421.11 755.017 421.532 752.258 422.126L750.007 422.629C739.406 424.929 726.327 426.75 715.511 426.548C701.28 428.128 687.031 429.846 674.987 420.437C664.802 413.045 662.024 397.914 670.831 388.342C678.937 379.533 697.581 376.883 709.073 376.13C699.017 363.214 697.686 349.889 699.423 334.003C699.668 331.937 700.344 328.15 699.836 326.32Z"></path><path fill="#7E7F81" d="M699.423 334.003L700.437 333.935C698.404 350.108 700.703 367.843 713.587 379.226C723.538 379.323 726.934 378.861 736.227 382.624C737.857 374.532 739.282 371.248 745.03 364.903C745.768 364.089 748.764 361.162 749.216 360.501C749.993 359.585 751.69 357.8 752.959 357.828C755.185 356.827 755.889 356.41 758.239 355.975C747.492 362.27 738.841 369.674 737.093 382.796C744.416 387.394 747.809 391.021 750.312 399.592C750.378 400.232 750.351 403.425 750.91 403.728C752.808 404.755 756.723 404.775 758.801 404.494L759.744 405.089C758.298 411.132 759.619 414.279 761.999 419.995L760.767 420.217C758.121 421.11 755.017 421.532 752.258 422.126L750.007 422.629C739.406 424.929 726.327 426.75 715.511 426.548C701.28 428.128 687.031 429.846 674.987 420.437C664.802 413.045 662.024 397.914 670.831 388.342C678.937 379.533 697.581 376.883 709.073 376.13C699.017 363.214 697.686 349.889 699.423 334.003Z"></path><path fill="#191B20" d="M750.312 399.592C750.378 400.232 750.351 403.425 750.91 403.728C752.808 404.755 756.723 404.775 758.801 404.494L759.744 405.089C758.298 411.132 759.619 414.279 761.999 419.995L760.767 420.217C758.121 421.11 755.017 421.532 752.258 422.126L750.007 422.629C739.406 424.929 726.327 426.75 715.511 426.548L715.411 425.441C724.144 424.033 734.82 420.562 742.232 415.477C746.425 412.601 748.28 409.136 749.076 404.158C750.299 402.331 749.915 402.37 750.231 400.138L750.312 399.592Z"></path><path fill="#222223" d="M699.423 334.003L700.437 333.935C698.404 350.108 700.703 367.843 713.587 379.226C723.538 379.323 726.934 378.861 736.227 382.624C737.857 374.532 739.282 371.248 745.03 364.903C745.768 364.089 748.764 361.162 749.216 360.501C749.993 359.585 751.69 357.8 752.959 357.828C755.185 356.827 755.889 356.41 758.239 355.975C747.492 362.27 738.841 369.674 737.093 382.796C744.416 387.394 747.809 391.021 750.312 399.592L750.231 400.138C749.915 402.37 750.299 402.331 749.076 404.158C748.95 397.184 748.413 395.756 744.223 389.976C743.07 388.474 742.558 387.948 741.024 386.778C736.235 383.357 728.272 380.446 722.526 380.577C708.477 380.898 684.994 376.59 673.899 386.813C673.09 387.196 672.95 387.359 672.458 388.131C663.291 397.835 664.711 410.386 674.601 418.917C682.388 425.633 692.638 427.751 702.68 426.887C706.932 426.487 711.177 426.004 715.411 425.441L715.511 426.548C701.28 428.128 687.031 429.846 674.987 420.437C664.802 413.045 662.024 397.914 670.831 388.342C678.937 379.533 697.581 376.883 709.073 376.13C699.017 363.214 697.686 349.889 699.423 334.003Z"></path><path fill="#5F6062" d="M702.877 377.72C708.59 376.521 715.127 378.844 707.259 378.938C706.109 378.912 698.159 379.038 697.959 378.668L698.029 378.614L698.046 378.557C699.472 377.813 701.178 377.922 702.877 377.72Z"></path><path fill="#727376" d="M672.458 388.131C672.95 387.359 673.09 387.196 673.899 386.813C673.606 387.713 673.328 387.748 672.458 388.131Z"></path><path fill="#5F6062" d="M741.024 386.778C742.558 387.948 743.07 388.474 744.223 389.976C742.768 388.901 742.134 388.226 741.024 386.778Z"></path><path fill="#7E7F81" d="M699.836 326.32C691.041 324.249 683.508 319.184 678.981 311.264C660.016 278.082 714.592 242.325 733.94 278.507L734.483 278.577L734.5 279.825C720.224 290.1 712.64 297.63 705.613 314.508C703.527 319.519 701.789 324.573 700.933 329.983C700.73 331.295 700.565 332.613 700.437 333.935L699.423 334.003C699.668 331.937 700.344 328.15 699.836 326.32Z"></path><path fill="#191B20" d="M699.753 324.836C699.535 323.336 691.656 315.531 690.175 310.224C684.612 290.281 700.95 270.978 721.654 275.232C724.62 275.842 731.587 279.413 733.046 278.945L733.94 278.507L734.483 278.577L734.5 279.825C720.224 290.1 712.64 297.63 705.613 314.508C703.527 319.519 701.789 324.573 700.933 329.983C700.73 331.295 700.565 332.613 700.437 333.935L699.423 334.003C699.668 331.937 700.344 328.15 699.836 326.32L699.753 324.836Z"></path><path fill="#222223" d="M699.836 326.32C691.041 324.249 683.508 319.184 678.981 311.264C660.016 278.082 714.592 242.325 733.94 278.507L733.046 278.945C732.368 277.311 731.47 276.058 730.515 274.574C730.074 273.755 730.057 273.742 729.386 273.135C727.945 272.02 727.401 271.417 726.13 270.06C725.641 269.563 725.707 269.598 725.067 269.312C718.289 264.922 711.469 263.326 703.38 265.09C698.846 266.052 694.575 267.986 690.861 270.758C690.547 270.904 690.58 270.91 690.322 271.174C677.772 280.596 670.694 298.687 680.871 312.508C681.23 312.991 681.606 313.461 681.997 313.919C682.263 314.351 682.235 314.303 682.607 314.652C686.846 319.368 693.24 324.376 699.753 324.836L699.836 326.32Z"></path><path fill="#5F6062" d="M726.13 270.06C727.945 271.343 728.016 271.41 729.386 273.135C727.945 272.02 727.401 271.417 726.13 270.06Z"></path><path fill="#5F6062" d="M729.386 273.135C730.057 273.742 730.074 273.755 730.515 274.574C729.493 274.402 729.707 274.269 729.386 273.135Z"></path><path fill="#191B20" d="M749.216 360.501C733.983 361.469 731.561 344.459 743.259 340.562C751.081 337.957 759.597 348.092 752.959 357.828C751.69 357.8 749.993 359.585 749.216 360.501Z"></path><path fill="#727376" d="M803.799 361.665L804.187 361.954C805.261 362.682 805.924 362.799 806.086 364.053C805.226 363.523 804.454 362.455 803.799 361.665Z"></path><path fill="#191B20" d="M796.08 334.039C801.344 332.46 806.891 335.457 808.454 340.726C810.018 345.995 807.004 351.532 801.73 353.079C796.479 354.62 790.971 351.622 789.414 346.376C787.857 341.129 790.838 335.612 796.08 334.039Z"></path><path fill="#7E7F81" d="M848.757 327.144C871.535 318.065 894.898 316.042 915.195 332.049C917.311 334.451 919.76 337.034 922.305 338.978C929.249 348.143 929.661 353.195 931.714 364.133C931.921 364.263 932.121 364.406 932.339 364.515C939.761 364.291 951.292 363.917 958.248 366.02C966.717 368.579 975.609 377.034 977.532 385.978C977.193 386.156 976.854 386.333 976.514 386.511L977.392 387.752C978.131 388.041 978.176 387.981 978.57 388.578L980.577 390.33C982.096 391.262 983.569 393.01 984.678 394.411C989.289 399.81 993.097 403.863 996.228 410.311C996.162 412.334 996.139 414.856 996.25 416.866C994.621 422.754 991.055 425.828 984.969 425.977C963.175 426.819 939.179 425.526 917.643 426.12C889.553 426.895 887.178 416.19 880.865 392.472C880.085 389.539 878.826 383.764 877.271 381.167L876.947 381.418C877.259 385.649 880.561 395.662 881.93 400.186C876.691 402.911 871.916 406.332 867.138 409.771C868.781 404.933 870.148 400.804 869.003 395.674C863.922 372.888 840.27 383.863 825.449 387.491C832.136 380.209 839.289 375.622 844.552 365.837C851.746 352.465 852.533 341.422 848.757 327.144Z"></path><path fill="#191B20" d="M931.714 364.133C931.921 364.263 932.121 364.406 932.339 364.515C939.761 364.291 951.292 363.917 958.248 366.02C966.717 368.579 975.609 377.034 977.532 385.978C977.193 386.156 976.854 386.333 976.514 386.511C975.43 386.208 966.278 380.013 964.067 378.86C954.987 374.125 951.57 375.644 941.986 377.391C940.849 377.598 933.216 377.405 931.622 377.369C931.657 373.788 931.311 367.258 931.714 364.133Z"></path><path fill="#5F6062" d="M980.577 390.33C982.096 391.262 983.569 393.01 984.678 394.411L984.286 394.113C983.321 393.391 981.017 391.328 980.577 390.33Z"></path><path fill="#727376" d="M977.392 387.752C978.131 388.041 978.176 387.981 978.57 388.578C977.812 388.352 977.864 388.388 977.392 387.752Z"></path><path fill="#7E7F81" d="M759.744 405.089C767.807 378.622 808.496 392.89 828.788 387.979C842.334 385.598 858.437 375.209 866.904 392.451C868.475 395.65 869.159 402.122 867.834 405.232C854.753 435.937 780.543 444.949 761.999 419.995C759.619 414.279 758.298 411.132 759.744 405.089Z"></path><path fill="#C3C3C3" d="M758.558 355.69C764.025 353.833 768.636 352.229 774.465 352.095C792.783 351.676 818.798 365.764 806.914 387.575C790.288 387.576 764.796 384.034 758.801 404.494C756.723 404.775 752.808 404.755 750.91 403.728C750.351 403.425 750.378 400.232 750.312 399.592C747.809 391.021 744.416 387.394 737.093 382.796C738.841 369.674 747.492 362.27 758.239 355.975L758.558 355.69Z"></path><path fill="#191B20" d="M771.052 360.19C793.911 357.187 799.957 369.848 777.348 381.236C770.771 382.379 750.302 375.118 758.938 364.987C762.207 361.152 766.394 360.765 771.052 360.19Z"></path><path fill="#191B20" d="M796.396 271.742C798.503 270.708 800.257 268.473 802.255 267.004C821.695 252.719 848.823 269.127 844.572 293.008C843.574 298.614 841.447 301.861 838.595 306.481L837.834 306.825C834.71 302.764 832.652 299.118 829.091 294.934C820.682 285.052 808.185 276.408 795.859 272.245L796.396 271.742Z"></path><path fill="#7E7F81" d="M796.396 271.742C794.191 260.723 809.428 251.695 818.886 250.212C820.627 250.383 821.18 250.525 822.881 250.295C849.367 251.844 869.084 284.084 845.199 304.042C843.61 305.37 841.806 307.007 839.682 307.22L838.595 306.481C841.447 301.861 843.574 298.614 844.572 293.008C848.823 269.127 821.695 252.719 802.255 267.004C800.257 268.473 798.503 270.708 796.396 271.742Z"></path><path fill="#727376" d="M915.195 332.049C917.733 333.802 920.392 336.571 922.305 338.978C919.76 337.034 917.311 334.451 915.195 332.049Z"></path><path fill="#5F6062" d="M818.886 250.212C820.322 249.983 821.678 249.538 822.881 250.295C821.18 250.525 820.627 250.383 818.886 250.212Z"></path><path fill="#727376" d="M996.228 410.311C996.558 412.893 996.62 414.293 996.25 416.866C996.139 414.856 996.162 412.334 996.228 410.311Z"></path><path fill="#7E7F81" d="M866.344 311.248C870.555 307.702 876.02 306.007 881.499 306.547C890.49 307.349 895.597 313.864 898.886 321.568L899.072 321.995C885.507 318.045 873.436 317.952 859.805 321.84C861.198 316.857 861.604 315.176 865.796 311.658C866.096 311.37 866.001 311.437 866.344 311.248Z"></path><path fill="#C3C3C3" d="M881.843 401.466C881.908 401.529 885.701 412.573 886.938 414.845C884.206 415.532 881.467 416.193 878.722 416.827C873.049 418.093 866.964 419.006 861.39 420.344C859.018 420.543 857.346 420.858 855.077 421.13C860.134 417.582 863.043 415.269 867.48 410.923C870.906 407.568 877.178 404.202 881.391 401.734L881.843 401.466Z"></path></svg>
