<?xml version="1.0"?>
<svg xmlns="http://www.w3.org/2000/svg" viewBox="699.32 521.24 227.8 393.38" width="227.8" height="393.38"><path fill="#191B20" d="M790.565 573.708C790.819 572.439 791.128 571.182 791.491 569.94C796.004 554.177 812.773 529.239 825.182 555.378C828.071 564.697 826.623 567.997 828.103 574.882C839.792 578.549 850.479 584.86 859.335 593.324C878.955 612.296 878.108 631.924 878.556 657.274C879.679 657.401 880.797 657.566 881.909 657.771C887.204 658.785 897.778 662.637 900.343 667.342C906.776 679.147 894.154 693.479 884.436 698.954C872.704 705.563 863.517 706.525 850.968 703.218C841.05 707.394 835.993 708.902 825.658 711.302C848.367 743.19 864.678 776.226 858.752 817.02C858.241 820.538 857.058 824.139 856.303 827.681C860.735 832.843 878.581 821.047 886.685 819.013C890.002 818.194 893.457 818.102 896.812 818.743C902.38 819.819 906.617 823.108 909.714 827.788C915.277 836.194 915.326 846.619 913.461 856.183C910.3 872.382 900.344 891.124 886.313 900.437C881.221 903.817 874.504 906.617 868.317 906.381C856.947 905.947 819.264 885.904 805.584 881.91C800.871 880.534 795.324 881.339 790.444 881.312C785.854 881.299 781.276 880.846 776.772 879.96C762.053 876.996 751.667 869.177 743.36 856.794C716.247 855.859 707.32 828.106 731.558 813.827C728.926 774.381 742.458 733.252 767.392 702.65C766.551 702.116 765.721 701.566 764.9 701.002C728.809 676.12 721.176 624.067 753.682 592.87C763.243 583.693 777.433 575.936 790.565 573.708Z"></path><path fill="#7E7F81" d="M790.438 574.256C788.609 587.71 788.547 602.744 800.429 611.856C800.687 612.142 800.71 612.111 801.076 612.311C803.592 613.377 804.673 613.968 807.426 613.671C819.072 609.201 826.579 587.345 828.049 575.898C836.399 578.427 844.218 582.46 851.12 587.798C851.769 588.099 851.707 588.03 852.137 588.566C853.087 589.218 853.949 589.685 854.64 590.602C857.378 593.436 859.936 596.236 862.97 598.778C864.145 599.79 865.363 601.283 866.02 602.705C879.531 622.028 876.45 636.271 877.773 657.813C870.629 658.314 865.19 660.265 860.562 665.958C850.247 678.648 852.179 691.963 861.803 703.742C859.51 704.664 853.839 703.055 851.316 702.359C851.049 702.357 850.782 702.354 850.516 702.352C843.626 705.028 835.298 708.589 828.052 709.703C827.588 709.884 827.688 709.869 827.192 709.854C797.985 715.903 767.473 708.222 748.666 684.176C748.374 683.912 748.384 683.955 748.208 683.624C743.391 677.877 739.161 669.098 737.172 661.891C725.162 618.353 749.579 586.217 790.438 574.256Z"></path><path fill="#5F6062" d="M862.97 598.778C864.145 599.79 865.363 601.283 866.02 602.705C865.101 602.221 863.255 599.846 862.97 598.778Z"></path><path fill="#5F6062" d="M852.137 588.566C853.087 589.218 853.949 589.685 854.64 590.602C853.385 590.221 853.029 589.548 852.137 588.566Z"></path><path fill="#191B20" d="M858.438 640.372C861.771 639.625 865.248 640.737 867.53 643.279C869.811 645.821 870.542 649.398 869.441 652.631C868.339 655.865 865.577 658.251 862.218 658.872C857.158 659.807 852.281 656.518 851.25 651.477C850.22 646.435 853.416 641.497 858.438 640.372Z"></path><path fill="#7E7F81" d="M805.607 548.468C809.403 545.265 812.593 543.553 817.204 546.071C818.999 548.209 819.262 548.476 821.398 550.167C822.649 552.338 823.43 553.499 824.211 555.908L825.182 555.378C828.071 564.697 826.623 567.997 828.103 574.882L828.049 575.898C826.579 587.345 819.072 609.201 807.426 613.671L807.702 612.774C795.137 613.167 790.478 596.177 790.57 586.131C790.691 573.161 794.788 557.88 804.89 549.1C805.251 548.663 805.143 548.735 805.607 548.468Z"></path><path fill="#191B20" d="M807.702 612.774C807.117 609.67 805.879 606.603 805.29 603.14C803.626 592.548 805.987 580.286 809.618 570.321C811.629 564.8 816.768 552.773 824.211 555.908L825.182 555.378C828.071 564.697 826.623 567.997 828.103 574.882L828.049 575.898C826.579 587.345 819.072 609.201 807.426 613.671L807.702 612.774Z"></path><path fill="#5F6062" d="M854.64 590.602C857.425 592.548 860.993 596.034 862.97 598.778C859.936 596.236 857.378 593.436 854.64 590.602Z"></path><path fill="#727376" d="M817.204 546.071C819.395 547.432 819.826 547.978 821.398 550.167C819.262 548.476 818.999 548.209 817.204 546.071Z"></path><path fill="#7E7F81" d="M768.525 703.259C782.358 710.233 797.754 713.529 813.229 712.828C815.811 712.723 820.56 711.965 823.48 711.68C825.292 712.463 824.977 712.618 826.377 714.414C826.679 714.698 826.695 714.792 826.921 715.169L827.823 716.311C828.212 716.704 828.208 716.704 828.593 717.182L829.817 718.954C830.25 719.286 830.474 719.636 830.846 720.087C830.58 722.441 827.064 727.382 826.122 729.981C822.911 738.846 821.15 752.052 822.005 761.305C815.914 747.988 815.081 726.491 798.977 720.066C788.95 716.065 779.164 722.745 774.972 731.768C770.154 742.14 767.202 755.818 769.486 767.187C773.511 787.214 778.577 806.924 782.806 826.905C784.042 832.747 785.579 838.54 788.228 843.918C800.921 869.757 830.999 864.881 837.103 837.509C837.766 834.532 837.448 827.029 838.065 825.375C839.41 824.77 840.235 824.918 841.704 824.945C842.211 825.025 842.12 825.002 842.574 825.261C848.097 825.803 855.419 828.82 860.399 831.117C868.367 827.525 890.122 816.123 897.719 820.339L895.039 821.245C892.33 822.141 883.043 826.248 883.054 829.467C888.306 829.995 895.983 817.401 904.483 823.618C905.189 824.055 905.177 823.974 905.587 824.61L907.033 826.209L906.89 826.911C899.909 827.669 897.504 827.896 891.42 831.982C873.882 843.764 858.792 882.122 872.274 901.018C873.003 901.328 873.133 901.432 873.553 902.125L875.628 903.316L875.749 904.053C874.136 904.956 871.342 905.01 869.394 905.198C868.215 905.758 867.217 905.549 865.971 905.315C861.695 904.155 855.031 901.297 850.825 899.58C841.799 895.909 832.793 892.187 823.81 888.412C811.137 883.053 806.508 879.666 792.313 880.456C780.205 881.13 764.707 877.218 755.479 868.738C754.285 868.185 753.998 867.69 753.085 866.691C738.581 855.913 732.721 823.633 732.034 806.42C730.702 773.052 746.108 728.103 768.525 703.259Z"></path><path fill="#5F6062" d="M865.971 905.315C867.651 905.026 867.763 904.931 869.394 905.198C868.215 905.758 867.217 905.549 865.971 905.315Z"></path><path fill="#727376" d="M753.085 866.691L753.8 867.141C754.515 867.567 755.122 867.964 755.479 868.738C754.285 868.185 753.998 867.69 753.085 866.691Z"></path><path fill="#5F6062" d="M904.483 823.618C905.189 824.055 905.177 823.974 905.587 824.61C904.761 824.407 904.744 824.429 904.483 823.618Z"></path><path fill="#5F6062" d="M872.274 901.018C873.003 901.328 873.133 901.432 873.553 902.125C872.715 901.837 872.532 901.894 872.274 901.018Z"></path><path fill="#7E7F81" d="M789.217 720.617C796.929 720.066 803.932 721.721 807.992 729.035C821.179 752.795 824.746 782.228 832.484 808.054C835.997 819.779 838.485 831.897 833.752 843.285C830.477 851.164 825.786 856.205 817.505 858.805C787.099 865.62 783.092 821.216 778.307 801.002C773.065 778.86 765.008 755.666 775.557 733.851C778.951 726.831 781.897 723.322 789.217 720.617Z"></path><path fill="#C3C3C3" d="M831.433 721.346C834.598 725.978 837.62 730.53 840.284 735.472C840.701 735.714 840.683 735.915 840.791 736.412C842.079 738.664 843.221 740.609 844.321 742.973C844.742 743.395 844.762 743.328 844.806 743.865C845.035 744.309 845.254 744.757 845.464 745.209C856.421 768.476 864.025 802.672 855.02 827.389C848.327 824.989 844.29 824.253 837.301 823.94C832.532 788.825 810.75 757.015 831.433 721.346Z"></path><path fill="#C3C3C3" d="M902.426 828.104C919.121 826.742 912.983 857.212 909.566 866.114C903.708 881.378 895.046 895.667 879.758 902.836C873.471 902.872 870.352 898.259 869.216 892.506C866.166 877.059 870.613 859.917 879.159 846.903C884.756 838.38 892.123 830.302 902.426 828.104Z"></path><path fill="#C3C3C3" d="M878.888 658.749C883.844 658.852 887.481 660.519 891.936 662.466C890.977 663.167 889.286 664.19 888.7 665.187C884.609 672.151 893.859 679.602 898.608 682.57C892.864 693.653 887.304 696.438 876.589 701.681C871.578 703.203 868.998 703.725 863.7 704.081C852.83 692.62 851.233 679.147 861.564 666.28C866.472 660.167 871.516 659.376 878.888 658.749Z"></path><path fill="#7E7F81" d="M718.741 832.235C720.261 823.153 724.02 819.807 731.441 814.991L732.523 823.248C732.761 825.012 733.218 826.751 733.57 828.494L734.06 830.744C734.212 831.43 734.447 832.31 734.617 832.993L735.128 834.991C737.473 843.831 739.404 847.523 742.705 855.476C731.004 855.393 720.589 849.642 718.723 837.211C718.344 835.509 718.486 833.948 718.741 832.235Z"></path><path fill="#5F6062" d="M718.723 837.211C718.344 835.509 718.486 833.948 718.741 832.235C718.907 834.179 718.984 835.255 718.723 837.211Z"></path></svg>
