<?xml version="1.0"?>
<svg xmlns="http://www.w3.org/2000/svg" viewBox="44.12 117.25 287.39 349.16" width="287.39" height="349.16"><path fill="#222223" d="M220.346 154.825C233.531 125.246 270.323 133.533 280.166 159.758C282.913 166.94 282.614 174.932 279.336 181.888C275.761 189.426 269.913 193.939 262.574 197.453C276.594 236.204 267.966 260.894 230.596 280.437C244.649 293.831 254.515 307.742 261.275 326.143C267.524 343.154 266.921 355.475 261.486 372.453C264.492 374.079 265.354 374.259 268.621 375.122C274.404 372.931 285.748 368.002 291.148 367.27C291.331 367.189 292.586 367.02 292.827 366.983C296.159 367.054 296.733 367.014 300 367.507C302.189 367.851 304.291 368.616 306.189 369.76C320.29 378.696 319.913 393.964 315.516 408.331C310.471 424.817 293.294 454.387 272.137 448.592C266.663 447.051 259.407 443.602 254.171 441.168L226.503 428.056C224.396 427.064 217.473 423.335 215.401 423.093C200.893 421.399 185.8 422.896 171.177 422.575C163.222 422.401 161.847 425.516 155.743 427.334C136.143 433.17 108.259 458.41 88.9349 444.19C87.6374 443.23 86.3834 442.212 85.1765 441.14C84.1993 440.376 83.7242 439.9 82.87 439.013C82.5878 438.735 82.3006 438.463 82.0083 438.196C79.9427 435.834 77.9712 433.562 76.1051 431.029C64.8104 415.698 52.118 384.772 71.905 370.894C77.7493 367.269 79.716 366.734 86.776 366.922C96.011 368.352 101.31 370.642 109.947 374.431L115.817 372.08C107.512 335.201 122.427 303.675 150.929 280.073C115.975 262.296 104.574 238.282 117.886 200.525C112.153 197.372 106.884 194.649 102.794 189.304C95.5203 179.798 94.9517 167.316 100.869 156.904C105.751 148.299 113.839 141.977 123.368 139.317C130.941 137.261 138.659 138.114 145.494 142.04C151.825 145.676 154.277 150.045 157.772 155.967C180.216 148.987 197.506 146.184 220.346 154.825Z"></path><path fill="#7E7F81" d="M71.905 370.894C77.7493 367.269 79.716 366.734 86.776 366.922C86.7711 367.556 86.7843 367.531 86.9243 368.163C91.3998 367.075 105.397 373.722 109.999 375.705L115.845 373.095C120.969 393.17 125.928 429.099 157.6 419.528C164.053 417.579 167.971 409.629 170.221 403.708C184.357 408.873 191.802 409.976 205.801 405.206C206.241 406.186 206.697 407.159 207.167 408.125C209.939 413.778 214.646 418.105 220.681 420.034C226.254 421.863 232.332 421.343 237.513 418.594C248.028 412.981 251.375 401.319 255.107 390.924C257.231 385.189 259.232 379.409 261.109 373.588C263.531 374.774 265.819 375.631 268.322 376.607C272.897 374.919 277.615 372.598 282.215 370.887C285.47 369.676 288.713 369.107 291.855 367.754L291.148 367.27C291.331 367.189 292.586 367.02 292.827 366.983C296.159 367.054 296.733 367.014 300 367.507C302.189 367.851 304.291 368.616 306.189 369.76C320.29 378.696 319.913 393.964 315.516 408.331C310.471 424.817 293.294 454.387 272.137 448.592C266.663 447.051 259.407 443.602 254.171 441.168L226.503 428.056C224.396 427.064 217.473 423.335 215.401 423.093C200.893 421.399 185.8 422.896 171.177 422.575C163.222 422.401 161.847 425.516 155.743 427.334C136.143 433.17 108.259 458.41 88.9349 444.19C87.6374 443.23 86.3834 442.212 85.1765 441.14C84.1993 440.376 83.7242 439.9 82.87 439.013C82.5878 438.735 82.3006 438.463 82.0083 438.196C79.9427 435.834 77.9712 433.562 76.1051 431.029C64.8104 415.698 52.118 384.772 71.905 370.894Z"></path><path fill="#C3C3C3" d="M71.905 370.894L72.4295 371.207L72.6295 371.943C76.4284 372.11 78.8867 372.029 82.3138 373.86L82.8665 374.67L83.5093 374.903C97.9723 383.448 106.324 396.256 110.701 412.334C113.391 422.217 114.566 442.697 103.353 447.73C101.298 447.531 101.073 447.494 99.0594 447.698C93.2516 446.3 90.3943 444.091 86.024 440.41L85.1765 441.14C84.1993 440.376 83.7242 439.9 82.87 439.013C82.5878 438.735 82.3006 438.463 82.0083 438.196C79.9427 435.834 77.9712 433.562 76.1051 431.029C64.8104 415.698 52.118 384.772 71.905 370.894Z"></path><path fill="#222223" d="M71.905 370.894L72.4295 371.207L72.6295 371.943C76.4284 372.11 78.8867 372.029 82.3138 373.86L82.8665 374.67C71.7412 371.569 64.4855 374.402 62.9713 386.933C62.9912 388.261 63.0034 393.109 62.8219 394.355C64.6592 411.912 70.7897 423.525 82.1461 436.808L82.0083 438.196C79.9427 435.834 77.9712 433.562 76.1051 431.029C64.8104 415.698 52.118 384.772 71.905 370.894Z"></path><path fill="#7E7F81" d="M62.9713 386.933C62.9912 388.261 63.0034 393.109 62.8219 394.355C61.9052 392.741 62.4876 388.783 62.9713 386.933Z"></path><path fill="#5F6062" d="M84.2185 438.85L86.024 440.41L85.1765 441.14C84.1993 440.376 83.7242 439.9 82.87 439.013L84.2185 438.85Z"></path><path fill="#191B20" d="M82.1461 436.808C82.8171 437.508 83.5082 438.189 84.2185 438.85L82.87 439.013C82.5878 438.735 82.3006 438.463 82.0083 438.196L82.1461 436.808Z"></path><path fill="#C3C3C3" d="M294.11 377.251C301.286 374.343 309.074 372.07 314.373 379.488C314.764 379.831 314.701 379.849 314.851 380.428C323.511 399.551 306.687 431.673 291.48 443.23C287.154 447.579 274.56 451.775 270.998 444.05C260.254 420.744 273.746 390.202 293.428 377.694L294.11 377.251Z"></path><path fill="#222223" d="M306.189 369.76C320.29 378.696 319.913 393.964 315.516 408.331C310.471 424.817 293.294 454.387 272.137 448.592C266.663 447.051 259.407 443.602 254.171 441.168L226.503 428.056C224.396 427.064 217.473 423.335 215.401 423.093C200.893 421.399 185.8 422.896 171.177 422.575C163.222 422.401 161.847 425.516 155.743 427.334C136.143 433.17 108.259 458.41 88.9349 444.19C87.6374 443.23 86.3834 442.212 85.1765 441.14L86.024 440.41C90.3943 444.091 93.2516 446.3 99.0594 447.698C101.073 447.494 101.298 447.531 103.353 447.73C114.566 442.697 113.391 422.217 110.701 412.334C106.324 396.256 97.9723 383.448 83.5093 374.903C101.241 377.647 117.638 417.012 113.128 433.165C111.186 440.119 110.889 442.312 106.07 447.963C124.153 442.75 143.315 430.635 160.895 423.985C162.472 423.376 163.244 423.194 164.522 422.099C166.128 421.604 167.293 421.568 168.947 421.414C180.72 421.81 192.715 421.357 204.507 421.529C207.598 421.575 210.937 421.518 214.012 421.258C217.578 422.312 219.194 423.157 222.522 424.802C222.821 425.239 222.819 425.166 223.411 425.295C237.413 432.606 257.442 441.811 272.071 447.818C268.644 441.353 267.099 437.939 266.447 430.534C266.556 428.014 266.556 425.491 266.448 422.972C266.751 407.135 277.539 386.67 291.017 378.108C292.373 377.247 292.091 377.364 293.428 377.694C273.746 390.202 260.254 420.744 270.998 444.05C274.56 451.775 287.154 447.579 291.48 443.23C306.687 431.673 323.511 399.551 314.851 380.428C314.701 379.849 314.764 379.831 314.373 379.488C309.074 372.07 301.286 374.343 294.11 377.251C298.408 372.789 304.962 373.546 310.54 374.284C308.533 372.363 307.887 371.945 305.507 370.475L306.189 369.76Z"></path><path fill="#5F6062" d="M99.0594 447.698C101.073 447.494 101.298 447.531 103.353 447.73C101.363 448.088 100.958 448.226 99.0594 447.698Z"></path><path fill="#191B20" d="M292.827 366.983C296.159 367.054 296.733 367.014 300 367.507C302.189 367.851 304.291 368.616 306.189 369.76L305.507 370.475C300.655 371.342 296.498 372.335 292.187 374.797C291.385 375.255 288.215 377.666 287.49 377.43C279.67 374.889 294.261 369.142 295.517 368.197L295.512 367.999C295.139 367.405 294.28 367.349 293.651 367.209L292.827 366.983Z"></path><path fill="#191B20" d="M71.905 370.894C77.7493 367.269 79.716 366.734 86.776 366.922C86.7711 367.556 86.7843 367.531 86.9243 368.163C89.5609 369.394 97.2893 374.354 93.7412 376.935C93.4245 377.165 84.2905 371.34 82.508 371.51C77.3223 370.135 77.2982 368.798 72.4295 371.207L71.905 370.894Z"></path><path fill="#5F6062" d="M168.947 421.414C172.917 420.728 209.862 420.483 214.012 421.258C210.937 421.518 207.598 421.575 204.507 421.529C192.715 421.357 180.72 421.81 168.947 421.414Z"></path><path fill="#5F6062" d="M266.448 422.972C266.556 425.491 266.556 428.014 266.447 430.534C265.704 427.418 265.76 426.124 266.448 422.972Z"></path><path fill="#5F6062" d="M164.522 422.099C163.244 423.194 162.472 423.376 160.895 423.985C162.504 422.807 162.631 422.722 164.522 422.099Z"></path><path fill="#7E7F81" d="M221.836 155.737C221.734 153.313 223.235 150.503 224.677 148.637C234.879 135.431 251.808 133.726 265.055 142.747C265.477 142.939 265.467 143.049 265.736 143.466C266.378 143.726 266.354 143.715 266.925 144.107C273.922 149.104 279.384 156.641 280.767 165.237C281.954 172.271 280.323 179.489 276.227 185.329C273.534 189.119 267.211 195.273 262.58 196.149C261.544 195.584 261.945 195.989 261.394 194.918C260.844 194.118 260.709 194.224 259.773 194.153C266.925 210.569 271.916 227.904 264.971 245.232C256.186 267.151 235.005 279.687 213.07 285.005C245.306 262.831 222.126 234.892 192.379 234.336C191.022 234.525 191.013 234.529 189.662 234.346C184.295 234.804 172.572 236.537 168.998 240.776C168.393 241.693 167.275 242.092 166.278 242.551L166.114 242.802L165.515 242.414C162.519 243.966 162.807 244.091 160.369 246.113C159.622 246.979 158.873 247.971 157.883 248.542C144.651 264.831 151.435 274.207 166.156 284.753C153.334 280.176 141.294 275.643 131.16 265.995C130.111 265.474 129.489 264.597 128.749 263.707L128.364 263.376C127.191 262.338 126.59 261.882 125.835 260.515C117.813 253.315 114.817 241.311 113.717 231.105C113.465 229.683 113.174 226.899 113.794 225.607C113.437 216.506 117.414 205.241 120.373 196.747L119.5 196.882C119.23 197.833 119.211 197.725 118.709 198.603C114.583 199.512 106.762 192.128 104.075 189.156C103.713 188.798 103.729 188.843 103.479 188.404C94.3193 178.169 96.9839 160.557 106.413 151.135C107.08 150.066 107.949 149.464 108.922 148.675C109.718 147.63 112.772 145.315 113.922 144.591C124.728 137.785 136.342 137.406 147.043 144.254C147.435 144.444 147.355 144.397 147.715 144.681C148.964 145.507 150.355 146.323 151.056 147.686C153.329 150.449 155.537 152.712 156.353 156.223C155.885 157.022 156.032 156.959 155.371 157.546L155.891 158.172C176.876 148.891 200.049 147.564 221.455 156.174L221.836 155.737Z"></path><path fill="#191B20" d="M108.922 148.675C109.718 147.63 112.772 145.315 113.922 144.591C124.728 137.785 136.342 137.406 147.043 144.254C147.435 144.444 147.355 144.397 147.715 144.681C148.964 145.507 150.355 146.323 151.056 147.686C153.329 150.449 155.537 152.712 156.353 156.223C155.885 157.022 156.032 156.959 155.371 157.546L155.891 158.172C144.344 165.516 139.809 167.259 130.149 179.131C124.466 186.115 123.898 190.875 120.373 196.747L119.5 196.882C119.23 197.833 119.211 197.725 118.709 198.603C114.583 199.512 106.762 192.128 104.075 189.156C103.713 188.798 103.729 188.843 103.479 188.404C94.3193 178.169 96.9839 160.557 106.413 151.135C107.08 150.066 107.949 149.464 108.922 148.675Z"></path><path fill="#7E7F81" d="M108.922 148.675C109.718 147.63 112.772 145.315 113.922 144.591C124.728 137.785 136.342 137.406 147.043 144.254C147.435 144.444 147.355 144.397 147.715 144.681C148.964 145.507 150.355 146.323 151.056 147.686C153.329 150.449 155.537 152.712 156.353 156.223C155.885 157.022 156.032 156.959 155.371 157.546C147.44 152.52 142.516 147.637 131.081 150.206C123.455 151.926 116.866 156.694 112.848 163.4C105.78 175.196 108.595 188.596 119.5 196.882C119.23 197.833 119.211 197.725 118.709 198.603C114.583 199.512 106.762 192.128 104.075 189.156C103.713 188.798 103.729 188.843 103.479 188.404C94.3193 178.169 96.9839 160.557 106.413 151.135C107.08 150.066 107.949 149.464 108.922 148.675Z"></path><path fill="#5F6062" d="M147.715 144.681C148.964 145.507 150.355 146.323 151.056 147.686C149.801 147.09 148.718 145.723 147.715 144.681Z"></path><path fill="#727376" d="M108.922 148.675C108.062 149.877 107.759 150.63 106.413 151.135C107.08 150.066 107.949 149.464 108.922 148.675Z"></path><path fill="#191B20" d="M221.836 155.737C221.734 153.313 223.235 150.503 224.677 148.637C234.879 135.431 251.808 133.726 265.055 142.747C265.477 142.939 265.467 143.049 265.736 143.466C266.378 143.726 266.354 143.715 266.925 144.107C273.922 149.104 279.384 156.641 280.767 165.237C281.954 172.271 280.323 179.489 276.227 185.329C273.534 189.119 267.211 195.273 262.58 196.149C261.544 195.584 261.945 195.989 261.394 194.918C260.844 194.118 260.709 194.224 259.773 194.153C258.21 191.515 256.987 188.518 255.389 185.801C246.986 171.51 235.936 163.372 221.455 156.174L221.836 155.737Z"></path><path fill="#7E7F81" d="M221.836 155.737C221.734 153.313 223.235 150.503 224.677 148.637C234.879 135.431 251.808 133.726 265.055 142.747C265.477 142.939 265.467 143.049 265.736 143.466C266.378 143.726 266.354 143.715 266.925 144.107C273.922 149.104 279.384 156.641 280.767 165.237C281.954 172.271 280.323 179.489 276.227 185.329C273.534 189.119 267.211 195.273 262.58 196.149C261.544 195.584 261.945 195.989 261.394 194.918C262.576 192.705 264.49 190.547 265.766 188.273C280.16 162.613 247.671 135.677 224.919 154.387C223.888 155.235 223.063 155.425 221.836 155.737Z"></path><path fill="#727376" d="M113.717 231.105C113.465 229.683 113.174 226.899 113.794 225.607C114.081 227.309 113.907 229.385 113.717 231.105Z"></path><path fill="#222223" d="M166.278 242.551C167.284 241.211 167.312 240.686 168.998 240.776C168.393 241.693 167.275 242.092 166.278 242.551Z"></path><path fill="#727376" d="M189.662 234.346C190.559 233.822 191.466 233.849 192.379 234.336C191.022 234.525 191.013 234.529 189.662 234.346Z"></path><path fill="#5F6062" d="M125.835 260.515C127.121 261.083 127.66 262.173 128.364 263.376C127.191 262.338 126.59 261.882 125.835 260.515Z"></path><path fill="#727376" d="M128.749 263.707C129.86 264.477 130.895 264.694 131.16 265.995C130.111 265.474 129.489 264.597 128.749 263.707Z"></path><path fill="#727376" d="M157.883 248.542C158.377 247.222 159.172 246.915 160.369 246.113C159.622 246.979 158.873 247.971 157.883 248.542Z"></path><path fill="#191B20" d="M214.554 217.896C218.193 217.124 221.964 218.39 224.398 221.203C226.832 224.016 227.545 227.929 226.259 231.419C224.972 234.91 221.89 237.424 218.212 237.984C212.75 238.816 207.617 235.153 206.627 229.717C205.637 224.281 209.15 219.044 214.554 217.896Z"></path><path fill="#191B20" d="M159.442 219.709C162.935 218.686 166.709 219.621 169.321 222.156C171.933 224.692 172.98 228.436 172.061 231.959C171.142 235.481 168.399 238.237 164.881 239.173C159.535 240.596 154.039 237.456 152.55 232.128C151.06 226.799 154.132 221.264 159.442 219.709Z"></path><path fill="#7E7F81" d="M151.84 280.687C167.534 287.846 183.845 290.951 200.934 288.85C201.37 288.655 201.322 288.665 201.79 288.684C205.947 287.812 228.405 281.459 229.832 281.477C232.624 283.809 234.473 286.298 237.175 288.262C238.427 289.797 239.389 290.751 240.592 292.401L241.18 293.31C241.524 293.574 241.554 293.667 241.834 294.039C243.578 295.891 244.712 297.374 246.114 299.49C274.005 341.614 266.394 363.777 246.813 407.448C237.545 428.118 200.265 422.127 207.508 390.275C210.525 377.005 238.445 322.87 238.419 315.126L237.695 315.183C235.489 318.986 234.536 322.679 232.625 326.58C227.948 316.316 225.159 309.04 216.281 301.745C192.871 282.51 162.573 291.666 149.372 317.756C147.435 321.586 146.08 325.051 144.578 329.101C143.629 326.848 138.836 313.705 137.959 312.81L137.507 313.271C138.087 317.084 141.225 324.244 142.756 328.026C146.797 338.079 151.07 348.038 155.572 357.894C157.118 361.287 158.656 364.644 160.274 368.105C166.849 382.175 175.723 396.759 165.101 411.587C162.051 415.845 157.48 418.757 152.252 419.474C145.892 420.357 139.448 418.609 134.407 414.634C124.431 406.789 123.182 393.355 119.499 382.273C109.753 352.943 113.823 324.99 132.838 300.339C132.944 300.218 133.049 300.097 133.155 299.975C133.339 299.661 133.323 299.617 133.594 299.43C139.73 291.318 144.272 287.216 151.84 280.687Z"></path><path fill="#5F6062" d="M241.834 294.039C243.578 295.891 244.712 297.374 246.114 299.49C244.369 298.077 242.871 296.021 241.834 294.039Z"></path><path fill="#5F6062" d="M237.175 288.262C238.427 289.797 239.389 290.751 240.592 292.401C239.434 291.431 237.919 290.399 237.416 288.904L237.175 288.262Z"></path><path fill="#C3C3C3" d="M185.016 292.672C208.147 289.37 225.582 308.277 231.875 328.729C226.801 340.856 221.655 352.953 216.437 365.019C210.804 377.988 203.546 389.774 205.8 404.208C200.246 406.288 197.822 406.836 191.92 407.283C183.188 406.997 178.424 405.519 170.23 402.722C173.405 387.441 165.645 376.611 159.345 363.037C154.318 352.398 149.58 341.625 145.134 330.73C151.146 310.401 163.315 295.727 185.016 292.672Z"></path><path fill="#C3C3C3" d="M168.998 240.776C174.679 238.359 179.335 236.55 185.501 235.789C200.959 233.862 219.66 239.743 226.483 254.843C232.236 267.576 220.127 281.903 208.505 285.904C197.111 289.827 179.721 289.901 168.7 284.591C146.735 274.009 146.877 256.631 166.114 242.802L166.278 242.551C167.275 242.092 168.393 241.693 168.998 240.776Z"></path><path fill="#191B20" d="M185.249 242.651C189.095 242.203 197.909 242.514 201.129 244.234C216.359 252.371 201.406 259.951 194.551 263.179C192.992 263.639 191.438 264.101 189.872 264.537C184.767 262.885 173.827 258.411 172.498 252.513C170.833 245.129 179.897 243.448 185.249 242.651Z"></path></svg>
