<?xml version="1.0"?>
<svg xmlns="http://www.w3.org/2000/svg" viewBox="349.87 101.75 286.02 356.9" width="286.02" height="356.9"><path fill="#222223" d="M490.327 147.097C492.213 115.067 529.273 109.748 547.948 131.122C559.182 143.98 556.392 162.452 543.51 173.529C554.325 187.346 563.219 201.884 560.862 220.176C558.24 240.53 546.269 255.622 531.107 268.42C552.402 287.736 572.038 312.444 573.538 342.478C573.863 347.932 573.342 353.404 571.994 358.699C571.694 359.868 570.966 363.285 570.54 364.188C567.188 371.298 574.565 372.48 580.358 370.641C590.17 367.526 595.566 363.763 606.613 364.714C609.622 365.339 610.956 365.884 613.705 367.168C619.437 370.906 623.463 375.002 624.909 382.025C627.887 396.491 621.964 413.405 614.065 425.424C608.143 434.435 594.983 450.072 582.608 446.318C577.437 444.749 570.677 441.169 565.682 438.704C557.153 434.46 548.596 430.272 540.013 426.138C537.664 425.01 529.406 420.937 527.414 420.748C518.4 419.894 506.317 420.545 497.127 420.534C491.428 421.238 484.475 421.091 478.706 420.948C466.543 420.775 429.881 443.804 416.629 446.022C388.997 450.647 358.654 390.78 379.476 370.865C381.629 368.806 383.663 367.673 386.268 366.424C388.221 365.853 390.161 365.265 392.132 364.756C399.569 364.061 405.748 366.441 412.607 369.027C417.67 370.936 420.231 373.092 425.397 370.635C426.276 369.443 426.244 369.064 425.86 367.469C419.431 340.803 426.574 317.766 442.49 295.234C445.001 291.613 447.742 288.157 450.696 284.887C419.242 273.929 407.975 256.373 407.714 223.083C388.055 219.833 373.196 208.19 376.786 186.459C378.453 176.867 383.874 168.336 391.849 162.752C405.399 153.334 420.118 155.609 430.944 167.828C450.112 152.532 466.158 146.925 490.327 147.097Z"></path><path fill="#7E7F81" d="M606.613 364.714C609.622 365.339 610.956 365.884 613.705 367.168C619.437 370.906 623.463 375.002 624.909 382.025C627.887 396.491 621.964 413.405 614.065 425.424C608.143 434.435 594.983 450.072 582.608 446.318C577.437 444.749 570.677 441.169 565.682 438.704C557.153 434.46 548.596 430.272 540.013 426.138C537.664 425.01 529.406 420.937 527.414 420.748C518.4 419.894 506.317 420.545 497.127 420.534C491.428 421.238 484.475 421.091 478.706 420.948C466.543 420.775 429.881 443.804 416.629 446.022C388.997 450.647 358.654 390.78 379.476 370.865C381.629 368.806 383.663 367.673 386.268 366.424C388.221 365.853 390.161 365.265 392.132 364.756L393.046 364.947C394.757 365.216 394.56 365.301 395.95 366.108C405.273 365.264 413.094 371.135 421.765 373.445C423.337 372.757 425.029 371.959 426.635 371.396C430.66 385.191 434.993 406.771 448.332 413.693C462.056 420.814 475.494 414.618 480.113 400.168C494.304 405.202 500.789 405.293 515.107 402.003C517.995 407.305 522.421 413.679 528.697 415.112C558.937 422.019 561.705 390.373 568.761 370.542C571.162 371.488 573.004 372.179 575.506 372.939C584.134 371.221 594.868 364.565 601.87 366.362C603.179 366.848 604.983 365.997 606.03 365.158L606.613 364.714Z"></path><path fill="#222223" d="M613.705 367.168C619.437 370.906 623.463 375.002 624.909 382.025C627.887 396.491 621.964 413.405 614.065 425.424C608.143 434.435 594.983 450.072 582.608 446.318C577.437 444.749 570.677 441.169 565.682 438.704C557.153 434.46 548.596 430.272 540.013 426.138C537.664 425.01 529.406 420.937 527.414 420.748C518.4 419.894 506.317 420.545 497.127 420.534C496.084 420.436 494.701 420.443 493.625 420.415L493.226 419.879L492.829 420.321L492.3 420.151L493.638 420.365L493.859 419.774C496.271 419.601 525.321 418.94 526.037 419.193C538.027 423.435 566.737 438.097 578.106 443.568C573.771 433.582 572.589 426.938 574.385 416.042C577.569 396.717 595.485 364.922 619.413 372.321C616.925 370.619 615.103 369.12 612.21 368.145C612.784 367.75 613.131 367.522 613.705 367.168Z"></path><path fill="#C3C3C3" d="M585.501 446.286C581.582 444.866 578.782 443.209 577.151 438.961C568.546 416.544 583.122 384.575 603.782 373.679C610.276 370.255 621.014 371.314 623.041 379.339C626.859 391.793 622.966 406.729 617.142 417.968C611.397 429.055 600.044 444.219 586.825 446.219C586.209 446.554 586.157 446.52 585.501 446.286Z"></path><path fill="#222223" d="M478.706 420.948C466.543 420.775 429.881 443.804 416.629 446.022C388.997 450.647 358.654 390.78 379.476 370.865C381.629 368.806 383.663 367.673 386.268 366.424C386.617 366.894 386.961 367.366 387.302 367.841L384.36 368.664C386.161 369.768 386.58 369.14 388.512 370.161C401.985 374.268 410.351 382.992 416.72 395.219C425.371 411.83 428.751 428.323 418.195 444.577C430.973 440.68 444.977 432.579 457.472 427.407C463.28 425.002 474.384 418.147 480.945 420.335L478.706 420.948Z"></path><path fill="#727376" d="M384.36 368.664C386.161 369.768 386.58 369.14 388.512 370.161C388.019 370.152 382.216 370.314 382.137 369.885L382.158 369.868L382.497 369.919L382.524 369.288C383.143 369.057 383.713 368.802 384.36 368.664Z"></path><path fill="#C3C3C3" d="M383.959 371.096C408.919 369.506 431.916 417.46 421.038 438.435C419.149 442.079 417.704 444.085 413.894 445.466C384.664 446.166 357.868 376.506 383.959 371.096Z"></path><path fill="#191B20" d="M606.613 364.714C609.622 365.339 610.956 365.884 613.705 367.168C613.131 367.522 612.784 367.75 612.21 368.145C608.666 368.94 605.9 369.387 602.286 370.685C600.395 371.365 595.967 374.404 594.166 374.348C593.948 374.293 593.719 374.025 593.648 373.839C592.284 370.275 599.838 367.131 601.87 366.362C603.179 366.848 604.983 365.997 606.03 365.158L606.613 364.714Z"></path><path fill="#191B20" d="M386.268 366.424C388.221 365.853 390.161 365.265 392.132 364.756L393.046 364.947C394.757 365.216 394.56 365.301 395.95 366.108C396.816 366.498 410.927 372.084 404.255 373.996C403.335 374.26 399.994 371.9 399.206 371.603C395.409 369.58 391.428 368.828 387.302 367.841C386.961 367.366 386.617 366.894 386.268 366.424Z"></path><path fill="#7E7F81" d="M501.928 125.262C516.028 114.439 536.253 118.861 547.373 131.944C547.665 132.137 547.644 132.203 547.839 132.555C557.527 143.878 554.975 162.531 543.935 171.932C543.587 172.228 543.158 172.306 542.741 172.415C541.605 171.837 542.004 172.28 541.36 171.253L539.787 171.014C541.399 172.776 542.768 174.211 544.184 176.151C546.25 178.241 548.831 181.882 550.245 184.476L550.631 185.155C551.282 185.765 551.251 185.72 551.562 186.556L552.821 188.945C553.816 189.669 555.522 193.722 555.864 195.189C570.168 229.469 546.501 257.939 518.668 275.489C527.737 265.032 533.447 253.106 522.624 241.045C522.161 240.763 522.269 240.841 521.933 240.365C511.829 233.063 500.736 229.767 488.208 231.666C477.948 233.22 472.403 237.635 464.16 242.859C463.942 242.967 463.918 243.038 463.754 243.22C456.006 255.525 447.234 264.192 458.392 278.46C459.064 278.841 459.114 278.902 459.593 279.55L461.547 281.232C461.989 281.413 461.957 281.519 462.27 282.038C462.93 282.233 462.883 282.219 463.483 282.564C465.267 283.396 467.425 284.522 469.262 285.06C469.777 285.307 470.265 285.546 470.805 285.762C471.154 285.901 471.674 286.132 471.811 286.528C471.827 286.599 471.781 286.7 471.728 286.72C470.634 287.131 466.003 286.449 464.831 286.337C454.311 286.723 433.606 277.955 425.747 270.347C408.66 253.807 409.814 238.257 408.886 217.663C408.397 218.956 408.466 218.487 408.406 219.845C406.65 225.246 392.938 217.88 389.759 215.734C366.052 199.727 378.839 163.094 404.68 158.528C411.463 157.33 418.553 158.535 424.228 162.523C426.397 164.086 427.352 164.955 428.931 167.109C429.856 168.693 429.642 167.839 429.42 169.797L429.46 170.632L432.4 168.124C432.761 167.672 432.648 167.741 433.127 167.507C449.244 152.309 472.132 147.572 493.515 148.504L492.621 147.683L491.799 147.036C489.768 140.401 496.356 129.704 501.324 125.669C501.6 125.42 501.587 125.41 501.928 125.262Z"></path><path fill="#191B20" d="M408.406 219.845C406.65 225.246 392.938 217.88 389.759 215.734C366.052 199.727 378.839 163.094 404.68 158.528C411.463 157.33 418.553 158.535 424.228 162.523C426.397 164.086 427.352 164.955 428.931 167.109C429.856 168.693 429.642 167.839 429.42 169.797L429.46 170.632C413.589 186.681 412.147 196.559 408.886 217.663C408.397 218.956 408.466 218.487 408.406 219.845Z"></path><path fill="#7E7F81" d="M408.406 219.845C406.65 225.246 392.938 217.88 389.759 215.734C366.052 199.727 378.839 163.094 404.68 158.528C411.463 157.33 418.553 158.535 424.228 162.523C426.397 164.086 427.352 164.955 428.931 167.109C429.856 168.693 429.642 167.839 429.42 169.797C421.923 167.16 411.711 165.555 404.878 169.871C383.245 183.537 385.531 209.518 408.406 219.845Z"></path><path fill="#727376" d="M424.228 162.523C426.397 164.086 427.352 164.955 428.931 167.109C427.62 166.163 425.839 164.581 424.84 163.292L424.228 162.523Z"></path><path fill="#191B20" d="M501.928 125.262C516.028 114.439 536.253 118.861 547.373 131.944C547.665 132.137 547.644 132.203 547.839 132.555C557.527 143.878 554.975 162.531 543.935 171.932C543.587 172.228 543.158 172.306 542.741 172.415C541.605 171.837 542.004 172.28 541.36 171.253L539.787 171.014C527.244 158.728 511.171 150.217 493.515 148.504L492.621 147.683L491.799 147.036C489.768 140.401 496.356 129.704 501.324 125.669C501.6 125.42 501.587 125.41 501.928 125.262Z"></path><path fill="#7E7F81" d="M501.928 125.262C516.028 114.439 536.253 118.861 547.373 131.944C547.665 132.137 547.644 132.203 547.839 132.555C557.527 143.878 554.975 162.531 543.935 171.932C543.587 172.228 543.158 172.306 542.741 172.415C541.605 171.837 542.004 172.28 541.36 171.253C550.128 150.148 536.311 129.239 512.257 132.129C503.294 133.206 497.231 140.383 492.621 147.683L491.799 147.036C489.768 140.401 496.356 129.704 501.324 125.669C501.6 125.42 501.587 125.41 501.928 125.262Z"></path><path fill="#191B20" d="M463.754 243.22C452.777 249.182 444.148 238.799 449.854 229.888C456.91 218.867 474.518 230.591 464.788 242.1L464.16 242.859C463.942 242.967 463.918 243.038 463.754 243.22Z"></path><path fill="#8C8B90" d="M464.831 286.337C467.048 285.654 467.038 286.092 469.262 285.06C469.777 285.307 470.265 285.546 470.805 285.762C471.154 285.901 471.674 286.132 471.811 286.528C471.827 286.599 471.781 286.7 471.728 286.72C470.634 287.131 466.003 286.449 464.831 286.337Z"></path><path fill="#5F6062" d="M544.184 176.151C546.25 178.241 548.831 181.882 550.245 184.476C548.993 183.674 548.24 182.131 547.39 180.858L544.184 176.151Z"></path><path fill="#5F6062" d="M552.821 188.945C553.816 189.669 555.522 193.722 555.864 195.189C555.144 194.096 553.108 190.192 552.821 188.945Z"></path><path fill="#727376" d="M458.392 278.46C459.064 278.841 459.114 278.902 459.593 279.55C458.772 279.337 458.729 279.246 458.392 278.46Z"></path><path fill="#191B20" d="M507.391 209.363C510.914 208.693 514.525 209.978 516.833 212.724C519.141 215.469 519.787 219.246 518.522 222.602C517.257 225.958 514.278 228.37 510.732 228.908C505.389 229.719 500.38 226.102 499.469 220.775C498.559 215.448 502.082 210.373 507.391 209.363Z"></path><path fill="#C3C3C3" d="M492.715 289.156C516.682 287.183 532.944 301.339 540.065 323.477C535.311 336.876 528.531 350.355 523.286 363.647C518.021 376.992 511.667 386.128 514.905 400.959C510.477 401.994 507.109 402.674 502.618 403.344C494.899 403.465 487.54 401.78 480.383 399.03C484.212 385.225 476.41 374.162 471.181 362.065C465.706 349.4 459.589 336.706 455.123 323.65C461.42 305.22 472.637 292.141 492.715 289.156Z"></path><path fill="#7E7F81" d="M490.529 287.856C503.597 284.522 515.991 279.019 527.212 271.173C528.802 270.062 528.116 270.167 530.182 269.317L531.003 269.804C532.915 271.145 534.399 272.661 535.971 274.385C537.647 275.157 542.888 280.773 544.147 282.397L546.422 284.944C547.465 285.602 548.899 287.549 549.549 288.604C551.298 290.866 552.978 292.939 554.436 295.413C555.436 296.224 555.962 297.46 556.626 298.538C568.078 316.289 575.959 336.343 571.227 357.671C569.323 365.643 566.657 373.356 563.965 381.123C560.196 391.768 558.615 404.186 548.503 410.96C538.416 417.719 524.309 415.404 517.984 404.86C510.031 391.6 520.624 373.623 525.78 361.057C530.803 348.813 536.252 337.185 540.792 324.768C542.379 320.599 544.74 316.446 546.101 312.532L545.094 311.534L545.759 310.601C543.619 313.948 542.211 318.319 540.76 322.059C537.839 314.664 535.892 310.466 531.122 304.051C530.842 303.875 530.862 303.816 530.697 303.484L525.461 298.327C525.139 298.15 525.118 298.182 524.944 297.903C512.52 288.675 505.287 288.053 490.529 287.856Z"></path><path fill="#5F6062" d="M535.971 274.385C537.647 275.157 542.888 280.773 544.147 282.397C542.851 281.47 536.805 275.607 535.971 274.385Z"></path><path fill="#727376" d="M531.003 269.804C532.915 271.145 534.399 272.661 535.971 274.385C533.348 272.725 533.045 272.204 531.003 269.804Z"></path><path fill="#5F6062" d="M546.422 284.944C547.465 285.602 548.899 287.549 549.549 288.604C548.483 288.234 546.813 285.944 546.422 284.944Z"></path><path fill="#5F6062" d="M554.436 295.413C555.436 296.224 555.962 297.46 556.626 298.538C555.408 297.409 555.016 297.017 554.436 295.413Z"></path><path fill="#7E7F81" d="M452.203 285.075C463.367 288.802 478.44 289.128 490.089 288.31C470.339 294.189 461.922 303.245 454.309 322.275C453.216 319.384 449.282 308.233 447.625 306.6L447.158 306.963C447.244 308.873 451.731 318.511 452.638 321.229C459.819 342.734 473.634 366.351 479.85 387.62C482.905 398.074 472.268 416.874 460.695 415.01C436.462 415.368 433.505 387.355 427.615 369.874C425.985 365.034 425.159 358.466 424.851 353.384C423.967 351.908 424.482 344.681 424.945 342.719C426.098 322.346 437.962 299.438 452.203 285.075Z"></path><path fill="#5F6062" d="M424.851 353.384C423.967 351.908 424.482 344.681 424.945 342.719C424.989 343.749 424.986 352.406 424.851 353.384Z"></path><path fill="#C3C3C3" d="M492.88 232.183C500.891 231.442 512.566 234.552 518.774 239.084C537.561 252.802 522.861 276.114 505.465 281.889C498.732 284.124 495.183 285.645 488.117 286.837C478.949 288.316 469.162 286.072 461.794 280.319C449.689 270.867 453.846 256.642 462.554 246.668C470.769 237.26 480.59 233.123 492.88 232.183Z"></path><path fill="#191B20" d="M490.268 239.181C495.9 238.478 505.044 239.067 504.542 246.753C504.232 251.482 496.243 258.356 492.731 261.402C490.142 261.692 489.581 261.823 486.957 261.69C462.036 259.811 466.601 241.93 490.268 239.181Z"></path></svg>
