<?xml version="1.0"?>
<svg xmlns="http://www.w3.org/2000/svg" viewBox="32.82 539.99 301.67 365.59" width="301.67" height="365.59"><path fill="#222223" d="M208.621 579.292C211.996 571.535 216.753 564.634 225.007 561.595C261.974 547.986 292.479 606.202 251.653 622.078C258.111 643.528 260.124 657.594 249.436 678.128C255.824 673.041 265.036 663.326 271.355 657.366C271.29 650.999 269.251 632.152 279.246 633.354C282.088 633.695 286.628 642.454 289.517 645.246C298.453 635.947 310.044 631.528 320.41 642.113C324.403 646.273 326.494 651.901 326.185 657.659C326.021 660.953 325.131 665.03 323.075 667.592C315.104 677.525 304.428 687.837 295.524 697.012L235.601 758.418C248.828 777.731 248.957 792.381 245.292 814.919C249.244 816.962 252 818.258 256.123 819.912C265.715 816.566 273.719 811.329 283.794 812.217C287.788 812.762 289.473 813.172 293.125 815.137C298.032 817.894 302.448 822.67 303.719 828.285C308.933 851.322 291.833 885.986 269.348 894.324C263.749 896.4 252.19 890.036 246.857 887.555L214.591 872.574C211.39 871.08 200.6 865.56 197.876 865.038C188.223 863.185 176.101 864.894 166.136 864.146C158.908 863.603 151.562 868.27 145.082 871.39C135.169 876.14 125.296 880.971 115.463 885.883C104.968 891.084 94.3449 897.577 82.847 890.209C68.746 881.172 59.7034 864.918 55.4573 849.06C52.7884 839.093 52.6261 824.234 61.6671 817.219C64.7829 814.262 68.0936 812.892 72.2534 812.095C73.6186 811.822 74.9951 811.61 76.379 811.458C88.3522 813.359 90.3361 815.651 101.058 819.152C105.334 817.427 108.084 816.032 112.182 813.861C104.194 806.938 95.1074 797.638 96.1957 786.099C99.0339 756.006 117.53 729.086 138.769 708.874C122.106 701.616 109.774 690.714 102.335 674.08C98.4222 663.119 97.95 656.629 99.0145 644.964C99.3765 640.997 103.887 628.509 103.368 626.899C96.0825 624.416 89.4384 618.3 86.0299 611.434C82.4617 604.189 81.9317 595.82 84.5575 588.184C93.2116 562.631 131.022 552.06 144.325 580.401C144.562 580.904 144.795 581.408 145.024 581.913C167.808 573.108 185.231 571.646 208.621 579.292Z"></path><path fill="#7E7F81" d="M272.527 657.552C272.386 650.936 269.832 633.049 280.25 634.912C280.648 635.189 280.744 635.275 281.088 635.616C282.207 637.247 282.516 637.678 283.296 639.468C284.025 639.912 284.044 640.323 284.415 641.19L285.288 642.323C285.922 642.856 285.89 642.877 286.342 643.587L287.49 644.785C288.445 645.357 288.469 645.47 289.271 646.351L290.409 646.312C294.078 642.13 297.064 639.392 302.462 637.816C302.854 637.646 302.866 637.647 303.285 637.583C309.328 637.161 313.263 637.406 318.345 641.637C322.436 645.015 324.938 649.941 325.253 655.237C326.008 666.528 315.166 675.644 307.58 682.858C307.26 683.347 307.332 683.239 306.821 683.609C304.118 686.45 297.655 693.572 294.921 695.896C294.152 696.887 293.451 697.919 292.363 698.559C283.824 707.568 275.195 716.491 266.479 725.328C261.354 730.622 255.255 737.353 250.045 742.344C249.467 743.239 244.782 748.031 243.968 748.574C242.065 750.607 235.131 757.175 234.391 758.538L234.91 759.479C235.737 760.47 236.084 760.865 236.733 761.983L237.125 762.667C238.125 764.425 238.192 764.727 239.569 766.553C247.934 782.581 247.927 798.073 243.968 815.401C248.033 817.373 252.117 819.306 256.218 821.2C260.654 819.294 277.631 810.987 282.018 813.62C282.548 813.359 282.931 813.084 283.346 812.661L283.794 812.217C287.788 812.762 289.473 813.172 293.125 815.137C298.032 817.894 302.448 822.67 303.719 828.285C308.933 851.322 291.833 885.986 269.348 894.324C263.749 896.4 252.19 890.036 246.857 887.555L214.591 872.574C211.39 871.08 200.6 865.56 197.876 865.038C188.223 863.185 176.101 864.894 166.136 864.146C158.908 863.603 151.562 868.27 145.082 871.39C135.169 876.14 125.296 880.971 115.463 885.883C104.968 891.084 94.3449 897.577 82.847 890.209C68.746 881.172 59.7034 864.918 55.4573 849.06C52.7884 839.093 52.6261 824.234 61.6671 817.219C64.7829 814.262 68.0936 812.892 72.2534 812.095C73.6186 811.822 74.9951 811.61 76.379 811.458C76.7652 812.357 76.7192 812.57 77.4257 813.141C87.3876 813.626 91.8132 817.014 100.689 820.218C105.171 818.395 108.932 816.581 113.281 814.683C119.466 819.261 125.456 822.628 131.542 826.956C133.786 828.552 138.326 836.09 141.035 838.815C152.849 850.697 169.47 856.153 186.001 853.865C196.748 852.377 203.354 848.759 211.845 842.683C212.141 842.386 212.086 842.402 212.452 842.238C230.755 825.421 237.687 803.644 234.853 779.057C234.675 778.614 234.685 778.663 234.723 778.194C232.745 763.302 227.213 751.583 217.586 740.057C216.918 739.638 214.37 737.09 213.943 736.416C204.156 727.957 195.839 723.46 182.666 722.186C169.887 720.95 156.676 725.267 146.862 733.632C146.191 734.377 143.14 737.571 142.393 738.059C133.74 748.634 130.594 755.398 127.147 768.5C125.454 767.606 124.473 766.839 122.586 766.957C124.044 768.328 130.059 771.018 132.207 772.228C148.875 781.619 182.431 791.038 183.183 814.615C183.386 820.604 181.102 826.41 176.873 830.655C175.534 831.995 174.552 832.746 173.009 833.79C172.454 833.905 172.479 833.89 172.068 834.286C161.278 840.782 150.085 834.893 140.34 829.84C138.348 829.103 137.27 828.633 135.534 827.388C128.636 823.55 116.623 816.684 111.006 811.21C110.13 810.795 109.964 810.705 109.434 809.926C107.616 808.424 106.175 806.792 104.561 805.078C103.952 804.636 103.898 804.474 103.486 803.831C97.8088 795.96 96.9758 792.236 97.6347 782.924C97.8082 782.302 97.7894 782.326 97.8332 781.675C98.8882 760.125 122.755 721.696 140.545 709.594C154.11 715.358 169.741 718.582 184.534 717.88C193.987 717.432 208.655 713.999 216.986 709.303C226.324 704.04 233.83 694.411 241.779 687.176C249.075 680.536 256.145 673.581 263.158 666.643C266.248 663.586 269.661 660.809 272.527 657.552Z"></path><path fill="#222223" d="M293.125 815.137C298.032 817.894 302.448 822.67 303.719 828.285C308.933 851.322 291.833 885.986 269.348 894.324C263.749 896.4 252.19 890.036 246.857 887.555L214.591 872.574C211.39 871.08 200.6 865.56 197.876 865.038C188.223 863.185 176.101 864.894 166.136 864.146C158.908 863.603 151.562 868.27 145.082 871.39C135.169 876.14 125.296 880.971 115.463 885.883C104.968 891.084 94.3449 897.577 82.847 890.209C68.746 881.172 59.7034 864.918 55.4573 849.06C52.7884 839.093 52.6261 824.234 61.6671 817.219L62.4145 817.452C65.7692 817.157 68.7827 816.938 72.0933 817.895C90.5231 823.227 104.992 849.389 105.584 867.393C105.477 869.938 105.468 872.486 105.556 875.032C105.215 882.263 102.746 886.851 98.6405 892.431C105.869 889.67 115.327 884.805 122.451 881.365C132.788 876.373 143.965 871.211 154.07 865.87C155.215 865.09 156.139 864.43 157.492 864.047C163.905 861.861 188.206 863.226 195.918 863.551C198.809 863.672 214.829 871.516 218.596 873.272C229.142 878.27 239.76 883.117 250.445 887.811C251.103 888.735 254.828 890.221 255.991 890.663L256.488 890.734C256.624 889.988 254.36 884.822 254.003 883.247C249.398 862.801 257.573 839.947 272.814 825.858C280.732 818.538 285.113 817.927 295.428 818.382L295.785 817.94C293.796 816.906 293.356 816.775 291.177 816.151C291.91 815.733 292.354 815.505 293.125 815.137Z"></path><path fill="#5F6062" d="M154.07 865.87C155.215 865.09 156.139 864.43 157.492 864.047C156.303 865.215 155.716 865.27 154.07 865.87Z"></path><path fill="#C3C3C3" d="M263.957 893.835C254.498 890.831 253.557 879.89 253.74 871.375C253.964 854.719 260.859 838.85 272.881 827.321C280.33 820.23 292.209 814.131 300.552 823.379C301.47 824.197 301.747 825.233 302.166 826.373C309.985 847.357 289.461 889.13 266.973 893.766C265.739 894.288 265.289 894.106 263.957 893.835Z"></path><path fill="#5F6062" d="M263.957 893.835C265.457 893.554 265.493 893.456 266.973 893.766C265.739 894.288 265.289 894.106 263.957 893.835Z"></path><path fill="#7E7F81" d="M300.552 823.379C301.47 824.197 301.747 825.233 302.166 826.373C301.312 825.339 300.834 824.716 300.552 823.379Z"></path><path fill="#C3C3C3" d="M62.7683 818.704C74.5674 817.086 80.7519 822.204 88.4524 830.26C101.408 843.813 113.46 877.855 96.4606 892.437C69.4345 894.909 40.8216 834.08 62.7683 818.704Z"></path><path fill="#191B20" d="M61.6671 817.219C64.7829 814.262 68.0936 812.892 72.2534 812.095C73.6186 811.822 74.9951 811.61 76.379 811.458C76.7652 812.357 76.7192 812.57 77.4257 813.141C79.7396 814.405 84.7891 816.698 85.9498 819.264C86.2554 819.94 85.9194 821.31 85.0042 821.053C77.2408 818.874 70.3719 811.849 62.4145 817.452L61.6671 817.219Z"></path><path fill="#191B20" d="M283.794 812.217C287.788 812.762 289.473 813.172 293.125 815.137C292.354 815.505 291.91 815.733 291.177 816.151C288.741 816.51 286.752 816.545 284.306 817.203C281.394 817.941 278.313 819.686 275.783 821.299C272.767 823.222 271.548 820.692 273.741 818.522C275.601 816.682 277.855 815.421 280.249 814.382L282.018 813.62C282.548 813.359 282.931 813.084 283.346 812.661L283.794 812.217Z"></path><path fill="#727376" d="M243.968 748.574C244.426 747.19 248.761 742.587 250.045 742.344C249.467 743.239 244.782 748.031 243.968 748.574Z"></path><path fill="#727376" d="M213.943 736.416C215.046 736.522 217.475 738.902 217.586 740.057C216.918 739.638 214.37 737.09 213.943 736.416Z"></path><path fill="#5F6062" d="M105.584 867.393C106.261 870.385 106.256 872.071 105.556 875.032C105.468 872.486 105.477 869.938 105.584 867.393Z"></path><path fill="#5F6062" d="M250.445 887.811C252.231 888.244 254.653 889.402 255.991 890.663C254.828 890.221 251.103 888.735 250.445 887.811Z"></path><path fill="#5F6062" d="M142.393 738.059C143.046 736.506 145.277 734.467 146.862 733.632C146.191 734.377 143.14 737.571 142.393 738.059Z"></path><path fill="#5F6062" d="M135.534 827.388C137.705 828.216 138.413 828.243 140.149 829.684L140.34 829.84C138.348 829.103 137.27 828.633 135.534 827.388Z"></path><path fill="#727376" d="M292.363 698.559C293.011 697.166 293.659 696.808 294.921 695.896C294.152 696.887 293.451 697.919 292.363 698.559Z"></path><path fill="#727376" d="M109.434 809.926C110.431 810.292 110.482 810.262 111.006 811.21C110.13 810.795 109.964 810.705 109.434 809.926Z"></path><path fill="#5F6062" d="M103.486 803.831L103.818 804.008C104.339 804.273 104.36 804.507 104.561 805.078C103.952 804.636 103.898 804.474 103.486 803.831Z"></path><path fill="#7E7F81" d="M142.558 584.605C143.206 584.213 143.733 583.917 144.422 583.599C166.536 573.392 187.282 572.636 210.005 580.649C228.453 588.945 241.401 600.592 249.399 619.465C264.763 659.66 252.576 678.771 222.567 704.065C219.05 707.03 214.285 709.729 210.016 711.297C207.568 712.176 205.068 712.9 202.53 713.465C214.534 705.123 225.583 695.288 216.184 679.552C215.911 679.364 215.896 679.255 215.709 678.934C207.657 669.278 196.695 662.71 183.655 661.226C165.882 659.203 141.598 671.709 139.53 691.121C139.028 695.829 141.243 699.712 143.657 703.597C145.141 704.949 146.549 706.383 147.874 707.892C150.897 710.274 154.702 712.398 158.055 714.269C136.688 709.196 113.268 696.764 104.345 675.627C103.86 674.478 104.111 674.359 103.078 673.461L102.335 674.08C98.4222 663.119 97.95 656.629 99.0145 644.964C99.3765 640.997 103.887 628.509 103.368 626.899L103.333 626.111L104.378 625.448C104.835 623.722 100.393 619.403 99.1957 617.528C85.5682 596.181 109.032 568.801 132.501 577.993C136.143 579.42 138.293 581.621 141.338 583.658L142.056 584.134L142.558 584.605Z"></path><path fill="#191B20" d="M103.333 626.111L104.378 625.448C104.835 623.722 100.393 619.403 99.1957 617.528C85.5682 596.181 109.032 568.801 132.501 577.993C136.143 579.42 138.293 581.621 141.338 583.658L142.056 584.134L142.558 584.605C139.147 586.556 135.652 588.548 132.453 590.828C108.711 607.746 91.9112 645.115 103.078 673.461L102.335 674.08C98.4222 663.119 97.95 656.629 99.0145 644.964C99.3765 640.997 103.887 628.509 103.368 626.899L103.333 626.111Z"></path><path fill="#727376" d="M143.657 703.597C145.141 704.949 146.549 706.383 147.874 707.892C145.623 706.535 145.476 706.398 144.123 704.309L143.657 703.597Z"></path><path fill="#191B20" d="M201.172 645.236C206.691 643.823 212.309 647.15 213.725 652.667C215.14 658.184 211.817 663.805 206.3 665.223C200.78 666.643 195.154 663.316 193.737 657.795C192.321 652.273 195.65 646.65 201.172 645.236Z"></path><path fill="#191B20" d="M146.932 646.867C150.554 646.049 154.335 647.242 156.831 649.991C159.326 652.74 160.149 656.619 158.985 660.145C157.821 663.67 154.849 666.296 151.207 667.018C145.679 668.115 140.297 664.565 139.127 659.052C137.958 653.539 141.435 648.11 146.932 646.867Z"></path><path fill="#7E7F81" d="M219.837 565.738C231.568 556.569 248.285 560.345 258.367 570.077C259.619 571.755 260.749 572.856 262.384 574.167C267.958 580.948 270.708 587.912 269.918 596.768C269.173 604.836 265.149 612.246 258.786 617.263C256.766 618.853 253.887 620.778 251.237 620.589L250.813 620.195L249.399 619.465C241.401 600.592 228.453 588.945 210.005 580.649L210.313 580.24C209.552 575.289 215.676 569.086 219.298 566.158C219.538 565.911 219.529 565.893 219.837 565.738Z"></path><path fill="#191B20" d="M210.313 580.24C212.328 580.353 212.355 579.982 214.141 578.659C230.839 566.292 254.917 575.644 258.453 596.252C260.128 606.012 255.704 612.296 250.813 620.195L249.399 619.465C241.401 600.592 228.453 588.945 210.005 580.649L210.313 580.24Z"></path><path fill="#7E7F81" d="M96.8244 572.805C108.245 563.406 122.232 561.166 134.865 569.921C138.739 572.605 143.915 577.755 143.627 582.757C142.978 583.381 142.782 583.604 142.056 584.134L141.338 583.658C138.293 581.621 136.143 579.42 132.501 577.993C109.032 568.801 85.5682 596.181 99.1957 617.528C100.393 619.403 104.835 623.722 104.378 625.448L103.333 626.111C86.7728 619.668 78.8951 599.635 87.3829 583.945C89.9539 579.193 92.2979 576.742 96.312 573.217C96.5409 572.969 96.5246 572.959 96.8244 572.805Z"></path><path fill="#5F6062" d="M258.367 570.077C260.315 571.551 260.963 572.224 262.384 574.167C260.749 572.856 259.619 571.755 258.367 570.077Z"></path><path fill="#5F6062" d="M237.125 762.667C238.292 763.741 238.93 765.138 239.569 766.553C238.192 764.727 238.125 764.425 237.125 762.667Z"></path><path fill="#C3C3C3" d="M174.079 723.188C207.395 718.927 232.032 752.015 234.16 782.562C236.48 815.865 218.683 850.287 182.406 853.309C167.467 854.553 154.791 849.378 143.593 839.785C139.174 835.577 136.957 832.758 133.551 827.715C144.895 832.478 154.954 841.512 168.429 837.256C174.38 835.398 179.28 831.131 181.939 825.491C189.423 809.98 177.629 794.6 164.673 786.965C159.918 784.164 154.718 781.904 149.746 779.498L128.098 768.852C134.081 744.808 148.19 726.19 174.079 723.188Z"></path><path fill="#C3C3C3" d="M176.687 662.204C188.511 660.967 198.439 665.4 207.59 672.198C226.123 685.966 219.403 703.694 201.22 712.734C194.757 715.948 190.785 716.353 183.625 716.979C170.712 717.252 160.766 716.283 150.215 708.444C128.588 692.374 146.397 671.536 164.878 664.628C169.088 663.055 172.233 662.641 176.687 662.204Z"></path><path fill="#191B20" d="M172.797 669.096C179.942 668.558 194.345 668.717 197.13 676.989C199.488 683.996 189.076 688.088 184.657 690.175L179.394 692.406C175.054 690.531 162.865 685.081 161.729 680.193C159.845 672.08 166.226 670.264 172.797 669.096Z"></path></svg>
