<?xml version="1.0"?>
<svg xmlns="http://www.w3.org/2000/svg" viewBox="551.26 78.85 379.75 237.43" width="379.75" height="237.43"><defs><linearGradient id="gradient_0" gradientUnits="userSpaceOnUse" x1="734.01855" y1="130.6423" x2="706.44373" y2="136.16571"><stop offset="0" stop-color="#080400"></stop><stop offset="1" stop-color="#212644"></stop></linearGradient><linearGradient id="gradient_1" gradientUnits="userSpaceOnUse" x1="745.31549" y1="164.62401" x2="782.32172" y2="97.254173"><stop offset="0" stop-color="black"></stop><stop offset="1" stop-color="#242438"></stop></linearGradient></defs><path fill="#9195A0" d="M750.33 192.08L750.9 191.361C753.036 188.612 756.183 182.49 758.295 179.273C761.432 174.495 764.578 170.384 768.21 165.968C789.575 139.671 816.65 118.587 847.381 104.318C866.908 95.3964 893.276 86.8515 912.798 101.153C918.166 105.086 920.65 110.837 921.308 117.329C923.013 140.198 908.916 171.907 894.808 189.349C878.534 209.47 860.375 219.178 834.744 221.548C829.104 222.026 823.451 222.332 817.793 222.465L818.286 223.976C859.073 240.993 871.899 280.124 826.264 300.797C809.751 308.277 792.281 300.273 779.503 289.309C775.524 285.895 755.219 263.235 754.645 263.028C748.786 298.545 738.003 290.695 732.021 261.584C727.955 240.283 729.34 212.035 737.091 191.967L739.266 188.334C728.575 175.396 740.42 173.017 740.854 167.84L741.521 168.059C742.73 169.383 742.44 168.954 744.821 169.184C745.15 169.351 745.672 169.503 746.018 169.618C753.83 173.096 754.382 182.271 747.909 187.73L750.33 192.08Z"></path><path fill="#1D1D2C" d="M740.854 167.84L741.521 168.059C742.73 169.383 742.44 168.954 744.821 169.184C745.15 169.351 745.672 169.503 746.018 169.618C753.83 173.096 754.382 182.271 747.909 187.73L750.33 192.08C758.68 216.446 758.029 238.026 754.645 263.028C748.786 298.545 738.003 290.695 732.021 261.584C727.955 240.283 729.34 212.035 737.091 191.967L739.266 188.334C728.575 175.396 740.42 173.017 740.854 167.84Z"></path><path fill="#E9E9EA" d="M818.286 223.976C817.076 223.612 815.571 223.378 814.487 222.754C815.734 222.44 816.455 222.448 817.793 222.465L818.286 223.976Z"></path><path fill="#04041D" d="M844.3 137.588C869.635 135.542 874.374 154.58 862.535 173.182C856.189 183.152 847.291 188.123 835.845 190.488C793.647 191.869 807.277 145.393 844.3 137.588Z"></path><path fill="#04041D" d="M791.607 232.553C821.089 230.916 834.139 265.066 814.109 272.965C810.866 273.743 807.397 273.864 804.052 272.337C793.388 267.468 778.622 251.464 783.697 238.812C784.96 235.665 788.435 233.632 791.607 232.553Z"></path><path fill="#9195A0" d="M660.953 222.556C630.839 222.409 601.819 206.313 584.88 181.721C572.931 164.822 559.261 137.55 561.306 116.289C563.437 94.1331 593.717 90.5763 610.737 94.8779C652.646 105.47 691.317 134.733 719.526 166.8C726.138 174.315 731.532 183.709 737.091 191.967C729.34 212.035 727.955 240.283 732.021 261.584C730.527 263.965 728.906 266.347 727.089 268.496C715.939 281.684 706.064 295.616 689.058 301.369C678.717 304.927 667.374 304.128 657.634 299.157C647.748 294.103 638.097 285.083 634.845 274.227C627.373 249.284 651.849 230.246 672.827 223.774C672.603 222.601 662.877 222.891 660.953 222.556Z"></path><path fill="#C0C1C9" d="M660.953 222.556C662.352 222.473 676.291 222.33 676.672 222.829C676.539 223.097 676.336 223.179 676.063 223.276C675.325 223.539 674.554 223.537 673.783 223.631C673.463 223.67 673.145 223.723 672.827 223.774C672.603 222.601 662.877 222.891 660.953 222.556Z"></path><path fill="#04041D" d="M633.613 136.642C667.992 135.432 694.266 181.972 659.511 189.961C624.658 195.129 596.23 142.609 633.613 136.642Z"></path><path fill="#04041D" d="M690.635 232.638C717.469 230.796 703.61 267.552 679.407 273.749C676.279 273.721 673.451 273.74 670.809 271.857C661.819 265.447 662.696 253.696 668.584 245.5C674.056 237.881 681.698 234.231 690.635 232.638Z"></path><path fill="url(#gradient_0)" d="M740.854 167.84C739.112 162.876 738.186 157.507 736.367 152.525C730.483 136.409 722.299 121.874 709.045 110.71C705.378 107.621 697.942 103.627 698.781 99.7166C700.459 98.3417 699.536 98.6558 701.6 98.613C710.144 102.428 726.797 127.886 731.703 137.082C735.143 143.531 741.623 160.935 741.521 168.059L740.854 167.84Z"></path><path fill="url(#gradient_1)" d="M745.674 164.955C749.71 144.421 757.433 129.368 770.189 112.893C773.204 109 781.121 96.9904 786.66 97.9161C787.589 99.4791 787.282 99.1306 787.291 101.235C785.9 103.539 782.043 106.576 779.836 108.196C761.844 121.403 751.452 144.015 747.152 165.371L745.674 164.955Z"></path><path fill="#050507" d="M744.821 169.184L745.362 166.496C745.466 165.982 745.57 165.468 745.674 164.955L747.152 165.371C746.76 166.788 746.423 168.221 746.018 169.618C745.672 169.503 745.15 169.351 744.821 169.184Z"></path></svg>
