<?xml version="1.0"?>
<svg xmlns="http://www.w3.org/2000/svg" viewBox="590.4 377.29 265.57 272.74" width="265.57" height="272.74"><defs><linearGradient id="gradient_3" gradientUnits="userSpaceOnUse" x1="637.2597" y1="550.34509" x2="631.87811" y2="558.79724"><stop offset="0" stop-color="#060605"></stop><stop offset="1" stop-color="#0A0A22"></stop></linearGradient></defs><path fill="#9195A0" d="M718.702 418.866C725.35 403.769 741.201 385.292 759.51 394.3C775.729 402.28 787.254 423.432 793.457 439.691C801.947 463.207 796.728 485.122 786.193 506.834C781.675 516.146 771.473 532.859 763.518 539.73L764.622 540.02C768.727 536.735 773.01 534.762 777.582 532.401C797.764 521.979 822.992 518.009 839.04 537.716C846.166 546.466 847.975 556.141 846.494 567.327C844.646 581.431 837.145 594.178 825.714 602.642C808.308 615.71 786.204 616.44 765.408 613.419C755.296 611.95 739.825 608.385 730.477 604.336C727.963 603.311 728.068 603.016 725.544 603.053C723.949 602.307 717.076 597.716 714.756 596.435C707.178 592.251 701.496 589.739 693.519 586.772L691.39 582.926C674.686 558.057 665.456 518.255 663.274 488.16C661.659 465.883 663.159 430.617 677.914 412.513C681.202 408.479 686.648 405.63 691.9 405.483C703.014 405.171 711.058 412.017 718.702 418.866Z"></path><path fill="#62636E" d="M691.39 582.926C674.686 558.057 665.456 518.255 663.274 488.16C661.659 465.883 663.159 430.617 677.914 412.513C681.202 408.479 686.648 405.63 691.9 405.483C703.014 405.171 711.058 412.017 718.702 418.866C712.278 434.447 706.373 447.323 700.607 463.483C695.592 481.342 691.999 495.312 689.304 513.681C689.226 513.686 688.665 513.648 688.492 513.813C688.294 514.001 688.281 514.464 688.314 514.717C688.336 514.887 688.38 515.055 688.408 515.225C688.54 516.005 688.377 516.557 688.159 517.305C688.07 517.612 687.991 517.922 687.903 518.23C687.714 518.893 687.387 519.433 687.052 520.033C687.521 522.287 687.333 522.672 688.405 524.597L688.422 525.027C688.465 526.43 688.203 536.965 687.973 537.886C686.115 545.335 693.225 579.448 691.39 582.926Z"></path><path fill="#04041D" d="M687.052 520.033C682.929 503.841 682.614 472.163 700.607 463.483C695.592 481.342 691.999 495.312 689.304 513.681C689.226 513.686 688.665 513.648 688.492 513.813C688.294 514.001 688.281 514.464 688.314 514.717C688.336 514.887 688.38 515.055 688.408 515.225C688.54 516.005 688.377 516.557 688.159 517.305C688.07 517.612 687.991 517.922 687.903 518.23C687.714 518.893 687.387 519.433 687.052 520.033Z"></path><path fill="#050507" d="M687.052 520.033C687.387 519.433 687.714 518.893 687.903 518.23C687.991 517.922 688.07 517.612 688.159 517.305C688.377 516.557 688.54 516.005 688.408 515.225C688.38 515.055 688.336 514.887 688.314 514.717C688.281 514.464 688.294 514.001 688.492 513.813C688.665 513.648 689.226 513.686 689.304 513.681C689.245 517.196 688.551 520.953 688.405 524.597C687.333 522.672 687.521 522.287 687.052 520.033Z"></path><path fill="#C0C1C9" d="M763.518 539.73L764.622 540.02C764.034 540.626 760.038 544.09 759.329 543.75C759.227 542.86 762.669 540.452 763.518 539.73Z"></path><path fill="#04041D" d="M739.642 456.08C777.361 453.545 767.932 511.682 734.968 520.427C699.748 525.309 705.458 463.868 739.642 456.08Z"></path><path fill="#04041D" d="M790.837 551.592C792.661 551.38 794.495 551.277 796.331 551.283C814.542 551.208 821.429 568.649 808.394 581.252C801.762 587.665 793.439 587.282 784.875 586.933C743.119 581.818 762.507 557.624 790.837 551.592Z"></path><path fill="#04041D" d="M670.551 575.076C680.265 571.88 683.571 577.524 686.075 585.681C688.518 586.037 691.095 586.373 693.519 586.772C701.496 589.739 707.178 592.251 714.756 596.435C717.076 597.716 723.949 602.307 725.544 603.053C728.068 603.016 727.963 603.311 730.477 604.336L730.126 606.093C739.68 613.113 750.669 623.082 755.247 634.379C756.232 636.81 755.242 640.467 752.344 640.633C727.819 642.035 687.843 615.152 681.499 591.538C676.219 592.626 670.24 592.43 667.069 586.841C665.147 583.454 666.853 580.129 667.882 576.71L668.72 576.03L669.395 575.33C669.781 575.369 669.481 575.38 670.551 575.076Z"></path><path fill="#E9E9EA" d="M725.544 603.053C728.068 603.016 727.963 603.311 730.477 604.336L730.126 606.093C728.629 605.096 727.053 603.997 725.544 603.053Z"></path><path fill="url(#gradient_3)" d="M667.882 576.71C665.388 574.969 659.676 569.003 656.962 566.614C648.824 558.654 639.264 553.807 629.835 548.098C621.98 543.343 604.624 542.729 598.897 538.906C598.405 537.415 598.469 538.183 598.905 536.519C602.649 534.404 610.101 538.393 614.054 539.784C636.004 547.51 652.927 559.063 668.72 576.03L667.882 576.71Z"></path><path fill="#050507" d="M669.395 575.33C664.434 560.938 645.313 538.75 633.369 528.682C630.794 526.511 623.14 523.12 621.671 520.537C621.841 518.912 621.513 519.607 622.81 518.445C632.386 516.942 667.609 564.099 670.551 575.076C669.481 575.38 669.781 575.369 669.395 575.33Z"></path></svg>
