<?xml version="1.0"?>
<svg xmlns="http://www.w3.org/2000/svg" viewBox="154.35 403.71 264.52 267.67" width="264.52" height="267.67"><defs><linearGradient id="gradient_2" gradientUnits="userSpaceOnUse" x1="212.18599" y1="562.68549" x2="203.149" y2="568.46124"><stop offset="0" stop-color="#020101"></stop><stop offset="1" stop-color="#14172C"></stop></linearGradient></defs><path fill="#9195A0" d="M289.578 450.336C298.734 435.445 319.585 411.707 339.359 424.785C353.519 434.15 364.851 458.059 368.605 474.25C375.716 504.927 355.914 549.06 331.588 568.432L332.579 569.074C345.809 560.146 362.615 553.895 378.73 556.92C388.643 558.722 397.412 564.442 403.057 572.789C408.829 581.383 410.876 591.949 408.732 602.077C406.084 615.185 397.278 627.006 386.174 634.287C374.397 642.01 365.102 644.105 351.263 643.032C330.84 641.45 311.236 636.601 292.015 629.536C290.15 628.859 287.903 627.561 285.914 627.676C276.534 619.905 264.283 614.027 253.153 609.105L252.132 608.744C246.226 598.82 239.051 586.714 234.993 575.759C224.534 547.037 221.411 515.442 224.489 485.111C225.491 473.163 228.728 462.549 232.774 451.402C245.492 416.368 271.28 424.859 289.578 450.336Z"></path><path fill="#62636E" d="M252.132 608.744C246.226 598.82 239.051 586.714 234.993 575.759C224.534 547.037 221.411 515.442 224.489 485.111C225.491 473.163 228.728 462.549 232.774 451.402C245.492 416.368 271.28 424.859 289.578 450.336C279.488 465.271 276.659 475.51 269.383 490.496C260.747 512.563 254.159 533.97 251.058 557.45C249.122 574.502 251.166 592.141 253.153 609.105L252.132 608.744Z"></path><path fill="#04041D" d="M251.058 557.45C241.891 548.153 241.383 525.816 244.364 513.898C246.405 505.74 251.112 496.642 258.74 492.403C261.414 490.917 266.392 489.615 269.383 490.496C260.747 512.563 254.159 533.97 251.058 557.45Z"></path><path fill="#C0C1C9" d="M331.588 568.432L332.579 569.074C330.879 570.414 328.506 571.633 326.603 572.761C328.475 570.452 328.929 570.009 331.588 568.432Z"></path><path fill="#04041D" d="M312.194 481.083C345.385 479.381 337.042 534.232 304.137 546.769L303.669 546.861C270.383 553.679 278.252 487.895 312.194 481.083Z"></path><path fill="#04041D" d="M352.302 581.615C359.739 581.086 367.317 581.24 372.868 587.14C375.804 590.226 377.297 594.411 376.977 598.658C376.615 603.881 373.524 609.029 369.572 612.346C362.878 617.963 356.429 617.988 348.375 617.265C331.751 615.564 308.384 605.21 332.107 589.593C338.424 585.434 344.872 582.997 352.302 581.615Z"></path><path fill="#04041D" d="M230.012 595.417C239.418 594.176 243.561 596.716 244.897 606.345L252.132 608.744L253.153 609.105C264.283 614.027 276.534 619.905 285.914 627.676C294.345 634.561 302.267 642.373 309.361 650.615C311.588 653.204 315.59 659.427 311.237 661.88C308.584 663.375 303.584 662.421 300.688 661.742C280.152 656.924 259.83 646.262 246.832 629.277C243.448 625.008 241.657 618.325 238.951 614.08C237.727 612.159 229.474 614.414 226.637 608.905C223.382 602.586 225.852 603.164 225.935 597.591L227.292 596.919L228.482 596.525L230.012 595.417Z"></path><path fill="#050507" d="M225.935 597.591C223.606 595.335 219.237 589.411 216.405 586.425C208.581 578.174 197.791 568.058 188.162 562.006C185.084 560.03 181.749 558.487 178.249 557.422C173.03 555.817 166.304 555.584 163.034 552.239C162.447 550.46 162.354 551.26 163.09 549.741C164.043 549.256 165.034 548.903 166.102 549.237C189.591 556.594 213.067 577.862 227.292 596.919L225.935 597.591Z"></path><path fill="url(#gradient_2)" d="M228.482 596.525C227.978 593.597 225.74 588.785 224.417 586.068C217.148 571.024 206.822 557.661 194.099 546.832C191.278 544.44 184.872 541.285 183.21 538.7C183.674 536.865 183.276 537.724 184.736 536.182C188.944 535.797 194.555 542.672 197.404 545.628C211.648 560.406 222.885 576.017 230.012 595.417L228.482 596.525Z"></path></svg>
