<?xml version="1.0"?>
<svg xmlns="http://www.w3.org/2000/svg" viewBox="156.2 785.15 263.52 180.23" width="263.52" height="180.23"><path fill="#9195A0" d="M285.986 860.54C288.646 859.2 295.259 847.845 297.913 844.903C314.361 826.663 342.751 805.662 368.775 809.963C411.723 817.06 384.942 862.887 362.915 876.995C349.445 885.623 335.962 889.834 320.672 888.879L321.297 889.916C333.127 892.931 346.963 897.938 353.081 909.009C365.393 931.288 340.462 957.374 317.221 950.366C302.395 945.896 296.718 934.781 288.055 923.723C287.237 927.149 286.762 930.5 283.164 931.92C277.597 931.856 276.068 923.721 274.931 919.536C272.11 903.86 270.095 876.454 277.231 861.837C281.233 857.339 269.57 854.447 279.472 846.13L280.489 845.924C281.582 846.369 281.172 846.252 282.379 846.297L283.658 845.081L284.213 845.553C289.386 850.212 289.738 853.845 285.257 859.334C285.521 860.302 285.267 859.907 285.986 860.54Z"></path><path fill="#1D1D2C" d="M280.489 845.924C281.582 846.369 281.172 846.252 282.379 846.297L283.658 845.081L284.213 845.553C289.386 850.212 289.738 853.845 285.257 859.334C285.521 860.302 285.267 859.907 285.986 860.54C294.697 876.426 292.026 906.412 288.055 923.723C287.237 927.149 286.762 930.5 283.164 931.92C277.597 931.856 276.068 923.721 274.931 919.536C272.11 903.86 270.095 876.454 277.231 861.837C281.233 857.339 269.57 854.447 279.472 846.13L280.489 845.924Z"></path><path fill="#C0C1C9" d="M321.297 889.916C320.785 889.828 318.02 889.64 317.91 888.817C318.429 888.178 320.032 888.689 320.672 888.879L321.297 889.916Z"></path><path fill="#04041D" d="M338.115 833.558C362.969 832.114 362.395 860.584 338.352 864.961C313.642 864.962 313.243 839.092 338.115 833.558Z"></path><path fill="#9195A0" d="M240.137 888.981C211.325 888.883 184.333 873.188 172.98 846.346C164.198 825.581 176.158 809.411 198.061 808.892C226.659 808.214 252.997 830.08 269.477 851.613C272.082 855.017 273.944 859.055 277.231 861.837C270.095 876.454 272.11 903.86 274.931 919.536C269.602 930.827 256.927 946.464 244.433 950.095C228.749 954.653 210.345 945.589 206.044 929.419C204.284 922.665 205.318 915.488 208.911 909.505C215.197 898.9 228.952 892.793 240.377 889.78L240.137 888.981Z"></path><path fill="#C0C1C9" d="M240.137 888.981C244.159 888.038 245.724 889.232 240.377 889.78L240.137 888.981Z"></path><path fill="#04041D" d="M218.941 833.633C239.56 832.699 254.034 856.16 230.037 864.43L229.558 864.598C206.588 867.098 194.223 838.872 218.941 833.633Z"></path><path fill="#1D1D2C" d="M279.472 846.13C279.019 844.621 278.736 843.041 278.4 841.506C274.692 824.564 265.555 808.742 251.191 798.687C250.131 797.946 248.87 796.666 249.908 795.46C251.774 793.292 255.243 797.302 256.074 798.26C266.655 810.449 276.272 824.102 279.376 840.259C279.767 842.279 280.243 843.863 280.489 845.924L279.472 846.13Z"></path><path fill="#1D1D2C" d="M283.658 845.081C282.628 831.434 298.966 806.183 308.382 796.878C312.157 793.147 315.412 795.586 311.988 798.744C295.642 809.818 288.209 826.907 284.213 845.553L283.658 845.081Z"></path></svg>
