<?xml version="1.0"?>
<svg xmlns="http://www.w3.org/2000/svg" viewBox="531.81 698.49 424.79 310.85" width="424.79" height="310.85"><path fill="#9195A0" d="M752.703 826.092C758.81 812.422 763.655 806.843 772.725 795.366C799.152 761.981 835.521 734.957 875.034 719.12C892.86 711.976 920.876 706.493 939.354 713.214C948.602 716.578 945.964 725.878 939.868 731.191C932.004 738.044 925.651 748.635 920.13 757.399C897.326 793.038 886.13 847.628 841.079 862.045C836.845 863.32 827.99 864.645 823.664 864.56C837.01 876.251 844.11 889.693 845.439 907.534C846.993 928.404 824.045 943.545 837.387 965.379C833.701 967.483 828.574 966.058 824.08 966.302C814.689 959.71 802.206 960.333 793.748 956.059C773.184 945.666 761.289 923.359 753.763 903.092C752.15 907.081 749.576 915.32 745.818 917.275C744.757 917.82 743.496 917.814 742.439 917.259C737.891 914.901 735.775 906.424 734.577 901.901C733.805 898.675 734.052 896.027 732.733 892.981C730.09 873.175 728.786 855.216 733.577 835.623C734.014 833.835 734.719 830.879 734.624 829.168C735.823 827.11 735.826 826.979 736.26 824.596C737.658 821.575 738.492 820.093 740.24 817.27C739.709 816.755 739.944 817.101 739.601 816.157C734.55 812.328 737.001 806.31 739.875 801.95L741.125 801.866C743.439 801.898 745.204 801.743 747.373 802.518L748.64 802.629C753.6 807.869 752.785 811.765 748.824 817.227C749.901 819.727 751.505 823.792 752.703 826.092Z"></path><path fill="#04041D" d="M752.703 826.092C758.81 812.422 763.655 806.843 772.725 795.366C799.152 761.981 835.521 734.957 875.034 719.12C892.86 711.976 920.876 706.493 939.354 713.214C948.602 716.578 945.964 725.878 939.868 731.191C932.004 738.044 925.651 748.635 920.13 757.399C897.326 793.038 886.13 847.628 841.079 862.045C836.845 863.32 827.99 864.645 823.664 864.56C837.01 876.251 844.11 889.693 845.439 907.534C846.993 928.404 824.045 943.545 837.387 965.379C833.701 967.483 828.574 966.058 824.08 966.302C814.689 959.71 802.206 960.333 793.748 956.059C773.184 945.666 761.289 923.359 753.763 903.092C755.12 899.723 754.143 896.049 756.211 892.983C766.367 910.81 780.514 927.312 800.106 934.601C811.661 938.9 824.775 938.107 827.502 923.731C830.03 912.062 827.667 899.666 822.279 889.097C815.885 876.554 800.582 862.917 787.057 858.684L787.937 857.81C794.338 858.361 798.35 858.098 804.704 857.132C835.068 852.093 852.767 836.155 870.963 812.576C892.538 784.616 892.824 745.225 847.007 752.035C835.346 753.798 826.859 760.168 817.218 766.105C790.758 782.397 770.974 803.512 753.648 828.883C752.88 827.531 752.901 827.63 752.703 826.092Z"></path><path fill="#1D1D2C" d="M741.125 801.866C743.439 801.898 745.204 801.743 747.373 802.518L748.64 802.629C753.6 807.869 752.785 811.765 748.824 817.227C749.901 819.727 751.505 823.792 752.703 826.092C752.901 827.63 752.88 827.531 753.648 828.883C753.67 828.793 756.627 846.232 757.105 847.726C760.091 857.065 754.596 887.555 756.211 892.983C754.143 896.049 755.12 899.723 753.763 903.092C752.15 907.081 749.576 915.32 745.818 917.275C744.757 917.82 743.496 917.814 742.439 917.259C737.891 914.901 735.775 906.424 734.577 901.901C733.805 898.675 734.052 896.027 732.733 892.981C730.09 873.175 728.786 855.216 733.577 835.623C734.014 833.835 734.719 830.879 734.624 829.168C735.823 827.11 735.826 826.979 736.26 824.596C737.658 821.575 738.492 820.093 740.24 817.27C739.709 816.755 739.944 817.101 739.601 816.157C734.55 812.328 737.001 806.31 739.875 801.95L741.125 801.866Z"></path><path fill="#62636E" d="M787.057 858.684C786.646 858.479 785.948 858.272 785.854 857.746C786.207 857.118 787.462 857.575 787.937 857.81L787.057 858.684Z"></path><path fill="#04041D" d="M835.146 780.112C856.186 779.339 854.949 805.021 843.956 816.232C838.182 822.12 834.081 823.48 826.087 823.775C795.885 820.623 806.022 785.167 835.146 780.112Z"></path><path fill="#9195A0" d="M664.542 864.731C620.663 860.841 600.294 821.197 583.842 785.892C578.807 775.086 571.584 764.135 565.789 753.601C559.888 742.877 550.279 734.757 542.566 725.541C539.808 722.291 541.988 715.001 546.403 713.353C564.128 706.738 586.197 710.388 603.792 715.871C644.064 729.622 679.924 753.95 708.069 785.791C718.836 797.902 728.926 810.147 736.26 824.596C735.826 826.979 735.823 827.11 734.624 829.168C734.719 830.879 734.014 833.835 733.577 835.623C728.786 855.216 730.09 873.175 732.733 892.981C734.052 896.027 733.805 898.675 734.577 901.901C728.85 919.104 713.473 946.288 697.194 955.18C688.777 959.778 672.824 957.355 663.865 965.892C662.361 964.248 661.621 963.947 659.251 963.952C655.277 963.959 654.953 963.326 651.831 961.888C660.472 936.321 643.84 931.62 643.694 911.193C643.569 893.644 652.121 877.075 664.542 864.731Z"></path><path fill="#04041D" d="M664.542 864.731C620.663 860.841 600.294 821.197 583.842 785.892C578.807 775.086 571.584 764.135 565.789 753.601C559.888 742.877 550.279 734.757 542.566 725.541C539.808 722.291 541.988 715.001 546.403 713.353C564.128 706.738 586.197 710.388 603.792 715.871C644.064 729.622 679.924 753.95 708.069 785.791C718.836 797.902 728.926 810.147 736.26 824.596C735.826 826.979 735.823 827.11 734.624 829.168C713.593 796.768 679.875 763.245 641.433 753.215C626.177 749.235 607.435 753.499 604.205 771.445C601.551 786.194 609.519 801.362 617.745 813.084C634.526 835.871 653.609 851.779 682.199 856.654C686.24 857.306 690.301 857.831 694.375 858.228C695.741 858.898 696.386 858.329 698.253 859.129C679.486 868.57 665.044 885.898 663.013 907.591C660.674 932.568 672.103 945.078 696.482 931.944C712.295 923.425 723.671 908.298 732.733 892.981C734.052 896.027 733.805 898.675 734.577 901.901C728.85 919.104 713.473 946.288 697.194 955.18C688.777 959.778 672.824 957.355 663.865 965.892C662.361 964.248 661.621 963.947 659.251 963.952C655.277 963.959 654.953 963.326 651.831 961.888C660.472 936.321 643.84 931.62 643.694 911.193C643.569 893.644 652.121 877.075 664.542 864.731Z"></path><path fill="#050507" d="M694.375 858.228C695.266 858.065 699.541 857.537 700.227 857.841C700.335 858.246 698.566 858.961 698.253 859.129C696.386 858.329 695.741 858.898 694.375 858.228Z"></path><path fill="#04041D" d="M651.925 780.162C663.92 780.581 678.415 789.127 682.054 800.993C685.255 811.434 679.544 819.976 669.333 822.789C668.624 822.951 667.917 823.13 667.197 823.286C648.456 827.342 629.792 800.638 641.374 784.9C643.971 781.371 647.835 780.647 651.925 780.162Z"></path><path fill="#1D1D2C" d="M663.865 965.892C658.118 972.335 654.555 976.158 652.654 985.009C651.551 990.14 649.124 996.916 643.708 998.87C639.87 1000.25 634.34 999.93 633.315 995.016C630.082 979.529 646.044 973.137 651.831 961.888C654.953 963.326 655.277 963.959 659.251 963.952C661.621 963.947 662.361 964.248 663.865 965.892Z"></path><path fill="#1D1D2C" d="M837.387 965.379C843.445 971.952 855.127 982.362 854.498 991.754C853.891 1000.82 842.409 1001.34 838.168 994.351C831.781 983.828 833.498 975.758 824.08 966.302C828.574 966.058 833.701 967.483 837.387 965.379Z"></path><path fill="#1D1D2C" d="M747.373 802.518C750.211 790.948 753.929 778.839 759.423 768.246C763.731 759.942 777.65 734.777 786.063 733.012L786.979 733.43C787.244 734.361 787.687 735.298 787.045 736.159C783.906 740.372 777.933 744.835 774.47 748.585C761.025 763.143 752.763 783.587 748.64 802.629L747.373 802.518Z"></path><path fill="#1D1D2C" d="M739.875 801.95C734.979 781.451 727.473 761.623 712.091 746.788C709.443 744.234 703.694 738.74 701.328 735.698C701.388 735.263 701.447 734.828 701.507 734.392C702.948 733.316 702.148 733.612 704.024 733.57C705.852 734.552 708.502 737.028 709.855 738.648C724.301 755.943 737.009 779.918 741.125 801.866L739.875 801.95Z"></path></svg>
