<?xml version="1.0"?>
<svg xmlns="http://www.w3.org/2000/svg" viewBox="361.77 80.1 232.98 328.09" width="232.98" height="328.09"><path fill="#878890" d="M448.331 114.908C448.847 102.683 458.637 100.011 469.2 100.51C482.105 101.121 495.615 88.0969 508.387 89.2685C525.922 90.877 525.635 111.943 530.192 124.514C532.904 131.764 542.026 144.16 534.155 150.875C526.697 157.239 512.437 149.543 505.8 145.634C506.989 149.197 508.955 152.665 510.521 156.113C514.133 164.062 516.625 173.311 517.198 182.023C518.024 186.366 520.379 188.363 521.425 192.783C522.703 199.529 522.573 204.558 522.685 211.387C537.328 230.816 553.001 255.081 549.991 280.9C549.35 286.407 547.419 293.391 547.422 298.704C553.535 300.506 559.894 303.505 563.837 308.608C577.271 325.992 571.368 345.128 558.758 359.889C567.437 360.504 574.538 361.448 580.713 368.548C585.013 373.493 586.751 381.544 580.632 385.915C576.718 388.712 564.094 389.351 559.676 388.116L559.073 388.067C553.432 387.843 548.479 386.663 543.057 385.231C542.886 391.82 542.015 395.202 535.165 397.482C525.606 399.614 517.013 400.185 507.391 397.999C497.853 395.164 497.386 389.232 497.553 380.516L496.528 380.582C494.947 380.794 493.361 380.958 491.771 381.075C491.59 389.746 491.082 393.875 482.512 397.474L481.454 397.616C477.122 398.797 469.482 399.872 465.085 399.12L463.934 399.124C461.18 398.971 458.387 398.655 455.667 398.265C446.135 396.899 446.228 391.665 446.045 383.886C439.085 386.495 434.948 387.323 426.899 388.297C411.935 390.106 392.672 385.847 407.822 367.458C412.886 361.312 421.16 360.077 429.252 359.877C410.269 339.291 410.331 308.335 439.96 298.591C439.809 294.411 438.129 287.592 437.61 283.065C435.66 266.047 441.39 249.24 449.207 234.281C440.739 232.261 436.175 230.368 428.525 225.939C426.639 224.848 422.675 222.277 420.821 221.642C413.29 212.873 410.914 209.032 405.918 198.991C403.438 194.004 397.427 175.858 395.253 173.419C395.163 172.787 395.096 172.151 395.053 171.513C393.128 141.345 419.3 116.695 448.331 114.908Z"></path><path fill="#878890" d="M476.19 241.235C496.676 237.505 513.018 227.118 519.338 205.866C520.396 202.305 519.42 195.781 521.425 192.783C522.703 199.529 522.573 204.558 522.685 211.387C537.328 230.816 553.001 255.081 549.991 280.9C549.35 286.407 547.419 293.391 547.422 298.704C553.535 300.506 559.894 303.505 563.837 308.608C577.271 325.992 571.368 345.128 558.758 359.889C567.437 360.504 574.538 361.448 580.713 368.548C585.013 373.493 586.751 381.544 580.632 385.915C576.718 388.712 564.094 389.351 559.676 388.116L559.073 388.067C553.432 387.843 548.479 386.663 543.057 385.231C542.886 391.82 542.015 395.202 535.165 397.482C525.606 399.614 517.013 400.185 507.391 397.999C497.853 395.164 497.386 389.232 497.553 380.516C500.345 373.109 507.011 372.296 506.438 362.454C506.142 357.372 506.288 350.911 506.023 345.864C505.841 342.403 507.706 328.292 506.576 326.243C497.489 329.401 489.843 329.062 480.912 325.881C480.737 325.389 480.793 325.63 480.728 325.059C480.446 322.605 480.039 320.167 479.51 317.755C476.935 305.591 471.522 301.835 461.493 295.778C449.501 288.535 450.367 274.919 454.46 263.343C457.274 255.382 461.837 249.373 466.678 242.494L466.765 241.684C469.091 241.672 473.873 241.572 476.19 241.235Z"></path><path fill="#B9B9BD" d="M502.696 235.588C514.427 238.513 522.492 244.737 528.866 255.088C534.145 263.661 537.257 273.911 535.068 283.946C532.153 297.311 520.37 296.534 512.558 306.908C508.358 312.486 508.213 323.971 506.576 326.243C497.489 329.401 489.843 329.062 480.912 325.881C480.737 325.389 480.793 325.63 480.728 325.059C480.446 322.605 480.039 320.167 479.51 317.755C476.935 305.591 471.522 301.835 461.493 295.778C449.501 288.535 450.367 274.919 454.46 263.343C457.274 255.382 461.837 249.373 466.678 242.494L466.765 241.684C469.091 241.672 473.873 241.572 476.19 241.235L477.186 242.266C489.108 241.216 491.76 239.974 502.696 235.588Z"></path><path fill="#7E7D84" d="M476.19 241.235L477.186 242.266C474.016 242.677 469.955 242.548 466.678 242.494L466.765 241.684C469.091 241.672 473.873 241.572 476.19 241.235Z"></path><path fill="#4C4C51" d="M547.422 298.704C553.535 300.506 559.894 303.505 563.837 308.608C577.271 325.992 571.368 345.128 558.758 359.889C567.437 360.504 574.538 361.448 580.713 368.548C585.013 373.493 586.751 381.544 580.632 385.915C576.718 388.712 564.094 389.351 559.676 388.116L559.073 388.067C553.432 387.843 548.479 386.663 543.057 385.231C542.075 376.786 532.363 374.352 532.662 365.05C532.845 359.377 533.97 354.745 535.459 349.293C540.028 332.558 545.166 315.949 547.422 298.704Z"></path><path d="M559.073 388.067C560.484 383.795 560.502 378.448 557.858 374.682C557.411 374.046 554.835 371.672 555.701 371.037C559.818 370.645 563.032 383.701 559.676 388.116L559.073 388.067Z"></path><path fill="#312E31" d="M564.945 369.312C572.557 371.982 572.757 380.751 570.583 387.284C568.759 387.305 570.35 384.015 570.391 382.249C570.528 376.357 568.561 373.522 564.945 369.312Z"></path><path d="M576.085 368.393C581.034 371.254 581.996 380.331 579.625 385.259C578.937 384.847 580.082 373.286 577.377 371.304C576.923 370.971 576.245 369.138 576.085 368.393Z"></path><path fill="#4C4C51" d="M535.052 384.854C534.148 383.394 530.402 379.21 531.243 378.341C536.935 382.65 539.256 390.094 535.69 396.495C535.511 396.822 535.336 397.151 535.165 397.482C534.511 396.044 535.117 387.291 535.052 384.854Z"></path><path fill="#4C4C51" d="M507.391 397.999C505.78 393.952 506.21 383.809 508.104 379.909C508.36 382.227 508.283 396.239 507.391 397.999Z"></path><path fill="#4C4C51" d="M518.333 380.846C525.01 383.278 524.81 393.633 522.637 399.205C520.68 398.417 521.587 397.486 521.993 395.247C523.088 389.198 521.684 385.655 518.333 380.846Z"></path><path fill="#B9B9BD" d="M454.461 185.368C453.397 182.299 452.135 179.343 450.551 176.504C435.75 149.98 424.255 171.601 415.684 168.17C414.094 167.533 413.087 166.116 412.391 164.621C409.848 159.167 410.479 151.823 412.676 146.37C414.674 141.409 418.349 137.073 423.36 135.001C437.928 128.978 441.939 145.403 448.122 154.204C454.468 163.237 463.098 172.519 473.389 176.786C479.28 175.095 485.191 170.99 490.784 170.961C502.182 170.901 508.272 174.62 516.228 182.099L517.198 182.023C518.024 186.366 520.379 188.363 521.425 192.783C519.42 195.781 520.396 202.305 519.338 205.866C513.018 227.118 496.676 237.505 476.19 241.235C473.873 241.572 469.091 241.672 466.765 241.684C465.839 241.596 464.918 241.47 464.003 241.306C445.353 237.78 442.588 215.674 448.549 200.993C450.651 195.815 453.514 190.885 454.461 185.368Z"></path><path fill="#4C4C51" d="M480.972 180.624C495.102 181.037 488.305 198.283 483.756 205.365C492.971 222.51 503.073 226.57 512.635 206.801C510.707 218.827 506.782 223.28 494.323 221.386C493.344 226.964 493.151 228.684 489.231 232.721C485.181 235.479 482.251 235.45 477.484 235.917C481.376 234.283 484.637 233.757 488.033 230.791C496.984 222.972 487.07 214.092 481.656 207.641C480.787 208.014 479.902 208.345 479.003 208.635C469.626 211.562 451.092 211.316 459.001 195.009C462.029 188.768 473.958 182.117 480.972 180.624Z"></path><path d="M448.331 114.908C448.847 102.683 458.637 100.011 469.2 100.51C482.105 101.121 495.615 88.0969 508.387 89.2685C525.922 90.877 525.635 111.943 530.192 124.514C532.904 131.764 542.026 144.16 534.155 150.875C526.697 157.239 512.437 149.543 505.8 145.634C504.649 144.275 502.933 143.426 501.596 142.299C486.337 129.431 456.767 136.493 448.331 114.908Z"></path><path fill="#4C4C51" d="M439.96 298.591C441.433 308.852 443.498 319.019 446.143 329.042C449.48 341.346 454.234 354.182 455.588 366.784C456.094 371.49 448.238 378.946 446.045 383.886C439.085 386.495 434.948 387.323 426.899 388.297C411.935 390.106 392.672 385.847 407.822 367.458C412.886 361.312 421.16 360.077 429.252 359.877C410.269 339.291 410.331 308.335 439.96 298.591Z"></path><path fill="#312E31" d="M412.276 369.009C412.282 369.954 410.413 373.465 409.941 373.997C407.562 376.681 410.233 384.709 408.899 386.097C408.189 383.482 406.891 380.35 407.217 377.607C407.535 374.924 410.098 370.677 412.276 369.009Z"></path><path d="M430.811 371.227C431.578 371.433 432.178 371.561 431.335 372.5C427.633 376.623 429.008 382.686 429.468 387.65C425.592 384.775 427.509 374.99 430.811 371.227Z"></path><path d="M420.465 369.931C421.147 370.75 420.724 370.987 420.011 372.005C416.692 376.74 416.753 380.761 417.765 386.16L417.923 387.052C413.057 382.975 416.785 373.868 420.465 369.931Z"></path><path fill="#4C4C51" d="M480.912 325.881C489.843 329.062 497.489 329.401 506.576 326.243C507.706 328.292 505.841 342.403 506.023 345.864C506.288 350.911 506.142 357.372 506.438 362.454C507.011 372.296 500.345 373.109 497.553 380.516L496.528 380.582C494.639 380.57 493.292 380.759 491.624 379.919C488.733 376.043 484.924 372.641 483.203 368.024C480.72 360.986 482.588 353.301 482.29 345.932C482.028 339.433 480.75 332.291 480.912 325.881Z"></path><path fill="#4C4C51" d="M463.934 399.124C463.692 398.312 463.718 398.367 463.236 397.088C461.478 392.423 462.879 383.172 467.153 380.197C467.225 380.198 467.297 380.199 467.369 380.2C467.436 380.295 467.526 380.366 467.449 380.475C462.942 386.853 464.75 391.569 465.085 399.12L463.934 399.124Z"></path><path fill="#4C4C51" d="M481.454 397.616C481.08 395.641 479.316 380.758 480.107 380.067C481.162 380.488 482.472 395.449 482.512 397.474L481.454 397.616Z"></path><path d="M439.339 191.088C444.622 190.723 445.266 192.424 440.152 194.216C432.995 196.724 429.35 201.317 426.186 207.869C422.862 214.647 420.4 196.624 439.339 191.088Z"></path><path d="M489.275 140.809C491.681 142.738 490.99 146.26 489.696 148.669C486.256 155.072 478.748 158.098 472.126 160.077C468.696 158.969 473.356 157.377 474.471 156.929C485.503 152.492 485.478 150.347 489.275 140.809Z"></path><path fill="#4C4C51" d="M457.364 378.971C457.69 379.235 457.605 379.128 457.705 379.298C457.653 379.572 457.39 379.975 457.225 380.163C452.873 385.119 454.493 391.056 454.917 396.843C450.704 391.49 452.401 383.498 457.364 378.971Z"></path><path d="M395.253 173.419C397.427 175.858 403.438 194.004 405.918 198.991C410.914 209.032 413.29 212.873 420.821 221.642C425.401 230.225 427.748 235.468 429.059 246.442C429.965 254.018 427.877 275.304 416.62 276.311C410.055 276.898 403.296 263.827 398.602 260.021C388.316 251.682 373.201 250.218 371.599 233.907C369.774 221.332 377.784 215.603 380.395 204.375C381.657 198.949 380.625 192.84 380.764 187.39C381.081 183.056 391.662 175.79 395.253 173.419Z"></path></svg>
