<?xml version="1.0"?>
<svg xmlns="http://www.w3.org/2000/svg" viewBox="53.9 486.35 302.22 380.66" width="302.22" height="380.66"><path fill="#878890" d="M103.131 614.785C80.5734 580.12 82.2003 545.879 113.221 517.87C117.194 514.284 142.727 494.35 147.09 501.044C146.998 501.958 146.649 503.286 145.956 503.946C114.691 533.722 99.2889 561.759 120.401 603.626C135.479 599.488 141.093 599.164 156.472 601.039C179.756 607.311 187.071 618.411 200.241 637.409C205.186 644.618 210.38 651.653 215.814 658.5C220.603 664.062 232.304 677.234 236.333 682.71C252.854 682.303 262.281 685.804 275.164 696.836C276.314 697.82 279.555 701.444 280.454 702.014C286.394 700.904 295.016 700.547 300.2 704.039C305.558 707.649 308.499 714.476 312.891 719.108C319.606 726.188 330.395 730.424 332.355 741.008C333.123 745.378 333.087 749.851 332.247 754.207C331.026 760.731 327.356 769.7 324.604 775.78C320.774 784.24 315.17 805.11 302.669 793.957C296.174 788.163 294.634 775.658 294.453 767.499C294.434 766.497 294.45 765.494 294.499 764.493C292.271 768.677 289.854 774.386 288.201 778.81C286.226 781.765 285.197 783.367 283.606 786.536C288.282 795.576 289.039 804.017 283.956 813.254C283.327 814.396 280.47 818.735 280.461 819.561C271.857 824.179 266.029 827.753 256.201 829.375C253.168 829.876 245.853 830.466 243.483 831.259C247.394 836.692 248.77 841.549 247.915 848.214C247.331 849.248 246.765 850.292 246.218 851.347C244.358 853.269 238.508 855.651 235.879 856.345L234.902 856.771C229.38 858.542 222.729 859.01 216.959 858.313C199.396 856.194 201.21 841.653 188.768 831.535C172.388 818.214 153.637 815.36 140.598 797.532L140.166 796.929C139.917 796.587 139.669 796.246 139.42 795.904C115.259 788.408 125.997 771.812 122.322 753.946C120.927 747.169 114.362 738.337 110.244 732.648C105.834 734.673 98.2866 742.606 96.274 747.592C93.2578 755.064 95.4861 771.702 101.672 777.337C106.277 781.532 115.027 783.191 117.804 790.685C120.012 795.086 119.397 800.316 115.076 803.204L114.297 803.733C104.717 810.059 76.3367 809.784 74.848 794.019C74.2757 787.959 73.8298 780.433 73.5292 774.263C72.7775 758.835 61.8965 746.985 62.5287 732.027C65.8073 727.23 69.1316 725.61 73.1605 721.723C88.11 707.298 73.956 685.655 74.982 669.183C76.4411 645.759 86.4318 629.94 103.131 614.785Z"></path><path fill="#B9B9BD" d="M202.953 794.959C206.367 774.074 221.628 777.232 234.396 767.672C239.825 763.607 242.764 750.923 242.897 744.457C244.312 730.64 235.636 728.7 229.355 721.52C219.489 710.241 236.501 691.619 250.978 695.628C262.689 698.871 276.713 706.952 275.24 720.725C274.78 725.025 267.999 729.629 265.649 733.022C258.076 743.633 255.576 767.072 268.965 774.155C278.87 779.394 276.927 776.997 283.606 786.536C288.282 795.576 289.039 804.017 283.956 813.254C283.327 814.396 280.47 818.735 280.461 819.561C271.857 824.179 266.029 827.753 256.201 829.375C253.168 829.876 245.853 830.466 243.483 831.259C223.851 828.882 208.013 822.185 202.974 801.338C202.879 799.057 202.916 797.221 202.953 794.959Z"></path><path fill="#4C4C51" d="M250.989 804.072C248.482 803.291 247.094 803.045 244.832 801.693C233.128 794.396 230.614 779.848 248.248 779.444C256.451 779.256 274.718 779.703 267.841 793.894C265.183 799.378 259.405 802.102 253.645 803.776C253.41 807.026 253.468 807.799 252.668 811.015C252.326 812.261 251.384 814.179 251.385 815.15C246.581 821.058 241.456 821.253 234.288 819.849C233.219 819.64 228.106 817.18 228.679 816.034C229.172 815.901 231.422 817.335 232.225 817.595C237.788 819.399 244.467 819.078 248.972 814.965C251.631 812.539 250.968 807.4 250.989 804.072Z"></path><path fill="#4C4C51" d="M251.385 815.15C251.384 814.179 252.326 812.261 252.668 811.015L252.771 812.009C253.604 821.557 266.949 817.782 272.483 816.911L270.573 818.244C263.886 822.941 256.363 821.522 251.385 815.15Z"></path><path d="M147.369 735.138C150.81 715.899 157.193 719.461 171.313 710.61C181.733 704.079 187.027 689.046 202.728 692.96C205.618 693.68 214.496 695.832 212.393 700.638C208.898 708.629 202.784 715.697 199.496 723.94C193.119 740.628 191.895 759.296 184.169 775.557C182.528 779.011 178.708 782.543 175.317 784.254C161.05 791.456 159.285 769.462 154.798 760.79C151.42 751.556 148.009 745.182 147.369 735.138Z"></path><path d="M280.454 702.014C286.394 700.904 295.016 700.547 300.2 704.039C305.558 707.649 308.499 714.476 312.891 719.108C319.606 726.188 330.395 730.424 332.355 741.008C333.123 745.378 333.087 749.851 332.247 754.207C331.026 760.731 327.356 769.7 324.604 775.78C320.774 784.24 315.17 805.11 302.669 793.957C296.174 788.163 294.634 775.658 294.453 767.499C294.434 766.497 294.45 765.494 294.499 764.493C295.405 761.899 295.227 757.518 295.536 754.727C297.246 740.793 295.044 728.345 288.627 715.849C286.363 711.439 281.992 706.121 280.454 702.014Z"></path><path fill="#4C4C51" d="M215.814 658.5C194.481 682.077 131.136 642.701 147.806 610.388C149.555 606.997 152.824 602.37 156.472 601.039C179.756 607.311 187.071 618.411 200.241 637.409C205.186 644.618 210.38 651.653 215.814 658.5Z"></path><path fill="#4C4C51" d="M110.244 732.648C111.03 731.641 118.764 725.619 120.45 724.165C132.19 714.031 136.777 703.58 140.633 689.052L141.056 688.865C141.13 696.969 135.445 708.479 130.979 715.163C135.046 719.93 139.893 725.87 142.684 731.455C144.581 730.868 146.79 733.691 147.369 735.138C148.009 745.182 151.42 751.556 154.798 760.79C153.797 762.134 153.359 762.88 152.219 764.138C151.058 767.507 145.733 773.522 143.57 776.62C138.301 784.166 139.521 787.961 139.42 795.904C115.259 788.408 125.997 771.812 122.322 753.946C120.927 747.169 114.362 738.337 110.244 732.648Z"></path><path fill="#F9F8F8" d="M142.684 731.455C144.581 730.868 146.79 733.691 147.369 735.138C148.009 745.182 151.42 751.556 154.798 760.79C153.797 762.134 153.359 762.88 152.219 764.138C149.475 753.121 146.294 742.219 142.684 731.455Z"></path><path fill="#4C4C51" d="M190.281 780.769C195.503 789.622 194.815 787.893 202.262 794.354L202.953 794.959C202.916 797.221 202.879 799.057 202.974 801.338C201.241 800.147 199.528 798.925 197.837 797.675C194.702 795.371 191.649 792.655 188.695 790.101C189.406 786.916 189.857 784.023 190.281 780.769Z"></path><path fill="#4C4C51" d="M234.372 846.989C232.256 843.776 231.475 842.195 228.206 839.776C226.693 838.658 223.98 838.385 224.081 837.452C225.12 836.36 231.092 839.343 232.224 840.571C236.91 845.657 236.047 849.973 235.879 856.345L234.902 856.771C234.666 853.662 234.583 850.195 234.372 846.989Z"></path><path fill="#4C4C51" d="M114.297 803.733C114.145 803.21 113.862 802.294 113.881 801.747C113.915 800.731 113.713 799.964 113.623 798.998C113.462 797.273 113.091 795.392 112.438 793.763C111.166 790.593 108.711 786.741 105.485 785.286C105.079 785.103 103.762 784.644 103.54 784.267C104.335 783.386 107.484 785.176 108.058 785.581C113.674 789.546 115.003 796.857 115.076 803.204L114.297 803.733Z"></path><path fill="#4C4C51" d="M231.67 831.027C233.542 831.921 235.152 832.86 236.974 833.773C240.762 835.671 245.185 839.965 246.064 844.267C246.578 846.781 246.496 846.177 247.915 848.214C247.331 849.248 246.765 850.292 246.218 851.347C244.496 847.4 245.538 841.759 240.76 837.744C238.671 835.988 236.589 834.75 234.534 833.187L231.67 831.027Z"></path><path fill="#312E31" d="M213.495 738.534C216.929 738.426 219.016 738.203 221.167 741.339C226.312 748.838 225.369 761.018 217.093 765.71C204.152 767.788 202.799 745.814 213.495 738.534Z"></path><path fill="#312E31" d="M277.089 739.89C288.403 740.551 288.439 763.847 278.824 767.165L277.908 767.526C265.924 765.792 266.896 745.838 277.089 739.89Z"></path><path fill="#4C4C51" d="M94.1227 787.411C103.132 789.249 104.904 798.741 103.73 806.469C101.399 806.347 102.522 802.315 102.074 799.751C101.01 793.648 99.3785 791.354 94.1227 787.411Z"></path><path fill="#4C4C51" d="M283.606 786.536C285.197 783.367 286.226 781.765 288.201 778.81C293.598 788.984 305.4 797.455 314.607 803.881C317.754 806.077 322.364 810.465 325.562 812.239C332.796 816.252 337.646 814.771 343.621 821.52C345.897 826.735 348.117 831.396 343.389 835.737L342.573 836.333C338.3 838.418 331.585 840.092 326.909 840.987C303.661 845.437 296.382 830.535 281.031 819.948L280.461 819.561C280.47 818.735 283.327 814.396 283.956 813.254C289.039 804.017 288.282 795.576 283.606 786.536Z"></path><path fill="#4C4C51" d="M337.489 820.933C339.562 821.119 341.54 821.373 343.621 821.52C345.897 826.735 348.117 831.396 343.389 835.737C343.661 829.008 342.386 825.982 337.489 820.933Z"></path><path fill="#312E31" d="M342.573 836.333C341.802 833.616 342.497 831.533 341.286 828.8C339.91 825.696 337.853 822.229 334.595 820.774C334.136 820.569 332.717 820.12 332.382 819.782L332.429 819.596C333.675 818.943 336.451 820.329 337.489 820.933C342.386 825.982 343.661 829.008 343.389 835.737L342.573 836.333Z"></path><path fill="#312E31" d="M318.625 820.371C328.393 821.483 332.318 829.818 330.021 838.826C329.687 838.871 329.42 838.965 329.149 838.855C329.034 838.676 329.707 833.018 329.264 831.226C327.688 824.841 323.499 823.589 318.625 820.371Z"></path></svg>
