<?xml version="1.0"?>
<svg xmlns="http://www.w3.org/2000/svg" viewBox="669.29 596.42 323.2 261.39" width="323.2" height="261.39"><path fill="#878890" d="M692.789 787.946C679.302 765.865 677.292 737.923 692.371 716.404C693.809 713.49 706.199 701.146 704.494 697.486C699.965 687.758 685.543 685.303 687.918 669.18C688.52 665.097 689.761 659.734 691.8 656.312C700.94 640.979 709.126 623.452 720.927 610.136C724.043 606.735 733.407 604.419 737.831 604.846L738.75 605.027C749.56 606.868 751.798 615.99 749.435 625.506C744.407 645.753 727.011 639.972 720.815 662.512C721.267 664.422 721.77 666.938 722.49 668.706C729.752 661.035 738.748 655.081 746.409 647.778C752.227 642.232 756.709 635.801 762.289 630.066C767.254 624.963 773.197 625.449 779.338 628.03C779.976 628.47 780.514 628.808 781.168 629.213C787.417 634.509 790.534 642.611 784.289 649.546C775.197 659.642 753.899 664.522 751.969 679.741C751.751 685.856 762.49 692.035 766.358 699.126C769.889 705.602 770.892 707.71 773.586 715.102C775.222 714.516 776.986 713.95 778.576 713.312C788.878 708.914 795.172 706.874 806.38 705.81C803.913 699.664 800.82 692.227 798.759 686.015C796.188 678.264 799.521 664.946 803.327 657.839C806.701 651.541 812.417 647.447 819.259 645.423L820.28 645.397C827.267 645.124 833.596 646.191 837.276 652.914C838.046 654.783 838.44 655.313 838.505 657.288C840.565 674.623 821.822 669.431 835.923 699.257L837.444 698.956C836.707 695.418 836.749 687.887 837.512 684.41L837.563 682.52C837.659 674.546 844.914 665.297 851.766 661.425L852.583 660.574C854.084 659.025 857.624 655.582 860.117 655.757C860.704 655.798 860.754 655.784 861.123 655.4C866.147 646.329 866.752 636.234 874.893 629.245C888.266 617.798 897.085 623.828 910.634 628.979C920.382 632.685 933.761 624.702 931.347 642.694C955.167 645.848 984.493 670.887 976.009 696.831C982.891 712.761 973.623 714.559 972.37 728.328C971.179 741.407 976.811 755.152 960.565 762.644C953.667 766.022 941.865 764.771 934.402 762.684C933.696 762.81 932.818 762.967 931.768 763.154C919.924 774.196 907.743 788.42 895.875 799.164C889.067 805.328 879.817 812.098 872.94 816.724C835.821 838.146 812.599 849.812 767.846 839.628C739.53 832.204 709.519 812.116 692.789 787.946Z"></path><path d="M934.402 762.684C923.265 760.681 915.333 766.224 905.108 766.014C903.175 765.882 900.458 764.407 899.525 762.686C891.661 748.18 906.046 727.99 917.735 720.219C927.519 713.714 933.246 710.804 941.589 702.751C947.158 697.376 953.245 685.386 958.322 681.943C965.855 680.426 973.264 690.865 976.009 696.831C982.891 712.761 973.623 714.559 972.37 728.328C971.179 741.407 976.811 755.152 960.565 762.644C953.667 766.022 941.865 764.771 934.402 762.684Z"></path><path fill="#4C4C51" d="M692.789 787.946C679.302 765.865 677.292 737.923 692.371 716.404C693.809 713.49 706.199 701.146 704.494 697.486C699.965 687.758 685.543 685.303 687.918 669.18C688.52 665.097 689.761 659.734 691.8 656.312C700.94 640.979 709.126 623.452 720.927 610.136C724.043 606.735 733.407 604.419 737.831 604.846L738.75 605.027C749.56 606.868 751.798 615.99 749.435 625.506C744.407 645.753 727.011 639.972 720.815 662.512C721.267 664.422 721.77 666.938 722.49 668.706C713.591 686.192 717.841 687.461 718.372 704.752C710.605 720.654 697.547 720.779 692.586 739.01C688.94 752.407 698.435 778.281 692.789 787.946Z"></path><path fill="#312E31" d="M737.831 604.846L738.75 605.027C739.784 611.277 727.789 618.782 725.708 617.226L725.708 617.177C727.405 614.5 734.548 615.647 737.831 604.846Z"></path><path fill="#312E31" d="M746.793 610.334C748.598 617.707 740.119 625.214 732.911 625.667C732.904 624.224 735.969 624.198 737.775 623.257C741.751 621.169 744.691 617.537 745.903 613.213C746.239 612.017 746.366 611.508 746.793 610.334Z"></path><path fill="#B9B9BD" d="M873.149 666.771C878.896 666.055 883.329 666.82 889.078 664.972C896.504 662.584 901.908 657.405 908.566 653.977C921.952 647.086 955.249 645.632 957.143 665.954C957.243 667.083 957.308 668.215 957.339 669.348C954.25 674.992 947.143 680.213 941.118 675.831C931.884 669.113 930.706 653.677 914.812 658.117C907.408 660.516 894.856 666.307 890.3 672.391C888.548 674.729 893.468 684.997 893.594 688.278C894.369 708.509 874.606 723.371 855.26 716.336C853.117 715.556 844.878 710.989 844.487 710.959C840.947 708.174 839.065 703.065 837.444 698.956C836.707 695.418 836.749 687.887 837.512 684.41L837.563 682.52C837.659 674.546 844.914 665.297 851.766 661.425L852.583 660.574C854.084 659.025 857.624 655.582 860.117 655.757C860.704 655.798 860.754 655.784 861.123 655.4C865.342 657.441 866.74 657.977 870.146 661.86C870.96 663.387 871.991 665.487 873.149 666.771Z"></path><path fill="#4C4C51" d="M851.766 661.425L852.583 660.574C854.084 659.025 857.624 655.582 860.117 655.757C860.704 655.798 860.754 655.784 861.123 655.4C865.342 657.441 866.74 657.977 870.146 661.86C870.96 663.387 871.991 665.487 873.149 666.771C881.215 683.276 857.714 680.616 850.63 672.865C849.497 668.196 850.088 665.959 851.766 661.425Z"></path><path fill="#B9B9BD" d="M837.563 682.52C837.659 674.546 844.914 665.297 851.766 661.425C850.088 665.959 849.497 668.196 850.63 672.865C844.712 673.683 844.062 678.265 842.304 683.594C841.055 687.382 839.884 683.156 837.563 682.52Z"></path><path fill="#4C4C51" d="M837.563 682.52C839.884 683.156 841.055 687.382 842.304 683.594C844.062 678.265 844.712 673.683 850.63 672.865C844.207 679.303 842.907 684.036 843.524 692.252C843.834 696.39 847.998 699.829 848.032 700.705L847.9 700.759C847.802 700.591 847.704 700.423 847.607 700.255L846.862 700.41C841.387 696.513 841.955 692.786 841.89 686.706C840.337 685.979 838.944 685.371 837.512 684.41L837.563 682.52Z"></path><path fill="#B9B9BD" d="M806.38 705.81C812.591 718.978 816.497 731.091 823.878 744.803C820.989 771.202 790.558 775.795 771.602 763.813C772.952 758.711 775.123 752.768 776.266 748.121C775.079 746.027 775.81 745.363 776.163 742.498C776.84 734.114 776.043 725.159 774.045 716.995L773.586 715.102C775.222 714.516 776.986 713.95 778.576 713.312C788.878 708.914 795.172 706.874 806.38 705.81Z"></path><path fill="#4C4C51" d="M778.576 713.312C780.932 722.381 779.142 733.401 777.846 742.5C777.369 744.291 776.786 746.347 776.266 748.121C775.079 746.027 775.81 745.363 776.163 742.498C776.84 734.114 776.043 725.159 774.045 716.995L773.586 715.102C775.222 714.516 776.986 713.95 778.576 713.312Z"></path><path fill="#4C4C51" d="M767.846 839.628C768.321 838.874 768.813 838.131 769.32 837.398C785.721 813.856 849.882 800.686 872.94 816.724C835.821 838.146 812.599 849.812 767.846 839.628Z"></path><path d="M861.123 655.4C866.147 646.329 866.752 636.234 874.893 629.245C888.266 617.798 897.085 623.828 910.634 628.979C920.382 632.685 933.761 624.702 931.347 642.694C922.826 642.301 914.885 641.763 906.835 645.264C902.87 645.594 898.336 646.189 894.688 647.715C887.933 650.542 882.115 654.498 878.412 660.973C877.912 661.847 877.843 662.081 877.116 662.731L870.146 661.86C866.74 657.977 865.342 657.441 861.123 655.4Z"></path><path fill="#312E31" d="M877.116 662.731C877.843 662.081 877.912 661.847 878.412 660.973C882.115 654.498 887.933 650.542 894.688 647.715C898.336 646.189 902.87 645.594 906.835 645.264C904.837 648.003 905.393 650.267 905.345 650.323C899.711 656.822 885.829 664.684 877.116 662.731Z"></path><path fill="#4C4C51" d="M819.259 645.423L820.28 645.397C827.476 655.366 824.191 663.905 813.008 668.249L814.292 667.305C823.446 660.702 823.695 654.836 819.259 645.423Z"></path><path fill="#4C4C51" d="M779.338 628.03C779.976 628.47 780.514 628.808 781.168 629.213C780.618 638.574 777.221 645.102 766.99 646.323C766.076 646.432 765.445 646.075 764.747 646.706C764.531 646.017 766.374 645.708 766.739 645.665C769.811 645.303 773.359 643.477 775.479 641.225C779.131 637.344 779.413 633.019 779.338 628.03Z"></path><path fill="#4C4C51" d="M838.505 657.288C837.308 661.757 836.335 665.674 831.829 668.07C831.369 668.315 829.34 669.387 828.989 668.67C829.604 667.998 832.087 666.672 833.129 665.849C837.555 662.353 835.534 656.456 837.276 652.914C838.046 654.783 838.44 655.313 838.505 657.288Z"></path><path fill="#F9F8F8" d="M835.923 699.257L837.444 698.956C839.065 703.065 840.947 708.174 844.487 710.959C844.382 711.765 844.417 711.598 843.85 712.24C840.868 712.273 836.934 701.829 835.923 699.257Z"></path><path fill="#312E31" d="M914.791 676.079C918.027 676.053 922.414 677.03 923.25 680.594C925.528 690.305 918.087 696.758 910.318 699.695C892.751 699.838 902.191 679.502 914.791 676.079Z"></path><path fill="#4C4C51" d="M843.595 712.228C846.273 713.57 848.153 715.776 850.454 717.585C857.874 723.414 859.988 726.063 861.915 735.259L862.377 737.508C863.757 744.585 864.429 745.915 867.177 752.183C864.436 749.675 860.18 740.928 858.045 737.214L843.595 712.228Z"></path></svg>
