<?xml version="1.0"?>
<svg xmlns="http://www.w3.org/2000/svg" viewBox="80.84 93.49 213.48 314.39" width="213.48" height="314.39"><defs><linearGradient id="gradient_0" gradientUnits="userSpaceOnUse" x1="103.89207" y1="379.77295" x2="99.249588" y2="380.53018"><stop offset="0" stop-color="#303236"></stop><stop offset="1" stop-color="#535254"></stop></linearGradient></defs><path fill="#B9B9BD" d="M146.838 120.404C151.872 118.51 155.951 114.431 160.552 111.864C175.057 103.773 192.547 101.493 208.24 107.492C217.154 110.846 223.679 116.148 230.858 122.067C228.86 135.132 245.654 141.283 244.942 162.837C243.461 165.937 242.731 176.316 241.911 180.241C239.967 189.551 237.507 196.662 233.302 205.123L233.23 205.552C231.969 213.521 234.08 215.359 228.746 222.055C237.856 241.321 248.705 261.99 244.75 283.437C244.262 286.086 241.728 297.19 242.933 298.674C248.664 300.756 252.991 302.827 257.333 307.321C266.489 316.797 268.122 331.371 263.613 343.417C261.187 349.898 257.407 354.578 253.09 359.929C261.144 360.133 269.66 361.969 274.803 368.019C286.321 381.568 275.061 389.515 260.928 388.684C252.466 388.186 246.572 388.255 238.466 386.13C236.587 388.286 238.418 389.785 236.137 393.657L236.035 393.834L235.365 394.36C233.991 395.472 232.469 396.215 230.878 396.965C226.81 397.769 223.737 398.313 219.553 398.44L218.892 398.431C214.436 398.557 209.436 398.805 205.103 397.772C204.352 397.628 203.612 397.48 202.857 397.354C193.683 393.767 193.352 390.149 192.853 380.841L192.026 380.184L186.403 381.095C186.165 389.755 185.814 394.222 176.55 396.868L175.428 397.179C168.039 399.711 149.85 399.888 142.806 395.26C140.141 393.51 140.212 387.45 140.065 384.433C126.085 389.08 119.942 388.925 105.172 387.469C100.705 385.426 96.5302 381.625 98.8692 376.164C99.6178 373.376 100.97 370.786 102.83 368.577C108.715 361.484 116.165 360.678 124.465 359.828C113.58 346.76 107.734 330.242 116.023 313.869C120.031 305.95 127.24 301.204 135.587 298.605C135.734 296.585 133.041 280.138 132.864 275.777C131.982 254.123 142.904 238.979 151.157 220.438C148.881 217.584 147.661 210.72 147.582 207.052C142.184 197.53 134.95 178.169 135.08 167.252C134.873 166.698 134.532 165.216 134.188 164.851C133.944 164.797 133.904 164.875 133.592 165C133.52 163.118 133.7 162.34 134.013 160.471C134.455 154.382 136.485 147.873 139.432 142.303C142.163 137.142 148.184 131.356 149.372 125.714C149.775 123.802 148.015 121.881 146.838 120.404Z"></path><path fill="#878890" d="M151.157 220.438C162.927 232.779 172.186 232.732 188.665 235.813C176.341 236.069 169.107 237.56 159.71 246.932C149.637 256.978 140.901 281.732 153.257 293.213C159.663 299.165 170.039 301.304 172.92 311.624C174.068 314.643 175.415 324.561 175.995 325.783C185.808 328.613 192.94 329.365 202.605 325.403C202.345 332.446 201.325 339.412 201.039 346.453C200.778 352.918 201.864 360.197 201.099 366.582C200.929 368.002 192.978 379.28 192.026 380.184L186.403 381.095C186.165 389.755 185.814 394.222 176.55 396.868L175.428 397.179C168.039 399.711 149.85 399.888 142.806 395.26C140.141 393.51 140.212 387.45 140.065 384.433C126.085 389.08 119.942 388.925 105.172 387.469C100.705 385.426 96.5302 381.625 98.8692 376.164C99.6178 373.376 100.97 370.786 102.83 368.577C108.715 361.484 116.165 360.678 124.465 359.828C113.58 346.76 107.734 330.242 116.023 313.869C120.031 305.95 127.24 301.204 135.587 298.605C135.734 296.585 133.041 280.138 132.864 275.777C131.982 254.123 142.904 238.979 151.157 220.438Z"></path><path fill="#4C4C51" d="M135.587 298.605C136.565 299.797 139.514 317.888 140.017 320.848C142.565 335.83 153.018 356.277 150.286 371.095C146.269 375.349 142.608 379.073 140.065 384.433C126.085 389.08 119.942 388.925 105.172 387.469C100.705 385.426 96.5302 381.625 98.8692 376.164C99.6178 373.376 100.97 370.786 102.83 368.577C108.715 361.484 116.165 360.678 124.465 359.828C113.58 346.76 107.734 330.242 116.023 313.869C120.031 305.95 127.24 301.204 135.587 298.605Z"></path><path fill="url(#gradient_0)" d="M104.466 371.253C103.821 373.878 100.384 380.515 104.072 381.11C105.549 383.135 105.415 385.211 105.172 387.469C100.705 385.426 96.5302 381.625 98.8692 376.164C101.296 375.358 102.173 373.262 104.466 371.253Z"></path><path fill="#312E31" d="M104.466 371.253C105.215 369.162 109.037 367.551 106.321 371.201C103.944 374.394 103.907 377.334 104.072 381.11C100.384 380.515 103.821 373.878 104.466 371.253Z"></path><path d="M117.93 369.51C117.819 371.104 116.193 371.897 115.203 373.317C112.066 377.818 113.257 382.244 113.82 387.134C112.971 386.679 112.797 386.695 112.535 385.782C110.73 379.5 112.221 373.197 117.93 369.51Z"></path><path d="M127.172 371.39C127.237 371.432 127.604 371.601 127.632 371.747C127.674 371.97 127.411 372.389 127.318 372.551C124.616 377.289 125.824 381.86 125.32 387.016C122.456 383.041 124.112 374.981 127.172 371.39Z"></path><path fill="#4C4C51" d="M202.605 325.403C202.345 332.446 201.325 339.412 201.039 346.453C200.778 352.918 201.864 360.197 201.099 366.582C200.929 368.002 192.978 379.28 192.026 380.184L186.403 381.095C183.885 375.426 181.77 374.662 178.803 370.208C175.041 364.56 177.671 351.133 177.2 344.198C176.928 340.188 175.415 328.519 175.995 325.783C185.808 328.613 192.94 329.365 202.605 325.403Z"></path><path fill="#4C4C51" d="M175.428 397.179C175.234 395.652 174.14 380.632 174.522 380.121C175.202 379.931 175.459 382.289 175.503 382.519C176.376 387.094 176.613 392.26 176.55 396.868L175.428 397.179Z"></path><path fill="#4C4C51" d="M161.77 380.374C161.834 380.929 161.905 381.778 161.655 382.264C159.574 386.309 161.641 395.746 160.295 398.862C157.932 394.701 158.636 384.516 161.77 380.374Z"></path><path fill="#4C4C51" d="M151.699 379.066C151.894 380.581 148.602 382.069 147.832 384.98C146.756 389.042 149.021 393.117 147.362 396.283C146.365 391.829 146.085 390.541 145.78 386.082C147.549 382.208 147.897 381.178 151.699 379.066Z"></path><path fill="#878890" d="M194.698 235.39C209.94 232.286 217.113 233.699 228.746 222.055C237.856 241.321 248.705 261.99 244.75 283.437C244.262 286.086 241.728 297.19 242.933 298.674C248.664 300.756 252.991 302.827 257.333 307.321C266.489 316.797 268.122 331.371 263.613 343.417C261.187 349.898 257.407 354.578 253.09 359.929C261.144 360.133 269.66 361.969 274.803 368.019C286.321 381.568 275.061 389.515 260.928 388.684C252.466 388.186 246.572 388.255 238.466 386.13C236.587 388.286 238.418 389.785 236.137 393.657L236.035 393.834L235.365 394.36C233.991 395.472 232.469 396.215 230.878 396.965C226.81 397.769 223.737 398.313 219.553 398.44L218.892 398.431C214.436 398.557 209.436 398.805 205.103 397.772C204.352 397.628 203.612 397.48 202.857 397.354C193.683 393.767 193.352 390.149 192.853 380.841L192.026 380.184C192.978 379.28 200.929 368.002 201.099 366.582C201.864 360.197 200.778 352.918 201.039 346.453C201.325 339.412 202.345 332.446 202.605 325.403C204.91 307.083 206.748 305.855 221.382 296.28C242.886 282.211 224.732 243.764 204.233 237.628C200.667 236.561 198.563 235.982 194.698 235.39Z"></path><path fill="#4C4C51" d="M227.604 368.302C226.877 353.561 238.169 328.091 239.936 312.464C240.175 310.354 241.891 299.837 242.933 298.674C248.664 300.756 252.991 302.827 257.333 307.321C266.489 316.797 268.122 331.371 263.613 343.417C261.187 349.898 257.407 354.578 253.09 359.929C261.144 360.133 269.66 361.969 274.803 368.019C286.321 381.568 275.061 389.515 260.928 388.684C252.466 388.186 246.572 388.255 238.466 386.13C236.668 384.203 238.009 381.61 236.125 378.858C232.942 374.211 230.291 373.422 227.604 368.302Z"></path><path fill="#312E31" d="M250.126 370.371C255.407 373.533 254.761 382.949 253.719 388.092C252.64 387.053 252.706 382.533 252.777 381.144C252.985 377.052 250.533 373.689 250.126 370.371Z"></path><path fill="#312E31" d="M270.514 369.17C275.251 372.004 275.57 380.251 274.568 385.029C273.271 385.19 273.511 383.641 273.398 382.518C272.831 376.878 272.841 374.456 270.514 369.17Z"></path><path d="M260.722 369.858C266.163 372.644 267.195 382.152 265.272 387.082C264.038 385.87 265.318 380.409 264.241 377.015C263.053 373.272 262.442 373.129 260.722 369.858Z"></path><path fill="#4C4C51" d="M202.857 397.354C202.948 394.51 202.991 391.742 202.867 389.001C202.739 386.168 202.153 382.998 203.43 380.457C203.603 380.112 204.236 380.174 204.36 380.579C204.755 384.385 206.189 394.527 205.103 397.772C204.352 397.628 203.612 397.48 202.857 397.354Z"></path><path fill="#4C4C51" d="M218.892 398.431C218.724 397.507 218.954 397.205 219.151 396.277C220.027 392.15 220.124 387.536 218.017 383.749C217.692 383.165 216.485 381.842 216.603 381.156L216.744 381.046C220.734 381.69 223.202 394 219.553 398.44L218.892 398.431Z"></path><path fill="#7E7D84" d="M233.065 387.755C233.22 388.523 233.518 391.804 233.939 392.147C234.128 392.18 234.037 392.19 234.212 392.117C234.671 391.543 234.757 389.667 234.878 388.906C235.464 391.375 234.893 391.388 236.035 393.834L235.365 394.36C233.991 395.472 232.469 396.215 230.878 396.965C230.472 394.64 229.981 393.821 232.049 392.463C233.268 391.664 232.972 389.114 233.065 387.755Z"></path><path fill="#4C4C51" d="M233.065 387.755C232.072 379.873 227.193 380.583 226.8 378.822C226.84 378.747 226.85 378.7 226.98 378.711C231.52 379.097 233.366 383.017 234.162 386.991C234.272 387.541 234.651 388.363 234.878 388.906C234.757 389.667 234.671 391.543 234.212 392.117C234.037 392.19 234.128 392.18 233.939 392.147C233.518 391.804 233.22 388.523 233.065 387.755Z"></path><path fill="#878890" d="M146.838 120.404C151.872 118.51 155.951 114.431 160.552 111.864C175.057 103.773 192.547 101.493 208.24 107.492C217.154 110.846 223.679 116.148 230.858 122.067C228.86 135.132 245.654 141.283 244.942 162.837C243.461 165.937 242.731 176.316 241.911 180.241C239.967 189.551 237.507 196.662 233.302 205.123L232.937 204.363C231.054 200.361 228.727 191.524 225.394 188.7C211.827 177.207 205.145 181.865 200.345 162.514C195.628 143.493 212.449 138.455 209.25 124.386C207.299 115.806 187.546 108.663 180.447 114.517C154.333 127.615 188.211 148.376 180.777 168.394C176.318 180.402 166.797 179.439 158.085 187.686C150.492 194.873 150.374 197.648 147.582 207.052C142.184 197.53 134.95 178.169 135.08 167.252C134.873 166.698 134.532 165.216 134.188 164.851C133.944 164.797 133.904 164.875 133.592 165C133.52 163.118 133.7 162.34 134.013 160.471C134.455 154.382 136.485 147.873 139.432 142.303C142.163 137.142 148.184 131.356 149.372 125.714C149.775 123.802 148.015 121.881 146.838 120.404Z"></path><path fill="#B9B9BD" d="M134.013 160.471C134.79 163.381 134.917 164.318 135.08 167.252C134.873 166.698 134.532 165.216 134.188 164.851C133.944 164.797 133.904 164.875 133.592 165C133.52 163.118 133.7 162.34 134.013 160.471Z"></path><path fill="#312E31" d="M157.016 150.498C167.654 150.089 169.734 160.173 167.652 168.775L167.49 169.502C166.509 173.724 164.631 175.707 161.09 177.875C147.525 177.812 144.678 157.115 157.016 150.498Z"></path><path fill="#312E31" d="M219.57 149.987C234.521 150.249 233.296 173.585 223.346 177.194L222.464 177.548C209.306 177.217 207.801 156.61 219.57 149.987Z"></path><path fill="#4C4C51" d="M191.372 207.188L190.444 206.794C184.021 204.129 178.741 202.525 175.393 195.285C167.839 178.95 205.992 179.061 208.378 188.286C211.498 200.347 199.602 204.381 192.351 206.994C191.959 207.108 191.75 207.214 191.372 207.188Z"></path><path fill="#4C4C51" d="M191.372 207.188C191.75 207.214 191.959 207.108 192.351 206.994C192.73 211.798 192.358 213.412 193.22 218.551C198.201 222.337 202.869 224.329 209.25 223.914C209.857 223.874 210.728 223.521 211.203 224.095C211.188 224.154 211.174 224.212 211.16 224.271C205.931 227.798 194.788 222.477 192.399 220.904C182.311 227.269 178.628 227.46 168.217 221.759C174.673 223.177 186.363 226.348 190.866 217.748C191.396 216.736 190.671 210.077 191.15 208.081L191.372 207.188Z"></path><path d="M133.592 165C132.833 177.234 134.371 189.356 131.253 201.685C129.976 208.139 121.956 220.082 114.284 217.247C108.575 215.138 104.064 200.92 102.064 195.34C97.9712 183.924 88.8428 169.177 95.0326 157.162C99.5662 147.42 112.474 142.944 119.052 135.306C126.648 126.487 131.607 111.811 146.838 120.404C148.015 121.881 149.775 123.802 149.372 125.714C148.184 131.356 142.163 137.142 139.432 142.303C136.485 147.873 134.455 154.382 134.013 160.471C133.7 162.34 133.52 163.118 133.592 165Z"></path><path d="M230.858 122.067C245.848 112.458 250.895 126.197 257.522 134.928C265.241 145.095 284.684 151.128 283.33 167.52C282.676 179.415 276.623 192.213 272.825 203.401C270.555 210.086 266.568 221.113 257.775 215.915C239.648 205.943 245.726 179.899 244.942 162.837C245.654 141.283 228.86 135.132 230.858 122.067Z"></path></svg>
