<?xml version="1.0"?>
<svg xmlns="http://www.w3.org/2000/svg" viewBox="594.99 197.06 366.72 194.84" width="366.72" height="194.84"><path fill="#878890" d="M835.457 227.115C835.641 226.599 836.156 225.167 836.574 224.809C858.122 206.3 886.842 205.059 908.561 223.362C912.248 221.882 919.186 219.908 922.816 222.371C928.516 226.378 932.237 233.351 936.505 238.576C942.626 246.052 953.267 252.965 953.286 263.637C953.29 265.837 953.706 268.33 953.423 270.702C952.014 282.518 949.282 293.998 948.29 305.923C948.1 308.2 944.71 308.789 942.805 309.219C941.742 322.877 940.593 330.078 929.338 338.896C928.337 339.68 924.623 342.572 923.977 343.387C927.153 345.424 929.574 345.515 933.245 346.054C941.928 347.329 950.319 358.682 943.796 366.533L942.761 367.31C941.182 369.206 937.134 370.51 934.76 371.242C931.78 371.957 929.583 372.335 926.474 372.647L925.076 373.387C924.651 373.994 924.254 374.571 923.805 375.162C919.614 380.355 911.146 382.235 904.72 382.654C896.19 383.21 889.292 378.969 880.713 378.463C864.209 377.49 847.816 379.364 831.338 378.43C822.805 377.882 817.386 376.331 811.689 369.705C800.855 372.795 794.266 373.354 783.077 373.904C782.411 375.343 782.185 375.665 781.252 376.958C779.173 379.201 777.533 379.954 774.679 381.063C757.049 383.897 742.071 379.796 724.545 378.345C714.208 377.49 704.219 378.053 693.915 377.427C691.431 377.277 686.356 376.601 684.528 374.865C678.757 368.944 681.374 361.171 686.872 356.198C679.611 352.792 674.88 348.974 670.46 342.219C670.013 342.813 669.552 343.396 669.075 343.967C656.373 359.055 634.493 360.156 616.782 354.345C612.977 353.096 603.247 349.478 602.988 344.867C603.77 343.766 604.754 343.171 606.121 343.141C618.614 342.933 629.881 345.452 642.234 342.021C663.938 335.994 665.97 321.954 675.123 304.449C683.713 288.021 699.236 275.345 717.476 270.412C725.967 268.922 731.044 268.548 739.717 269.1C753.242 269.96 770.745 275.307 783.758 270.421C787.27 256.006 801.174 255.358 809.554 245.272C814.326 239.529 815.26 230.959 822.691 227.302C827.603 224.886 830.597 225.519 835.457 227.115Z"></path><path fill="#B9B9BD" d="M866.426 334.751C859.173 320.345 866.206 306.832 878.034 298.005C883.988 293.562 888.666 293.62 890.57 285.301C892.999 274.685 893.175 262.653 883.645 255.315C878.595 251.855 874.125 250.131 870.881 244.614C866.301 238.605 872.029 224.013 878.492 221.752C890.775 217.456 908.976 226.479 913.597 238.629C916.957 247.463 912.677 252.797 909.287 260.032C905.283 266.611 906.986 283.606 916.175 285.039C924.439 286.328 927.477 286.096 935.722 289.536C942.15 295 941.584 301.425 942.805 309.219C941.742 322.877 940.593 330.078 929.338 338.896C928.337 339.68 924.623 342.572 923.977 343.387C922.736 343.609 922.368 343.82 921.212 344.397C914.813 347.59 906.926 347.32 899.894 347.572C891.656 348.119 886.522 348.468 878.76 345.335C873.738 342.639 870.15 340.034 866.824 335.298L866.426 334.751Z"></path><path fill="#4C4C51" d="M909.166 296.149C911.722 295.742 915.211 295.599 917.752 295.993C920.206 296.373 922.633 297.625 924.023 299.738C925.481 301.955 925.451 305.557 924.832 307.996C923.595 312.872 919.722 317.821 915.36 320.319C915.097 320.465 914.834 320.611 914.571 320.758C914.284 320.931 913.997 321.105 913.709 321.279C913.727 324.085 913.714 326.892 913.669 329.699C919.674 335.5 923.157 333.987 930.627 332.041C924.192 337.613 920.703 336.704 913.22 333.416L912.733 333.206C910.883 335.262 909.71 336.26 907.492 337.994C902.519 340.783 898.584 342.227 892.715 340.636C892.306 340.525 891.782 340.256 891.608 339.852C891.632 339.647 891.601 339.744 891.702 339.56C892.145 339.277 894.566 339.443 895.002 339.476C900.429 339.906 905.149 336.999 908.956 333.452C912.396 330.247 911.42 326.051 911.446 321.606C891.994 319.831 880.218 300.72 909.166 296.149Z"></path><path d="M783.758 270.421C787.27 256.006 801.174 255.358 809.554 245.272C814.326 239.529 815.26 230.959 822.691 227.302C827.603 224.886 830.597 225.519 835.457 227.115C842.856 231.026 845.13 234.655 847.707 242.64C845.711 250.056 840.887 257.947 839.501 264.899C835.264 286.14 835.439 311.021 814.337 323.658C804.378 329.621 800.498 322.383 800.299 313.447C800.116 305.208 795.794 298.044 791.097 291.466C786.471 284.196 782.888 279.266 783.758 270.421Z"></path><path fill="#4C4C51" d="M717.476 270.412C725.967 268.922 731.044 268.548 739.717 269.1C753.242 269.96 770.745 275.307 783.758 270.421C782.888 279.266 786.471 284.196 791.097 291.466C782.987 296.733 776.623 300.832 766.595 301.65C751.902 302.849 737.3 295.735 726.21 286.589C721.16 282.424 717.965 277.031 717.476 270.412Z"></path><path d="M908.561 223.362C912.248 221.882 919.186 219.908 922.816 222.371C928.516 226.378 932.237 233.351 936.505 238.576C942.626 246.052 953.267 252.965 953.286 263.637C953.29 265.837 953.706 268.33 953.423 270.702C952.014 282.518 949.282 293.998 948.29 305.923C948.1 308.2 944.71 308.789 942.805 309.219C941.584 301.425 942.15 295 935.722 289.536C936.039 285.113 934.488 276.108 933.774 271.458C925.699 274.586 923.783 279.809 918.101 282.223L917.442 281.942C919.403 274.116 926.831 271.607 933.595 269.669C928.277 247.998 923.575 239.971 908.561 223.362Z"></path><path fill="#4C4C51" d="M899.894 347.572C906.926 347.32 914.813 347.59 921.212 344.397C922.368 343.82 922.736 343.609 923.977 343.387C927.153 345.424 929.574 345.515 933.245 346.054C941.928 347.329 950.319 358.682 943.796 366.533L942.761 367.31C941.182 369.206 937.134 370.51 934.76 371.242C931.78 371.957 929.583 372.335 926.474 372.647C927.772 366.422 929.366 364.678 925.458 358.908C919.495 351.79 915.383 349.552 906.001 349.009C905.146 348.959 899.923 348.789 899.645 348.107C899.692 347.82 899.645 348.01 899.894 347.572Z"></path><path fill="#4C4C51" d="M929.335 358.418C934.359 358.349 932.882 369.882 933.745 370.77L934.76 371.242C931.78 371.957 929.583 372.335 926.474 372.647C927.772 366.422 929.366 364.678 925.458 358.908C927.305 358.949 927.746 359.274 929.335 358.418Z"></path><path fill="#312E31" d="M942.761 367.31C942.122 363.2 943.442 360.973 940.271 356.788C939.17 355.336 937.521 354.719 937.053 354.11C937.07 353.769 937.03 353.921 937.149 353.649C938.12 352.963 941.126 355.713 941.769 356.405C944.736 359.599 943.711 362.709 943.796 366.533L942.761 367.31Z"></path><path fill="#312E31" d="M929.335 358.418C927.8 356.716 930.297 355.603 932.264 358.827C934.358 362.258 935.706 366.903 933.745 370.77C932.882 369.882 934.359 358.349 929.335 358.418Z"></path><path fill="#4C4C51" d="M741.675 304.213C757.999 316.084 760.45 327.642 753.831 345.491C753.661 345.95 755.409 347.41 755.694 347.7C765.051 353.53 774.176 347.209 783.165 356.072C784.999 360.692 784.624 360.812 783.95 365.121C782.959 363.424 781 359.659 779.486 358.459C770.743 351.527 751.159 355.306 740.273 355.14C736.193 355.078 732.864 359.27 728.101 358.412C728.899 357.243 733.522 356.969 735.775 355.529C740.335 352.616 744.081 349.186 747.021 344.687C751.506 337.859 753.035 329.507 751.259 321.533C750.277 317.2 745.545 308.185 742.05 305.977L741.675 304.213Z"></path><path fill="#B9B9BD" d="M783.165 356.072C784.415 355.412 803.165 354.495 805.695 354.448C806.883 361.053 807.79 364.228 811.689 369.705C800.855 372.795 794.266 373.354 783.077 373.904L783.118 373.573C784.195 370.777 785.32 368.125 783.95 365.121C784.624 360.812 784.999 360.692 783.165 356.072Z"></path><path fill="#4C4C51" d="M835.78 324.834C843.086 327.911 849.915 331.216 857.757 332.899C859.9 333.358 862.603 333.667 864.628 334.239L866.426 334.751L866.824 335.298C870.15 340.034 873.738 342.639 878.76 345.335C873.375 346.048 867.124 345.883 861.746 345.098C859.344 344.771 856.99 344.153 854.738 343.256C845.167 339.535 840.069 333.812 835.78 324.834Z"></path><path fill="#4C4C51" d="M774.679 381.063C772.755 377.696 774.021 369.705 768.287 366.16C767.039 365.388 765.566 364.711 766.103 363.342C773.224 366.767 778.432 373.057 774.679 381.063Z"></path><path fill="#4C4C51" d="M781.252 376.958C781.232 373.099 781.989 371.988 780.717 367.834C778.984 362.173 776.47 363.494 773.762 361.261L773.759 361.234C780.697 359.992 783.195 368.185 783.118 373.573L783.077 373.904C782.411 375.343 782.185 375.665 781.252 376.958Z"></path><path fill="#312E31" d="M923.805 375.162C922.927 370.385 923.721 364.23 918.017 361.712C917.925 361.672 917.708 361.362 917.702 361.208C918.353 360.697 920.912 362.053 921.556 362.663C924.671 365.617 924.844 369.411 925.076 373.387C924.651 373.994 924.254 374.571 923.805 375.162Z"></path><path fill="#7E7D84" d="M742.05 305.977C738.891 303.509 739.249 301.58 741.675 304.213L742.05 305.977Z"></path><path d="M859.643 280.649C865.775 280.388 873.769 281.605 878.05 286.5C878.433 286.705 878.481 288.416 877.898 288.361C875.443 288.127 871.567 286.786 869.117 286.096C858.69 284.205 855.081 285.481 845.319 285.468C851.016 282.551 853.219 281.658 859.643 280.649Z"></path><path fill="#4C4C51" d="M905.638 366.935C912.297 367.662 915.89 372.116 915.809 378.763C914.853 378.398 915.077 377.926 914.806 376.91C913.317 371.322 910.297 369.59 905.638 366.935Z"></path></svg>
