<?xml version="1.0"?>
<svg xmlns="http://www.w3.org/2000/svg" viewBox="338.3 513.83 340.54 353.28" width="340.54" height="353.28"><path fill="#878890" d="M526.71 565.473C527.85 544.746 545.328 528.076 564.993 523.899C574.735 521.831 582.379 522.08 592.054 524.131C602.712 525.813 616.651 536.369 620.595 546.606C624.514 554.828 627.766 565.322 635.78 569.265C641.609 570.037 650.178 569.622 656.199 569.411C667.103 567.624 668.854 572.257 669.67 582.616C670.843 585.424 669.421 595.837 669.05 599.327C667.255 616.181 653.19 626.195 637.05 628.241C626.744 630.715 617.341 631.627 611.323 641.228C611.045 641.674 610.774 642.125 610.509 642.579C610.253 649.488 611.296 656.216 612.131 663.082C616.885 687.321 615.078 714.572 598.109 733.837C594.524 751.745 591.07 769.652 589.132 787.827C587.959 798.819 589.348 811.446 597.057 819.987C599.643 820.762 601.987 821.414 604.565 822.59C612.162 826.059 621.55 839.201 610.384 844.508C607.972 845.654 604.671 845.941 601.925 846.316C599.838 848.792 597.881 852.036 594.836 852.909L594.391 853.031C591.616 854.45 589.574 854.495 586.473 854.88C579.919 856.237 571.531 856.178 565.887 852.216C564.016 850.879 562.394 849.225 561.096 847.327C559.521 845.065 549.727 827.272 549.787 826.62C550.941 814.183 541.592 801.771 540.061 791.44C538.424 780.397 538.624 769.346 536.828 758.093C520.907 756.731 508.285 753.589 493.123 748.56C490.305 747.626 488.145 746.543 485.237 745.621L484.409 746.14L484.14 746.796C481.235 753.77 475.902 760.071 471.599 765.867C464.28 775.727 448.839 784.44 455.363 798.296C460.365 808.92 464.236 812.155 476.061 813.767C484.574 815.181 493.511 831.553 479.671 835.486C477.654 836.041 475.614 836.512 473.557 836.897C466.563 839.093 454.872 839.345 448.619 835.567C444.047 832.804 440.335 823.361 437.268 818.935C432.931 812.678 428.396 806.865 424.781 800.174C422.406 795.78 421.127 792.221 419.757 787.451C411.912 796.374 414.182 820.113 422.53 826.786C431.212 833.725 446.442 831.705 443.348 850.996C442.335 852.381 441.296 853.916 440.09 855.109C435.531 856.802 432.534 857.654 427.674 858.441C416.161 859.108 404.024 859.044 398.71 846.757C394.471 836.955 393.581 826.613 390.532 816.489C387.508 806.448 382.641 797.059 379.499 787.087C374.645 771.382 391.119 770.336 392.784 757.831C393.427 753 390.99 744.414 389.74 739.461C382.485 710.713 379.964 693.484 395.211 667.238C391.063 664.981 387.301 662.92 383.427 660.259C349.374 636.873 346.298 593.817 368.364 560.849C369.711 558.837 370.903 557.567 373.319 557.226C374.29 558.16 374.749 559.115 374.499 560.501C372.665 570.675 370.642 578.892 371.025 589.502C371.331 600.671 374.4 611.589 379.957 621.282C386.999 633.345 399.492 646.819 413.459 650.529C423.66 644.221 428.152 642.045 440.259 640.296C471.558 637.479 487.297 650.3 521.933 643.176C533.037 640.975 538.322 635.718 537.932 624.22C535.768 621.578 533.582 619.23 531.049 616.831C522.793 609.013 508.939 601.191 509.938 588.009C510.678 578.259 519.776 571.339 526.71 565.473Z"></path><path d="M526.71 565.473C536.149 556.322 541.431 539.579 556.176 539.559C571.974 539.537 566.894 556.524 568.916 565.939C571.979 580.205 582.814 592.68 581.347 607.927C580.145 619.023 572.496 631.15 563.817 638.017C559.817 641.183 550.717 645.995 546.918 640.097C543.208 634.339 542.924 629.592 537.932 624.22C535.768 621.578 533.582 619.23 531.049 616.831C522.793 609.013 508.939 601.191 509.938 588.009C510.678 578.259 519.776 571.339 526.71 565.473Z"></path><path fill="#4C4C51" d="M452.264 737.235C458.076 738.178 480.704 741.922 484.409 746.14L484.14 746.796C481.235 753.77 475.902 760.071 471.599 765.867C464.28 775.727 448.839 784.44 455.363 798.296C460.365 808.92 464.236 812.155 476.061 813.767C484.574 815.181 493.511 831.553 479.671 835.486C477.654 836.041 475.614 836.512 473.557 836.897C466.563 839.093 454.872 839.345 448.619 835.567C444.047 832.804 440.335 823.361 437.268 818.935C432.931 812.678 428.396 806.865 424.781 800.174C422.406 795.78 421.127 792.221 419.757 787.451C422.77 783.689 428.409 778.966 431.94 775.298C443.338 763.459 448.204 752.687 452.264 737.235Z"></path><path fill="#312E31" d="M466.668 822.384C474.087 823.878 475.013 830.549 473.557 836.897C472.864 835.339 472.968 834.224 473.082 832.506C473.48 826.54 470.113 825.936 466.668 822.384Z"></path><path fill="#312E31" d="M475.951 820.005C482.027 822.032 483.302 827.492 481.934 833.184C480.566 833.341 480.995 831.039 481.031 830C481.199 825.137 479.154 823.107 475.951 820.005Z"></path><path fill="#B9B9BD" d="M656.199 569.411C667.103 567.624 668.854 572.257 669.67 582.616C670.843 585.424 669.421 595.837 669.05 599.327C667.255 616.181 653.19 626.195 637.05 628.241C610.531 608.427 618.869 591.393 635.78 569.265C641.609 570.037 650.178 569.622 656.199 569.411Z"></path><path fill="#4C4C51" d="M656.199 569.411C667.103 567.624 668.854 572.257 669.67 582.616C669.573 583.665 670.142 588.728 668.76 588.567C663.156 587.915 654.842 581.735 653.58 576.004C653.019 573.458 655.095 571.192 656.199 569.411Z"></path><path fill="#B9B9BD" d="M456.46 714.767C480.991 709.448 505.116 727.708 530.009 733.614C531.699 741.925 533.978 750.105 536.828 758.093C520.907 756.731 508.285 753.589 493.123 748.56C490.305 747.626 488.145 746.543 485.237 745.621L484.409 746.14C480.704 741.922 458.076 738.178 452.264 737.235C453.728 729.758 455.126 722.268 456.46 714.767Z"></path><path fill="#4C4C51" d="M440.259 640.296C471.558 637.479 487.297 650.3 521.933 643.176C520.587 651.722 512.553 660.884 505.206 665.308C485.254 677.323 455.657 676.172 442.191 655.053C439.27 650.473 438.937 645.463 440.259 640.296Z"></path><path fill="#4C4C51" d="M584.051 745.303C590.086 742.17 593.092 738.148 598.109 733.837C594.524 751.745 591.07 769.652 589.132 787.827C587.959 798.819 589.348 811.446 597.057 819.987C599.643 820.762 601.987 821.414 604.565 822.59C612.162 826.059 621.55 839.201 610.384 844.508C607.972 845.654 604.671 845.941 601.925 846.316C598.047 845.222 599.56 836.634 595.669 834.227C585.135 827.71 575.687 830.94 575.136 814.128C574.531 795.677 578.519 775.128 580.401 756.636C580.736 753.341 581.288 747.398 584.051 745.303Z"></path><path d="M600.689 828.967C608.454 830.355 610.421 837.677 607.179 844.141C605.522 842.594 608.149 839.946 607.071 836.502C605.293 830.816 604.186 832.15 600.689 828.967Z"></path><path fill="#B9B9BD" d="M612.131 663.082C616.885 687.321 615.078 714.572 598.109 733.837C593.092 738.148 590.086 742.17 584.051 745.303C584.55 742.273 587.936 737.911 589.462 734.829C596.412 720.787 597.008 709.546 596.581 694.414C604.632 681.818 609.877 681.372 612.131 663.082Z"></path><path fill="#B9B9BD" d="M592.054 524.131C602.712 525.813 616.651 536.369 620.595 546.606C616.198 543.973 615.466 538.034 608.756 535.995C595.69 532.027 596.303 546.137 586.723 550.437C580.974 553.017 576.133 548.342 574.199 543.192C570.775 533.398 578.039 527.674 586.761 525.606C588.743 525.135 590.174 524.948 592.054 524.131Z"></path><path fill="#4C4C51" d="M427.674 858.441L427.492 857.474C427.229 856.024 427.535 853.532 427.402 851.999C426.96 847.528 424.801 842.546 421.015 839.9C419.937 839.146 419.143 838.483 417.993 837.84C417.366 837.488 416.858 837.104 417.182 836.431L418.08 836.773C426.292 839.659 432.299 851.221 427.674 858.441Z"></path><path fill="#4C4C51" d="M579.084 836.381C582.3 836.099 587.555 841.712 587.845 845.005C588.159 848.579 588.308 851.75 586.473 854.88C586.113 854.648 585.775 854.507 585.566 854.161C585.548 853.63 585.757 852.98 585.869 852.457C587.168 846.387 586.409 840.431 580.184 837.665C579.656 837.43 579.235 836.928 579.084 836.381Z"></path><path fill="#4C4C51" d="M594.391 853.031C593.709 849.214 597.343 843.987 593.012 838.274C591.456 836.223 588.675 835.651 588.707 834.312C590.012 833.326 594.443 837.971 595.026 839.757C595.676 841.747 596.357 843.773 596.89 845.864C596.678 846.59 596.479 847.181 596.25 847.905C595.727 849.558 595.256 851.227 594.836 852.909L594.391 853.031Z"></path><path fill="#312E31" d="M614.216 558.385C625.043 558.135 625.902 576.902 620.102 583.037L619.504 583.705C608.49 583.06 607.176 565.622 613.573 559.074L614.216 558.385Z"></path><path fill="#4C4C51" d="M428.112 834.518C437.347 835.121 440.726 847.279 437.883 854.964C436.974 855.019 438.073 847.349 437.158 844.937C434.917 839.028 433.865 838.131 428.946 835.048L428.112 834.518Z"></path></svg>
