<?xml version="1.0"?>
<svg xmlns="http://www.w3.org/2000/svg" viewBox="722.99 582.01 192.25 292.23" width="192.25" height="292.23"><path fill="#626A70" d="M775.83 657.084C770.995 644.01 770.195 630.439 776.124 617.519C781.011 606.824 789.957 598.517 800.982 594.432C813.417 590.007 827.106 590.743 838.994 596.477C861.271 607.242 869.142 635.345 859.651 657.414C860.625 657.324 860.384 657.396 861.204 657.163C868.92 654.97 878.668 653.136 886.53 655.741C887.458 655.222 888.229 654.208 888.996 653.379C891.165 653.198 893.975 653.474 895.137 651.636C898.678 655.634 901.042 652.958 904.938 661.225C904.816 662.412 904.506 665.653 903.993 666.593C897.504 678.467 893.13 691.309 887.263 703.445C882.619 713.051 876.236 713.477 868.088 707.92L867.368 708.106C866.387 709.443 864.745 710.56 863.37 711.495C866.295 713.902 869.271 716.246 872.297 718.526C880.271 723.851 888.431 735.778 881.952 745.011C877.895 750.792 866.359 751.604 860.08 752.548C864.58 762.804 868.987 773.362 873.767 783.458C864.011 786.096 856.612 787.333 846.587 788.512C839.418 788.778 833.022 790.006 824.911 790.03L815.404 789.891C812.17 789.349 808.08 789.605 804.75 789.435C800.812 789.234 796.947 788.669 793.05 788.355C783.087 787.041 774.287 785.226 764.467 783.111C767.982 772.995 773 762.282 777.399 752.432C752.654 752.155 745.797 734.625 765.2 719.208C766.707 717.363 773.416 713.163 775.606 711.75C768.877 708.377 762.522 704.304 756.647 699.599C747.71 692.436 730.991 673.344 741.124 660.324C747.045 652.716 760.782 654.097 768.853 656.213C770.369 656.61 774.276 657.539 775.83 657.084Z"></path><path fill="#0F1D26" d="M775.83 657.084C770.995 644.01 770.195 630.439 776.124 617.519C781.011 606.824 789.957 598.517 800.982 594.432C813.417 590.007 827.106 590.743 838.994 596.477C861.271 607.242 869.142 635.345 859.651 657.414L858.996 657.929C857.249 659.272 853.543 661.187 851.494 662.482C842.721 668.032 834.757 673.997 829.931 683.407C829.315 684.683 828.333 686.56 827.391 687.615C825.002 686.539 813.125 686.971 810.135 687.158C809.276 686.118 808.414 684.681 807.765 683.493C803.285 678.76 802.229 675.023 795.238 669.492C790.652 665.863 777.386 659.912 775.83 657.084Z"></path><path fill="#A2A4A7" d="M807.765 683.493C815.179 683.312 822.515 683.525 829.931 683.407C829.315 684.683 828.333 686.56 827.391 687.615C825.002 686.539 813.125 686.971 810.135 687.158C809.276 686.118 808.414 684.681 807.765 683.493Z"></path><path fill="#BDBDBF" d="M895.137 651.636C898.678 655.634 901.042 652.958 904.938 661.225C904.816 662.412 904.506 665.653 903.993 666.593C897.504 678.467 893.13 691.309 887.263 703.445C882.619 713.051 876.236 713.477 868.088 707.92L867.368 708.106C866.387 709.443 864.745 710.56 863.37 711.495C866.295 713.902 869.271 716.246 872.297 718.526C880.271 723.851 888.431 735.778 881.952 745.011C877.895 750.792 866.359 751.604 860.08 752.548C859.273 751.301 858.119 749.037 857.707 747.629C853.652 747.325 849.428 746.015 845.757 744.268C824.388 734.101 817.412 708.455 827.391 687.615C828.333 686.56 829.315 684.683 829.931 683.407C834.757 673.997 842.721 668.032 851.494 662.482C853.543 661.187 857.249 659.272 858.996 657.929L859.651 657.414C860.625 657.324 860.384 657.396 861.204 657.163C868.92 654.97 878.668 653.136 886.53 655.741C887.458 655.222 888.229 654.208 888.996 653.379C891.165 653.198 893.975 653.474 895.137 651.636Z"></path><path fill="#CCCBCC" d="M895.137 651.636C898.678 655.634 901.042 652.958 904.938 661.225C904.816 662.412 904.506 665.653 903.993 666.593C897.504 678.467 893.13 691.309 887.263 703.445C882.619 713.051 876.236 713.477 868.088 707.92C868.963 706.832 872.614 703.804 873.815 702.879C885.904 693.564 905.969 668.222 886.53 655.741C887.458 655.222 888.229 654.208 888.996 653.379C891.165 653.198 893.975 653.474 895.137 651.636Z"></path><path fill="#A2A4A7" d="M872.297 718.526C880.271 723.851 888.431 735.778 881.952 745.011C877.895 750.792 866.359 751.604 860.08 752.548C859.273 751.301 858.119 749.037 857.707 747.629C870.215 746.038 878.43 744.183 875.833 728.506C875.142 724.329 873.64 722.265 872.297 718.526Z"></path><path fill="#7A7C82" d="M863.37 711.495C862.888 709.979 865.815 708.197 867.368 708.106C866.387 709.443 864.745 710.56 863.37 711.495Z"></path><path fill="#CCCBCC" d="M775.606 711.75C768.877 708.377 762.522 704.304 756.647 699.599C747.71 692.436 730.991 673.344 741.124 660.324C747.045 652.716 760.782 654.097 768.853 656.213C770.369 656.61 774.276 657.539 775.83 657.084C777.386 659.912 790.652 665.863 795.238 669.492C802.229 675.023 803.285 678.76 807.765 683.493C808.414 684.681 809.276 686.118 810.135 687.158C811.976 691.346 813.159 694.394 814.107 698.872C818.601 720.097 804.698 743.384 782.716 747.059L781.869 747.254C777.024 748.348 780.081 748.113 777.399 752.432C752.654 752.155 745.797 734.625 765.2 719.208C766.707 717.363 773.416 713.163 775.606 711.75Z"></path><path fill="#A2A4A7" d="M765.2 719.208C765.299 721.149 764.746 721.246 764.03 722.787C759.915 731.651 761.028 743.647 772.001 746.463C775.047 747.245 779.574 747.225 782.716 747.059L781.869 747.254C777.024 748.348 780.081 748.113 777.399 752.432C752.654 752.155 745.797 734.625 765.2 719.208Z"></path><path fill="#A2A4A7" d="M793.05 788.355C796.947 788.669 800.812 789.234 804.75 789.435C808.08 789.605 812.17 789.349 815.404 789.891C814.977 794.254 814.033 825.28 815.102 827.892C812.789 828.017 795.991 827.673 795.554 828.279C795.262 828.683 795.225 829.458 795.155 829.897C794.617 828.318 794.49 820.216 794.037 817.748C792.226 807.884 792.771 798.312 793.05 788.355Z"></path><path fill="#A2A4A7" d="M824.911 790.03C833.022 790.006 839.418 788.778 846.587 788.512C847.75 801.201 846.774 811.775 844.937 824.248C844.715 825.751 844.562 826.937 844.535 828.458C838.476 827.662 830.895 828.178 824.491 827.732C826.121 824.893 825.034 795.459 824.911 790.03Z"></path><path fill="#0F1D26" d="M824.491 827.732C830.895 828.178 838.476 827.662 844.535 828.458C844.246 835.072 841.735 844.671 838.866 850.196C833.439 860.647 822.685 866.239 821.926 850C821.691 844.973 821.152 831.518 824.491 827.732Z"></path><path fill="#0F1D26" d="M815.102 827.892C819.024 831.788 818.989 852.894 815.99 857.745C812.532 863.338 806.48 857.958 803.665 854.348C798.062 847.165 796.687 838.58 795.155 829.897C795.225 829.458 795.262 828.683 795.554 828.279C795.991 827.673 812.789 828.017 815.102 827.892Z"></path><path fill="#626A70" d="M888.996 653.379C892.735 640.129 895.083 624.564 898.388 611.054C899.295 607.349 900.774 598.602 902.11 595.651C903.805 594.271 902.908 594.534 904.728 594.348C907.241 597.154 903.516 611.119 902.722 615.244C900.457 627.428 897.928 639.561 895.137 651.636C893.975 653.474 891.165 653.198 888.996 653.379Z"></path></svg>
