<?xml version="1.0"?>
<svg xmlns="http://www.w3.org/2000/svg" viewBox="370.15 606.41 281.13 238.67" width="281.13" height="238.67"><path fill="#626A70" d="M522.34 691.67C523.609 692.887 524.701 691.641 526.301 690.908C526.238 692.683 526.084 692.928 526.566 694.451C531.292 690.783 534.996 692.333 540.243 694.535L541.001 695.081C543.614 696.942 547.071 698.726 549.587 700.59C558.794 707.409 576.503 720.708 583.605 729.545C598.185 747.161 612.92 769.246 596.473 790.718C603.839 792.765 611.422 793.381 618.743 795.617C620.697 796.214 622.016 796.422 623.074 798.234C624.341 799.338 622.791 804.503 623.2 804.727C624.963 805.693 632.174 809.502 633.65 809.682C638.19 810.236 643.281 816.931 637.736 818.949C631.436 821.243 617.371 820.151 610.728 817.959C588.648 822.43 566.69 833.712 543.865 836.064C533.948 837.087 532.041 827.895 526.612 826.805C521.519 826.117 521.356 825.905 517.254 823.141C515.533 819.86 514.373 816.51 512.934 813.076C509.01 811.543 503.287 808.227 500.082 805.502L504.918 800.999C515.072 791.449 542.75 765.125 531.767 750.409C527.731 745.002 520.995 736.347 516.263 731.518C516.087 730.276 516.139 730.865 516.582 729.736C520.658 719.357 524.803 712.766 511.761 708.264C514.179 706.099 516.435 703.866 518.753 701.597C519.822 698.973 521.258 696.2 521.98 693.481C522.192 692.684 521.889 692.635 522.34 691.67Z"></path><path fill="#CCCBCC" d="M596.473 790.718C603.839 792.765 611.422 793.381 618.743 795.617C620.697 796.214 622.016 796.422 623.074 798.234C624.341 799.338 622.791 804.503 623.2 804.727C624.963 805.693 632.174 809.502 633.65 809.682C638.19 810.236 643.281 816.931 637.736 818.949C631.436 821.243 617.371 820.151 610.728 817.959C588.648 822.43 566.69 833.712 543.865 836.064C533.948 837.087 532.041 827.895 526.612 826.805C529.173 826.16 527.394 824.827 527.369 822.501C527.32 817.916 525.191 816.935 529.821 816.315C549.376 817.258 563.388 813.711 580.44 804.615C581.927 803.443 589.345 797.466 590.707 797C591.652 794.801 594.476 791.873 596.473 790.718Z"></path><path fill="#0F1D26" d="M596.473 790.718C603.839 792.765 611.422 793.381 618.743 795.617C620.697 796.214 622.016 796.422 623.074 798.234C624.341 799.338 622.791 804.503 623.2 804.727C624.963 805.693 632.174 809.502 633.65 809.682C638.19 810.236 643.281 816.931 637.736 818.949C631.436 821.243 617.371 820.151 610.728 817.959C608.742 812.997 605.969 804.73 603.125 800.441C600.13 801.125 597.081 801.68 594.168 802.665C593.047 800.691 592.004 798.876 590.707 797C591.652 794.801 594.476 791.873 596.473 790.718Z"></path><path fill="#A2A4A7" d="M580.44 804.615C581.927 803.443 589.345 797.466 590.707 797C592.004 798.876 593.047 800.691 594.168 802.665C591.188 803.609 583.636 804.445 580.44 804.615Z"></path><path fill="#A2A4A7" d="M512.934 813.076C521.811 815.562 521.734 814.986 529.821 816.315C525.191 816.935 527.32 817.916 527.369 822.501C527.394 824.827 529.173 826.16 526.612 826.805C521.519 826.117 521.356 825.905 517.254 823.141C515.533 819.86 514.373 816.51 512.934 813.076Z"></path><path fill="#A2A4A7" d="M522.34 691.67C523.609 692.887 524.701 691.641 526.301 690.908C526.238 692.683 526.084 692.928 526.566 694.451C525.632 696.272 520.85 700.468 518.753 701.597C519.822 698.973 521.258 696.2 521.98 693.481C522.192 692.684 521.889 692.635 522.34 691.67Z"></path><path fill="#CCCBCC" d="M455.385 684.974C440.331 666.084 448.435 639.506 466.198 625.435C475.822 617.827 488.104 614.415 500.274 615.969C512.951 617.525 524.463 624.135 532.198 634.3C543.832 649.473 544.892 671.184 531.852 685.771C530.042 687.796 528.28 689.114 526.301 690.908C524.701 691.641 523.609 692.887 522.34 691.67C521.889 692.635 522.192 692.684 521.98 693.481C521.258 696.2 519.822 698.973 518.753 701.597C516.435 703.866 514.179 706.099 511.761 708.264C524.803 712.766 520.658 719.357 516.582 729.736C516.139 730.865 516.087 730.276 516.263 731.518C508.919 743.978 492.567 755.568 478.503 759.186C471.996 760.859 465.444 761.041 458.984 762.314C453.149 763.464 449.757 767.273 442.979 765.8C441.897 764.585 440.565 764.182 439.045 762.888C432.789 756.251 435.479 749.397 443.725 746.462C445.326 746.463 449.076 746.831 449.528 745.056C450.953 746.902 455.242 745.424 457.353 745.011C478.276 740.927 491.867 729.202 503.212 711.68C488.379 714.221 474.382 711.193 464.284 699.64C460.272 695.05 458.102 690.348 455.385 684.974Z"></path><path fill="#0F1D26" d="M455.385 684.974C440.331 666.084 448.435 639.506 466.198 625.435C475.822 617.827 488.104 614.415 500.274 615.969C512.951 617.525 524.463 624.135 532.198 634.3C543.832 649.473 544.892 671.184 531.852 685.771C530.042 687.796 528.28 689.114 526.301 690.908C524.701 691.641 523.609 692.887 522.34 691.67C522.84 684.13 520.422 667.142 514.864 661.579C507.486 655.216 503.576 662.621 498.708 664.779C482.838 671.814 468.784 666.691 458.118 656.85C456.497 664.329 455.381 677.309 455.385 684.974Z"></path><path fill="#0F1D26" d="M479.434 685.795C481.308 685.509 483.189 686.259 484.352 687.756C485.515 689.252 485.777 691.261 485.037 693.006C484.297 694.751 482.671 695.958 480.787 696.163C477.959 696.469 475.406 694.46 475.038 691.64C474.67 688.82 476.623 686.224 479.434 685.795Z"></path><path fill="#A2A4A7" d="M540.243 694.535C544.82 672.877 553.274 654.098 572.311 641.104C577.456 637.592 584.752 635.106 591.082 636.712C614.418 644.223 600.833 672.416 592.563 684.865C600.848 685.032 613.552 686.917 618.36 692.882C632.391 710.288 605.513 725.149 590.961 727.492C588.965 727.814 584.713 728.849 583.605 729.545C576.503 720.708 558.794 707.409 549.587 700.59C547.071 698.726 543.614 696.942 541.001 695.081L540.243 694.535Z"></path><path fill="#626A70" d="M439.045 762.888C440.565 764.182 441.897 764.585 442.979 765.8C442.67 766.69 442.312 767.592 442.095 768.509C442.017 768.835 441.955 769.165 441.875 769.491C441.811 769.757 441.729 770.018 441.661 770.283C440.506 774.829 432.125 803.277 429.551 804.66C429.043 804.932 428.567 804.991 428.015 804.837C427.458 804.683 426.727 804.272 426.5 803.704C425.398 800.955 437.345 768.349 438.902 763.355L439.045 762.888Z"></path><path fill="#CCCBCC" d="M404.122 813.092C407.478 812.447 410.732 814.607 411.44 817.95C412.148 821.293 410.049 824.588 406.72 825.358C404.51 825.87 402.196 825.148 400.669 823.471C399.142 821.793 398.64 819.422 399.356 817.27C400.072 815.118 401.895 813.52 404.122 813.092Z"></path><path fill="#CCCBCC" d="M456.139 788.371C462.028 788.678 464.517 793.477 460.252 797.697L459.624 798.331C452.591 799.368 451.993 793.364 455.562 789.091L456.139 788.371Z"></path><path fill="#CCCBCC" d="M446.684 713.539C448.525 713.611 451.929 713.657 452.991 715.277C454.829 718.078 453.759 719.869 451.572 721.397C450.076 721.783 444.868 722.9 444.594 720.719C444.124 716.967 443.332 714.908 446.684 713.539Z"></path><path fill="#CCCBCC" d="M381.736 807.197C383.376 806.614 385.204 806.993 386.477 808.18C387.75 809.367 388.256 811.164 387.788 812.84C387.321 814.517 385.958 815.793 384.254 816.15C381.855 816.653 379.476 815.21 378.812 812.85C378.148 810.49 379.426 808.019 381.736 807.197Z"></path><path fill="#CCCBCC" d="M430.276 819.335C432.514 818.189 435.258 819.03 436.47 821.234C437.682 823.438 436.922 826.205 434.755 827.482C433.295 828.342 431.483 828.34 430.025 827.477C428.567 826.613 427.694 825.025 427.746 823.332C427.798 821.638 428.767 820.106 430.276 819.335Z"></path><path fill="#CCCBCC" d="M421.426 772.765C423.044 772.491 424.683 773.121 425.7 774.409C426.718 775.697 426.951 777.438 426.31 778.948C425.668 780.459 424.253 781.499 422.62 781.661C420.212 781.901 418.047 780.189 417.725 777.79C417.403 775.392 419.04 773.17 421.426 772.765Z"></path><path fill="#626A70" d="M443.725 746.462C445.165 743.078 446.376 738.128 448.664 735.309C448.938 734.973 451.955 735.172 451.998 736.029C452.12 738.47 450.32 742.779 449.528 745.056C449.076 746.831 445.326 746.463 443.725 746.462Z"></path><path fill="#CCCBCC" d="M401.987 789.267C403.243 788.5 404.813 788.467 406.1 789.179C407.387 789.892 408.193 791.241 408.209 792.712C408.225 794.183 407.451 795.549 406.18 796.29C404.243 797.42 401.757 796.779 400.608 794.853C399.459 792.928 400.074 790.437 401.987 789.267Z"></path><path fill="#CCCBCC" d="M448.519 807.81C450.213 806.858 452.356 807.425 453.358 809.09C454.36 810.755 453.858 812.915 452.224 813.966C451.122 814.674 449.722 814.728 448.57 814.105C447.418 813.483 446.696 812.282 446.685 810.973C446.674 809.663 447.377 808.451 448.519 807.81Z"></path><path fill="#CCCBCC" d="M468.939 715.918C470.59 715.902 474.053 715.142 474.177 717.67C474.321 720.602 474.994 720.195 473.833 722.946C467.675 723.27 467.151 721.286 468.939 715.918Z"></path><path fill="#CCCBCC" d="M435.153 729.911C439.016 729.945 443.348 730.147 440.829 735.133L440.429 735.976C435.677 736.399 432.872 734.908 435.153 729.911Z"></path><path fill="#CCCBCC" d="M415.946 800.943C421.09 802.629 419.517 805.193 415.988 807.619C411.246 805.512 412.497 803.626 415.946 800.943Z"></path><path fill="#CCCBCC" d="M458.927 728.234C464.708 728.574 463.861 730.799 460.867 734.009C455.917 736.192 457.247 730.894 458.927 728.234Z"></path></svg>
