<?xml version="1.0"?>
<svg xmlns="http://www.w3.org/2000/svg" viewBox="57.36 591.64 309.88 247.97" width="309.88" height="247.97"><path fill="#626A70" d="M190.283 691.358C197.247 686.77 207.357 681.122 215.633 685.754C218.187 688.016 231.335 693.641 234.821 695.071C238.471 697.863 239.585 699.709 241.435 703.951C243.979 706.368 275.758 707.747 281.102 707.494C290.451 707.052 292.479 701.436 301.002 708.222C301.489 709.388 302.509 712.185 303.238 713.023C304.582 717.904 301.714 726.205 296.505 726.462C276.012 727.475 256.267 726.464 236.063 722.76C233.624 728.262 228.063 735.268 224.582 740.301C218.522 749.063 210.746 758.354 205.022 767.188C196.362 780.554 188.077 795.651 180.223 809.537C173.843 805.718 163.291 796.223 157.274 790.855L140.488 775.353L138.173 772.962C132.798 767.323 127.888 761.259 123.49 754.829C117.234 744.247 113.799 736.395 109.517 724.963C125.896 721.59 145.071 718.171 161.069 714.133C161.78 713.929 162.491 713.73 163.204 713.534C164.634 712.071 171.455 706.879 173.545 705.211C179.186 700.67 184.766 696.052 190.283 691.358Z"></path><path fill="#CCCBCC" d="M236.063 722.76C233.34 721.584 229.71 721.102 226.665 720.289C219.014 718.108 204.908 715.306 198.557 711.045C190.169 705.418 191.62 691.428 205.013 693.605C211.715 694.695 237.691 705.282 241.435 703.951C243.979 706.368 275.758 707.747 281.102 707.494C290.451 707.052 292.479 701.436 301.002 708.222C301.489 709.388 302.509 712.185 303.238 713.023C304.582 717.904 301.714 726.205 296.505 726.462C276.012 727.475 256.267 726.464 236.063 722.76Z"></path><path fill="#0F1D26" d="M214.554 677.183C185.699 661.004 192.712 620.311 219.76 606.226C230.538 600.699 243.059 599.644 254.609 603.289C271.599 608.702 284.607 623.592 285.859 641.571C286.498 650.751 283.924 658.198 281.02 666.794C279.975 672.277 279.414 675.951 275.763 680.5C266.524 692.011 249.847 695.827 235.968 691.84C235.597 692.921 235.215 693.998 234.821 695.071C231.335 693.641 218.187 688.016 215.633 685.754C216.245 683.147 216.767 682.627 218.339 680.456C217.471 678.877 216.088 678.21 214.554 677.183Z"></path><path fill="#CCCBCC" d="M226.446 647.544C244.635 648.847 257.869 645.041 267.577 629.047C271.639 643.711 276.83 653.379 281.02 666.794C279.975 672.277 279.414 675.951 275.763 680.5C266.524 692.011 249.847 695.827 235.968 691.84C235.597 692.921 235.215 693.998 234.821 695.071C231.335 693.641 218.187 688.016 215.633 685.754C216.245 683.147 216.767 682.627 218.339 680.456C217.471 678.877 216.088 678.21 214.554 677.183C214.23 671.534 214.346 668.922 215.363 663.389C211.678 661.072 209.011 658.952 208.557 654.348C208.292 651.361 209.291 648.399 211.31 646.182C216.327 640.69 222.009 642.982 226.446 647.544Z"></path><path fill="#A2A4A7" d="M218.339 680.456C219.441 679.337 224.493 684.713 226.301 685.947C229.587 688.191 232.828 689.739 235.968 691.84C235.597 692.921 235.215 693.998 234.821 695.071C231.335 693.641 218.187 688.016 215.633 685.754C216.245 683.147 216.767 682.627 218.339 680.456Z"></path><path fill="#0F1D26" d="M262.414 667.639C264.096 666.742 266.129 666.819 267.739 667.839C269.348 668.859 270.285 670.666 270.192 672.569C270.099 674.472 268.991 676.179 267.289 677.037C264.7 678.344 261.54 677.323 260.205 674.748C258.869 672.173 259.854 669.003 262.414 667.639Z"></path><path fill="#0F1D26" d="M240.91 657.185C243.717 656.382 246.641 658.014 247.431 660.824C248.221 663.634 246.575 666.551 243.762 667.328C240.967 668.099 238.073 666.467 237.288 663.675C236.503 660.884 238.122 657.983 240.91 657.185Z"></path><path fill="#CCCBCC" d="M144.269 667.883C140.229 656.67 135.945 645.754 135.899 633.614C135.494 624.04 140.654 611.119 152.358 612.583C168.681 614.625 181.18 632.85 186.575 646.992C189.835 655.538 192.689 664.274 192.413 673.381C192.233 679.32 190.618 685.115 190.302 690.933L190.283 691.358C184.766 696.052 179.186 700.67 173.545 705.211C171.455 706.879 164.634 712.071 163.204 713.534C162.491 713.73 161.78 713.929 161.069 714.133L160.489 712.538C148.813 710.882 133.84 707.318 125.652 698.478C106.233 677.514 121.661 666.499 144.269 667.883Z"></path><path fill="#CCCBCC" d="M160.489 712.538C161.76 712.796 162.004 712.965 163.204 713.534C162.491 713.73 161.78 713.929 161.069 714.133L160.489 712.538Z"></path><path fill="#CCCBCC" d="M140.488 775.353L157.274 790.855C143.117 803.329 135.187 807.862 115.531 810.634C111.269 811.235 102.27 812.028 98.387 812.935C98.8387 806.447 100.15 796.884 101.397 790.425C112.033 790.907 132.686 782.585 140.488 775.353Z"></path><path fill="#CCCBCC" d="M123.49 754.829C127.888 761.259 132.798 767.323 138.173 772.962C120.525 782.149 104.985 780.699 85.991 780.051C86.3801 778.972 86.6945 777.868 86.9318 776.746C87.6731 773.346 88.3058 769.923 88.8996 766.495C89.4884 763.046 90.1468 759.61 90.8744 756.188C100.984 758.728 113.496 757.492 123.49 754.829Z"></path><path fill="#0F1D26" d="M88.66 790.536C92.3682 790.535 98.1082 790.109 101.397 790.425C100.15 796.884 98.8387 806.447 98.387 812.935C95.7651 816.744 86.6791 830.598 83.1874 830.79C68.1762 831.612 85.5565 795.725 88.66 790.536Z"></path><path fill="#0F1D26" d="M78.2423 755.822C81.997 756.003 87.4103 755.817 90.8744 756.188C90.1468 759.61 89.4884 763.046 88.8996 766.495C88.3058 769.923 87.6731 773.346 86.9318 776.746C86.6945 777.868 86.3801 778.972 85.991 780.051C81.6026 784.23 76.965 789.959 70.9958 791.961C68.9929 792.633 65.3605 791.057 65.4019 788.771C65.6111 777.227 71.942 765.186 78.2423 755.822Z"></path><path fill="#626A70" d="M301.002 708.222C311.609 702.365 322.127 696.349 332.553 690.176C339.794 685.941 347.162 681.92 354.523 677.899C356.488 676.825 358.349 677.434 359.238 679.438C358.803 680.773 358.518 681.433 357.181 682.162C339.451 691.817 321.719 703.671 303.798 712.742L303.238 713.023C302.509 712.185 301.489 709.388 301.002 708.222Z"></path></svg>
