<?xml version="1.0"?>
<svg xmlns="http://www.w3.org/2000/svg" viewBox="688.68 210.69 287 231.42" width="287" height="231.42"><path fill="#626A70" d="M799.547 308.707C807.8 307.849 813.14 309.708 820.702 312.865C830.325 317.406 846.002 325.311 855.02 330.719C862.307 335.359 897.029 338.423 907.919 340.081C904.662 346.679 901.153 354.19 897.666 360.59C893.063 367.251 888.804 373.426 883.769 379.764L880.633 383.99C874.562 391.162 868.321 396.763 861.437 403.126C853.552 409.979 846.22 417.342 838.357 424.154C834.165 417.171 829.357 410.435 825.179 403.464C812.28 381.94 795.837 364.15 781.925 343.133C783.826 342.6 786.683 342.153 788.798 341.677C798.298 339.54 804.483 330.666 795.926 323.024C792.664 320.111 789.312 320.397 785.168 320.995C782.773 321.196 782.791 321.087 780.444 320.577C786.967 315.404 792.163 312.264 799.547 308.707Z"></path><path fill="#0F1D26" d="M723.619 280.712C721.183 267.506 723.084 254.78 730.808 243.509C744.454 223.599 773.787 218.686 793.287 232.78C811.816 246.171 819.407 274.344 804.927 293.43C802.513 296.654 798.567 300.511 794.88 302.153C795.108 304.568 797.773 307.252 799.547 308.707C792.163 312.264 786.967 315.404 780.444 320.577C779.744 321.017 779.733 321.17 779.167 321.927L778.879 321.539C777.549 319.512 776.402 317.844 774.858 315.966C773.108 316.999 770.287 317.77 768.271 318.108C751.861 320.861 736.765 313.631 728.766 298.961C725.537 293.039 724.733 287.359 723.619 280.712Z"></path><path fill="#CCCBCC" d="M734.046 256.196C742.301 271.765 759.38 280.925 777.908 275.438C780.971 274.531 783.472 270.577 787.89 272.476C797.416 276.051 795.61 286.354 788.668 291.471C790.544 294.796 792.617 299.246 794.352 302.178L794.88 302.153C795.108 304.568 797.773 307.252 799.547 308.707C792.163 312.264 786.967 315.404 780.444 320.577C779.744 321.017 779.733 321.17 779.167 321.927L778.879 321.539C777.549 319.512 776.402 317.844 774.858 315.966C773.108 316.999 770.287 317.77 768.271 318.108C751.861 320.861 736.765 313.631 728.766 298.961C725.537 293.039 724.733 287.359 723.619 280.712C727.256 276.434 731.136 262.434 734.046 256.196Z"></path><path fill="#A2A4A7" d="M794.352 302.178L794.88 302.153C795.108 304.568 797.773 307.252 799.547 308.707C792.163 312.264 786.967 315.404 780.444 320.577C779.744 321.017 779.733 321.17 779.167 321.927L778.879 321.539C777.549 319.512 776.402 317.844 774.858 315.966C776.24 314.463 778.219 313.893 779.681 312.844C783.458 310.135 791.616 305.547 794.352 302.178Z"></path><path fill="#0F1D26" d="M744.036 286.856C745.808 286.182 747.806 286.513 749.266 287.723C750.726 288.932 751.422 290.834 751.09 292.7C750.757 294.567 749.446 296.111 747.658 296.741C744.94 297.7 741.955 296.295 740.964 293.588C739.972 290.881 741.341 287.88 744.036 286.856Z"></path><path fill="#CCCBCC" d="M820.702 312.865C815.461 290.771 816.515 271.394 828.316 251.601C834.423 241.355 848.156 227.69 860.372 235.935C874.448 245.437 867.351 271.066 864.026 283.726C885.005 277.827 899.84 287.31 887.907 309.68C882.212 320.357 866.383 327.528 855.02 330.719C846.002 325.311 830.325 317.406 820.702 312.865Z"></path><path fill="#CCCBCC" d="M779.167 321.927C779.733 321.17 779.744 321.017 780.444 320.577C782.791 321.087 782.773 321.196 785.168 320.995C789.312 320.397 792.664 320.111 795.926 323.024C804.483 330.666 798.298 339.54 788.798 341.677C786.683 342.153 783.826 342.6 781.925 343.133C779.308 342.865 767.696 345.218 764.036 345.36C753.311 345.777 736.243 344.95 725.638 343.06C725.385 342.746 725.519 342.837 725.295 342.719C724.71 342.742 721.2 344.185 720.598 344.475C708.671 343.85 704.377 332.957 712.358 323.606C714.107 323.459 716.018 322.302 717.119 320.942C721.261 321.013 726.261 324.711 729.265 325.253C738.746 326.967 772.776 326.725 778.879 321.539L779.167 321.927Z"></path><path fill="#7A7C82" d="M779.167 321.927C779.733 321.17 779.744 321.017 780.444 320.577C782.791 321.087 782.773 321.196 785.168 320.995C782.466 321.745 781.873 321.954 779.167 321.927Z"></path><path fill="#CCCBCC" d="M880.633 383.99C886.661 391.911 898.163 395.43 907.641 396.575C908.813 396.717 913.12 397.058 913.855 397.364C917.97 397.593 920.141 397.261 924.223 397.036C929.096 402.493 935.631 407.513 938.835 413.986C940.813 417.98 946.909 427.066 942.439 430.397C937.468 434.102 926.273 424.327 921.772 422.12C908.153 418.911 894.779 418.116 881.017 412.509C873.334 409.378 868.657 406.499 861.437 403.126C868.321 396.763 874.562 391.162 880.633 383.99Z"></path><path fill="#0F1D26" d="M913.855 397.364C917.97 397.593 920.141 397.261 924.223 397.036C929.096 402.493 935.631 407.513 938.835 413.986C940.813 417.98 946.909 427.066 942.439 430.397C937.468 434.102 926.273 424.327 921.772 422.12C919.86 418.564 915.439 402.448 913.855 397.364Z"></path><path fill="#A2A4A7" d="M897.666 360.59C904.793 364.862 916.058 366.402 924.062 364.379C924.842 364.18 925.619 363.97 926.392 363.748C926.646 366.659 933.882 383.214 935.668 385.579C919.352 388.601 898.453 387.619 883.769 379.764C888.804 373.426 893.063 367.251 897.666 360.59Z"></path><path fill="#0F1D26" d="M936.787 361.749C943.783 366.931 951.39 371.354 955.465 379.495C967.681 403.9 943.136 387.801 935.668 385.579C933.882 383.214 926.646 366.659 926.392 363.748C929.786 363.23 933.446 362.535 936.787 361.749Z"></path><path fill="#626A70" d="M712.358 323.606C710.286 318.929 696.682 285.264 697.333 282.26C697.443 281.751 697.773 281.076 698.262 280.847C698.817 280.587 699.696 280.703 700.245 280.907C701.302 281.299 701.777 282.513 702.146 283.478C704.613 289.925 707.424 296.235 709.9 302.679C712.228 308.737 714.179 315.152 717.119 320.942C716.018 322.302 714.107 323.459 712.358 323.606Z"></path><path fill="#626A70" d="M720.598 344.475C721.2 344.185 724.71 342.742 725.295 342.719C725.519 342.837 725.385 342.746 725.638 343.06C726.541 345.172 734.85 363.135 727.009 359.741C725.624 359.142 721.588 346.679 720.598 344.475Z"></path></svg>
