<?xml version="1.0"?>
<svg xmlns="http://www.w3.org/2000/svg" viewBox="369.14 205.82 247.53 260.78" width="247.53" height="260.78"><path fill="#626A70" d="M515.175 310.659C523.553 309.509 526.145 310.547 531.361 317.548C539.471 333.511 541.023 353.143 548.203 369.849C550.42 375.532 552.803 381.018 553.696 387.074C559.738 428.075 524.114 435.898 492.759 426.357C487.343 425.411 482.484 423.163 477.438 420.997C464.359 431.919 456.155 438.444 442.009 447.605C437.027 444.102 430.674 439.85 425.501 436.722C424.907 437.088 423.491 437.979 422.77 437.783C417.448 436.334 411.022 426.477 406.523 425.734C413.653 422.553 437.838 401.9 439.859 394.837C442.08 392.938 442.801 391.683 444.614 389.45C449.188 393.941 451.076 395.444 455.779 399.522L457.673 399.467C455.833 386.493 464.735 385.71 473.713 382.013C474.746 379.663 480.161 370.84 478.098 369.099L479.065 368.559C481.245 363.84 482.945 356.303 484.214 351.1C485.447 344.633 486.14 337.909 487.302 331.463C487.97 325.788 487.719 317.294 493.747 315.062C500.718 313.497 508.119 312.137 515.175 310.659Z"></path><path fill="#CCCBCC" d="M473.713 382.013C483.76 376.981 492.402 369.713 498.79 359.591C504.611 350.365 507.845 334.914 513.845 325.898C516.051 322.584 526.812 324.885 527.758 329.076C529.884 333.499 528.679 338.651 527.083 342.94C523.294 353.119 518.705 363.088 513.031 372.325C503.907 387.18 488.08 394.49 474.045 403.6C482.794 412.485 486.121 415.679 492.759 426.357C487.343 425.411 482.484 423.163 477.438 420.997C464.359 431.919 456.155 438.444 442.009 447.605C437.027 444.102 430.674 439.85 425.501 436.722C424.907 437.088 423.491 437.979 422.77 437.783C417.448 436.334 411.022 426.477 406.523 425.734C413.653 422.553 437.838 401.9 439.859 394.837C442.08 392.938 442.801 391.683 444.614 389.45C449.188 393.941 451.076 395.444 455.779 399.522L457.673 399.467C455.833 386.493 464.735 385.71 473.713 382.013Z"></path><path fill="#A2A4A7" d="M444.614 389.45C449.188 393.941 451.076 395.444 455.779 399.522L457.673 399.467C458.889 400.453 460.14 401.875 460.794 403.328C452.204 412.727 436.378 430.263 425.501 436.722C424.907 437.088 423.491 437.979 422.77 437.783C417.448 436.334 411.022 426.477 406.523 425.734C413.653 422.553 437.838 401.9 439.859 394.837C442.08 392.938 442.801 391.683 444.614 389.45Z"></path><path fill="#252729" d="M457.673 399.467C458.889 400.453 460.14 401.875 460.794 403.328C458.447 402.435 457.619 401.294 455.779 399.522L457.673 399.467Z"></path><path fill="#0F1D26" d="M455.495 279.185C452.84 263.902 455.609 252.027 463.959 239.198C477.085 219.033 507.509 213.821 526.627 228.231C553.697 248.633 554.32 297.639 515.958 305.666C514.72 307.238 515.008 307.171 514.973 309.619L515.175 310.659C508.119 312.137 500.718 313.497 493.747 315.062L492.812 312.432C491.649 311.468 484.035 310.563 481.142 309.701C476.029 308.179 471.304 305.573 467.287 302.062C460.962 296.475 456.031 287.683 455.495 279.185Z"></path><path fill="#CCCBCC" d="M477.659 244.857C487.112 262.708 497.575 266.366 516.281 270.952C519.077 268.837 520.907 267.947 524.481 268.476C529.803 269.264 531.325 275.648 530.014 280.064C528.564 284.951 525.601 287.002 521.572 289.498C520.876 294.41 518.58 299.999 516.383 304.446C516.029 305.163 516.164 304.819 515.958 305.666C514.72 307.238 515.008 307.171 514.973 309.619L515.175 310.659C508.119 312.137 500.718 313.497 493.747 315.062L492.812 312.432C491.649 311.468 484.035 310.563 481.142 309.701C476.029 308.179 471.304 305.573 467.287 302.062C460.962 296.475 456.031 287.683 455.495 279.185C463.406 268.147 470.133 255.833 477.659 244.857Z"></path><path fill="#A2A4A7" d="M492.812 312.432C497.492 312.936 504.537 310.666 508.966 309.261C510.413 308.802 513.121 306.765 514.192 306.594C514.569 306.882 514.831 308.993 514.973 309.619L515.175 310.659C508.119 312.137 500.718 313.497 493.747 315.062L492.812 312.432Z"></path><path fill="#0F1D26" d="M467.695 277.793C470.447 276.682 473.586 277.945 474.802 280.653C476.018 283.362 474.875 286.547 472.215 287.865C470.402 288.763 468.242 288.598 466.587 287.434C464.931 286.271 464.044 284.295 464.275 282.285C464.506 280.274 465.818 278.551 467.695 277.793Z"></path><path fill="#0F1D26" d="M496.694 275.391C499.375 274.366 502.383 275.677 503.457 278.338C504.531 281 503.276 284.031 500.635 285.154C498.882 285.899 496.865 285.64 495.357 284.477C493.85 283.313 493.089 281.426 493.366 279.543C493.643 277.659 494.916 276.072 496.694 275.391Z"></path><path fill="#BDBDBF" d="M531.361 317.548C539.014 300.714 554.305 289.233 570.974 282.502C591.856 274.069 608.669 287.129 596.839 308.845C589.311 322.664 582.607 327.101 571.512 336.752C579.921 340.225 587.856 344.366 591.718 353.129C595.661 362.391 592.231 371.76 582.4 374.961C572.153 378.298 561.555 376.703 552.181 371.649C550.94 370.98 549.55 370.185 548.203 369.849C541.023 353.143 539.471 333.511 531.361 317.548Z"></path><path fill="#0F1D26" d="M403.775 444.702C397.672 443.014 377.136 435.153 384.796 426.22C390.096 423.236 400.421 425.108 406.523 425.734C411.022 426.477 417.448 436.334 422.77 437.783C423.491 437.979 424.907 437.088 425.501 436.722C430.674 439.85 437.027 444.102 442.009 447.605C437.72 450.48 430.488 456.505 425.817 457.551C421.104 458.605 412.746 455.205 408.834 452.325C405.127 449.597 404.581 448.994 403.775 444.702Z"></path><path fill="#A2A4A7" d="M451.284 323.23C463.477 324.432 474.77 331.976 487.302 331.463C486.14 337.909 485.447 344.633 484.214 351.1C476.413 349.441 470.25 348.541 462.363 346.304C457.938 347.565 453.585 348.588 449.408 345.636C446.474 343.543 444.546 340.32 444.089 336.745C443.6 332.779 444.859 329.501 447.31 326.46C448.875 328.734 450.544 334.319 454.01 332.993C457.85 331.523 452.744 325.985 451.739 324.101L451.284 323.23Z"></path><path fill="#0F1D26" d="M478.098 369.099C480.161 370.84 474.746 379.663 473.713 382.013C464.735 385.71 455.833 386.493 457.673 399.467L455.779 399.522C451.076 395.444 449.188 393.941 444.614 389.45C442.801 391.683 442.08 392.938 439.859 394.837C438.689 392.632 437.571 390.401 436.505 388.144C450.114 378.563 462.577 374.043 478.098 369.099Z"></path><path fill="#626A70" d="M447.31 326.46C444.087 321.084 419.525 280.373 419.693 277.77C421.121 276.31 420.295 276.725 422.188 276.352C423.239 276.781 424.21 277.433 424.796 278.455C433.354 293.376 442.107 308.69 451.284 323.23L451.739 324.101C452.744 325.985 457.85 331.523 454.01 332.993C450.544 334.319 448.875 328.734 447.31 326.46Z"></path></svg>
