<?xml version="1.0"?>
<svg xmlns="http://www.w3.org/2000/svg" viewBox="109.07 148.73 191 355.44" width="191" height="355.44"><defs><linearGradient id="gradient_0" gradientUnits="userSpaceOnUse" x1="228.08447" y1="289.66345" x2="229.02292" y2="305.10355"><stop offset="0" stop-color="#070603"></stop><stop offset="1" stop-color="#101926"></stop></linearGradient></defs><path fill="#626A70" d="M233.649 298.985C244.876 287.785 259.642 279.336 275.73 278.465C283.594 278.039 292.07 283.999 291.497 292.449C290.665 304.719 281.619 315.717 273.075 323.841C268.09 328.533 262.477 331.633 257.336 335.519C266.201 340.286 273.551 345.357 276.626 355.622C279.838 366.344 273.75 371.507 263.986 374.304C259.455 375.602 250.977 372.423 248.625 373.02C252.529 383.043 259.21 398.33 262.316 408.022C253.485 410.244 243.668 412.834 234.595 413.638C226.923 414.113 219.349 415.008 211.478 415.432L204.59 415.34C199.447 414.445 188.227 414.042 181.914 413.185C172.417 412.015 162.566 410.377 153.376 407.742C157.305 396.105 163.255 384.27 167.263 372.151L174.993 338.757C175.663 335.835 176.43 332.007 177.155 329.023C177.427 327.903 178.955 327.961 180.358 327.685C192.685 322.106 185.734 310.519 187.397 306.176C188.896 305.287 189.316 305.663 191.418 305.717C193.461 306.393 195.838 306.62 197.749 305.484C198 304.556 198.26 303.631 198.528 302.708C202.323 303.251 213.112 303.592 216.643 302.839C216.831 303.746 217.025 304.652 217.223 305.557C218.983 306.566 221.49 307.017 223.43 306.451L225.441 307.416C228.423 304.175 230.727 302.034 233.649 298.985Z"></path><path fill="#BDBDBF" d="M233.649 298.985C244.876 287.785 259.642 279.336 275.73 278.465C283.594 278.039 292.07 283.999 291.497 292.449C290.665 304.719 281.619 315.717 273.075 323.841C268.09 328.533 262.477 331.633 257.336 335.519C266.201 340.286 273.551 345.357 276.626 355.622C279.838 366.344 273.75 371.507 263.986 374.304C259.455 375.602 250.977 372.423 248.625 373.02C247.404 369.856 245.608 361.197 244.503 357.26C240.924 344.509 237.729 331.322 233.464 318.773C231.634 313.39 230.509 309.877 225.441 307.416C228.423 304.175 230.727 302.034 233.649 298.985Z"></path><path fill="#A2A4A7" d="M198.528 302.708C202.323 303.251 213.112 303.592 216.643 302.839C216.831 303.746 217.025 304.652 217.223 305.557C215.585 306.328 201.272 305.416 197.749 305.484C198 304.556 198.26 303.631 198.528 302.708Z"></path><path fill="#CCCBCC" d="M154.598 280.83C154.985 279.615 151.118 259.041 150.957 254.707C150.493 242.134 154.791 232.977 154.889 220.755C154.945 213.782 160.625 209.974 167.083 210.988C168.134 211.86 170.817 213.441 172.026 213.474C181.45 224.387 173.938 225.215 172.799 234.008C173.07 234.154 173.34 234.299 173.61 234.445C196.238 201.537 243.836 213.106 250.361 251.626C252.555 264.581 248.339 277.118 241.449 288.015C241.2 288.413 240.947 288.808 240.688 289.201C238.248 292.527 235.981 295.019 232.794 297.634L233.649 298.985C230.727 302.034 228.423 304.175 225.441 307.416L223.43 306.451C221.49 307.017 218.983 306.566 217.223 305.557C217.025 304.652 216.831 303.746 216.643 302.839C213.112 303.592 202.323 303.251 198.528 302.708C198.26 303.631 198 304.556 197.749 305.484C195.838 306.62 193.461 306.393 191.418 305.717C189.316 305.663 188.896 305.287 187.397 306.176C185.734 310.519 192.685 322.106 180.358 327.685C179.732 327.682 177.383 327.693 177.017 327.307C169.819 319.7 164.727 304.341 160.517 294.66C158.755 290.608 156.567 282.792 154.598 280.83Z"></path><path fill="#0F1D26" d="M173.61 234.445C196.238 201.537 243.836 213.106 250.361 251.626C252.555 264.581 248.339 277.118 241.449 288.015L240.762 286.784C244.741 280.111 244.604 271.923 242.945 264.576L242.587 264.222C239.984 261.592 236.92 260.029 233.839 258.014C221.226 249.767 215.145 247.457 208.516 233.608C198.141 253.741 183.752 252.796 173.177 265.406C172.911 266.902 172.9 268.17 172.638 269.759C168.983 260.106 168.523 243.625 173.61 234.445Z"></path><path fill="url(#gradient_0)" d="M239.977 288.143L240.688 289.201C238.248 292.527 235.981 295.019 232.794 297.634L233.649 298.985C230.727 302.034 228.423 304.175 225.441 307.416L223.43 306.451C221.49 307.017 218.983 306.566 217.223 305.557C217.025 304.652 216.831 303.746 216.643 302.839C218.315 301.813 219.87 301.572 221.755 301.097C229.762 299.082 234.89 294.549 239.977 288.143Z"></path><path fill="#CCCBCC" d="M232.794 297.634L233.649 298.985C230.727 302.034 228.423 304.175 225.441 307.416L223.43 306.451C226.799 302.405 228.683 300.996 232.794 297.634Z"></path><path fill="#0F1D26" d="M177.45 289.356C182.264 293.899 185.127 297.224 191.505 299.927C193.358 300.712 197.311 301.844 198.528 302.708C198.26 303.631 198 304.556 197.749 305.484C195.838 306.62 193.461 306.393 191.418 305.717C188.323 302.413 180.763 294.846 178.829 291.638L177.45 289.356Z"></path><path fill="#626A70" d="M172.638 269.759C172.9 268.17 172.911 266.902 173.177 265.406C173.338 266.593 174.029 270.809 172.752 270.375C172.694 270.356 172.638 269.759 172.638 269.759Z"></path><path fill="#252729" d="M239.977 288.143C240.23 287.685 240.492 287.232 240.762 286.784L241.449 288.015C241.2 288.413 240.947 288.808 240.688 289.201L239.977 288.143Z"></path><path fill="#0F1D26" d="M192.2 267.861C195.14 267.448 197.861 269.489 198.287 272.427C198.714 275.366 196.685 278.096 193.748 278.536C190.793 278.978 188.042 276.933 187.613 273.976C187.184 271.019 189.241 268.277 192.2 267.861Z"></path><path fill="#0F1D26" d="M223.032 267.765C224.912 267.341 226.875 267.96 228.172 269.386C229.468 270.811 229.898 272.824 229.297 274.655C228.696 276.487 227.158 277.854 225.268 278.234C222.394 278.813 219.589 276.972 218.976 274.105C218.364 271.237 220.172 268.411 223.032 267.765Z"></path><path fill="#A2A4A7" d="M157.631 335.423C146.877 327.883 132.572 315.887 127.123 303.772C117.073 281.427 136.261 273.505 154.598 280.83C156.567 282.792 158.755 290.608 160.517 294.66C164.727 304.341 169.819 319.7 177.017 327.307C177.383 327.693 179.732 327.682 180.358 327.685C178.955 327.961 177.427 327.903 177.155 329.023C176.43 332.007 175.663 335.835 174.993 338.757L167.263 372.151C155.897 374.811 136.639 376.194 138.666 357.685C139.845 346.928 149.315 341.014 157.631 335.423Z"></path><path fill="#CCCBCC" d="M181.914 413.185C188.227 414.042 199.447 414.445 204.59 415.34L204.007 442.25C203.92 447.201 203.117 452.291 204.215 457.018C202.658 457.009 187.197 456.753 184.145 457.278C184.043 457.296 183.693 458.304 183.656 458.398C183.904 458.96 182.217 444.169 182.025 442.999C180.47 433.525 180.941 422.718 181.914 413.185Z"></path><path fill="#CCCBCC" d="M211.478 415.432C219.349 415.008 226.923 414.113 234.595 413.638C234.63 419.849 235.364 425.902 234.986 432.25C234.482 440.705 233.119 448.756 231.916 457.102C226.192 456.915 217.647 457.157 211.68 457.187C213.591 449.473 211.633 424.579 211.478 415.432Z"></path><path fill="#0F1D26" d="M211.68 457.187C217.647 457.157 226.192 456.915 231.916 457.102C230.652 466.248 226.438 488.384 214.249 487.942C206.787 487.672 209.076 461.616 211.68 457.187Z"></path><path fill="#0F1D26" d="M183.656 458.398C183.693 458.304 184.043 457.296 184.145 457.278C187.197 456.753 202.658 457.009 204.215 457.018C206.143 461.409 206.001 468.595 206.168 473.25C206.989 496.165 192.656 489.367 187.452 473.238C185.907 468.447 184.77 463.377 183.656 458.398Z"></path><path fill="#626A70" d="M167.083 210.988C176.238 196.656 185.238 181.661 194.091 167.104C196.257 163.542 199.072 157.627 203.561 156.73C204.314 159.039 203.73 160.618 202.462 162.924C199.273 168.726 195.584 174.555 192.139 180.218C185.367 191.262 178.662 202.347 172.026 213.474C170.817 213.441 168.134 211.86 167.083 210.988Z"></path></svg>
