<?xml version="1.0"?>
<svg xmlns="http://www.w3.org/2000/svg" viewBox="60.34 176.34 290.96 291.3" width="290.96" height="291.3"><path fill="#4A4849" d="M216.146 184.343C218.501 190.371 221.659 206.452 223.394 213.332C229.363 237.013 234.049 263.127 240.844 286.422C249.709 286.869 263.209 288.847 272.413 289.778L343.302 296.972C340.73 298.712 338.022 300.505 335.54 302.357C310.2 321.271 283.928 338.568 257.737 356.237C259.399 366.785 261.87 377.921 263.789 388.517C267.864 412.255 272.11 435.963 276.527 459.64C270.719 454.252 261.372 447.161 255.024 442.035C243.208 432.405 231.329 422.852 219.389 413.377C211.695 407.305 203.379 401.169 195.925 394.962L176.77 406.765C151.055 423.125 122.726 441.189 97.5617 458.276C99.3986 452.59 109.569 432.159 112.57 425.82L146.838 353.88L68.3395 282.683C79.1085 282.534 92.0426 283.205 102.961 283.461C125.847 284.116 148.741 284.452 171.637 284.468C178.249 270.937 183.581 258.193 189.524 244.502L216.146 184.343Z"></path></svg>
