<?xml version="1.0"?>
<svg xmlns="http://www.w3.org/2000/svg" viewBox="396.26 204.87 263.71 257.48" width="263.71" height="257.48"><path fill="#4A4849" d="M524.838 213.166C527.417 212.873 531.197 213.049 533.721 213.461C562.98 218.236 558.752 245.831 571.452 263.89C584.009 281.562 604.266 275.333 622.39 277.798C639.294 280.097 650.135 292.789 650.783 309.608C651.965 340.317 615.296 343.989 609.448 370.202C605.57 387.582 620.505 404.684 617.459 422.179C615.131 435.96 603.365 447.122 589.657 449.249C567.591 452.674 553.6 429.742 533.129 426.25L532.444 426.138C511.004 423.589 500.55 441.503 481.843 447.9C462.964 454.355 442.081 441.851 439.151 422.103C436.175 402.043 454.672 383.088 444.477 362.971C435.466 345.179 412.089 339.399 406.469 318.796C404.258 310.397 405.447 301.466 409.777 293.938L410.253 293.141C428.608 262.064 468.462 290.944 485.818 262.72C498.154 242.66 493.025 217.393 524.838 213.166Z"></path></svg>
