<?xml version="1.0"?>
<svg xmlns="http://www.w3.org/2000/svg" viewBox="703.34 561.03 264.22 261.13" width="264.22" height="261.13"><path fill="#8B8A8A" d="M836.222 569.076C836.985 569.06 837.754 569.027 838.516 569.11C840.73 569.352 842.489 570.725 843.91 572.355C847.561 576.543 849.937 582.248 852.442 587.174C857.396 596.918 873.175 631.167 879.648 636.741C889.416 645.153 950.652 648.676 957.123 656.913C959.188 659.542 959.556 664.65 958.102 667.616C956.01 671.884 951.391 675.743 948.107 679.112C941.154 686.263 934.161 693.376 927.13 700.451C905.162 722.471 904.836 719.052 909.725 750.47L914.529 781.185C915.497 787.382 918.649 801.293 912.568 805.126C904.415 810.265 883.518 796.882 876.205 793.064C869.03 789.371 861.791 785.801 854.493 782.357C849.716 780.071 843.773 776.939 838.525 776.309C830.356 775.767 824.35 779.8 817.172 783.365L787.371 798.189C780.388 801.635 761.598 814.156 757.18 798.672C756.173 795.142 758.243 785.595 758.917 781.439C761.013 768.53 763.084 755.402 764.991 742.441C766.127 734.567 768.705 724.79 763.479 718.058C759.699 713.19 754.79 708.464 750.46 704.012L729.685 682.533C724.031 676.753 711.341 666.637 716.849 657.78C719.807 653.024 727.499 652.337 732.617 651.26C749.9 647.621 767.304 644.54 784.605 641.016C795.689 638.739 798.008 633.922 802.746 624.52C810.88 608.376 818.672 592.027 827.399 576.204C829.541 572.321 831.954 570.109 836.222 569.076Z"></path><path fill="#4A4849" d="M801.935 715.527C802.87 715.478 805.292 715.324 805.84 715.831C813.293 722.72 814.783 728.808 825.894 732.334C836.66 735.566 852.574 734.765 861.057 726.713C864.925 723.042 868.815 713.105 875.806 715.516C879.673 718.823 877.108 723.821 875.139 727.29C873.2 730.177 870.896 732.8 868.282 735.094C858.296 743.722 845.056 745.98 832.228 744.895C820.494 743.857 809.684 738.101 802.273 728.944C798.438 724.268 796.081 719.527 801.935 715.527Z"></path><path fill="#4A4849" d="M802.961 672.236C809.547 670.845 816.023 675.023 817.47 681.598C818.916 688.172 814.791 694.682 808.23 696.183C801.59 697.702 794.985 693.518 793.522 686.866C792.058 680.214 796.297 673.644 802.961 672.236Z"></path><path fill="#4A4849" d="M867.813 672.346C874.42 671.004 880.855 675.299 882.152 681.915C883.448 688.53 879.11 694.936 872.486 696.188C865.925 697.428 859.593 693.14 858.309 686.587C857.025 680.035 861.27 673.674 867.813 672.346Z"></path></svg>
