<?xml version="1.0"?>
<svg xmlns="http://www.w3.org/2000/svg" viewBox="77.41 583.14 256.98 257.43" width="256.98" height="257.43"><path fill="#4A4849" d="M143.001 591.144C148.874 593.654 165.56 603.38 171.373 606.669L215.35 631.059C221.29 629.53 230.669 626.057 236.779 624.056C256.028 617.752 274.353 611.261 293.879 605.623C289.614 624.073 286.736 644.147 282.667 662.804C281.025 670.332 279.886 678.572 277.854 685.965C293.198 708.658 311.668 731.07 326.392 753.344C300.232 756.744 272.55 758.482 246.189 761.675L242.396 767.218C227.617 789.494 213.049 809.922 198.62 832.571C194.995 825.791 190.401 814.506 187.072 807.141L163.474 755.04C137.58 747.121 111.556 739.638 85.4111 732.594L145.611 673.712C145.26 646.657 144.046 618.185 143.001 591.144Z"></path></svg>
