<?xml version="1.0"?>
<svg xmlns="http://www.w3.org/2000/svg" viewBox="232.77 293.38 238.79 231.27" width="238.79" height="231.27"><path fill="#DADAD9" d="M333.102 301.678C334.99 301.402 337.95 301.397 339.88 301.496L344.493 301.384C383.297 303.514 408.432 312.753 435.505 342.105C438.626 345.488 446.796 355.101 447.314 359.477C450.044 363.182 458.015 375.727 457.405 380.342L456.931 380.937C456.332 385.001 458.74 390.292 459.248 394.497C463.566 430.25 447.978 465.463 420.727 488.48C414.563 493.685 404.798 501.28 397.078 503.829C395.368 504.737 393.591 505.434 392.426 506.95C390.038 508.719 387.795 509.916 384.851 510.406L384.159 510.105C383.374 509.771 383.151 509.683 382.364 509.459C379.596 512.681 379.06 512.276 375.138 513.59C373.764 513.147 371.336 513.993 368.967 514.151C367.4 514.972 364.804 516.659 363.263 516.637L362.847 515.582C358.103 514.818 351.692 514.916 346.662 514.534C335.882 513.714 324.764 512.015 314.51 508.576C289.768 500.278 264.841 480.788 253.118 457.082C251.702 454.421 246.725 443.84 246.706 441.31L248.207 441.427L248.768 440.806L244.901 437.856C244.378 435.278 243.839 433.032 243.191 430.493C241.803 426.449 241.491 420.852 241.383 416.58C240.773 398.095 244.816 379.752 253.141 363.237C265.176 339.86 291.653 315.235 316.746 307.244L317.261 307.017C320.329 305.073 322.409 304.889 325.401 303.668C328.039 303.087 330.505 302.396 333.102 301.678Z"></path><path fill="#DADAD9" d="M243.191 430.493C241.803 426.449 241.491 420.852 241.383 416.58C240.773 398.095 244.816 379.752 253.141 363.237C265.176 339.86 291.653 315.235 316.746 307.244C316.448 309.45 316.025 312.059 315.857 314.245C319.477 315.723 323.225 317.197 326.768 318.826C326.691 321.443 326.655 324.245 326.514 326.843L317.513 323.603C317.419 326.885 317.393 328.133 316.745 331.381C320.253 333.342 322.382 334.012 326.215 335.341C325.746 338.858 325.308 342.504 324.728 345.991C321.353 345.012 318.823 344.231 315.556 342.968L313.913 351.034L322.459 354.289C321.448 358.033 320.559 361.568 319.155 365.197L310.008 361.921C308.317 364.166 306.645 366.423 304.991 368.695L315.723 372.084C313.776 376.088 312.619 378.711 310.008 382.31L301.064 378.944L296.8 386.43C300.532 387.584 301.983 388.206 305.51 389.921C303.442 393.619 300.496 397.586 298.029 401.097C295.166 399.751 291.276 397.598 288.615 396.485C286.178 398.684 284.153 400.494 281.918 402.906C285.274 404.434 288.868 406.152 292.253 407.548L287.42 413.475C283.957 411.943 280.524 410.344 277.122 408.681L270.824 414.144C274.608 416.547 276.789 417.736 280.978 419.503C278.314 421.998 275.516 424.729 272.669 426.974C268.951 424.674 265.155 422.258 261.404 420.034C259.218 421.783 257.307 423.354 254.962 424.908C258.646 427.814 261.305 429.592 265.278 432.133L257.402 436.814C254.981 435.119 247.286 429.284 244.779 429.523L243.191 430.493Z"></path><path fill="#DADAD9" d="M447.428 374.993C448.79 378.231 449.929 380.746 450.806 384.157C452.754 383.05 454.929 381.977 456.931 380.937C456.332 385.001 458.74 390.292 459.248 394.497C463.566 430.25 447.978 465.463 420.727 488.48C414.563 493.685 404.798 501.28 397.078 503.829C395.368 504.737 393.591 505.434 392.426 506.95C391.866 506.221 391.298 505.498 390.72 504.782C388.979 504.222 382.647 500.652 380.681 499.595L379.82 494.861C383.279 495.943 387.217 497.623 390.636 498.985L389.923 490.781L379.21 484.344C378.981 481.16 379.26 478.1 379.459 474.916C382.211 477.413 385.969 479.45 389.208 481.372C389.414 478.31 389.651 475.914 390.076 472.876C386.438 470.474 383.669 468.409 380.213 465.732L382.663 456.913C385.617 459.995 387.046 461.967 390.435 464.863C391.254 462.252 391.908 459.022 392.535 456.318C390.098 453.389 387.612 451.208 384.818 448.63C385.957 445.002 386.983 442.598 388.515 439.093C390.943 442.31 392.268 445.121 395.084 448.505L398.541 440.299C396.071 437.275 394.261 434.437 392.234 431.122C393.679 427.873 394.921 425.824 396.761 422.759C398.665 426.457 399.945 428.709 402.219 432.178C403.86 429.497 405.104 427.63 406.966 425.099L401.693 415.366C403.16 413.142 404.959 410.76 406.531 408.578L411.808 417.959L416.847 412.133C415.05 408.16 414.021 405.416 412.612 401.274C415.088 398.53 417.547 396.313 420.633 394.28C421.683 397.611 422.97 401.013 424.165 404.305L430.441 398.337C429.224 395.068 428.047 391.784 426.911 388.486C429.188 386.866 431.423 385.187 433.613 383.452C434.07 386.823 434.728 390.467 435.269 393.853L442.259 388.577C441.678 385.393 441.23 381.9 440.756 378.673C442.966 377.42 445.19 376.193 447.428 374.993Z"></path><path fill="#D3D3D3" d="M390.72 504.782C393.422 503.268 393.749 503.604 397.078 503.829C395.368 504.737 393.591 505.434 392.426 506.95C391.866 506.221 391.298 505.498 390.72 504.782Z"></path><path fill="#221F20" d="M444.084 356.231L447.314 359.477C450.044 363.182 458.015 375.727 457.405 380.342L456.931 380.937C454.929 381.977 452.754 383.05 450.806 384.157C449.929 380.746 448.79 378.231 447.428 374.993C445.19 376.193 442.966 377.42 440.756 378.673C441.23 381.9 441.678 385.393 442.259 388.577L435.269 393.853C434.728 390.467 434.07 386.823 433.613 383.452C431.423 385.187 429.188 386.866 426.911 388.486C428.047 391.784 429.224 395.068 430.441 398.337L424.165 404.305C422.97 401.013 421.683 397.611 420.633 394.28C417.547 396.313 415.088 398.53 412.612 401.274C414.021 405.416 415.05 408.16 416.847 412.133L411.808 417.959L406.531 408.578C404.959 410.76 403.16 413.142 401.693 415.366L406.966 425.099C405.104 427.63 403.86 429.497 402.219 432.178C399.945 428.709 398.665 426.457 396.761 422.759C394.921 425.824 393.679 427.873 392.234 431.122C394.261 434.437 396.071 437.275 398.541 440.299L395.084 448.505C392.268 445.121 390.943 442.31 388.515 439.093C386.983 442.598 385.957 445.002 384.818 448.63C387.612 451.208 390.098 453.389 392.535 456.318C391.908 459.022 391.254 462.252 390.435 464.863C387.046 461.967 385.617 459.995 382.663 456.913L380.213 465.732C383.669 468.409 386.438 470.474 390.076 472.876C389.651 475.914 389.414 478.31 389.208 481.372C385.969 479.45 382.211 477.413 379.459 474.916C379.26 478.1 378.981 481.16 379.21 484.344L389.923 490.781L390.636 498.985C387.217 497.623 383.279 495.943 379.82 494.861L380.681 499.595C382.647 500.652 388.979 504.222 390.72 504.782C391.298 505.498 391.866 506.221 392.426 506.95C390.038 508.719 387.795 509.916 384.851 510.406L384.159 510.105C383.374 509.771 383.151 509.683 382.364 509.459C379.596 512.681 379.06 512.276 375.138 513.59C373.764 513.147 371.336 513.993 368.967 514.151C367.4 514.972 364.804 516.659 363.263 516.637L362.847 515.582C362.584 513.659 362.535 510.86 362.436 508.853C366.591 506.355 369.32 504.384 372.8 501.066L371.222 494.89L363.221 499.983L361.798 491.983L369.994 486.231C370.074 482.866 370.543 478.39 370.805 474.954C367.603 476.374 364.144 478.352 361.03 480.04L360.949 471.043C364.537 469.447 368.157 467.736 371.732 466.092C372.526 462.97 373.205 459.516 373.889 456.343C370.517 457.564 367.108 458.893 363.748 460.165L365.216 450.746C369.125 449.538 371.852 448.914 375.847 448.214L379.746 437.276C376.594 438.662 372.973 439.536 369.624 440.457C370.385 436.615 370.949 434.408 372.123 430.671L383.923 428.977C385.505 426.157 387.051 423.318 388.562 420.46C385.217 420.505 381.315 421.021 377.938 421.382C379.606 417.918 380.78 415.907 382.82 412.631C385.884 412.903 389.307 412.902 392.417 412.969C394.498 410.653 397.25 406.893 399.228 404.344C396.32 404.182 393.36 403.663 390.474 403.221C392.019 400.692 394.062 397.961 395.806 395.512L403.766 397.971L412.625 389.261C409.709 387.993 407.455 387.103 404.453 386.06L410.255 379.443C413.069 380.706 415.899 381.931 418.745 383.119C422.424 380.922 424.694 379.394 428.139 376.833C425.545 375.115 422.512 372.75 419.964 370.864C422.407 369.168 424.682 367.37 427.031 365.551C430.364 368.081 432.166 369.338 435.776 371.412C438.45 370.379 440.222 369.276 442.685 367.858C441.259 365.369 439.629 362.827 438.114 360.376L444.084 356.231Z"></path><path fill="#D3D3D3" d="M368.967 514.151C373.434 510.942 373.948 508.988 375.138 513.59C373.764 513.147 371.336 513.993 368.967 514.151Z"></path><path fill="#221F20" d="M333.102 301.678C334.99 301.402 337.95 301.397 339.88 301.496L344.493 301.384L344.757 308.334C341.017 311.202 337.94 313.731 334.896 317.39L335.013 323.344C338.179 321.066 340.202 319.622 343.596 317.763C343.496 320.527 343.344 323.422 343.296 326.174C340.672 328.354 338.083 330.578 335.533 332.844C335.135 336.387 334.559 339.337 333.876 342.841C337.211 341.324 340.519 339.749 343.799 338.116C343.274 341.082 342.638 344.294 342.201 347.251C338.831 348.882 334.989 350.633 331.719 352.374C330.919 356.351 330.372 358.497 329.118 362.35C331.819 361.874 334.44 361.398 337.163 361.041C336.512 363.855 335.879 366.796 335.142 369.578L325.556 371.441C324.122 374.376 322.651 377.525 321.145 380.401C323.972 380.032 326.996 379.585 329.812 379.291C328.621 382.116 327.639 384.572 326.128 387.249C322.223 388.73 320.092 389.303 315.908 390.024C313.579 393.479 309.846 398.583 307.178 401.844C310.168 402.404 313.382 402.945 316.336 403.582C314.602 406.016 312.781 408.501 311.092 410.955C307.606 410.61 304.919 410.345 301.493 409.665C299.6 412.138 297.879 414.528 295.655 416.713L301.779 422.342L295.382 428.077L289.403 423.396C287.203 425.36 283.895 428.155 281.948 430.211L286.777 435.154C284.432 436.854 281.958 438.718 279.584 440.345L275.015 435.228C273.51 436.306 271.83 437.452 270.384 438.577L273.14 444.67C270.677 446.155 268.212 447.724 265.629 448.976L262.959 443.001L255.249 447.3L258.181 455.384C256.415 456.042 254.947 456.634 253.118 457.082C251.702 454.421 246.725 443.84 246.706 441.31L248.207 441.427L248.768 440.806L244.901 437.856C244.378 435.278 243.839 433.032 243.191 430.493L244.779 429.523C247.286 429.284 254.981 435.119 257.402 436.814L265.278 432.133C261.305 429.592 258.646 427.814 254.962 424.908C257.307 423.354 259.218 421.783 261.404 420.034C265.155 422.258 268.951 424.674 272.669 426.974C275.516 424.729 278.314 421.998 280.978 419.503C276.789 417.736 274.608 416.547 270.824 414.144L277.122 408.681C280.524 410.344 283.957 411.943 287.42 413.475L292.253 407.548C288.868 406.152 285.274 404.434 281.918 402.906C284.153 400.494 286.178 398.684 288.615 396.485C291.276 397.598 295.166 399.751 298.029 401.097C300.496 397.586 303.442 393.619 305.51 389.921C301.983 388.206 300.532 387.584 296.8 386.43L301.064 378.944L310.008 382.31C312.619 378.711 313.776 376.088 315.723 372.084L304.991 368.695C306.645 366.423 308.317 364.166 310.008 361.921L319.155 365.197C320.559 361.568 321.448 358.033 322.459 354.289L313.913 351.034L315.556 342.968C318.823 344.231 321.353 345.012 324.728 345.991C325.308 342.504 325.746 338.858 326.215 335.341C322.382 334.012 320.253 333.342 316.745 331.381C317.393 328.133 317.419 326.885 317.513 323.603L326.514 326.843C326.655 324.245 326.691 321.443 326.768 318.826C323.225 317.197 319.477 315.723 315.857 314.245C316.025 312.059 316.448 309.45 316.746 307.244L317.261 307.017C320.329 305.073 322.409 304.889 325.401 303.668C328.039 303.087 330.505 302.396 333.102 301.678Z"></path><path fill="#DADAD9" d="M317.261 307.017C320.329 305.073 322.409 304.889 325.401 303.668C325.657 305.682 326.165 308.052 326.554 310.051L318.398 307.379C318.019 307.259 317.64 307.138 317.261 307.017Z"></path><path fill="#D3D3D3" d="M333.102 301.678C334.99 301.402 337.95 301.397 339.88 301.496C332.013 308.844 335.23 307.402 333.102 301.678Z"></path></svg>
