<?xml version="1.0"?>
<svg xmlns="http://www.w3.org/2000/svg" viewBox="548.38 291.62 239.09 233" width="239.09" height="233"><path fill="#DADAD9" d="M570.884 355.877C590.128 324.249 627.51 300.849 664.56 300.601C669.691 300.566 675.115 300.058 680.157 301.336C685.889 299.618 700.945 302.976 706.031 305.468C712.844 309.578 720.491 312.62 726.842 316.696C751.336 332.291 768.919 356.683 775.972 384.85C778.776 396.222 779.473 405.648 778.265 417.283C777.993 419.904 776.783 428.504 776.971 430.514C775.431 434.094 771.997 436.823 771.115 439.254C772.211 439.564 771.923 439.506 773.037 439.567C773.004 441.714 771.599 445.44 770.841 447.588C769.542 449.626 767.998 453.893 766.432 456.717C764.831 460.897 760.896 465.247 758.354 468.951C738.431 497.983 702.976 514.298 668.334 515.579C662.811 515.783 656.98 514.941 651.448 514.989C651.069 516.202 651.36 515.661 650.593 516.622C646.766 516.582 643.723 512.738 640.002 510.676L640.069 512.448L639.319 513.07C637 513.107 636.526 513.248 634.437 512.427C633.064 511.126 633.153 510.807 632.809 509.039L632.239 508.707L629.049 510.423C626.4 509.512 623.697 509.242 623.038 506.454L622.799 504.598C608.548 498.785 592.479 486.871 582.815 475.015C565.054 453.476 556.384 425.866 558.644 398.04C559.076 392.077 561.137 386.675 561.54 381.991L561.609 381.087L561.213 380.379C561.533 378.335 569.936 357.271 570.884 355.877Z"></path><path fill="#DADAD9" d="M585.175 353.978L591.356 359.639C588.084 360.814 585.786 361.559 582.742 363.254C585.013 365.225 587.054 367.107 589.556 368.785C592.424 367.926 595.626 367.042 598.404 366.024C600.232 368.053 602.033 370.105 603.807 372.18C601.513 373.171 598.799 374.271 596.577 375.331C599.033 377.717 602.035 380.49 604.235 383.036C607.618 382.591 611.004 382.175 614.393 381.789C616.553 384.658 617.571 386.333 619.37 389.464L609.938 389.544C612.466 392.643 614.971 395.761 617.452 398.898C621.173 399.302 624.905 399.595 628.643 399.777L631.81 405.87C628.808 406.025 625.743 406.111 622.772 406.52C624.948 410.283 627.226 414.422 629.474 418.102L639.767 418.445L643.507 427.574C639.888 427.167 637.389 426.924 633.851 426.046C635.819 430.27 637.476 433.795 639.075 438.197C642.388 439.25 645.63 440.374 649.042 441.032L650.42 449.273C647.244 448.289 644.015 447.251 640.832 446.315L643.111 455.861C646.214 457.505 649.341 459.105 652.489 460.662C652.634 463.525 652.825 466.256 652.661 469.126C649.034 467.567 647.325 466.573 643.927 464.498C644.418 467.915 644.568 469.933 644.682 473.39C647.308 474.837 650.75 476.859 653.42 477.972C653.508 480.723 653.538 483.908 653.751 486.612C654.524 488.057 653.674 493.187 653.379 494.875C653.595 498.163 653.098 501.053 652.323 504.239C650.377 502.533 646.86 498.818 644.683 498.138L643.796 498.495C643.26 499.976 643.193 500.407 642.901 501.913L651.543 509.417L651.448 514.989C651.069 516.202 651.36 515.661 650.593 516.622C646.766 516.582 643.723 512.738 640.002 510.676L640.069 512.448L639.319 513.07C637 513.107 636.526 513.248 634.437 512.427C633.064 511.126 633.153 510.807 632.809 509.039L632.239 508.707L629.049 510.423C626.4 509.512 623.697 509.242 623.038 506.454L622.799 504.598C608.548 498.785 592.479 486.871 582.815 475.015C565.054 453.476 556.384 425.866 558.644 398.04C559.076 392.077 561.137 386.675 561.54 381.991L561.609 381.087L561.213 380.379C561.533 378.335 569.936 357.271 570.884 355.877L575.493 357.78L585.175 353.978Z"></path><path fill="#221F20" d="M585.175 353.978L591.356 359.639C588.084 360.814 585.786 361.559 582.742 363.254C585.013 365.225 587.054 367.107 589.556 368.785C592.424 367.926 595.626 367.042 598.404 366.024C600.232 368.053 602.033 370.105 603.807 372.18C601.513 373.171 598.799 374.271 596.577 375.331C599.033 377.717 602.035 380.49 604.235 383.036C607.618 382.591 611.004 382.175 614.393 381.789C616.553 384.658 617.571 386.333 619.37 389.464L609.938 389.544C612.466 392.643 614.971 395.761 617.452 398.898C621.173 399.302 624.905 399.595 628.643 399.777L631.81 405.87C628.808 406.025 625.743 406.111 622.772 406.52C624.948 410.283 627.226 414.422 629.474 418.102L639.767 418.445L643.507 427.574C639.888 427.167 637.389 426.924 633.851 426.046C635.819 430.27 637.476 433.795 639.075 438.197C642.388 439.25 645.63 440.374 649.042 441.032L650.42 449.273C647.244 448.289 644.015 447.251 640.832 446.315L643.111 455.861C646.214 457.505 649.341 459.105 652.489 460.662C652.634 463.525 652.825 466.256 652.661 469.126C649.034 467.567 647.325 466.573 643.927 464.498C644.418 467.915 644.568 469.933 644.682 473.39C647.308 474.837 650.75 476.859 653.42 477.972C653.508 480.723 653.538 483.908 653.751 486.612C654.524 488.057 653.674 493.187 653.379 494.875C653.595 498.163 653.098 501.053 652.323 504.239C650.377 502.533 646.86 498.818 644.683 498.138L643.796 498.495C643.26 499.976 643.193 500.407 642.901 501.913L651.543 509.417L651.448 514.989C651.069 516.202 651.36 515.661 650.593 516.622C646.766 516.582 643.723 512.738 640.002 510.676L640.069 512.448L639.319 513.07C637 513.107 636.526 513.248 634.437 512.427C633.064 511.126 633.153 510.807 632.809 509.039L632.239 508.707L629.049 510.423C626.4 509.512 623.697 509.242 623.038 506.454C624.301 503.591 631.303 500.739 634.55 499.054L635.787 494.194C631.7 495.705 628.526 496.658 624.315 497.833C624.648 495.539 624.876 493.309 625.12 491.007C629.505 489.007 632.3 487.653 636.428 485.217L637.113 477.895L626.325 482.302C626.53 479.509 626.519 476.741 626.54 473.943C630.488 472.704 633.179 471.898 636.904 470.162L635.903 462.883C632.891 464.303 629.916 465.915 626.964 467.468C626.483 465.131 625.828 462.635 625.264 460.299C628.318 458.758 631.865 456.649 634.895 454.949C634.106 451.707 633.186 448.635 632.241 445.439L623.878 451.639L621.451 444.334C624.188 441.93 626.962 439.57 629.774 437.256C628.436 434.459 627.133 431.646 625.865 428.817C624.515 430.814 620.499 434.895 618.674 436.846L615.25 429.828C617.293 426.732 619.682 424.128 622.112 421.33C619.437 416.889 617.144 413.623 614.142 409.447C612.392 413.187 610.876 415.947 608.345 419.188L603.42 411.53C605.352 408.163 607.246 405.222 609.37 401.967L603.545 394.196C601.354 397.903 600.243 400.807 598.602 404.813C596.389 402.306 594.198 399.779 592.029 397.234C593.715 393.71 595.364 390.814 597.313 387.419C595.226 385.364 592.347 383.04 590.07 381.109C588.812 385.166 587.905 388.306 586.107 392.162C583.619 390.418 581.477 388.751 579.092 386.879C580.378 382.724 581.821 378.62 583.418 374.575C580.454 371.973 578.303 370.274 575.11 367.946C572.452 373.374 571.105 378.705 569.556 384.489C566.952 383.254 564.301 382.119 561.609 381.087L561.213 380.379C561.533 378.335 569.936 357.271 570.884 355.877L575.493 357.78L585.175 353.978Z"></path><path fill="#D3D3D3" d="M644.578 481.541C646.955 482.963 651.498 486.268 653.751 486.612C654.524 488.057 653.674 493.187 653.379 494.875C650.303 492.714 647.338 490.398 644.497 487.936C644.591 485.696 644.587 483.785 644.578 481.541Z"></path><path fill="#DADAD9" d="M706.031 305.468C712.844 309.578 720.491 312.62 726.842 316.696C751.336 332.291 768.919 356.683 775.972 384.85C778.776 396.222 779.473 405.648 778.265 417.283C777.993 419.904 776.783 428.504 776.971 430.514C775.685 429.015 773.807 428.337 771.998 427.464C768.575 429.317 764.791 432.106 761.545 434.364C758.649 432.703 755.803 430.881 752.968 429.109C755.827 426.66 758.45 424.995 761.592 422.914C759.296 420.508 758.04 419.409 755.465 417.311L746.127 424.244L739.692 418.81C742.702 417.239 745.981 415.689 749.043 414.174L743.011 408.914C740.092 410.175 736.169 412.3 733.248 413.776L727.667 408.439C730.876 406.998 733.119 405.84 736.2 404.128C733.78 401.919 732.694 400.981 730.686 398.376C727.421 400.218 725.36 401.169 721.9 402.65C719.773 400.63 719.084 399.704 717.347 397.401C720.667 396.299 723.038 395.462 726.481 394.817C725.253 392.388 723.549 389.729 722.126 387.371C719.127 388.539 715.718 389.336 712.575 390.165L708.089 382.154L718.194 381.658C716.676 378.697 716.066 377.271 714.96 374.132L704.545 374.142C703.088 371.243 701.89 368.446 700.603 365.472L711.079 367.237C710.316 364.877 709.639 361.65 709.046 359.18C705.049 358.526 701.805 357.825 697.856 356.894L695.64 347.067L705.956 350.503L704.768 342.263C701.342 341.12 698.015 339.75 694.66 338.415L692.997 327.41C697.108 329.461 699.839 330.657 704.137 332.278L704.376 323.521C700.417 321.856 696.441 320.233 692.449 318.652L692.485 308.506L704.838 313.277L706.031 305.468Z"></path><path fill="#221F20" d="M680.157 301.336C685.889 299.618 700.945 302.976 706.031 305.468L704.838 313.277L692.485 308.506L692.449 318.652C696.441 320.233 700.417 321.856 704.376 323.521L704.137 332.278C699.839 330.657 697.108 329.461 692.997 327.41L694.66 338.415C698.015 339.75 701.342 341.12 704.768 342.263L705.956 350.503L695.64 347.067L697.856 356.894C701.805 357.825 705.049 358.526 709.046 359.18C709.639 361.65 710.316 364.877 711.079 367.237L700.603 365.472C701.89 368.446 703.088 371.243 704.545 374.142L714.96 374.132C716.066 377.271 716.676 378.697 718.194 381.658L708.089 382.154L712.575 390.165C715.718 389.336 719.127 388.539 722.126 387.371C723.549 389.729 725.253 392.388 726.481 394.817C723.038 395.462 720.667 396.299 717.347 397.401C719.084 399.704 719.773 400.63 721.9 402.65C725.36 401.169 727.421 400.218 730.686 398.376C732.694 400.981 733.78 401.919 736.2 404.128C733.119 405.84 730.876 406.998 727.667 408.439L733.248 413.776C736.169 412.3 740.092 410.175 743.011 408.914L749.043 414.174C745.981 415.689 742.702 417.239 739.692 418.81L746.127 424.244L755.465 417.311C758.04 419.409 759.296 420.508 761.592 422.914C758.45 424.995 755.827 426.66 752.968 429.109C755.803 430.881 758.649 432.703 761.545 434.364C764.791 432.106 768.575 429.317 771.998 427.464C773.807 428.337 775.685 429.015 776.971 430.514C775.431 434.094 771.997 436.823 771.115 439.254C772.211 439.564 771.923 439.506 773.037 439.567C773.004 441.714 771.599 445.44 770.841 447.588C769.542 449.626 767.998 453.893 766.432 456.717C765.774 456.404 765.253 456.163 764.616 455.8C762.554 455.653 761.397 455.538 759.374 455.138C758.256 452.186 757.509 445.341 757.212 442.012L749.244 436.39C749.904 441.286 750.424 444.997 750.59 449.969C747.844 448.189 745.282 446.673 742.451 445.031C741.885 440.402 741.26 435.781 740.577 431.167L735.051 426.104C734.974 430.376 735.141 433.644 735.994 437.801C732.977 436.088 730.45 434.411 727.558 432.488L727.682 419.569C723.654 416.75 719.342 412.026 715.792 408.454C714.649 411.932 713.829 415.161 712.919 418.708C710.452 416.291 708.636 414.531 706.441 411.857C707.422 408.322 708.464 404.805 709.566 401.306C706.644 396.405 703.984 391.583 700.978 386.641C699.489 389.037 697.673 392.909 696.352 395.53C694.566 393.07 692.831 390.057 691.227 387.423C693.161 384.471 694.903 381.499 696.702 378.465C695.278 375.101 694.028 371.165 692.835 367.671C690.687 370.541 688.256 373.478 686.003 376.292L682.844 367.479C685.129 364.765 688.022 361.951 690.536 359.394C689.756 355.848 688.582 351.979 687.589 348.449L680.171 353.715C679.206 351.19 678.567 348.681 677.844 346.08C680.474 343.787 683.053 341.215 685.571 338.78C685.103 335.257 685.039 331.482 684.902 327.912C681.844 329.302 678.685 330.885 675.645 332.349C675.441 329.631 674.81 326.43 674.355 323.703C677.124 322.053 681.177 320.13 684.136 318.625C684.393 315.255 684.511 311.651 684.68 308.256C681.348 309.575 678.227 310.942 674.949 312.395L675.134 303.443L680.157 301.336Z"></path><path fill="#D3D3D3" d="M766.095 446.337C767.916 446.815 768.865 447.34 770.841 447.588C769.542 449.626 767.998 453.893 766.432 456.717C765.774 456.404 765.253 456.163 764.616 455.8C768.105 455.008 766.28 450.207 766.095 446.337Z"></path></svg>
