<?xml version="1.0"?>
<svg xmlns="http://www.w3.org/2000/svg" viewBox="543.74 749.21 241.99 245.13" width="241.99" height="245.13"><path fill="#221F20" d="M614.865 772.161C637.939 760.498 664.347 757.211 689.577 762.861C693.428 763.724 697.231 764.79 700.97 766.056C721.793 773.105 740.069 786.148 753.504 803.548C755.508 806.144 757.397 808.826 759.164 811.588C771.623 831.051 777.73 853.902 776.642 876.986C776.47 880.639 776.118 884.282 775.588 887.9C772.393 909.72 762.804 930.104 748.031 946.477C745.646 949.12 743.136 951.647 740.51 954.05C716.577 975.948 684.298 986.346 652.083 982.534C648.848 982.151 645.63 981.626 642.441 980.962C618.588 975.993 597.018 963.353 581.025 944.972C578.743 942.349 576.584 939.621 574.557 936.796C559.014 915.143 551.736 888.64 554.041 862.086C554.293 859.189 554.657 856.304 555.134 853.436C560.191 823.023 577.607 796.059 603.249 778.941C606.981 776.45 610.86 774.186 614.865 772.161Z"></path><path fill="#A8A7A7" d="M671.907 852.988C678.714 853.891 687.884 854.84 694.409 856.176C689.364 895.547 679.529 935.055 654.219 966.949C652.048 969.685 643.24 978.871 642.441 980.962C618.588 975.993 597.018 963.353 581.025 944.972C592.323 934.083 603.379 926.629 617.38 919.598C643.559 906.454 666.502 882.588 671.907 852.988Z"></path><path fill="#A8A7A7" d="M554.041 862.086L554.533 863.505C555.29 863.605 584.267 856.76 589.008 855.972C613.939 851.83 636.533 851.007 661.677 851.607C655.411 876.795 638.066 896.769 615.326 908.689C600.189 916.624 586.794 924.596 574.557 936.796C559.014 915.143 551.736 888.64 554.041 862.086Z"></path><path fill="#A8A7A7" d="M555.134 853.436C560.191 823.023 577.607 796.059 603.249 778.941C635.663 792.12 657.191 803.48 662.127 841.074C622.277 839.766 593.92 842.356 555.134 853.436Z"></path><path fill="#A8A7A7" d="M704.676 858.205L721.54 863.006C719.74 890.927 722.93 913.026 733.185 939.242C734.795 943.357 737.921 950.831 740.51 954.05C716.577 975.948 684.298 986.346 652.083 982.534C652.645 982.366 653.584 981.801 653.99 981.369C685.509 947.871 700.448 903.247 704.676 858.205Z"></path><path fill="#A8A7A7" d="M614.865 772.161C637.939 760.498 664.347 757.211 689.577 762.861C690.528 770.773 692.005 778.633 692.92 786.521C695.103 805.356 696.354 826.108 695.375 845.07C687.806 843.815 680.209 842.742 672.589 841.853C671.205 826.745 669.293 818.182 660.433 805.371C648.222 787.716 633.214 781.119 614.865 772.161Z"></path><path fill="#A8A7A7" d="M700.97 766.056C721.793 773.105 740.069 786.148 753.504 803.548C737.659 815.875 728.76 832.998 723.544 852.019C717.715 850.063 711.935 848.778 705.96 847.379C707.587 820.169 705.911 792.862 700.97 766.056Z"></path><path fill="#A8A7A7" d="M732.057 866.81C745.341 871.919 760.384 878.912 772.381 886.855C773.529 887.615 773.492 887.729 774.919 888.506L775.588 887.9C772.393 909.72 762.804 930.104 748.031 946.477C738.222 929.196 732.401 904.947 731.677 885.228C731.468 879.533 731.831 872.577 732.057 866.81Z"></path><path fill="#A8A7A7" d="M759.164 811.588C771.623 831.051 777.73 853.902 776.642 876.986C764.436 868.28 747.781 861.181 734.093 855.2C738.363 836.412 745.494 824.599 759.164 811.588Z"></path></svg>
