<?xml version="1.0"?>
<svg xmlns="http://www.w3.org/2000/svg" viewBox="233.53 749.27 242.23 240.36" width="242.23" height="240.36"><path fill="#221F20" d="M348.888 757.317C352.79 757.287 356.389 757.273 360.283 757.449C384.814 758.76 409.069 766.999 427.136 784.084C429.693 786.557 432.232 789.048 434.752 791.557C456.991 813.267 463.99 836.139 467.43 865.77C467.444 868.194 467.373 871.433 467.49 873.793C467.757 897.654 454.057 925.041 437.871 942.407C435.514 944.811 432.886 947.388 430.633 949.85C409.925 969.747 382.514 981.483 353.488 981.628C351.99 981.635 350.633 981.565 349.169 981.247C319.082 977.631 299.365 970.922 276.69 949.929C274.349 947.748 271.863 944.863 269.684 942.447C267.7 940.572 264.081 935.724 262.273 933.437C248.229 915.665 243.892 898.723 241.525 876.772L241.526 865.748C242.38 837.074 255.461 813.767 273.406 792.49C275.904 789.774 278.466 786.869 281.203 784.416C299.531 766.711 323.848 758.651 348.888 757.317Z"></path><path fill="#A8A7A7" d="M328.043 862.472C334.04 862.005 342.596 861.577 348.637 861.727C349.295 901.524 348.823 941.427 349.169 981.247C319.082 977.631 299.365 970.922 276.69 949.929C300.546 933.001 321.026 907.544 326.443 878.157C327.325 873.373 327.69 867.382 328.043 862.472Z"></path><path fill="#A8A7A7" d="M360.293 861.762C367.133 862.084 373.966 862.528 380.79 863.094C382.67 898.242 402.349 929.539 430.633 949.85C409.925 969.747 382.514 981.483 353.488 981.628C351.99 981.635 350.633 981.565 349.169 981.247C352.877 981.204 356.585 981.125 360.292 981.012L360.087 900.992C360.088 888.25 359.85 874.435 360.293 861.762Z"></path><path fill="#A8A7A7" d="M281.203 784.416C299.531 766.711 323.848 758.651 348.888 757.317C348.733 788.365 348.785 819.414 349.045 850.461C341.617 850.532 334.193 850.77 326.776 851.174C323.839 827.319 305.884 802.446 287.106 788.407C284.852 786.722 283.767 785.729 281.203 784.416Z"></path><path fill="#A8A7A7" d="M360.283 757.449C384.814 758.76 409.069 766.999 427.136 784.084C427.03 784.148 426.925 784.211 426.82 784.274C400.881 803.59 388.679 820.77 381.705 851.717C374.561 851.396 367.42 851.019 360.283 850.586C360.309 819.862 359.675 788.004 360.283 757.449Z"></path><path fill="#A8A7A7" d="M241.525 876.772C266.797 871.143 290.766 865.735 316.677 863.119C315.958 890.358 303.416 911.971 283.8 930.459C279.27 934.657 274.56 938.657 269.684 942.447C267.7 940.572 264.081 935.724 262.273 933.437C248.229 915.665 243.892 898.723 241.525 876.772Z"></path><path fill="#A8A7A7" d="M391.904 863.833C404.596 864.148 418.03 867.285 430.437 869.027C434.595 869.611 465.596 876.857 466.837 876.453L467.49 873.793C467.757 897.654 454.057 925.041 437.871 942.407C413.696 924.628 392.825 894.544 391.904 863.833Z"></path><path fill="#A8A7A7" d="M434.752 791.557C456.991 813.267 463.99 836.139 467.43 865.77C463.703 864.419 455.386 862.924 451.319 862.004C432.015 857.636 412.805 855.161 393.147 852.953C395.259 835.904 405.534 817.713 417.928 806.022C423.316 800.94 429.286 796.565 434.752 791.557Z"></path><path fill="#A8A7A7" d="M273.406 792.49C293.749 806.96 312.436 826.437 315.847 852.331C296.724 854.257 277.739 857.356 258.997 861.612C254.633 862.566 245.386 864.377 241.526 865.748C242.38 837.074 255.461 813.767 273.406 792.49Z"></path></svg>
