<?xml version="1.0"?>
<svg xmlns="http://www.w3.org/2000/svg" viewBox="207.68 541.64 291.6 188.13" width="291.6" height="188.13"><path fill="#7D7D7C" d="M276.599 580.982C316.997 549.923 384.132 549.636 426.706 576.525C431.817 578.656 449.641 590.127 453.223 594.155C466.122 604.218 478.165 615.332 489.231 627.382C490.193 632.003 490.928 636.138 491.274 640.863C486.032 649.865 462.411 670.932 453.057 676.402C447.404 680.381 436.922 687.615 430.615 690.039C386.561 715.42 332.386 721.762 286.607 697.507C283.747 695.992 278.983 693.345 276.119 692.179C271.366 689.99 255.706 680.482 251.256 677.234C238.207 668.924 225.133 658.2 215.675 645.875C215.678 640.744 215.813 635.614 216.079 630.49C224.058 618.351 242.481 602.992 254.43 594.557C255.828 592.555 273.643 582.365 276.599 580.982Z"></path><path fill="#DADAD9" d="M426.706 576.525C431.817 578.656 449.641 590.127 453.223 594.155C466.122 604.218 478.165 615.332 489.231 627.382C490.193 632.003 490.928 636.138 491.274 640.863C486.032 649.865 462.411 670.932 453.057 676.402C447.404 680.381 436.922 687.615 430.615 690.039C431.375 684.87 431.787 676.453 432.163 671.069C434.45 638.247 433.264 608.816 426.706 576.525Z"></path><path fill="#7D7D7C" d="M453.223 594.155C466.122 604.218 478.165 615.332 489.231 627.382C490.193 632.003 490.928 636.138 491.274 640.863C486.032 649.865 462.411 670.932 453.057 676.402C454.039 670.592 455.56 665.055 456.329 659.154C458.381 643.424 458.454 627.126 456.387 611.396C455.621 605.573 454.256 599.91 453.223 594.155Z"></path><path fill="#DADAD9" d="M254.43 594.557C255.828 592.555 273.643 582.365 276.599 580.982C275.609 585.628 274.677 595.579 274.314 600.47C272.192 629.113 272.033 663.701 276.119 692.179C271.366 689.99 255.706 680.482 251.256 677.234C238.207 668.924 225.133 658.2 215.675 645.875C215.678 640.744 215.813 635.614 216.079 630.49C224.058 618.351 242.481 602.992 254.43 594.557Z"></path><path fill="#7D7D7C" d="M254.43 594.557L254.366 594.958C253.485 600.165 251.335 605.888 250.393 611.3C246.057 636.218 247.567 653.002 251.256 677.234C238.207 668.924 225.133 658.2 215.675 645.875C215.678 640.744 215.813 635.614 216.079 630.49C224.058 618.351 242.481 602.992 254.43 594.557Z"></path><path fill="#DADAD9" d="M357.816 613.78L367.721 614.105L368.573 623.828C372.155 623.937 375.604 624.271 379.17 624.587C378.977 621.454 378.983 617.843 378.917 614.666C381.692 614.641 384.805 614.776 387.602 614.844C387.979 618.239 388.203 621.937 388.475 625.366C392.459 625.99 395.363 626.306 399.39 626.591L399.576 617.562L408.417 617.709C408.703 621.309 408.939 624.913 409.125 628.519L419.628 629.63C419.71 632.806 419.615 636.267 419.586 639.469C416.407 638.931 413.412 638.658 410.208 638.34C410.221 641.911 410.125 645.606 410.08 649.188L400.862 648.441C400.417 645.011 400.457 640.665 400.395 637.136C396.939 636.557 392.478 636.221 388.916 635.859C389.006 639.652 389.262 643.636 389.446 647.44C386.305 647.266 383.163 647.112 380.02 646.977L380.021 635.427C376.36 635.012 371.745 634.961 367.981 634.829L368.036 646.468C364.845 646.44 361.565 646.247 358.367 646.1L358.503 634.082L346.344 634.068L346.094 646.468L336.554 646.667L336.567 634.435L325.603 634.634C325.562 638.895 325.375 642.753 325.12 647.011L315.623 647.114C315.51 643.632 315.582 639.796 315.577 636.284C311.211 636.568 307.865 636.947 303.531 637.574C303.339 641.217 303.125 644.858 302.889 648.499L293.515 648.52L293.667 638.284L285.984 639.452L285.888 630.19L294.408 628.762C294.448 624.952 294.645 622.192 295.019 618.39L304.16 618.044L304.349 626.748C308.713 625.928 311.388 625.645 315.835 625.329C315.915 621.756 316.072 618.13 316.194 614.553L325.985 614.462L325.82 624.051C329.94 623.659 333.18 623.53 337.328 623.453L337.478 613.974L347.038 613.985L346.968 623.419L357.993 623.29L357.816 613.78Z"></path></svg>
