<?xml version="1.0"?>
<svg xmlns="http://www.w3.org/2000/svg" viewBox="527.47 535.43 289.46 188.73" width="289.46" height="188.73"><path fill="#7D7D7C" d="M576.972 606.947C597.764 584.263 614.212 571.675 642.352 558.761C669.102 546.486 689.994 543.426 719.206 546.843C724.792 547.203 740.211 549.931 746.181 551.299C759.751 553.674 796.657 562.726 804.304 573.912C805.905 576.254 807.414 578.668 808.933 581.064C802.122 599.347 792.997 616.682 781.782 632.647C778.517 638.175 770.557 648.936 765.789 653.238C738.897 687.323 699.622 709.395 656.525 714.644C643.407 716.153 635.861 714.987 623.872 715.54C619.358 715.519 595.423 711.895 591.577 710.22C576.923 706.292 555.007 698.626 541.859 690.782C540.798 688.731 537.13 679.168 536.928 677.343C535.473 664.22 554.786 635.959 561.858 625.629C564.045 621.117 573.137 610.742 576.972 606.947Z"></path><path fill="#DADAD9" d="M576.972 606.947C586.07 639.393 598.453 670.826 613.928 700.76C615.555 703.974 619.813 712.952 622.013 714.952L623.872 715.54C619.358 715.519 595.423 711.895 591.577 710.22C576.923 706.292 555.007 698.626 541.859 690.782C540.798 688.731 537.13 679.168 536.928 677.343C535.473 664.22 554.786 635.959 561.858 625.629C564.045 621.117 573.137 610.742 576.972 606.947Z"></path><path fill="#7D7D7C" d="M561.858 625.629C561.931 625.89 562.004 626.152 562.076 626.413C564.077 656.703 576.3 684.432 591.577 710.22C576.923 706.292 555.007 698.626 541.859 690.782C540.798 688.731 537.13 679.168 536.928 677.343C535.473 664.22 554.786 635.959 561.858 625.629Z"></path><path fill="#DADAD9" d="M719.206 546.843C724.792 547.203 740.211 549.931 746.181 551.299C759.751 553.674 796.657 562.726 804.304 573.912C805.905 576.254 807.414 578.668 808.933 581.064C802.122 599.347 792.997 616.682 781.782 632.647C778.517 638.175 770.557 648.936 765.789 653.238C760.108 626.335 734.597 570.837 719.206 546.843Z"></path><path fill="#7D7D7C" d="M746.181 551.299C759.751 553.674 796.657 562.726 804.304 573.912C805.905 576.254 807.414 578.668 808.933 581.064C802.122 599.347 792.997 616.682 781.782 632.647C780.913 630.18 779.842 621.314 779.203 618.085C777.008 606.879 773.385 596.002 768.423 585.718C765.142 578.963 761.394 572.445 757.204 566.212C755.046 563.065 747.032 553.559 746.181 551.299Z"></path><path fill="#DADAD9" d="M715.279 593.444C717.83 594.182 720.294 599.701 721.804 602.388L732.221 598.926L735.275 608.544L725.575 611.518C727.574 615.469 728.692 617.908 730.245 622.037C727.125 623.196 724.728 624.016 721.533 624.93C719.766 621.281 718.407 618.102 716.87 614.344L705.701 617.742C707.196 621.418 708.587 625.283 709.98 629.013C707.128 629.773 704.124 630.864 701.31 631.814C699.576 628.047 697.804 624.298 695.994 620.567C691.928 621.781 688.402 622.89 684.418 624.334L689.367 635.658L680.725 638.985C679.253 635.114 677.727 631.264 676.147 627.435C672.384 628.922 668.64 630.455 664.915 632.034C666.39 636.033 668.027 640.1 669.573 644.083C666.554 645.067 663.528 646.032 660.497 646.978C659.198 643.271 657.504 639.22 656.055 635.533C653.231 637.178 648.736 639.226 645.704 640.723C647.185 644.501 648.428 648.363 649.709 652.214L640.716 655.925L636.499 645.284C632.475 647.178 629.771 648.859 625.958 651.214L628.06 656.624L629.958 662.554C627.366 663.848 624.166 665.205 621.487 666.426C619.866 662.604 618.839 659.847 617.555 655.894L609.961 659.099C608.724 656.227 607.471 653.36 606.203 650.501C608.215 649.151 612.151 647.141 614.389 645.921C612.783 642.301 611.765 639.675 610.468 635.929L618.994 632.685L622.161 641.327C625.751 639.654 629.373 637.605 632.867 635.704C631.897 631.859 630.76 628.51 629.502 624.746C632.196 623.271 634.959 622.133 637.775 620.913C639.001 623.406 640.731 628.238 641.804 630.982C645.176 629.388 648.774 627.46 652.122 625.754C650.982 622.466 649.902 619.157 648.884 615.829C651.485 614.676 654.433 613.544 657.091 612.457C658.915 615.719 660.026 618.591 661.438 622.043C664.805 620.722 668.316 619.185 671.671 617.784C670.563 615.055 668.94 611.786 667.675 609.066C670.376 607.774 672.998 606.744 675.774 605.631L680.525 614.96L692.006 611.268C690.557 608.201 689.333 604.743 688.126 601.546C690.789 600.26 693.379 599.405 696.158 598.413C697.766 601.416 699.383 604.86 700.911 607.941C704.633 607.023 708.746 605.76 712.471 604.708L708.82 595.836L715.279 593.444Z"></path></svg>
