<?xml version="1.0"?>
<svg xmlns="http://www.w3.org/2000/svg" viewBox="557.43 31.14 234.38 235.35" width="234.38" height="235.35"><path fill="#DADAD9" d="M626.87 54.8081C641.637 47.3572 663.755 39.1403 680.232 40.5203C683.715 40.812 694.764 40.2972 696.786 42.4177C700.749 44.8535 709.837 46.9667 714.407 48.4259C722.561 51.0291 744.203 64.9063 750.024 70.7932C773.912 96.3115 774.028 102.347 782.967 135.036L782.956 135.556C782.908 139.211 783.354 142.591 783.476 146.233C783.807 154.126 783.347 162.033 782.103 169.836C781.541 173.396 776.702 188.527 776.881 190.458C766.593 210.822 756.515 227.182 737.426 240.184C735.043 241.807 729.523 246.591 727.035 247.025C710.212 254.709 688.28 258.486 669.98 256.713C666.907 256.415 661.662 256.523 658.81 255.988C657.631 256.246 657.057 256.348 655.869 256.141C640.44 253.453 624.229 248.25 612.421 237.531C609.654 235.018 607.254 233.446 604.97 230.335C603.01 229.107 600.144 225.573 598.44 223.642C586.382 209.972 579.708 196.653 572.572 180.165C570.654 173.205 565.43 154.071 565.642 147.473C565.973 137.176 573.347 117.15 576.633 107.206C582.916 91.8392 598.547 74.3457 611.857 64.6489C616.31 61.405 621.672 58.7314 626.338 55.2168L626.87 54.8081Z"></path><path fill="#221F20" d="M642.867 146.443C648.567 141.511 674.677 111.833 677.495 110.839L679.442 111.781C684.734 115.165 691.721 118.69 697.237 121.803C699.921 123.256 710.89 129.499 712.952 130.297C714.64 131.642 717.163 133.104 719.054 134.198C718.886 137.787 718.543 141.086 718.482 144.684C717.91 149.618 714.253 178.114 714.637 181.084C700.424 183.861 685.241 188.821 670.28 191.769C665.558 186.453 655.375 168.696 651.209 162.022C650.63 160.583 646.816 154.101 645.85 152.383L642.867 146.443Z"></path><path fill="#221F20" d="M587.581 104.261C588.659 107.426 589.655 113.278 590.27 116.748C590.544 118.098 590.847 119.375 591.118 120.744L592.092 125.493C592.488 127.366 592.9 129.627 593.422 131.441C594.472 136.41 595.27 138.789 596.908 143.563C591.554 150.653 587.039 158.339 583.455 166.468C582.402 168.867 577.866 181.113 576.927 181.98L572.572 180.165C570.654 173.205 565.43 154.071 565.642 147.473C565.973 137.176 573.347 117.15 576.633 107.206L587.581 104.261Z"></path><path fill="#221F20" d="M626.87 54.8081C641.637 47.3572 663.755 39.1403 680.232 40.5203C683.715 40.812 694.764 40.2972 696.786 42.4177L697.389 48.8052C692.243 50.2968 673.162 67.7827 668.721 71.6304C656.952 67.1145 636.762 65.1838 624.515 64.7802C625.353 62.2729 626.264 57.5547 626.87 54.8081Z"></path><path fill="#221F20" d="M599.298 217.906C605.365 220.225 609.642 221.721 616.008 223.362C617.906 223.826 619.819 224.225 621.745 224.559C623.161 224.846 624.583 225.066 626.004 225.325C627.741 225.636 629.491 225.874 631.249 226.038C633.869 226.304 635.074 226.462 637.796 226.533L643.078 226.95C650.799 234.537 658.366 244.037 666.527 252.17C664.628 253.055 660.332 254.94 658.81 255.988C657.631 256.246 657.057 256.348 655.869 256.141C640.44 253.453 624.229 248.25 612.421 237.531C609.654 235.018 607.254 233.446 604.97 230.335C604.152 227.075 600.873 220.913 599.298 217.906Z"></path><path fill="#221F20" d="M750.024 70.7932C773.912 96.3115 774.028 102.347 782.967 135.036C780.037 138.585 779.531 136.971 776.801 134.65C768.047 127.208 758.74 120.395 749.522 113.542C748.264 101.271 747.735 85.8883 747.279 73.4391L750.024 70.7932Z"></path><path fill="#221F20" d="M772.762 188.334L773.808 188.154C774.617 188.756 776.172 189.846 776.881 190.458C766.593 210.822 756.515 227.182 737.426 240.184C735.043 241.807 729.523 246.591 727.035 247.025C725.379 246.523 724.201 246.369 723.02 245.135C722.97 243.187 723.808 242.433 724.876 240.527C731.353 230.712 736.432 218.857 740.224 207.782L740.783 206.365C742.091 204.464 754.011 199.858 757.499 198.043C760.74 196.364 763.86 194.459 766.835 192.344C768.957 191.007 770.735 189.778 772.762 188.334Z"></path><path fill="#DADAD9" d="M576.633 107.206C582.916 91.8392 598.547 74.3457 611.857 64.6489C616.31 61.405 621.672 58.7314 626.338 55.2168L626.87 54.8081C626.264 57.5547 625.353 62.2729 624.515 64.7802C612.913 70.2452 600.824 83.8475 593.487 94.162C592.466 95.5973 588.058 103.868 587.581 104.261L576.633 107.206Z"></path><path fill="#A8A7A7" d="M668.721 71.6304C673.162 67.7827 692.243 50.2968 697.389 48.8052C698.094 49.3889 698.311 49.5301 699.18 49.9302C696.927 51.4767 694.795 51.568 690.39 54.8734C684.39 59.3765 676.232 67.7692 670.379 71.4243C670.403 74.6641 675.59 106.221 676.526 108.205C678.082 108.878 678.33 108.838 679.637 109.901L679.442 111.781L677.495 110.839C674.677 111.833 648.567 141.511 642.867 146.443L645.85 152.383C642.426 150.074 642.611 149.487 640.437 147.189C640.221 146.96 634.671 146.659 632.719 145.536C633.985 144.351 640.592 147.116 643.752 142.953C649.394 135.522 671.778 116.039 675.263 108.881C674.432 98.6117 670.826 83.4007 668.837 73.0436L668.721 71.6304Z"></path><path fill="#A8A7A7" d="M624.515 64.7802C636.762 65.1838 656.952 67.1145 668.721 71.6304L668.837 73.0436L668.373 72.9973C657.547 71.8087 634.296 64.4009 624.418 67.3144C611.008 71.2692 596.093 91.5443 589.191 103.408C589.878 106.996 590.502 109.993 591.426 113.521C591.172 115.251 591.128 115.214 590.27 116.748C589.655 113.278 588.659 107.426 587.581 104.261C588.058 103.868 592.466 95.5973 593.487 94.162C600.824 83.8475 612.913 70.2452 624.515 64.7802Z"></path><path fill="#A8A7A7" d="M651.209 162.022C655.375 168.696 665.558 186.453 670.28 191.769C685.241 188.821 700.424 183.861 714.637 181.084L715.832 182.883C712.241 182.821 709.144 184.876 706.035 185.304C700.45 186.072 671.051 196.055 667.78 191.265C663.735 185.341 650.977 168.057 651.209 162.022Z"></path><path fill="#A8A7A7" d="M593.422 131.441C593.601 131.692 593.779 131.943 593.958 132.195C594.062 132.416 594.166 132.637 594.27 132.858C594.381 133.099 594.556 133.401 594.79 133.543C594.864 133.588 595.021 133.561 595.081 133.514C595.241 133.397 595.401 133.279 595.562 133.161C596.233 137.139 597.841 140.397 598.307 144.348C591.022 154.59 587.423 160.855 582.7 172.722C581.925 174.671 579.124 183.557 578.46 184.158C577.476 183.19 577.535 183.231 576.927 181.98C577.866 181.113 582.402 168.867 583.455 166.468C587.039 158.339 591.554 150.653 596.908 143.563C595.27 138.789 594.472 136.41 593.422 131.441Z"></path><path fill="#D3D3D3" d="M599.298 217.906C598.611 217.394 597.995 216.831 597.805 216.009C597.572 215.004 598.459 214.572 599.278 214.882C600.782 215.451 601.751 216.522 603.165 217.204C608.738 219.023 614.3 221.035 619.998 222.411C620.44 222.508 620.883 222.604 621.325 222.701C622.171 222.835 622.998 222.949 623.814 223.225C624.29 223.31 624.765 223.395 625.241 223.479C626.173 223.729 627.042 223.784 627.998 223.856C629.271 223.953 631.105 224.569 632.324 224.695C635.095 224.981 635.606 224.677 637.796 226.533C635.074 226.462 633.869 226.304 631.249 226.038C629.491 225.874 627.741 225.636 626.004 225.325C624.583 225.066 623.161 224.846 621.745 224.559C619.819 224.225 617.906 223.826 616.008 223.362C609.642 221.721 605.365 220.225 599.298 217.906Z"></path><path fill="#D3D3D3" d="M724.876 240.527C723.58 236.935 730.86 227.762 731.936 223.276C732.289 221.802 737.891 209.317 738.128 209.086C738.293 209.147 738.458 209.209 738.623 209.27C738.996 209.203 740.001 208.006 740.224 207.782C736.432 218.857 731.353 230.712 724.876 240.527Z"></path><path fill="#D3D3D3" d="M643.078 226.95C644.156 226.301 644.6 226.366 645.91 226.805C648.378 231.444 657.112 238.487 660.459 243.017C661.646 244.624 663.444 245.607 664.001 247.516C665.613 250.757 667.023 247.91 666.527 252.17C658.366 244.037 650.799 234.537 643.078 226.95Z"></path><path fill="#A8A7A7" d="M740.783 206.365C740.41 205.3 740.089 204.464 740.437 203.32C740.683 203.159 740.72 203.201 741.006 203.121C748.504 201.007 755.456 197.116 762.167 193.233C763.686 192.354 764.538 191.454 766.159 192.089L766.835 192.344C763.86 194.459 760.74 196.364 757.499 198.043C754.011 199.858 742.091 204.464 740.783 206.365Z"></path><path fill="#A8A7A7" d="M772.762 188.334C772.92 182.602 775.541 173.79 776.565 167.768L777.032 165.014C777.989 160.074 778.472 155.47 778.919 150.493C779.243 146.885 778.74 143.081 779.309 139.633C779.329 139.541 779.514 139.618 779.544 139.626C780.266 140.525 779.614 149.711 779.554 151.254C779.205 160.323 777.39 169.646 775.458 178.488L774.748 181.603C774.295 183.626 774.401 185.645 773.808 188.154L772.762 188.334Z"></path><path fill="#A8A7A7" d="M679.637 109.901C684.807 112.216 689.517 115.349 694.508 118.012C697.648 119.687 697.285 119.071 697.237 121.803C691.721 118.69 684.734 115.165 679.442 111.781L679.637 109.901Z"></path><path fill="#D3D3D3" d="M591.426 113.521C592.582 119.951 594.766 126.832 595.562 133.161C595.401 133.279 595.241 133.397 595.081 133.514C595.021 133.561 594.864 133.588 594.79 133.543C594.556 133.401 594.381 133.099 594.27 132.858C594.166 132.637 594.062 132.416 593.958 132.195C593.779 131.943 593.601 131.692 593.422 131.441C592.9 129.627 592.488 127.366 592.092 125.493L591.118 120.744C590.847 119.375 590.544 118.098 590.27 116.748C591.128 115.214 591.172 115.251 591.426 113.521Z"></path><path fill="#D3D3D3" d="M712.952 130.297C717.308 130.59 716.391 130.342 719.192 132.305C723.105 135.047 720.14 135.6 720.064 140.267C720.054 142.051 719.683 143.035 718.482 144.684C718.543 141.086 718.886 137.787 719.054 134.198C717.163 133.104 714.64 131.642 712.952 130.297Z"></path><path fill="#A8A7A7" d="M740.375 69.0227C741.138 68.8676 741.137 68.8882 741.634 69.4958C740.883 69.6385 740.881 69.6048 740.375 69.0227Z"></path></svg>
