<?xml version="1.0"?>
<svg xmlns="http://www.w3.org/2000/svg" viewBox="239.73 32.33 236.03 233.18" width="236.03" height="233.18"><defs><linearGradient id="gradient_0" gradientUnits="userSpaceOnUse" x1="272.89905" y1="199.90712" x2="267.26929" y2="203.3735"><stop offset="0" stop-color="#BFBEBE"></stop><stop offset="1" stop-color="#E2E2E2"></stop></linearGradient></defs><path fill="#D3D3D3" d="M309.153 55.3212C311.96 51.1812 343.693 41.4164 349.738 40.8601C355.487 40.3309 372.861 40.5413 378.711 41.85L379.415 42.1803C384.828 44.6814 391.165 46.3133 396.418 48.2757C405.029 51.4922 426.185 64.082 431.986 70.8756C447.832 86.9282 456.003 99.0696 461.678 120.524C462.727 124.489 465.263 131.674 465.66 135.537C467.764 152.745 465.8 174.853 459.185 191.038C449.992 211.029 438.076 228.308 419.787 240.699C417.512 242.24 412.589 246.555 410.097 246.851C404.201 248.17 398.435 250.978 392.574 252.507C381.612 255.368 369.617 257.508 358.247 257.242C353.465 257.13 345.324 257.134 340.852 256.131C338.918 257.301 336.379 256.441 334.1 255.932C318.868 252.533 295.86 242.227 287.218 228.681C283.745 226.696 276.132 216.7 273.288 213.207C265.329 203.432 259.965 192.729 255.759 180.933C253.372 176.481 247.734 150.588 248.39 145.78C249.631 136.672 255.309 115.152 259.592 106.879C265.114 93.1568 281.042 74.417 292.875 65.8431C297.66 62.3755 303.998 58.5739 309.153 55.3212Z"></path><path fill="#221F20" d="M359.522 110.399C363.651 112.381 368.756 115.716 372.847 118.123C379.083 121.736 385.379 125.246 391.731 128.653C394.35 130.059 399.623 132.999 402.316 133.856C401.252 136.149 399.528 153.273 399.436 156.731C398.097 164.87 397.653 173.035 396.452 180.986C388.689 183.195 380.87 185.199 373.002 186.996C370.64 187.552 361.444 189.535 359.505 190.272C357.332 190.459 354.402 191.21 352.207 191.698L340.085 173.555C335.247 164.601 329.957 155.516 324.886 146.674C330.653 141.396 336.413 134.519 341.782 128.631C346.817 123.109 354.695 116.1 359.134 110.538L359.522 110.399Z"></path><path fill="#221F20" d="M259.592 106.879C263.791 105.82 266.338 105.368 270.645 104.778C272.497 116.638 275.985 132.2 279.496 143.712C273.083 152.181 262.72 170.986 260.895 181.415C258.858 181.613 257.792 181.317 255.759 180.933C253.372 176.481 247.734 150.588 248.39 145.78C249.631 136.672 255.309 115.152 259.592 106.879Z"></path><path fill="#221F20" d="M309.153 55.3212C311.96 51.1812 343.693 41.4164 349.738 40.8601C355.487 40.3309 372.861 40.5413 378.711 41.85C379.029 43.9988 379.479 46.5563 379.612 48.6882C370.911 53.4997 359.018 63.3273 351.791 70.4131L350.633 70.6258C334.58 66.822 323.329 65.3987 306.987 64.7006C307.825 61.8267 308.508 58.2919 309.153 55.3212Z"></path><path fill="#221F20" d="M431.986 70.8756C447.832 86.9282 456.003 99.0696 461.678 120.524C462.727 124.489 465.263 131.674 465.66 135.537L462.619 136.998L462.077 136.774C457.182 132.657 451.631 127.913 446.402 124.339C442.271 120.699 436.161 116.824 431.495 113.776C430.016 103.98 430.194 93.407 429.036 83.6022C429.138 80.3897 428.695 76.5466 428.41 73.291L431.986 70.8756Z"></path><path fill="#221F20" d="M454.788 187.806L455.798 187.552L459.185 191.038C449.992 211.029 438.076 228.308 419.787 240.699C417.512 242.24 412.589 246.555 410.097 246.851C407.991 246.084 406 245.619 403.836 245.064C411.796 234.975 419.443 216.75 423.816 204.858C430.198 202.627 450.137 192.663 454.788 187.806Z"></path><path fill="#221F20" d="M282.742 218.201C285.049 219.073 288.347 220.366 290.657 221.001C302.35 224.711 313.832 227.158 326.173 227.118C330.5 233.673 342.513 246.327 348.211 252.076C345.466 253.39 343.294 254.287 340.852 256.131C338.918 257.301 336.379 256.441 334.1 255.932C318.868 252.533 295.86 242.227 287.218 228.681C285.884 225.099 284.193 221.937 282.742 218.201Z"></path><path fill="url(#gradient_0)" d="M255.759 180.933C257.792 181.317 258.858 181.613 260.895 181.415C262.072 183.522 262.083 185.574 263.608 188.188C265.379 191.222 267.237 194.175 269.038 197.178C270.618 199.714 272.304 202.183 274.093 204.577C276.276 208.01 278.75 210.839 281.19 213.968C284.006 217.578 287.359 217.436 290.657 221.001C288.347 220.366 285.049 219.073 282.742 218.201C284.193 221.937 285.884 225.099 287.218 228.681C283.745 226.696 276.132 216.7 273.288 213.207C265.329 203.432 259.965 192.729 255.759 180.933Z"></path><path fill="#DADAD9" d="M465.66 135.537C467.764 152.745 465.8 174.853 459.185 191.038L455.798 187.552C457.144 179.016 459.938 170.752 461.016 161.748C462.061 153.015 462.074 145.507 462.619 136.998L465.66 135.537Z"></path><path fill="#A8A7A7" d="M322.664 145.938C326.101 143.464 329.504 139.061 332.517 135.899C340.278 127.755 348.032 119.412 356.011 111.483C357.343 110.159 357.447 110.343 359.134 110.538C354.695 116.1 346.817 123.109 341.782 128.631C336.413 134.519 330.653 141.396 324.886 146.674C329.957 155.516 335.247 164.601 340.085 173.555L339.724 173.612C336.727 171.612 336.34 171.027 334.664 167.822C330.809 160.448 326.724 153.201 322.664 145.938Z"></path><path fill="#A8A7A7" d="M350.633 70.6258L351.791 70.4131C353.695 82.3412 359.228 96.1161 359.608 108.567C371.246 114.582 382.486 123.22 394.864 128.403C397.234 129.395 401.93 131.233 402.942 133.397L402.316 133.856C399.623 132.999 394.35 130.059 391.731 128.653C385.379 125.246 379.083 121.736 372.847 118.123C368.756 115.716 363.651 112.381 359.522 110.399C358.902 108.276 358.603 105.476 358.229 103.242C356.383 92.2071 353.463 81.4475 350.633 70.6258Z"></path><path fill="#A8A7A7" d="M462.077 136.774L462.619 136.998C462.074 145.507 462.061 153.015 461.016 161.748C459.938 170.752 457.144 179.016 455.798 187.552L454.788 187.806C454.969 185.552 455.357 184.85 455.95 182.621C459.167 170.534 460.914 157.97 461.547 145.5C461.699 142.528 461.618 139.65 462.077 136.774Z"></path></svg>
